<svg xmlns="http://www.w3.org/2000/svg" xmlns:xlink="http://www.w3.org/1999/xlink" viewBox="0 0 55.98 50"><defs><style>.cls-1{fill:url(#linear-gradient);}</style><linearGradient id="linear-gradient" x1="9.92" y1="50.79" x2="46.07" y2="14.64" gradientUnits="userSpaceOnUse"><stop offset="0" stop-color="#96724e"/><stop offset="1" stop-color="#c99d47"/></linearGradient></defs><g id="Layer_2" data-name="Layer 2"><g id="Layer_2-2" data-name="Layer 2"><path class="cls-1" d="M48.35,47.46A2.55,2.55,0,0,1,45.8,50H10.18a2.55,2.55,0,0,1-2.55-2.54V24.55H0L26.28.66a2.55,2.55,0,0,1,3.42,0L56,24.55H48.35Zm-29-15.76L16.8,33.15l2.54,4.41,2.53-1.45a8.9,8.9,0,0,0,3.58,2.06v2.91h5.09V38.17a8.93,8.93,0,0,0,3.57-2.06l2.53,1.45,2.55-4.41L36.66,31.7a9,9,0,0,0,0-4.12l2.53-1.46-2.55-4.41-2.53,1.46a9,9,0,0,0-3.57-2.07V18.19H25.45V21.1a8.92,8.92,0,0,0-3.58,2.07l-2.53-1.46L16.8,26.12l2.52,1.46a9,9,0,0,0,0,4.12ZM28,33.45a3.82,3.82,0,1,1,3.82-3.81A3.82,3.82,0,0,1,28,33.45Z"/></g></g></svg>