<svg id="bfd29f5a-88dc-4e47-bd8a-c9bcf844d8a9" data-name="Layer 1" xmlns="http://www.w3.org/2000/svg" viewBox="0 0 550 535.88"><defs><style>.af397dfb-f687-41d9-b1c5-4641d310b012{fill:#e5e5e4;}.b3abcaf5-b2f5-442a-8db3-0242d167cbff{fill:#bdbfbf;}.b9323369-6825-4986-9c22-ee3f27588121{fill:#d3d5d4;}.b3278c31-b385-4ad0-a9cd-9ff0c3fc7ac6{fill:#0b2b34;}.a9bfe636-352e-4190-8076-b7f4a1490853{fill:#25434c;}.fcefb410-eba0-4606-bd79-39e11eac1b7f{fill:#f27b6d;}.f3839a0f-dada-4895-94e0-9885ef79eab2{fill:#fec131;}.b20def12-0a84-4a96-94df-4eee7836c72e{fill:#fff;}.be6ad1db-fd57-4a73-bf70-ffc34f90a68e{fill:#f5b320;}.e85a33f5-14e0-4eb6-8f1c-0a6b1d6ca980{fill:#dedfde;}.f636141a-6647-4061-8e86-87b0db537821{fill:#04252d;}.b8bf5e16-b670-43eb-a938-cdaa10f9f2a2{fill:#f491b3;}.be653366-0fef-4247-bf16-7260532adc88{fill:#9b9e9f;}.bfce1ae8-eef0-42b7-8012-83a243b5a720{fill:#345863;}.bf0a9ded-63b0-407a-a7f0-185c4ebc0e1e{fill:#ffdd8f;}.b6024fa1-cf7d-4577-9929-5417bca0c004{fill:#ffd684;}.ba9b047a-15cd-4262-baf5-64b38c63b58d{fill:#ffc94c;}.a6600c88-2d7b-43f0-a214-f3934b5df5ee{fill:#ffc749;}.a029cf51-4dc3-4cc4-ad60-973ed195150e{fill:#fcb536;}.fd310905-dff8-40b4-9591-922d4422255c{fill:#eaaf27;}.eb254a0b-29d7-4ad5-b481-f5e73b2a734a{fill:#ffe19e;}</style></defs><path class="af397dfb-f687-41d9-b1c5-4641d310b012" d="M69,392.72l-.37-15.31.37.36c-6.47.08-12.94.22-19.41.24l-19.41.08.68-.68-.07,15.31-.61-.61c6.39,0,12.79.12,19.25.23l19.57.38Zm0,0-19.25.39c-6.49.11-13,.22-19.57.23h-.61v-.62l-.07-15.31v-.68h.69l19.41.09c6.47,0,12.94.16,19.41.23h.37v.36L69,392.72Z"/><path class="af397dfb-f687-41d9-b1c5-4641d310b012" d="M47.29,412l-.36-15.31.36.36c-6.47.08-12.94.22-19.41.24l-19.41.08.69-.68L9.09,412l-.62-.61c6.4,0,12.8.12,19.25.23l19.57.38Zm0,0L28,412.42c-6.48.11-13,.22-19.57.23H7.86V412l-.07-15.31V396h.68l19.41.08c6.47,0,12.94.16,19.41.24h.37v.36L47.29,412Z"/><path class="af397dfb-f687-41d9-b1c5-4641d310b012" d="M388.68,289l-.37-15.31.37.36c-6.47.07-12.94.22-19.41.23l-19.41.09.68-.68L350.47,289l-.61-.61c6.39,0,12.79.11,19.25.22l19.57.39m0,0-19.25.39c-6.49.11-13,.22-19.57.22h-.61V289l-.07-15.31V273h.69l19.41.09c6.47,0,12.94.16,19.41.24h.37v.36L388.68,289"/><path class="af397dfb-f687-41d9-b1c5-4641d310b012" d="M344.93,289l-.37-15.31.37.36c-6.47.07-12.94.22-19.41.23l-19.41.09.68-.68L306.72,289l-.61-.61c6.39,0,12.79.11,19.25.22l19.57.39Zm0,0-19.25.39c-6.49.11-13,.22-19.57.22h-.61V289l-.07-15.31V273h.69l19.41.09c6.47,0,12.94.16,19.41.24h.37v.36L344.93,289Z"/><path class="af397dfb-f687-41d9-b1c5-4641d310b012" d="M366.85,308.28,366.48,293l.37.36c-6.47.07-12.94.22-19.41.23l-19.41.09.68-.68-.07,15.31-.61-.61c6.39,0,12.79.11,19.25.22l19.57.39Zm0,0-19.25.39c-6.49.11-13,.22-19.57.22h-.61v-.61L327.34,293v-.69H328l19.41.09c6.47,0,12.94.16,19.41.23h.37V293l-.36,15.31Z"/><path class="af397dfb-f687-41d9-b1c5-4641d310b012" d="M520.55,412l-.36-15.31.36.36c-6.47.08-12.94.22-19.41.24l-19.41.08.69-.68L482.35,412l-.62-.61c6.4,0,12.8.12,19.25.23l19.57.38Zm0,0-19.25.39c-6.48.11-13,.22-19.57.23h-.61V412l-.07-15.31V396h.68l19.41.08c6.47,0,12.94.16,19.41.24h.37v.36L520.55,412Z"/><path class="af397dfb-f687-41d9-b1c5-4641d310b012" d="M498.9,23.6l-.37-15.31.37.36c-6.47.07-12.94.22-19.41.23L460.08,9l.68-.68-.07,15.31-.61-.61c6.39,0,12.79.11,19.25.22l19.57.39Zm0,0L479.65,24c-6.49.11-13,.22-19.57.22h-.61V23.6l-.07-15.31V7.6h.69l19.41.09c6.47,0,12.94.16,19.41.23h.37v.36L498.9,23.6Z"/><path class="af397dfb-f687-41d9-b1c5-4641d310b012" d="M520.55,42.91l-.36-15.31.36.36c-6.47.07-12.94.22-19.41.23l-19.41.09.69-.68-.07,15.31-.62-.61c6.4,0,12.8.11,19.25.22l19.57.39Zm0,0-19.25.39c-6.48.11-13,.22-19.57.22h-.61v-.61l-.07-15.31v-.69h.68l19.41.09c6.47,0,12.94.16,19.41.23h.37v.36l-.36,15.31Z"/><path class="af397dfb-f687-41d9-b1c5-4641d310b012" d="M47.29,23.6,46.93,8.29l.36.36c-6.47.07-12.94.22-19.41.23L8.47,9l.69-.68L9.09,23.6,8.47,23c6.4,0,12.8.11,19.25.22l19.57.39Zm0,0L28,24c-6.48.11-13,.22-19.57.22H7.86V23.6L7.79,8.29V7.6h.68l19.41.09c6.47,0,12.94.16,19.41.23h.37v.36L47.29,23.6Z"/><path class="af397dfb-f687-41d9-b1c5-4641d310b012" d="M244.55,153.78l-.36-15.32.36.36c-6.47.08-12.94.22-19.41.24l-19.41.09.68-.69-.07,15.32-.61-.62c6.4,0,12.8.12,19.25.23l19.57.39Zm0,0-19.25.38c-6.48.11-13,.22-19.57.23h-.61v-.61l-.07-15.32v-.68h.69l19.41.09c6.47,0,12.94.16,19.41.23h.37v.36l-.36,15.32Z"/><polyline class="b3abcaf5-b2f5-442a-8db3-0242d167cbff" points="67.18 102.06 67.18 0 65.81 0 65.81 102.06"/><polygon class="af397dfb-f687-41d9-b1c5-4641d310b012" points="132.98 166.15 127.63 177.9 5.34 177.9 0.01 166.15 52.07 130.11 80.91 130.11 132.98 166.15 132.98 166.15"/><polygon class="b9323369-6825-4986-9c22-ee3f27588121" points="84.53 95.39 80.91 130.11 52.07 130.11 48.46 95.39 84.53 95.39 84.53 95.39"/><polygon class="b9323369-6825-4986-9c22-ee3f27588121" points="132.97 166.15 127.63 177.91 5.33 177.91 0 166.15 132.97 166.15 132.97 166.15"/><polyline class="b3abcaf5-b2f5-442a-8db3-0242d167cbff" points="209.98 61.24 209.98 0 208.61 0 208.61 61.24"/><polygon class="af397dfb-f687-41d9-b1c5-4641d310b012" points="275.78 90.28 270.43 102.03 148.14 102.03 142.81 90.28 194.87 54.24 223.72 54.24 275.78 90.28 275.78 90.28"/><polygon class="b9323369-6825-4986-9c22-ee3f27588121" points="227.33 19.52 223.72 54.24 194.87 54.24 191.26 19.52 227.33 19.52 227.33 19.52"/><polygon class="b9323369-6825-4986-9c22-ee3f27588121" points="275.77 90.28 270.43 102.04 148.13 102.04 142.8 90.28 275.77 90.28 275.77 90.28"/><polygon class="b3278c31-b385-4ad0-a9cd-9ff0c3fc7ac6" points="529.02 535.2 462.89 535.53 396.77 535.65 264.51 535.88 132.26 535.65 66.13 535.53 0 535.2 66.13 534.86 132.26 534.74 264.51 534.52 396.77 534.75 462.89 534.87 529.02 535.2 529.02 535.2"/><path class="a9bfe636-352e-4190-8076-b7f4a1490853" d="M244.25,535.19H112.52c-1.08-4.24-2.13-8.41-3.18-12.52q-1.82-7.09-3.53-13.82c-.25-1-.51-2-.76-3-.87-3.44-1.72-6.8-2.56-10.05-.5-2-1-3.94-1.48-5.88s-1-3.9-1.49-5.79c-.13-.5-.25-1-.38-1.49s-.27-1.08-.4-1.62l-.51-1.95v0c-.18-.68-.35-1.35-.51-2-.34-1.26-.65-2.52-1-3.73q-.7-2.71-1.36-5.3c-.18-.75-.38-1.5-.56-2.23-.32-1.21-.62-2.37-.91-3.53-.2-.76-.38-1.52-.56-2.25q-1.18-4.53-2.17-8.51c-.19-.7-.35-1.39-.54-2.06-.28-1.15-.57-2.25-.83-3.32-.19-.67-.35-1.32-.5-1.95-.59-2.27-1.12-4.34-1.57-6.16-.14-.49-.25-.95-.37-1.4-.3-1.21-.58-2.28-.82-3.23-.1-.38-.18-.75-.28-1.08s-.18-.74-.27-1.05-.12-.47-.17-.67-.16-.64-.23-.9-.07-.29-.1-.4l-.3-1.19H213.46s4.22,14.56,11,38c1.37,4.77,2.85,9.93,4.44,15.41,4.49,15.64,9.73,33.9,15.37,53.67Z"/><path class="b3278c31-b385-4ad0-a9cd-9ff0c3fc7ac6" d="M134.09,535.19H130.8q-7.31-30.27-14.17-60.65-1.65-7.38-3.27-14.79l-.3-1.39a.2.2,0,0,1,.38-.1c0,.15.09.31.14.45,1.48,5.3,3,10.6,4.42,15.91,5.56,20.14,10.88,40.34,16.09,60.57Z"/><path class="b3278c31-b385-4ad0-a9cd-9ff0c3fc7ac6" d="M209.3,428.08l-5.66,28.33L199,479.65l-7.9,39.6-.82,4-1.35,6.76-1,5.13h-75.4c-1.07-4.26-2.14-8.43-3.17-12.52q-1.82-7.09-3.53-13.82c-.25-1-.51-2-.76-3-.87-3.44-1.72-6.8-2.56-10.05-.5-2-1-3.94-1.48-5.88s-1-3.9-1.49-5.79c-.13-.5-.25-1-.38-1.49s-.27-1.08-.4-1.62l-.51-1.95v0c-.18-.68-.35-1.35-.51-2-.34-1.26-.65-2.52-1-3.73q-.7-2.71-1.36-5.3c-.2-.76-.38-1.5-.56-2.23-.32-1.21-.62-2.37-.91-3.53-.2-.76-.38-1.52-.56-2.25q-1.18-4.53-2.17-8.51c-.19-.7-.35-1.39-.54-2.06-.28-1.15-.57-2.25-.83-3.32-.19-.67-.35-1.32-.5-1.95-.59-2.27-1.12-4.34-1.57-6.16-.14-.49-.25-.95-.37-1.4-.3-1.21-.58-2.28-.82-3.23-.1-.38-.18-.75-.28-1.08s-.18-.74-.27-1.05-.12-.47-.17-.67-.16-.64-.23-.9-.07-.29-.1-.4l-.3-1.19Z"/><path class="a9bfe636-352e-4190-8076-b7f4a1490853" d="M209.31,428v.05c-.05.7-.53,8.35-1.77,20-.35,3.4-.76,7.14-1.25,11.15-.75,6.33-1.68,13.3-2.83,20.68-2,12.87-4.54,26.91-7.88,40.63-1.19,5-2.49,9.84-3.88,14.63l-165.52.06c2-25.23,3.74-48,5.16-66,2-25.31,3.26-41.15,3.26-41.15L184.74,428Z"/><path class="b3278c31-b385-4ad0-a9cd-9ff0c3fc7ac6" d="M209,443.24c-.18,5.93-.43,11.84-.81,17.73-.4,6.39-1,12.77-1.82,19.15,0,.23-.05.46-.09.7q-1.17,9-2.68,17.88c-1,5.54-1.66,11.52-4.11,16.64a16.27,16.27,0,0,1-3.87,5.22,11.39,11.39,0,0,1-5.3,2.74,5.28,5.28,0,0,1-1,.17l-.28,0a.36.36,0,0,1,.18.35c-.07,2,0,4-.24,6l0,.25c-.2,1.72-.52,3.43-.83,5.13h-2.84l0-.1c.5-1.87.92-3.76,1.39-5.64s1.13-3.81,1.58-5.76l.14-.19c-3.61,0-7.25-1.87-8.55-5.36-.95-2.53-.52-5.17-.13-7.77.52-3.39,1-6.78,1.53-10.17,1-6.23,2.22-12.39,3.32-18.58.17-.94.34-1.89.51-2.82,2.22-12.61,4.54-25.21,7.32-37.7.1-.51.22-1,.34-1.55.06-.35.63-.25.6.08-.09.84-.17,1.69-.27,2.52q-.72,7.2-1.72,14.33c-.8,5.59-1.35,11.22-2.13,16.81q-.41,2.85-.82,5.71c-1.29,9.2-2.62,18.39-4.19,27.56-.74,4.26-3.39,11.89,2.73,13.2a6.22,6.22,0,0,0,4.16-.51c2.72-1.36,4.71-4.46,5.7-7.2,1.73-4.87,2.35-10.25,3.25-15.32q1.5-8.42,2.67-16.85h0q1.5-10.55,3.14-21.06c.55-3.57,1.12-7.14,1.68-10.71l.81-5c.06-.35.61-.25.61.1Z"/><path class="b3278c31-b385-4ad0-a9cd-9ff0c3fc7ac6" d="M62.49,487.24a83.76,83.76,0,0,0,20.42-2.74c3.08-.8,6.12-1.78,9.14-2.77a23.81,23.81,0,0,0,8.23-4.13c4.65-4,6.81-10.31,8.82-15.91a151.73,151.73,0,0,0,5.36-19.31c.07-.33.54-.22.55.09a74.83,74.83,0,0,1-2.78,21.92c-1.66,6.05-3.91,12.81-8.8,17.05-5.14,4.46-12.13,6-18.71,6.84a86.32,86.32,0,0,1-22.25-.3.37.37,0,0,1,0-.74Z"/><path class="b3278c31-b385-4ad0-a9cd-9ff0c3fc7ac6" d="M51,442.57q-.54,13.9-1.16,27.81-1.44,32.42-3.13,64.81h-3.1q2.13-32.48,4.49-64.91,1-13.86,2.1-27.72c.05-.52.82-.49.8,0Z"/><path class="fcefb410-eba0-4606-bd79-39e11eac1b7f" d="M171.47,264.73c26.15,39.45,90.17,112,122.45,122.52,18.62,6.05,97.11-7.43,115.36-12.61,9.65-2.74-27.15-81.63-37.55-79-10.66,2.72-59.84,12.91-67.85,13.27s-70.65-46.16-103.29-67.3c-41.17-26.66-50.54-9.23-29.12,23.09"/><path class="fcefb410-eba0-4606-bd79-39e11eac1b7f" d="M396.71,376.93c10.11-1.27,56.55-10.94,68.67-16.54s45.87-24.25,42.52-34-13.66-5.06-13.66-5.06,13-10.12,8.74-19.61-20.06-1.69-20.06-1.69,12.59-11.37,7.66-20.52-19.5,1.34-19.5,1.34,12-9.86,4.76-15.7c-8.69-7-28.76,13.67-42.61,18.84-3.14,1.18-65.46,19.29-65.46,19.29l28.94,73.62Z"/><path class="b3278c31-b385-4ad0-a9cd-9ff0c3fc7ac6" d="M472.35,280c-14.79,15.18-23.89,19.26-44.17,24.12-.4.09-.35.71.08.64,20.29-2.95,32.44-6.42,44.86-24.08.61-.86-.07-1.4-.77-.68Z"/><path class="b3278c31-b385-4ad0-a9cd-9ff0c3fc7ac6" d="M484.07,298.84c-16.74,14.42-26.56,18.93-47.43,25.59a.28.28,0,0,0,.14.53c21-4.82,33.06-8.56,47.89-25.16.67-.75.17-1.62-.6-1Z"/><path class="b3278c31-b385-4ad0-a9cd-9ff0c3fc7ac6" d="M493.17,321.67c-17.21,12.79-27.77,18.2-48.86,22.06a.39.39,0,0,0,.09.78c21.89-1.84,35.12-8.5,49.1-22.28,1-.94.75-1.37-.33-.56Z"/><path class="fcefb410-eba0-4606-bd79-39e11eac1b7f" d="M354.76,306.18s14.7-22.11,23.3-30.4,52-27.39,56.67-18.25c6,11.81-16.88,27.77-29.11,34.13,0,0,13.93,27.29,0,42.3s-50.84-27.78-50.84-27.78"/><path class="b3278c31-b385-4ad0-a9cd-9ff0c3fc7ac6" d="M435.32,261.32C433,276,416.44,283.34,405,290.39a1.23,1.23,0,0,0-.2,2c5.08,11.83,8.8,30,1.61,41.53a.31.31,0,0,0,.5.37c9.39-11.32,7.19-29.47.8-42.07,11.81-7.05,28.13-15.1,27.72-30.89l-.14,0"/><path class="f3839a0f-dada-4895-94e0-9885ef79eab2" d="M254.18,270.44l-30.8,75.19S173.09,279.35,157.32,248c-16.44-32.68-9.5-44.46,32.13-19.69,41.89,24.92,64.73,42.14,64.73,42.14"/><path class="f3839a0f-dada-4895-94e0-9885ef79eab2" d="M254.18,270.44l-14.63,35.71-16.17,39.48S173.09,279.35,157.32,248c-8.34-16.57-10.66-27.77-5.51-31.55s17.12-.35,37.63,11.85c41.9,24.94,64.74,42.15,64.74,42.15"/><path class="b20def12-0a84-4a96-94df-4eee7836c72e" d="M242,292.35c-11.16-2.51-21.39-8.09-32.67-10.2-9.21-1.71-19-.69-26.31,5.66-.24.21-.47.43-.7.66.24.36.49.72.73,1.09a25,25,0,0,1,12.38-6.41c11.42-2.26,22.83,2.53,33.34,6.41a90.46,90.46,0,0,0,15.71,4.65l.52-1.28c-1-.16-2-.35-3-.58m-29,39.36c.49.66,1,1.3,1.42,1.92.24.1.48.23.72.34a81.68,81.68,0,0,1,10.48,6.19l.5-1.21q-1.79-1.23-3.64-2.38a70.65,70.65,0,0,0-9.48-4.86m-6.41-93a52.67,52.67,0,0,1-6.36,11.41,67.33,67.33,0,0,1-18.86,17.48,70.7,70.7,0,0,1-9.56,5c.25.4.52.79.77,1.2a75.12,75.12,0,0,0,9.89-5.3,68.62,68.62,0,0,0,18.29-16.93,53.07,53.07,0,0,0,6.92-12.21l-1.09-.67m-44.21-23c.48.1,1,.23,1.47.38-.43.29-.85.6-1.27.9-4.46,3.19-8.83,6.5-13.16,9.88q-.1-.57-.15-1.11c4.29-3.42,8.58-6.93,13.11-10.05"/><path class="b3278c31-b385-4ad0-a9cd-9ff0c3fc7ac6" d="M239.16,270.21c-.93,1.7-1.64,3.55-2.41,5.33s-1.61,3.65-2.41,5.48c-1.63,3.7-3.19,7.44-4.74,11.18-3.09,7.46-6.21,14.92-9.17,22.45-.82,2.07-1.63,4.14-2.39,6.23s-1.44,4.45-2.24,6.64c-.05.13.15.19.21.07.82-1.83,1.8-3.59,2.63-5.42s1.68-3.75,2.48-5.64q2.37-5.59,4.64-11.21c3-7.38,6-14.75,8.84-22.19.79-2.08,1.56-4.16,2.35-6.24s1.79-4.35,2.41-6.59l-.2-.09"/><path class="be6ad1db-fd57-4a73-bf70-ffc34f90a68e" d="M223.38,345.63s-3.51-4.61-9-12c.24.09.47.22.71.33a81.68,81.68,0,0,1,10.48,6.19l.5-1.21q-1.79-1.23-3.64-2.38a71.73,71.73,0,0,0-9.47-4.86c-7.92-10.75-19.26-26.41-30-42.16a25.12,25.12,0,0,1,12.38-6.4,30.81,30.81,0,0,1,6.1-.58c7.89,0,15.68,2.69,23.1,5.45l4.48,5.43c-2.92,7.05-5.85,14.09-8.65,21.2-.82,2.07-1.63,4.14-2.39,6.23s-1.44,4.45-2.24,6.64a.1.1,0,0,0,.1.13.11.11,0,0,0,.11-.06c.82-1.83,1.8-3.59,2.63-5.42s1.68-3.75,2.48-5.64q2.37-5.59,4.64-11.21c1.44-3.55,2.89-7.1,4.32-10.66l9.47,11.49-16.17,39.48m-40.49-56.28c-3.56-5.23-7-10.47-10.32-15.53a75.12,75.12,0,0,0,9.89-5.3,69.85,69.85,0,0,0,15.25-13.13l25.35,30.76a88.81,88.81,0,0,0-13.76-4,42.68,42.68,0,0,0-7.72-.74c-6.73,0-13.32,1.81-18.59,6.4-.24.21-.47.43-.7.66l.6.88M172.5,273.71l-.3-.47.3.47m-.7-1.09c-5.89-9.18-11-17.74-14.48-24.63-4.31-8.55-7-15.67-7.91-21.08,4.33-3.38,8.7-6.69,13.16-9.88l.41-.29,2.94.07,31,37.55a68.51,68.51,0,0,1-15.51,13.24,71.85,71.85,0,0,1-9.56,5M149.27,226a22.41,22.41,0,0,1-.19-2.73c0-3.15.89-5.45,2.73-6.8l9.22.25c-4,2.87-7.91,6-11.77,9.11,0,0,0,.11,0,.17"/><path class="e85a33f5-14e0-4eb6-8f1c-0a6b1d6ca980" d="M225.61,340.16A81.68,81.68,0,0,0,215.13,334c-.24-.11-.47-.24-.71-.33h0L213,331.71h0a71.73,71.73,0,0,1,9.47,4.86q1.86,1.15,3.64,2.38l-.5,1.21M183,289.55l-.13-.2h0l-.6-.88c.23-.23.46-.45.7-.66,5.27-4.59,11.86-6.4,18.59-6.4a42.68,42.68,0,0,1,7.72.74,88.81,88.81,0,0,1,13.76,4L224.6,288c-7.42-2.76-15.21-5.45-23.1-5.45a30.81,30.81,0,0,0-6.1.58,25.12,25.12,0,0,0-12.38,6.4h0m-10.45-15.73-.07-.11h0l-.3-.47h0l-.4-.62h0a71.85,71.85,0,0,0,9.56-5,68.51,68.51,0,0,0,15.51-13.24l.84,1a69.85,69.85,0,0,1-15.25,13.13,75.12,75.12,0,0,1-9.89,5.3h0m-23.16-46.91c0-.32-.09-.64-.14-.94h0c0-.06,0-.12,0-.17,3.86-3.08,7.73-6.24,11.77-9.11l1.95.05-.41.29c-4.46,3.19-8.83,6.5-13.16,9.88h0"/><path class="f636141a-6647-4061-8e86-87b0db537821" d="M215.9,327.65a.1.1,0,0,1-.1-.13c.8-2.19,1.44-4.45,2.24-6.64s1.57-4.16,2.39-6.23c2.8-7.11,5.73-14.15,8.65-21.2l1,1.21c-1.43,3.56-2.88,7.11-4.32,10.66q-2.26,5.63-4.64,11.21-1.2,2.84-2.48,5.64c-.83,1.83-1.81,3.59-2.63,5.42a.11.11,0,0,1-.11.06"/><path class="f3839a0f-dada-4895-94e0-9885ef79eab2" d="M233.21,479.48l-212.32.62S39.41,320.35,117.36,226c18-21.85,47.1-10,59.34,1.62,31.1,29.44,57.1,251.1,56.51,251.87Z"/><path class="b20def12-0a84-4a96-94df-4eee7836c72e" d="M178.57,310.45c4.44,9,13.43,13.89,22.35,17.55,3.3,1.36,6.65,2.61,9.92,4-.08-.46-.18-.91-.27-1.36-5.18-2.19-10.46-4.16-15.52-6.7-8.61-4.33-17.52-12.13-17.4-22.61.12-9.62,9-16.45,17.75-18.19a29.56,29.56,0,0,1,4.24-.52c-.11-.38-.21-.77-.31-1.15A26.88,26.88,0,0,0,183,287.81a18.46,18.46,0,0,0-4.42,22.64Zm23,163.71c-3.18-8.64-3.2-18-2.77-27.09,1.07-22.73,5.54-45.69,2-68.4-2.73-17.4-10.22-35.05-24.95-45.57-7.49-5.34-17.78-8.78-26.31-3.71-7.22,4.27-11,12.91-11.11,21.07-.11,10.57,4.81,20.46,10,29.38s11,17.18,16.15,26,9.54,17.88,11.48,27.83a64.06,64.06,0,0,1-.88,27.86,65.73,65.73,0,0,1-7.59,18.17h1.55c.7-1.18,1.36-2.39,2-3.6a66.53,66.53,0,0,0,3.4-52.87c-7-19.22-21-34.65-29.69-53-4.43-9.39-7.29-20.56-2.66-30.43a20.8,20.8,0,0,1,8.83-9.7c4.65-2.47,10.07-2.3,15-.7,9.15,3,16.76,10.37,22,18.22A74.77,74.77,0,0,1,198.35,373c4.86,22.08,1,44.77-.55,67-.69,9.58-1.28,19.39.77,28.86a37,37,0,0,0,4,10.75h1.69a27.78,27.78,0,0,1-2.67-5.41Zm-96.27-30.57C96,443,88,448.8,82.75,456,77.27,463.47,74,472.26,69,480h1.53c2.07-3.24,3.85-6.69,5.58-10,4.48-8.69,9.41-18.43,18.63-22.93,4.31-2.09,9.45-3,14.12-1.58a15.43,15.43,0,0,1,9.46,8.78c3.55,8.06,2.2,17,2.69,25.57v0h1.31c-.41-7,.31-14-1.21-20.91-1.74-8-7.08-14.74-15.72-15.31ZM119,408.46a32.84,32.84,0,0,0,9.61-21.29c.41-7.34-1.93-15.11-7.77-19.9-6.7-5.47-15.82-5.72-23.76-3.15-9.16,3-16.26,9.3-22.47,16.44-6.77,7.78-12.68,16.65-20.92,23-5.59,4.33-12.64,7.87-19.85,8.33-.11.42-.21.86-.31,1.28a32,32,0,0,0,10.68-2.5c9-3.79,15.88-10.59,22.06-18,6.52-7.77,12.6-16.48,21.09-22.28,7.42-5.07,17.32-8.39,26.21-5.56,8.29,2.61,13.08,10.28,13.65,18.7a30.9,30.9,0,0,1-8.25,22.86c-6.6,7.19-15.54,11.66-24.57,15a276.63,276.63,0,0,1-32.15,9.33c-11.59,2.71-25.53,5.07-35.25,12.47-.14.72-.28,1.41-.41,2.11,9.72-8.15,24.63-10.57,36.67-13.4a266.47,266.47,0,0,0,32-9.33c8.64-3.22,17.17-7.48,23.72-14.11Zm15.75-128.84a73.13,73.13,0,0,0,47.74-11.1A71,71,0,0,0,193,260.28c-.16-.48-.31-.95-.48-1.4a68.55,68.55,0,0,1-11.2,8.72c-14.5,9.09-32.4,13.08-49.34,10.17-14.12-2.42-26.78-11.09-40.48-14.92l-.78,1.28A124.23,124.23,0,0,1,108.08,271c8.58,3.88,17.21,7.48,26.64,8.64ZM130,327.22c4.69-6.71,7-15.73,4-23.62-2.64-7.05-8.95-11.68-16.11-13.41a32.61,32.61,0,0,0-22.13,2.64c-8.94,4.54-15.43,12.57-23.47,18.39a38,38,0,0,1-7.26,4.15c-.24.56-.46,1.11-.69,1.65,8.64-3.27,15.08-10.16,22-16,3.69-3.14,7.66-6.16,12.17-8a32,32,0,0,1,11.83-2.35c7.77-.07,16.06,2.83,20.5,9.54,5,7.6,3.55,17.45-1,24.89-11.62,18.82-37.33,17.63-56.55,18a113.78,113.78,0,0,0-19.67,1.84c-.2.51-.38,1-.55,1.52a120,120,0,0,1,22.4-2c18.73-.24,42.48.06,54.53-17.17Zm31.43-109.39c-9.08,6.55-17.79,13.67-26.63,20.51-4.55,3.52-9,7.25-13.75,10.47-3.81,2.57-8.2,4.71-12.89,4.44a14.92,14.92,0,0,1-8.44-3.4c.15-.25.32-.51.49-.76a14.94,14.94,0,0,0,3.2,2c4.7,2.15,9.8,1.08,14.16-1.32,4.84-2.66,9.1-6.43,13.44-9.78q7.13-5.52,14.24-11.06c4.92-3.81,9.8-7.91,14.9-11.63.43.16.85.35,1.28.53Z"/><path class="fcefb410-eba0-4606-bd79-39e11eac1b7f" d="M109.16,282.42c0,52.1,16.55,161.65,46.54,185.51,39.37,31.32,121.43,37.13,147.42,37.76,11.33.28,17.6-74.91,8.78-83.22s-103.31-25.4-111.48-29.32-34.63-80.33-55.79-118.81c-26.69-48.53-35.47-35.7-35.47,8.08Z"/><path class="fcefb410-eba0-4606-bd79-39e11eac1b7f" d="M347.29,437.43c-5-3-3.43-5.59,6.76-6.89s51.62,2.22,51.62-12.33S347.15,399.53,330.35,403s-42.77,14.94-42.77,14.94c11.23,3.09,37.76,13.17,59.71,19.5Z"/><path class="fcefb410-eba0-4606-bd79-39e11eac1b7f" d="M274.06,502.61c31.95,7.53,71.27,18.86,106.64,7.9a18.37,18.37,0,0,0,9.86-6.87c15.94-4.63,18.54-13.55,18.54-13.55,13.53-8.86,14.93-18.34,14.93-18.34s18.66-5.64,17.12-17.49c-1.68-13.28-27.55-2.76-45.32-5.68-40.71-6.67-96.7-27.55-108.25-30.65l-13.52,84.68Z"/><path class="b3278c31-b385-4ad0-a9cd-9ff0c3fc7ac6" d="M348.25,471.56c12,1.73,23.78,3.74,36,3.83,13.38.1,26.26-2.05,39.44-3.91a.32.32,0,0,1,.13.63c-23.31,7.14-52.23,6.71-75.63,0-.56-.16-.51-.63.09-.55Z"/><path class="b3278c31-b385-4ad0-a9cd-9ff0c3fc7ac6" d="M340.65,495.55c11.79,1,32.52,2.71,68.36-5.84.12,0,.2.16.08.21-22.54,8.65-44.91,10.26-68.49,6.19-.73-.13-.74-.63,0-.56Z"/><path class="b3278c31-b385-4ad0-a9cd-9ff0c3fc7ac6" d="M336.8,508.51c20.11,1,32.92-.93,53.66-4.94.11,0,.19.18.06.22-23.09,7-32.26,7-53.85,5.41-.74-.05-.65-.73.13-.69Z"/><path class="f3839a0f-dada-4895-94e0-9885ef79eab2" d="M175,333.4l-66.06,47.31s-7.37-82.87-4.06-117.82c3.45-36.42,15.58-42.71,37.68.4C164.78,306.66,175,333.4,175,333.4Z"/><path class="b20def12-0a84-4a96-94df-4eee7836c72e" d="M174.51,332.18c-7.34-4.8-16.93-7.57-25-2.79-7.22,4.27-11,12.91-11.11,21.07a36.49,36.49,0,0,0,.93,8.43l1.22-.87c-1.29-6.11-1.16-12.42,1.57-18.26a20.8,20.8,0,0,1,8.83-9.7c4.65-2.47,10.07-2.3,15-.7a33.62,33.62,0,0,1,8.61,4.33l.41-.3s-.15-.41-.46-1.21Zm-24.39-53.84a66.92,66.92,0,0,1-18.1-.57c-9.6-1.65-18.5-6.17-27.54-10.1,0,.54,0,1.09-.08,1.65l3.68,1.66c8.58,3.88,17.21,7.48,26.64,8.64a69.1,69.1,0,0,0,16.07.07l-.67-1.35ZM118,290.19A32.13,32.13,0,0,0,104,290c0,.45,0,.89,0,1.32a31.77,31.77,0,0,1,6.37-.69c7.77-.07,16.06,2.83,20.5,9.54,5,7.6,3.55,17.45-1,24.89-5.52,8.93-14.22,13.36-23.88,15.58,0,.46.05.91.08,1.36,9.48-2.16,18.1-6.39,24-14.77,4.69-6.71,7-15.73,4-23.62-2.64-7.05-8.95-11.68-16.11-13.41Zm3.12-41.38c3-2,5.85-4.24,8.69-6.5-.19-.29-.42-.55-.63-.82-3.7,2.92-7.4,6-11.54,8.28A16.88,16.88,0,0,1,106.31,252c-.06.31-.11.65-.17,1a13.85,13.85,0,0,0,2,.28c4.69.27,9.08-1.87,12.89-4.44Zm2.57,121.35-1.16.83a18.29,18.29,0,0,0-8.95-6.15,22.33,22.33,0,0,0-6-1l-.09-1.25a21.68,21.68,0,0,1,13.34,4.71,18.46,18.46,0,0,1,2.84,2.89Z"/><path class="b3278c31-b385-4ad0-a9cd-9ff0c3fc7ac6" d="M162.38,325.21c-1.7,1-3.28,2.14-4.88,3.23l-5,3.37c-3.35,2.27-6.65,4.6-9.95,6.94-6.59,4.69-13.19,9.35-19.7,14.15-1.79,1.31-3.58,2.64-5.33,4s-3.59,3-5.43,4.43l.14.17c1.66-1.11,3.43-2.09,5.1-3.19s3.42-2.29,5.1-3.46q5-3.48,9.89-7c6.45-4.66,12.93-9.3,19.28-14.1,1.78-1.34,3.54-2.69,5.31-4s3.83-2.73,5.55-4.3l-.12-.19Z"/><path class="b3278c31-b385-4ad0-a9cd-9ff0c3fc7ac6" d="M155.59,281.79c-.05-.16-.3-.08-.28.08a61,61,0,0,0,2.16,9.21c-.63-1.3-1.24-2.62-1.88-3.92-2.06-4.19-4.2-8.34-6.25-12.53a.14.14,0,0,0-.25.11c3.08,7.55,5.86,15.23,9.17,22.69s6.61,14.91,10,22.31c1.88,4.08,4.53,9,6.43,13.05-1.72,1.64-4.24,3.31-6.11,5-.17.15.1.4.29.27,2.18-1.55,5.07-3,7.21-4.84.28-.24-11.39-26.89-17.32-39.39-1-4.05-2-8.09-3.21-12.08Z"/><path class="b3278c31-b385-4ad0-a9cd-9ff0c3fc7ac6" d="M119.18,374a50.56,50.56,0,0,0-5.42,2.81c-1.46.87-2.83,1.86-4.23,2.8,0-2.35-.28-4.72-.44-7.07-.2-2.79-.38-5.58-.57-8.37-.36-5.58-.74-11.16-1.09-16.75s-.73-11.17-1.06-16.76-.58-11.19-1-16.77c-.5-6.28-1-12.57-1.45-18.86a.22.22,0,0,0-.43,0q-.1,8.72,0,17.41c-.85-3.32-2-6.59-2.66-10,0-.23-.43-.16-.41.07.29,4.33.93,9,3.14,12.79.1,4.54.24,9.08.47,13.62.57,11.18,1.24,22.35,2.2,33.51q.41,4.71.86,9.41c.29,3.08.46,6.22,1.05,9.25a.71.71,0,0,0,1.19.28,44.47,44.47,0,0,1,4.93-3.79c1.64-1.17,3.32-2.3,5-3.4.12-.07,0-.3-.1-.23Z"/><path class="b3278c31-b385-4ad0-a9cd-9ff0c3fc7ac6" d="M183.31,234.22a100.71,100.71,0,0,1-.17,10.13,48.92,48.92,0,0,1-1.2,9.06c-1.37,5.37-4.64,10.59-10.43,12.72-5.53,2-11.6,1-16.49-1.41-5.35-2.63-9.78-6.76-13.88-10.8-2.54-2.5-5-5.1-7.26-7.8-1.16-1.36-2.34-2.72-3.43-4.15s-2.11-2.88-3.29-4.23c-.09-.11-.34,0-.25.13,2.35,3.25,9.53,13.55,11.81,16,4.14,4.53,8.63,9.13,14.21,12.16a23.85,23.85,0,0,0,17.73,2.5,17.53,17.53,0,0,0,12-12.11A36.36,36.36,0,0,0,184,245.93c0-3.92-.24-7.83-.56-11.72Z"/><path class="fcefb410-eba0-4606-bd79-39e11eac1b7f" d="M165.48,257.09c-13,1.28-32.11-20.91-38.57-37.68-.44-1.15,9.78-43.39,10.93-52,.23-1.76,52.13,20.32,52.13,20.32S182.25,205,180.33,220c-.15,1.26-2.25,35.84-14.85,37.09Z"/><path class="b3278c31-b385-4ad0-a9cd-9ff0c3fc7ac6" d="M190,187.75S182.25,205,180.32,220c0,.3-.17,2.46-.53,5.6-25.29-5.8-39.47-23.7-46.5-36.15,2.13-9.55,4.09-18.53,4.55-22,.24-1.76,52.13,20.3,52.13,20.3Z"/><path class="b3278c31-b385-4ad0-a9cd-9ff0c3fc7ac6" d="M188,83.51c3.14-.39,20.4,20.41,22.09,31.3s1,33.14-2.15,34-22.36-65-19.94-65.29Z"/><path class="fcefb410-eba0-4606-bd79-39e11eac1b7f" d="M119.05,114.44c-5.37,19.4,6.27,74.73,20.3,86.77,20.34,17.44,52.92,18.29,67.58-6C221.15,171.73,204.71,99.89,189.1,89c-23-16-62.1-3.25-70,25.41Z"/><path class="b3278c31-b385-4ad0-a9cd-9ff0c3fc7ac6" d="M166.37,135.34a47.25,47.25,0,0,1-4.56,2.13c-1.75.8-3.07,1.62-5.06,1.29a2.6,2.6,0,0,1-1.9-2.53c.18-2.45,2.09-4,4.17-5a9.42,9.42,0,0,1,6.74-.9c2.39.53,2.58,3.87.61,5Z"/><path class="b3278c31-b385-4ad0-a9cd-9ff0c3fc7ac6" d="M168.5,147.65c-.06-.13-.24.25-.2.4,1,3.67,1.63,8-1.41,10.12l.08.2c3.94-1.6,3.11-7.41,1.53-10.72Z"/><path class="b3278c31-b385-4ad0-a9cd-9ff0c3fc7ac6" d="M164.23,144.62c-6.06,1-3.53,13.09,2.09,12.12s3-13-2.09-12.12Z"/><path class="b3278c31-b385-4ad0-a9cd-9ff0c3fc7ac6" d="M189.88,142.61c0-.15.32.11.35.27.67,3.75,2.06,7.94,5.7,8.47.11,0,.14.21,0,.22-4.24.29-6-5.3-6.06-9Z"/><path class="b3278c31-b385-4ad0-a9cd-9ff0c3fc7ac6" d="M192.39,138c5.9-1.72,8.91,10.22,3.43,11.81s-8.38-10.37-3.43-11.81Z"/><path class="b3278c31-b385-4ad0-a9cd-9ff0c3fc7ac6" d="M195.4,130a50.07,50.07,0,0,1-5.05-.24c-1.94-.11-3.49,0-5.1-1.22a2.6,2.6,0,0,1-.51-3.14c1.3-2.1,3.7-2.55,6-2.51a9.46,9.46,0,0,1,6.41,2.35c1.88,1.58.49,4.65-1.79,4.76Z"/><path class="b3278c31-b385-4ad0-a9cd-9ff0c3fc7ac6" d="M172.64,182c1.08.68,2.22,1.7,3.6,1.53a10,10,0,0,0,3.81-1.79.13.13,0,0,1,.2.16,5.1,5.1,0,0,1-4.31,3c-1.75.06-2.89-1.22-3.63-2.68-.1-.2.17-.34.33-.24Z"/><path class="b3278c31-b385-4ad0-a9cd-9ff0c3fc7ac6" d="M174.21,170a13,13,0,0,0,9.67,3.87,16.59,16.59,0,0,0,4.62-.75,4.73,4.73,0,0,0,.85-.29c.26-.09.5-.17.79-.3a.94.94,0,0,0,.57-1v0a2.65,2.65,0,0,0-.12-.37v0l-.07-.32c-.53-2.89-1.73-7.2-1.73-7.2,1.16.3,7,1.58,6.62.1-3.35-12.27-7.08-25.92-13-37.42a.35.35,0,0,0-.66.24c2.76,11.92,7.6,23.28,10.56,35.2-1.84-.28-4.88-.9-6.38-.55-.38.2,2.46,8.29,2.6,9.6v.15c-4.7,1.63-8.64.94-14-1.32-.32-.15-.57.16-.28.41Z"/><path class="b3278c31-b385-4ad0-a9cd-9ff0c3fc7ac6" d="M186.49,172a15.34,15.34,0,0,1-5.05,5.94,7,7,0,0,1-4.06,1.13c-3.15-.16-3.8-2.88-3.74-5.33a16.81,16.81,0,0,1,.58-3.87A20,20,0,0,0,186.49,172Z"/><path class="b8bf5e16-b670-43eb-a938-cdaa10f9f2a2" d="M181.44,178a7,7,0,0,1-4.06,1.13c-3.15-.16-3.8-2.88-3.74-5.33,3.26-.35,6.88,1.16,7.8,4.2Z"/><path class="b3278c31-b385-4ad0-a9cd-9ff0c3fc7ac6" d="M126.72,162.63c10-.72,13.13-12.51,14-28.46.53-9.32-4.76-26.85-4.76-26.85s27.21,7.76,41.35,4.17,24.39-17.91,21.91-29.06c-2.12-9.56-20.43-19.47-42-16.92-15,1.78-38.32,17.85-46.85,35.7,0,0-17.35,12-12.25,25.77s17.16,36.47,28.56,35.65Z"/><path class="b3278c31-b385-4ad0-a9cd-9ff0c3fc7ac6" d="M127.24,161.39c13.48.65,17.2-20.09,15.87-30.36-1.39-10.68-7.2-20.77-10.73-30.84l.08,0c6.45,11.86,13.79,27,11.63,40.86-1.35,8.72-5.22,23.4-16.89,21.11-.4-.08-.39-.76,0-.73Z"/><path class="b3278c31-b385-4ad0-a9cd-9ff0c3fc7ac6" d="M94.61,123.15c.43-9.05,9-19.28,17-22.68l.07.12c-9.41,5.27-19.13,18.69-14.21,29.39,3.94,8.56,10.16,19.66,17.42,25.79.18.15-.06.41-.25.28-5.58-4-8.7-10-12.22-15.73-3.07-5-8.12-10.91-7.83-17.17Z"/><path class="b3278c31-b385-4ad0-a9cd-9ff0c3fc7ac6" d="M108.72,102.83c9-18.82,31.39-42.15,54-40.48v.11c-23.64.22-41.28,23.2-53.07,41-.34.52-1.14,0-.88-.59Z"/><path class="fcefb410-eba0-4606-bd79-39e11eac1b7f" d="M133.12,162.21s-13.26-17.5-21.26-12.71S114.3,180,124,183.19s12.87-5.73,12.87-5.73l-3.77-15.25Z"/><path class="b3278c31-b385-4ad0-a9cd-9ff0c3fc7ac6" d="M115,156.79a.13.13,0,0,0,0,.26c6.82,2.47,10.59,8.56,13.31,14.92-2.09-2.41-4.86-3.67-8.11-1.17-.17.13,0,.4.2.35,2.73-.69,4.73-.29,6.68,1.85a29,29,0,0,1,3.36,5.21c.33.59,1.41.23,1.15-.46l-.06-.15c-.15-8.56-7.26-20.29-16.49-20.81Z"/><path class="be653366-0fef-4247-bf16-7260532adc88" d="M403.22,31.83a111.91,111.91,0,0,1-.93-13,109.7,109.7,0,0,1,.45-13.06,109.6,109.6,0,0,1,.92,13,109.69,109.69,0,0,1-.44,13.06Z"/><path class="be653366-0fef-4247-bf16-7260532adc88" d="M343.65,48.45a110.44,110.44,0,0,1-7.31-10.83,108.55,108.55,0,0,1-6.15-11.52,107.51,107.51,0,0,1,7.32,10.82,111.5,111.5,0,0,1,6.14,11.53Z"/><path class="be653366-0fef-4247-bf16-7260532adc88" d="M300.38,92.63a112.81,112.81,0,0,1-11.75-5.72A110.79,110.79,0,0,1,277.54,80a108,108,0,0,1,11.75,5.71,110.88,110.88,0,0,1,11.09,6.92Z"/><path class="be653366-0fef-4247-bf16-7260532adc88" d="M285,152.52a109.75,109.75,0,0,1-13,.92A107.62,107.62,0,0,1,258.9,153a125.48,125.48,0,0,1,26.09-.48Z"/><path class="be653366-0fef-4247-bf16-7260532adc88" d="M301.61,212.09a110.44,110.44,0,0,1-10.83,7.31,108.55,108.55,0,0,1-11.52,6.15,107.51,107.51,0,0,1,10.82-7.32,111.5,111.5,0,0,1,11.53-6.14Z"/><path class="be653366-0fef-4247-bf16-7260532adc88" d="M508.52,210a110.84,110.84,0,0,1,11.75,5.72,107.77,107.77,0,0,1,11.08,6.91A124.25,124.25,0,0,1,508.52,210Z"/><path class="be653366-0fef-4247-bf16-7260532adc88" d="M523.91,150.06a111.76,111.76,0,0,1,13-.93,109.7,109.7,0,0,1,13.06.45,125.48,125.48,0,0,1-26.09.48Z"/><path class="be653366-0fef-4247-bf16-7260532adc88" d="M507.29,90.49a111.51,111.51,0,0,1,10.82-7.31A109.68,109.68,0,0,1,529.64,77a107.51,107.51,0,0,1-10.82,7.32,111.5,111.5,0,0,1-11.53,6.14Z"/><path class="be653366-0fef-4247-bf16-7260532adc88" d="M463.11,47.22a110.84,110.84,0,0,1,5.72-11.75,109,109,0,0,1,6.91-11.09A109.84,109.84,0,0,1,470,36.13a110.88,110.88,0,0,1-6.92,11.09Z"/><path class="f3839a0f-dada-4895-94e0-9885ef79eab2" d="M539.52,402.79c-18.1,24.51-37,52.95-41.57,83.69-.05.46.69.62.8.15a182.25,182.25,0,0,1,8-24.61c11.89-3.27,23.57-6,29.82-17.77,6.37-12.14,5.56-28,4.35-41.19-.08-.71-1-.74-1.41-.27Z"/><path class="b3278c31-b385-4ad0-a9cd-9ff0c3fc7ac6" d="M506.93,461.79c8.14-18.24,18.57-36.56,31.84-51.56l.14.15c-8.68,10.68-15.28,22.32-21.73,34.16,6-6.09,12.56-11.54,18.24-18,.11-.12.29.06.18.19-5.64,6.76-11.79,14.11-19.13,19.11-2,3.64-4,7.28-6,10.92.49-.27,1-.52,1.51-.77l.07.13c-.56.29-1.11.59-1.69.83-.95,1.73-1.9,3.45-2.88,5.17-.21.39-.75.05-.58-.34Z"/><path class="b3278c31-b385-4ad0-a9cd-9ff0c3fc7ac6" d="M513,455.43a107.69,107.69,0,0,0,13.9-9.27l.16.17a73.54,73.54,0,0,1-13.86,9.44.2.2,0,0,1-.2-.34Z"/><path class="f3839a0f-dada-4895-94e0-9885ef79eab2" d="M495.86,481.91c0,.37.67.37.66,0,.1-10.12,0-20.29.16-30.46,2.6-5.23,8.16-8.13,12-12.32a54,54,0,0,0,7.22-10.05,72.2,72.2,0,0,0,8.38-27.93c1.07-10.82-3-46.55-7.61-45.31-2.36.64-10,18.34-12.05,24.19a168.83,168.83,0,0,0-7.21,29.66c-3.7,23.82-3.39,48.28-1.58,72.25Z"/><path class="b3278c31-b385-4ad0-a9cd-9ff0c3fc7ac6" d="M495.79,438.25l0,0c.56-12.81,3.44-25.75,6.15-38.17,2.9-13.38,6.31-26,13.19-37.92a.2.2,0,0,1,.34.2,141.57,141.57,0,0,0-10.6,29.11c.46-.72,1-1.41,1.5-2.09.19-.27.64,0,.45.26a19.35,19.35,0,0,1-2.15,3l-.09,0c-2.37,9.57-4.07,19.35-5.53,29.11.11-.12.21-.26.32-.38l.15.12c-.18.32-.38.64-.58,1-.73,4.95-1.41,9.89-2.1,14.79,8.82-7.53,16.36-16.42,20.61-27.37l.08,0c-4.16,11.36-10.73,21.46-20.83,28.35-.18,1.32-.36,2.64-.55,3.95,0,.27-.48.2-.48-.06,0-1.17.06-2.34.11-3.51a.27.27,0,0,1,0-.42Z"/><path class="b3278c31-b385-4ad0-a9cd-9ff0c3fc7ac6" d="M499.94,419.69c6.74-10.06,13-19.83,18-30.95.06-.12.27,0,.22.09-4.15,11.05-10,22.25-17.85,31.12-.16.18-.47-.06-.34-.26Z"/><path class="b3278c31-b385-4ad0-a9cd-9ff0c3fc7ac6" d="M508.9,386.26c2.79-4.95,5.74-9.75,8.37-14.79.07-.14.26,0,.2.12a76.79,76.79,0,0,1-8.14,14.92c-.18.25-.59,0-.43-.25Z"/><path class="f3839a0f-dada-4895-94e0-9885ef79eab2" d="M489,452.64a103.45,103.45,0,0,1-2.36,19.94c.1.72.2,1.44.31,2.18a95.32,95.32,0,0,0,3.57-22.23.68.68,0,0,0,0-.68v0a147.11,147.11,0,0,0-2.24-30.12c-3.13-18.6-10-36.46-22.95-50.4a.93.93,0,0,0-1.44.3c-5.23,13.31-3.41,29.19,1.05,42.47a77.77,77.77,0,0,0,10.29,20.17c4.45,6.26,10.12,11.55,13.74,18.39Z"/><path class="b3278c31-b385-4ad0-a9cd-9ff0c3fc7ac6" d="M466.9,377.54c12.29,19.95,20.85,43.61,21.9,67.18,0,.42-.69.53-.75.11q-.44-3.18-.95-6.31h0c-5.09-4.87-10.31-10-13.95-16.1l.17-.14c4.43,5.06,8.56,10.24,13.55,14.75-.88-5.21-1.92-10.34-3.16-15.39l-1-1.14c-.21-.25.14-.62.37-.37l.29.33A177.6,177.6,0,0,0,477,400c-3.13-3.73-6.63-7-8.91-11.46l.17-.09c1.83,2.57,3.6,5.16,5.68,7.54.83,1,1.74,1.84,2.6,2.77a157.28,157.28,0,0,0-10.07-21,.28.28,0,0,1,.48-.28Z"/><path class="b3278c31-b385-4ad0-a9cd-9ff0c3fc7ac6" d="M469.38,402.16c4,5.34,8.51,10.45,12.2,16,.11.16-.12.33-.26.2-4.74-4.45-8.76-10.53-12.2-16-.11-.17.15-.31.26-.15Z"/><polygon class="b3278c31-b385-4ad0-a9cd-9ff0c3fc7ac6" points="482.14 419.37 482.31 419.54 482.13 419.73 481.96 419.56 482.14 419.37 482.14 419.37"/><path class="f3839a0f-dada-4895-94e0-9885ef79eab2" d="M447.64,415.9c1,10.27,6.38,22.53,13,30.44a32.26,32.26,0,0,0,10.52,8.21c4.56,2.26,9.33,4.85,14,6.7a91.74,91.74,0,0,1,5,17.66c.16-.51.31-1.05.46-1.56-3-26-19.85-48.21-41.36-62.47a1,1,0,0,0-1.6,1Z"/><path class="b3278c31-b385-4ad0-a9cd-9ff0c3fc7ac6" d="M455.07,423.58c-.15-.13.05-.41.22-.28,11.4,8.44,21.67,20.76,27.41,33.78.16.36-.33.67-.53.31-1-1.75-2-3.45-3.06-5.13h0c-4.91-.92-9.56-4.38-13.21-7.66l.15-.14a29.81,29.81,0,0,0,6.21,4.36,65.78,65.78,0,0,0,6.24,2.47c-1.82-2.88-3.72-5.65-5.7-8.34-5.28-1.8-10.31-5.05-14.76-8.3-.14-.1,0-.33.14-.24a146.08,146.08,0,0,0,13.72,7.34,124.26,124.26,0,0,0-9.68-11.3c-1.67-.88-3.37-1.76-5-2.7-.14-.08-.05-.31.1-.26a18,18,0,0,1,3.82,1.88c-1.94-2-3.94-3.9-6.08-5.79Z"/><path class="b3278c31-b385-4ad0-a9cd-9ff0c3fc7ac6" d="M455.53,432.55a5.94,5.94,0,0,1,.82.6l-.1.13a6.13,6.13,0,0,1-.86-.49c-.15-.09,0-.33.14-.24Z"/><polygon class="bfce1ae8-eef0-42b7-8012-83a243b5a720" points="524.17 535.2 465.22 535.2 469.98 481.51 471.02 469.67 518.37 469.67 519.42 481.51 524.17 535.2 524.17 535.2"/><polygon class="b3278c31-b385-4ad0-a9cd-9ff0c3fc7ac6" points="519.42 481.51 469.98 481.51 471.02 469.67 518.37 469.67 519.42 481.51 519.42 481.51"/><polygon class="bfce1ae8-eef0-42b7-8012-83a243b5a720" points="521.19 473.11 468.21 473.11 468.21 461.39 521.19 461.39 521.19 473.11 521.19 473.11"/><polygon class="f3839a0f-dada-4895-94e0-9885ef79eab2" points="285.23 71.75 296.66 69.64 299.22 57.59 301.77 69.64 313.2 71.76 301.82 74.54 299.22 85.92 296.62 74.54 285.23 71.75 285.23 71.75"/><polygon class="f3839a0f-dada-4895-94e0-9885ef79eab2" points="469.43 272.11 480.86 269.99 483.41 257.94 485.97 269.99 497.4 272.11 486.02 274.89 483.41 286.28 480.81 274.89 469.43 272.11 469.43 272.11"/><polygon class="f3839a0f-dada-4895-94e0-9885ef79eab2" points="318.01 246.82 324.4 245.64 325.82 238.91 327.25 245.64 333.64 246.83 327.28 248.38 325.82 254.75 324.37 248.38 318.01 246.82 318.01 246.82"/><polygon class="f3839a0f-dada-4895-94e0-9885ef79eab2" points="352.77 40.63 359.16 39.45 360.59 32.71 362.02 39.45 368.41 40.63 362.05 42.19 360.59 48.55 359.14 42.19 352.77 40.63 352.77 40.63"/><path class="f3839a0f-dada-4895-94e0-9885ef79eab2" d="M325.83,278.31a1.85,1.85,0,0,0,0-3.7,1.85,1.85,0,0,0,0,3.7Z"/><path class="f3839a0f-dada-4895-94e0-9885ef79eab2" d="M506.09,254.75a1.32,1.32,0,0,0,0-2.63,1.32,1.32,0,0,0,0,2.63Z"/><path class="f3839a0f-dada-4895-94e0-9885ef79eab2" d="M318.88,83.67a1.31,1.31,0,0,0,0-2.62,1.31,1.31,0,0,0,0,2.62Z"/><path class="f3839a0f-dada-4895-94e0-9885ef79eab2" d="M532.64,103.59a1.31,1.31,0,0,0,0-2.62,1.31,1.31,0,0,0,0,2.62Z"/><path class="f3839a0f-dada-4895-94e0-9885ef79eab2" d="M515.86,115.64c4.57,0,4.58-7.1,0-7.1s-4.58,7.1,0,7.1Z"/><path class="bf0a9ded-63b0-407a-a7f0-185c4ebc0e1e" d="M439.46,273.23h-3s4.6-31.84,8.13-40.59c0,0,48-17.36,52.57-74.95,3.2-40-25.3-99.17-92.37-99.18h-.7c-67.07,0-95.57,59.17-92.37,99.18,4.59,57.59,52.57,74.95,52.57,74.95,3.39,8.4,7.76,38.07,8.11,40.44l-3,0c-.46-2.16-5.18-24.64-8.86-33.74,0,0-52.45-19-57.48-81.95-3.49-43.75,27.66-108.42,101-108.43h.76c73.34,0,104.49,64.68,101,108.43-5,63-57.49,81.95-57.49,81.95-3.85,9.57-8.88,33.91-8.88,33.91"/><path class="b6024fa1-cf7d-4577-9929-5417bca0c004" d="M372.43,273.23h-3l0-.17,3,0c0,.1,0,.15,0,.15"/><path class="ba9b047a-15cd-4262-baf5-64b38c63b58d" d="M436.47,273.23h-4.32a21.11,21.11,0,0,0,3.15-8.62,9.58,9.58,0,0,0-.57-7.08c-.87-1.69-3.07-2.42-6.13-2.42-11.9,0-36.83,10.9-47.26,18.08-3,0-6-.09-8.93-.11-.35-2.37-4.72-32-8.11-40.44,0,0-48-17.36-52.57-74.95-3.2-40,25.3-99.17,92.37-99.18h.7c67.07,0,95.57,59.17,92.37,99.18-4.6,57.59-52.57,74.95-52.57,74.95-3.53,8.75-8.13,40.59-8.13,40.59m46.7-120.84c-3.81,0-6.37,24.05-11,33-6,11.57-21.14,27.2-17.68,29.84a1.53,1.53,0,0,0,.93.27c4.61,0,18.53-13.59,25.08-29.57,5.87-14.35,6.89-32.49,2.93-33.54l-.24,0m.24-15.47c-5.91,0-5.92,9.2,0,9.2s5.93-9.2,0-9.2M379.69,74.44c-9.31,0-26.15,8.45-35.95,19.81-21.72,25.16-21.53,47.92-18.57,48.41h.15c3.2,0,7.51-16.37,25.08-35.28,7.93-8.53,38-19.21,35.83-29.06-.59-2.69-3-3.89-6.54-3.89"/><path class="a6600c88-2d7b-43f0-a214-f3934b5df5ee" d="M381.28,273.23h-8.85s0-.05,0-.15c3,0,5.95.07,8.93.11l-.06,0"/><path class="a029cf51-4dc3-4cc4-ad60-973ed195150e" d="M429.52,273.23H381.28l.06,0c10.43-7.18,35.36-18.08,47.26-18.08,3.06,0,5.26.73,6.13,2.42a9.58,9.58,0,0,1,.57,7.08,21.85,21.85,0,0,0,.16-3.27l-.14,0a23.4,23.4,0,0,1-5.8,11.91"/><path class="fd310905-dff8-40b4-9591-922d4422255c" d="M432.15,273.23h-2.63a23.4,23.4,0,0,0,5.8-11.91l.14,0a21.85,21.85,0,0,1-.16,3.27,21.11,21.11,0,0,1-3.15,8.62"/><polyline class="b20def12-0a84-4a96-94df-4eee7836c72e" points="389.45 278.81 368.87 168.56 364.83 169.31 385.41 279.56"/><polyline class="b20def12-0a84-4a96-94df-4eee7836c72e" points="423.52 279.55 444.07 169.3 440.04 168.55 419.49 278.8"/><path class="b20def12-0a84-4a96-94df-4eee7836c72e" d="M367.93,173.27a63,63,0,0,0,3.3,10.93,28.59,28.59,0,0,0,4.42,7.61c1.83,2.1,4.1,3.6,6.81,3.6h0v-.67l-.07.67h.07v-.67l-.07.67h.07a7.48,7.48,0,0,0,5.09-2.45,26.6,26.6,0,0,0,5.71-9.55,35.32,35.32,0,0,0,2.3-11.71,13.31,13.31,0,0,0-1.57-6.87,6,6,0,0,0-2.2-2.17,6.33,6.33,0,0,0-3.22-.79h-.05l0,.68v-.68a5.11,5.11,0,0,0-2.75.73,6.18,6.18,0,0,0-2.5,3.36,15.78,15.78,0,0,0-.74,5.14c0,6.33,2.44,14.79,6.35,21.76a33.36,33.36,0,0,0,6.89,8.85,13.38,13.38,0,0,0,8.64,3.68v0h0v-.68l-.06.68h.06v-.68l-.06.68h.06a12.36,12.36,0,0,0,8.25-3.55c3.63-3.26,6.53-8.36,8.56-13.82A48.63,48.63,0,0,0,424.42,172a16.27,16.27,0,0,0-1.28-7.06,5.75,5.75,0,0,0-1.78-2.21,4.44,4.44,0,0,0-2.65-.83h-.06l.06.68v-.68a5.69,5.69,0,0,0-3.34,1,8.8,8.8,0,0,0-3.06,4.56,21.27,21.27,0,0,0-1,6.67,31.39,31.39,0,0,0,3.81,15,17.33,17.33,0,0,0,4.75,5.5,11.26,11.26,0,0,0,6.68,2.2h0v-.67l0,.67h0v-.67l0,.67h0a6.5,6.5,0,0,0,3.39-1,16.6,16.6,0,0,0,4.86-5.19c4.24-6.55,6.82-15.89,6.83-15.93l-1.32-.36s-.09.33-.27.91A71.33,71.33,0,0,1,435.34,187a26.63,26.63,0,0,1-4.1,6c-1.51,1.55-3.08,2.45-4.65,2.44v.69l0-.69h0a9.87,9.87,0,0,1-5.88-1.94,18.4,18.4,0,0,1-5.93-8.39,31.17,31.17,0,0,1-2.06-11,17.5,17.5,0,0,1,1.57-7.86,6.27,6.27,0,0,1,1.87-2.26,4.29,4.29,0,0,1,2.55-.79h.06l-.06-.68v.68h.06l-.06-.68v.68a3.06,3.06,0,0,1,1.85.57,5.52,5.52,0,0,1,1.85,3,17.86,17.86,0,0,1,.64,5.19,48.92,48.92,0,0,1-5.32,20.72,28.27,28.27,0,0,1-6,8.15,11,11,0,0,1-7.33,3.19v.69l.07-.69h-.07v0h0v0a12,12,0,0,1-7.74-3.35c-3.68-3.17-6.9-8.31-9.17-13.78a43.62,43.62,0,0,1-3.6-15.79,12,12,0,0,1,1.17-5.82,4.13,4.13,0,0,1,1.41-1.51,3.82,3.82,0,0,1,2-.54h.05l0-.66v.66h0l0-.66v.66a5.2,5.2,0,0,1,2.55.62,5.44,5.44,0,0,1,2.31,2.93,14.17,14.17,0,0,1,.76,4.92,35.06,35.06,0,0,1-3.76,14.77,20.7,20.7,0,0,1-3.84,5.51,6.21,6.21,0,0,1-4.13,2.07v.68l.07-.68h-.07c-2.18,0-4.08-1.2-5.77-3.14-2.53-2.9-4.41-7.4-5.63-11.15-.61-1.87-1.05-3.56-1.35-4.78-.14-.61-.25-1.11-.33-1.45s-.1-.51-.1-.51l-1.35.25Z"/><polygon class="bfce1ae8-eef0-42b7-8012-83a243b5a720" points="448.31 321.59 360.59 321.59 360.59 273.32 448.31 273.32 448.31 321.59 448.31 321.59"/><path class="bfce1ae8-eef0-42b7-8012-83a243b5a720" d="M438.36,321.59c-5.15,9.15-15.05,17.33-33.91,17.33s-28.76-8.18-33.91-17.33Z"/><path class="a9bfe636-352e-4190-8076-b7f4a1490853" d="M438.36,321.59a32.52,32.52,0,0,1-5.68,7.42l-60.39-4.63a30.76,30.76,0,0,1-1.75-2.79Z"/><polygon class="a9bfe636-352e-4190-8076-b7f4a1490853" points="450.87 282.52 358.03 291.11 358.03 286.9 450.87 278.31 450.87 282.52 450.87 282.52"/><polygon class="a9bfe636-352e-4190-8076-b7f4a1490853" points="450.87 295.27 358.03 303.85 358.03 299.64 450.87 291.06 450.87 295.27 450.87 295.27"/><polygon class="a9bfe636-352e-4190-8076-b7f4a1490853" points="450.87 308.01 358.03 316.6 358.03 312.38 450.87 303.8 450.87 308.01 450.87 308.01"/><path class="eb254a0b-29d7-4ad5-b481-f5e73b2a734a" d="M325.32,142.67h-.15c-3-.49-3.15-23.25,18.57-48.41,9.8-11.36,26.64-19.81,35.95-19.81,3.51,0,5.95,1.2,6.54,3.89,2.17,9.85-27.9,20.53-35.83,29.06-17.57,18.91-21.88,35.29-25.08,35.28"/><path class="eb254a0b-29d7-4ad5-b481-f5e73b2a734a" d="M483.41,146.12c-5.92,0-5.91-9.2,0-9.2s5.92,9.2,0,9.2"/><path class="eb254a0b-29d7-4ad5-b481-f5e73b2a734a" d="M455.4,215.53a1.53,1.53,0,0,1-.93-.27c-3.46-2.64,11.69-18.27,17.68-29.84,4.65-9,7.21-33,11-33l.24,0c4,1.05,2.94,19.19-2.93,33.54-6.55,16-20.47,29.57-25.08,29.57"/></svg>