<?xml version="1.0" encoding="utf-8"?>
<!-- Generator: Adobe Illustrator 25.4.1, SVG Export Plug-In . SVG Version: 6.00 Build 0)  -->
<svg version="1.1" id="Layer_1" xmlns="http://www.w3.org/2000/svg" xmlns:xlink="http://www.w3.org/1999/xlink" x="0px" y="0px"
	 viewBox="0 0 421.8 460.1" style="enable-background:new 0 0 421.8 460.1;" xml:space="preserve">
<style type="text/css">
	.st0{fill:#EBEBEB;}
	.st1{fill:#C7C7C7;}
	.st2{fill:#DBDBDB;}
	.st3{fill:#A6A6A6;}
	.st4{fill:#FFFFFF;}
	.st5{fill:#FFC727;}
	.st6{fill:#263238;}
	.st7{fill:#455A64;}
	.st8{opacity:0.2;fill:#FFC727;enable-background:new    ;}
	.st9{fill:#AD6359;}
	.st10{fill:#37474F;}
	.st11{opacity:0.1;enable-background:new    ;}
	.st12{fill:#FF99BA;}
</style>
<g>
	<g id="freepik--background-complete--inject-12">
		<path class="st0" d="M43.7,325.2l-13.1,0.3l-6.7,0.1c-2.2,0-4.5,0-6.7,0h-0.4v-0.5L16.7,314v-0.5h0.5l13.2,0.1
			c4.4,0,8.8,0.1,13.2,0.2H44v0.3c0,1.9-0.1,3.8-0.1,5.6L43.7,325.2z M43.7,325.2l-0.1-5.7c0-1.9-0.1-3.7-0.1-5.5l0.3,0.3
			c-4.4,0-8.8,0.2-13.2,0.2l-13.2,0.1l0.5-0.5v11.2l-0.5-0.5c2.2,0,4.4,0,6.5,0.1l6.6,0.1L43.7,325.2z"/>
		<path class="st0" d="M28.9,339.4l-13.1,0.3l-6.7,0.1c-2.2,0-4.5,0-6.7,0H2v-0.5L2,328.2v-0.5h0.5l13.2,0.1c4.4,0,8.8,0.1,13.2,0.2
			h0.3v0.3c0,1.9-0.1,3.8-0.1,5.6L28.9,339.4z M28.9,339.4l-0.1-5.7c-0.1-1.9-0.1-3.7-0.1-5.5l0.3,0.3c-4.4,0-8.8,0.2-13.2,0.2
			l-13.2,0.1l0.5-0.5l0,11.2l-0.5-0.5c2.2,0,4.4,0,6.5,0.1l6.6,0.1L28.9,339.4z"/>
		<path class="st0" d="M219.2,365.1l-13.1,0.3l-6.7,0.1c-2.2,0-4.5,0-6.7,0.1h-0.4v-0.5l-0.1-11.2v-0.5h0.5l13.2,0.1
			c4.4,0,8.8,0.1,13.2,0.2h0.3v0.3c0,1.9-0.1,3.8-0.1,5.6L219.2,365.1z M219.2,365.1l-0.1-5.6c0-1.9-0.1-3.7-0.1-5.5l0.3,0.3
			c-4.4,0-8.8,0.2-13.2,0.2l-13.2,0.1l0.5-0.5v11.2l-0.4-0.5c2.2,0,4.4,0,6.6,0.1l6.6,0.1L219.2,365.1z"/>
		<path class="st0" d="M204.5,379.2l-13.1,0.3l-6.7,0.1c-2.2,0-4.5,0-6.7,0.1h-0.4v-0.5V368v-0.5h0.5l13.2,0.1
			c4.4,0,8.8,0.1,13.2,0.2h0.3v0.2c0,1.9-0.1,3.8-0.1,5.6L204.5,379.2z M204.5,379.2l-0.1-5.6c0-1.9-0.1-3.7-0.1-5.5l0.3,0.3
			c-4.4,0-8.8,0.2-13.2,0.2l-13.2,0.1l0.5-0.5l-0.1,11.2l-0.4-0.5c2.2,0,4.4,0,6.5,0.1l6.6,0.1L204.5,379.2z"/>
		<path class="st0" d="M189.8,365.1l-13.1,0.3l-6.7,0.1c-2.2,0-4.5,0-6.7,0.1h-0.4v-0.5v-11.2v-0.5h0.5l13.2,0.1
			c4.4,0,8.8,0.1,13.2,0.2h0.3v0.3c0,1.9-0.1,3.8-0.1,5.6L189.8,365.1z M189.8,365.1l-0.1-5.6c0-1.9-0.1-3.7-0.1-5.5l0.3,0.3
			c-4.4,0-8.8,0.2-13.2,0.2l-13.2,0.1l0.5-0.5v11.2l-0.4-0.5c2.2,0,4.4,0,6.5,0.1l6.6,0.1L189.8,365.1z"/>
		<path class="st0" d="M419.8,339.4l-13.1,0.3l-6.7,0.1c-2.2,0-4.5,0-6.7,0h-0.5v-0.5l0-11.2v-0.5h0.5l13.2,0.1
			c4.4,0,8.8,0.1,13.2,0.2h0.3v0.3c0,1.9-0.1,3.8-0.1,5.6L419.8,339.4z M419.8,339.4l-0.1-5.7c0-1.9-0.1-3.7-0.1-5.5l0.3,0.3
			c-4.4,0-8.8,0.2-13.2,0.2l-13.2,0.1l0.5-0.5l-0.1,11.2l-0.4-0.5c2.2,0,4.4,0,6.5,0.1l6.6,0.1L419.8,339.4z"/>
		<path class="st0" d="M405,56.9l-13.1,0.3l-6.7,0.1c-2.2,0-4.5,0-6.7,0h-0.4v-0.4V45.7v-0.5h0.5l13.2,0.1c4.4,0,8.8,0.1,13.2,0.2
			h0.3v0.3c0,1.9-0.1,3.8-0.1,5.7L405,56.9z M405,56.9l-0.1-5.7c0-1.9-0.1-3.7-0.1-5.5L405,46c-4.4,0-8.8,0.2-13.2,0.2l-13.2,0.1
			l0.5-0.5L379,56.9l-0.4-0.5c2.2,0,4.4,0,6.5,0l6.6,0.1L405,56.9z"/>
		<path class="st0" d="M419.8,71l-13.1,0.3l-6.7,0.1c-2.2,0-4.5,0-6.7,0h-0.5V71l0-11.2v-0.5h0.5l13.2,0.1c4.4,0,8.8,0.1,13.2,0.2
			h0.3v0.3c0,1.9-0.1,3.8-0.1,5.6L419.8,71z M419.8,71l-0.1-5.7c0-1.9-0.1-3.7-0.1-5.5l0.3,0.3c-4.4,0-8.8,0.2-13.2,0.2l-13.2,0.1
			l0.5-0.5L393.7,71l-0.4-0.4c2.2,0,4.4,0,6.5,0l6.6,0.1L419.8,71z"/>
		<path class="st0" d="M28.9,56.9l-13.1,0.3l-6.7,0.1c-2.2,0-4.5,0-6.7,0H2v-0.4L2,45.7v-0.5h0.5l13.2,0.1c4.4,0,8.8,0.1,13.2,0.2
			h0.3v0.3c0,1.9-0.1,3.8-0.1,5.7L28.9,56.9z M28.9,56.9l-0.1-5.7c-0.1-1.9-0.1-3.7-0.1-5.5l0.3,0.3c-4.4,0-8.8,0.2-13.2,0.2
			L2.5,46.2L3,45.7l0,11.2l-0.5-0.5c2.2,0,4.4,0,6.5,0l6.6,0.1L28.9,56.9z"/>
		<rect x="30.6" class="st1" width="1" height="87.6"/>
		<polygon class="st0" points="61.5,117 59.1,122.4 3.1,122.4 0.7,117 24.5,100.5 37.7,100.5 		"/>
		<polygon class="st2" points="39.4,84.6 37.7,100.5 24.5,100.5 22.8,84.6 		"/>
		<polygon class="st2" points="61.5,117 59.1,122.4 3.1,122.4 0.7,117 		"/>
		<rect x="95.9" class="st1" width="1" height="70.3"/>
		<polygon class="st0" points="126.9,99.6 124.4,105 68.5,105 66,99.6 89.8,83.1 103,83.1 		"/>
		<polygon class="st2" points="104.7,67.2 103,83.1 89.8,83.1 88.2,67.2 		"/>
		<polygon class="st2" points="126.9,99.6 124.4,105 68.5,105 66,99.6 		"/>
		<rect x="276.2" y="241.2" class="st2" width="104" height="144"/>
		<rect x="271.2" y="235.9" class="st0" width="114.1" height="5.3"/>
		<rect x="385.3" y="235.9" class="st2" width="35.9" height="5.3"/>
		<rect x="380.2" y="241.2" class="st0" width="35.2" height="144"/>
		<path class="st3" d="M369,307.9h-81.6v-46.1H369V307.9z M287.6,307.6h81.1V262h-81.1V307.6z"/>
		<rect x="316.8" y="275.2" class="st3" width="15.9" height="9.1"/>
		<path class="st3" d="M337.5,283.8h-16.1v-8h16.1L337.5,283.8z M321.6,283.5h15.6V276h-15.6V283.5z"/>
		<path class="st3" d="M369,365.8h-81.6v-46.1H369V365.8z M287.6,365.6h81.1V320h-81.1V365.6z"/>
		<rect x="316.8" y="333.2" class="st3" width="15.9" height="9.1"/>
		<path class="st3" d="M337.5,341.8h-16.1v-8h16.1L337.5,341.8z M321.6,341.5h15.6V334h-15.6V341.5z"/>
		<g id="freepik--ZZtZDI--inject-12">
			<path class="st0" d="M84.3,265.1c-1.1,1-2.5,1.8-4,2.1c-1,0.2-1.9,0.4-2.9,0.5h-3.3c-1.3-0.2-2.7-0.4-4-0.6
				c-4.9-1.1-9.6-3.1-13.7-6c-10.9-7.2-20.1-16.6-26.9-27.7c-2.3-3.7-3.9-7.7-4.6-12c-0.2-1.1-0.3-2.2-0.5-3.4v-3.3
				c0.3-1.3,0.5-2.5,0.8-3.8c0.3-1.2,0.9-2.2,1.8-3.1c0.2,0.1,0.3,0.3,0.4,0.4c5.2,5.2,10.5,10.5,15.7,15.7c0.4,0.3,0.5,0.8,0.3,1.2
				c-0.8,2.6-0.2,5.5,1.7,7.5c4.5,5.1,9.3,9.8,14.3,14.3c2.1,1.9,4.9,2.5,7.6,1.7c0.4-0.1,0.7-0.2,1,0.2
				c5.3,5.4,10.7,10.7,16.1,16.1C84.1,265,84.2,265,84.3,265.1z"/>
			<path class="st0" d="M94.5,253.4v1.1c-0.5,0.6-1,1.4-1.5,2c-1.6,1.7-3.3,3.3-4.9,4.9l-0.5,0.5l-16.1-16.2
				c2.1-2.1,4.2-4.2,6.4-6.3c1-0.9,2.5-0.9,3.4,0.1c0,0,0.1,0.1,0.1,0.1c1.2,1.2,2.4,2.4,3.6,3.6c2.8,2.8,5.6,5.6,8.4,8.4
				C93.7,252.2,94.2,252.8,94.5,253.4z"/>
			<path class="st0" d="M52.2,214.8c-2,1.9-4,3.8-6,5.7l-16-16c0.4-0.3,0.8-0.6,1.1-1c1.5-1.5,2.9-3,4.4-4.4c0.6-0.5,1.2-1,1.9-1.5
				h1.1c0.6,0.4,1.2,0.8,1.7,1.3c3.9,3.9,7.8,7.8,11.7,11.7C53.7,212.1,53.7,213.4,52.2,214.8z"/>
		</g>
		<rect x="292.7" y="45" class="st2" width="105.2" height="58.9"/>
		<polygon class="st2" points="273,103.8 292.7,103.8 292.7,83.3 		"/>
		<rect x="305.1" y="75.7" class="st4" width="70.4" height="1.3"/>
		<rect x="305.1" y="82.5" class="st4" width="55.9" height="1.3"/>
		<rect x="305.1" y="62" class="st4" width="60.1" height="1.3"/>
		<rect x="305.1" y="55.2" class="st4" width="78.5" height="1.3"/>
		<rect x="305.1" y="89.4" class="st4" width="61.7" height="1.3"/>
	</g>
	<g id="freepik--Shadow--inject-12">
		<ellipse class="st0" cx="238.1" cy="441.4" rx="171.1" ry="18.7"/>
	</g>
	<g id="freepik--Plant--inject-12">
		<path class="st5" d="M48.1,276.6c0.8,5.5,0.5,11.1-0.8,16.5c-0.6,2.5-1.5,4.9-2.5,7.3c-1.3,3-2.7,6-2.4,9.3
			c0.3,0.2-0.8,0.2-0.8-0.1c-8.8-5-20.2-6-27-14.2c-3.2-3.9-4.8-8.8-5.6-13.8c-0.8-5.4-1.1-11.3,0.3-16.6c1.2-4.5,3.8-8.8,8-11
			s10-2.1,14.6-0.6C41.8,256.4,46.7,267,48.1,276.6z"/>
		<path class="st6" d="M52.7,342c-1.2-4-2.4-8-3.7-12c-2.4-7.9-4.9-15.7-7.7-23.4c-1.7-4.6-3.4-9.2-5.3-13.8c0.2-2.9,0.5-5.7,1-8.5
			c0.7-3.4,1.8-6.7,2.8-10.1c0.1-0.2-0.3-0.3-0.3-0.1c-2,4.6-4.6,10.5-4.6,16c-2.2-5.1-4.5-10.2-6.9-15.2c-0.3-4.2-0.1-8.5,0.4-12.7
			c0-0.1-0.1-0.2-0.1-0.2c-0.1,0-0.1,0-0.1,0.1c-0.7,3.7-1,7.4-0.8,11.1c-1.9-3.8-3.9-7.5-6-11.1c-0.2-0.3-0.6,0-0.5,0.3
			c3.3,6.4,6.4,12.9,9.3,19.5c-4.1-3.5-8.8-6.2-13.8-8c-0.2-0.1-0.4,0.2-0.2,0.3c5.6,2.4,10.6,5.7,15,9.9c2.1,4.8,4.1,9.7,5.9,14.6
			c-5.5-5.4-13.1-9-20.4-10.9c-0.2-0.1-0.3,0.3-0.1,0.4c8.5,2.5,15,7.4,21.5,13.1c0.8,2,1.5,4,2.2,6c2.7,7.6,5.3,15.2,7.8,22.9
			c1.2,3.7,2.4,7.3,3.5,11c1.2,4,2.2,8.1,3.8,12c0.2,0.4,0.8,0.3,0.7-0.2C55,349.5,53.9,345.7,52.7,342z"/>
		<path class="st6" d="M38,268.9c-1.6,2.4-2.6,5.1-3.2,7.9c0,0.1,0.1,0.1,0.1,0c1-2.7,2.1-5.3,3.4-7.8
			C38.5,268.8,38.1,268.6,38,268.9z"/>
		<path class="st6" d="M22.2,287.3c-2.5-1.4-5.1-2.3-7.9-2.7c-0.1,0-0.1,0.1,0,0.1c1.3,0.5,2.6,0.9,3.9,1.4s2.6,1.1,3.9,1.6
			c0.1,0,0.2-0.1,0.2-0.2C22.3,287.4,22.3,287.3,22.2,287.3z"/>
		<path class="st6" d="M17.8,265.1c-0.8-0.6-1.7-1.1-2.5-1.6c-0.1,0-0.2,0-0.2,0.1c0,0,0,0.1,0,0.1c0.8,0.6,1.6,1.2,2.5,1.6
			C17.8,265.5,18,265.2,17.8,265.1z"/>
		<path class="st5" d="M77.9,306.6c-6.4,1.9-12.8,3.6-19.1,5.5c-0.6,0.2-11.3-20.5-7.4-31.1c3.6-9.8,11.8-17.2,21.6-20.5
			c4.5-1.5,10.1-2.8,14.9-1.8c4.3,1,7.3,4.4,8.7,8.5c1.9,5.5,1.3,12,0.2,17.5c-0.8,5.2-3,10.1-6.3,14.3
			C87.2,303.1,82.9,305.1,77.9,306.6z"/>
		<path class="st6" d="M87.1,287c-4,2-8.2,3.6-12.5,4.9c-2.9,0.8-5.6,1.8-8.3,3c2.7-6,5.6-11.9,8.8-17.7c4.1-1.2,8.4-3,11.5-6
			c0.1-0.1,0.1-0.2,0-0.3c-0.1-0.1-0.2-0.1-0.3,0l0,0c-3.4,2.4-7.1,3.8-10.9,5.5c0.8-1.6,1.7-3.1,2.6-4.7c0.2-0.4-0.3-0.9-0.6-0.4
			c-3.3,4.9-6.3,9.9-9,15.2c-0.7-4.6-0.9-9.3-0.7-13.9c0-0.1-0.2-0.1-0.2,0c-0.8,5.1-0.7,10.2,0.2,15.3c-2.2,4.5-4.3,9-6.1,13.6
			c-0.7-2.8-1.7-5.5-2.3-8.3c-1-4-1.3-8.1-0.9-12.2c0-0.1-0.2-0.1-0.2,0c-1.1,7.6-0.2,15.4,2.7,22.5c-1.1,2.8-2.1,5.6-3,8.4
			c-4.8,14.3-7.6,29.1-8.4,44.1c0,0.1,0.1,0.3,0.3,0.3c0.1,0,0.3-0.1,0.3-0.3c1.7-14.8,4.8-29.5,9.5-43.6c1.8-5.5,4-10.9,6.3-16.2
			c3.8-1.1,7.5-2.6,11.2-3.9c3.7-1.1,7.2-2.8,10.3-5.1C87.4,287.1,87.3,287,87.1,287z"/>
		<path class="st6" d="M93.1,281c-3.9,1.4-7.6,3.3-11.5,4.7c-0.2,0.1-0.1,0.4,0.1,0.3c4.1-0.9,8.2-2.1,11.5-4.8
			C93.4,281.2,93.2,281,93.1,281z"/>
		<path class="st6" d="M61.3,272.6c0-0.2-0.2-0.3-0.3-0.1c-1.1,3.6-1.8,7.4-0.8,11.1c0,0.1,0.3,0.1,0.3,0
			C60.7,279.9,60.5,276.3,61.3,272.6z"/>
		<path class="st6" d="M77.4,264.4c-1.2,1.8-1.8,3.9-1.7,6.1c0,0.1,0.2,0.2,0.3,0.1c0.5-2.1,1.3-3.9,1.9-5.9c0-0.1,0-0.3-0.2-0.3
			C77.6,264.2,77.4,264.3,77.4,264.4z"/>
		<path class="st5" d="M2.2,315.7c1.9,5.9,6.3,14.1,13.3,14.2c4.6,0,9.1-0.5,13.7-0.6c4.9-0.1,9.8-0.1,14.7,0.2
			c0.4,0-0.6-14.6-12.3-21.8c-3.3-2-7.3-2.6-11-3.4c-4.3-1-8.6-1.5-13-1.4c-2.7,0.1-4.9,0.7-5.9,3.4S1.3,312.9,2.2,315.7z"/>
		<path class="st6" d="M7.3,308.3c2.8,0.7,5.7,1.6,8.6,2.5c-0.7-0.8-1.5-1.6-2.4-2.3c-1.2-1-2.6-1.8-3.9-2.7c-0.1-0.1,0-0.3,0.1-0.2
			c2.8,1.1,5.2,3.1,6.9,5.5c3.6,1.1,7.1,2.4,10.5,3.8c2.4,1,4.6,2.1,6.7,3.5c-0.7-1.5-1.5-2.9-2.4-4.2c-1.6-2-3.7-3.1-5.7-4.6
			c-0.1-0.1-0.1-0.2,0-0.3c0.1-0.1,0.1-0.1,0.2-0.1c4.3,1.9,7.6,5.5,9.2,9.9c2.4,1.8,4.7,3.8,6.7,6c7.8,8.8,13.9,20.6,13.9,32.5
			c0,0.3-0.5,0.4-0.5,0.1c-2-11.7-7.1-22.7-14.8-31.8c-0.6-0.6-1.1-1.3-1.7-1.9c-2.1-0.3-4.3-0.4-6.4-0.5c-2.5,0-5,0.4-7.5,0.6
			c-4.1,0.3-8.6,0.4-12.3-1.7c-0.1,0-0.1-0.1-0.1-0.2c0-0.1,0.1-0.1,0.2-0.1l0,0c8.2,3,16.9-0.8,25.1,1c-3.5-3.4-7.7-6-12.2-7.9
			l-0.8-0.3c-5.3,0.6-10.9,2-16,0.3c-0.1,0-0.1-0.1-0.1-0.1c0-0.1,0.1-0.1,0.1-0.1c5,1.2,9.8-0.3,14.7-0.6
			c-5.3-2.1-10.8-3.7-16.2-5.8C6.8,308.6,6.8,308.2,7.3,308.3z"/>
		<path class="st6" d="M4.9,313.5c2.6,0.3,5.1,0.5,7.7,0.6c0.1,0,0.1,0.1,0,0.1c-2.6,0.5-5.3,0.3-7.8-0.5
			C4.8,313.7,4.8,313.5,4.9,313.5z"/>
		<path class="st6" d="M22.3,308.4c1.4,0.6,2.7,1.5,3.8,2.6c0.1,0.1,0,0.4-0.2,0.2c-0.7-0.5-1.3-0.9-2-1.4c-0.6-0.4-1.2-0.7-1.8-1.2
			C21.9,308.7,22.1,308.4,22.3,308.4z"/>
		<path class="st5" d="M63.8,327.5c-0.1,0.2,0.2,0.4,0.3,0.2l0,0c0,0.1,0.1,0.1,0.2,0.1c4.7,1.1,9.5,2,14.3,2.5
			c3.9,0.3,8.3,0.6,11.8-1.7c4.6-3,7.6-11.2,5.1-16.4c-2.9-6.2-11.8-2.8-16.3-0.6C72.4,314.9,66.9,320.5,63.8,327.5z"/>
		<path class="st6" d="M60.3,330.3c2.6-2.5,5.5-4.7,8.6-6.5c2.2-3.5,5.2-6.5,8.7-8.9c0.2-0.1,0.3,0.1,0.2,0.3
			c-2.8,2.2-5.2,4.8-7.3,7.7c3.5-1.9,7.1-3.5,10.8-4.9c1.3-2.4,3.3-4.5,5.8-5.8c0,0,0.1,0,0.1,0.1c-2,1.5-3.8,3.4-5.2,5.5
			c2.2-0.8,4.4-1.6,6.6-2.3c0.2-0.1,0.3,0.2,0.1,0.3c-3.9,1.5-7.9,3.1-11.8,5c4.7,0.8,9.6,0.8,14.3,0c0.1,0,0.1,0,0.1,0.1
			c0,0,0,0.1-0.1,0.1c-4.9,1.5-10.2,1.5-15.2,0.2c-2.5,1.2-4.9,2.5-7.2,4c2-0.2,3.9,0,5.8,0.5c3.4,0.8,6.8,1.2,10.2,1.2
			c0.1,0,0.1,0.1,0.1,0.1c0,0,0,0.1-0.1,0.1c-5.9,1-11.6-1.7-17.4-1c-2.2,1.5-4.2,3.2-6.1,5c-3.7,3.7-6.7,7.9-8.9,12.6
			c-2.5,5-3.8,10.4-5.8,15.6c0,0.1-0.1,0.2-0.2,0.1c-0.1,0-0.2-0.1-0.1-0.2C47.8,349,52.9,337.7,60.3,330.3z"/>
		<path class="st6" d="M78.3,316.3c0.4-0.7,0.9-1.3,1.5-1.9c0.5-0.5,1.1-1,1.8-1.3c0.1,0,0.1,0.1,0.1,0.1c-0.5,0.5-1.2,1-1.7,1.5
			s-1,1.1-1.5,1.7C78.3,316.4,78.3,316.4,78.3,316.3C78.2,316.3,78.2,316.3,78.3,316.3z"/>
		<path class="st6" d="M88,319.5c0.9-0.2,1.8-0.2,2.7-0.4c0.9-0.2,1.8-0.5,2.6-0.8c0.1,0,0.1,0,0.1,0.1c0,0,0,0.1,0,0.1
			c-1.6,1-3.5,1.4-5.4,1.2C87.9,319.7,87.9,319.5,88,319.5z"/>
		<polygon class="st7" points="35.9,346.6 36.7,355.5 39.3,385.3 62.7,385.3 66,355.5 67,346.6 		"/>
		<polygon class="st6" points="35.9,346.6 36.7,355.5 66,355.5 67,346.6 		"/>
		<rect x="33.6" y="344.2" class="st7" width="35.7" height="7.2"/>
	</g>
	<g id="freepik--Floor--inject-12">
		<polygon class="st6" points="1.1,385.2 53.6,385 106.1,384.9 211.1,384.7 316.1,384.9 368.6,385 421.2,385.2 368.6,385.5 
			316.1,385.5 211.1,385.7 106.1,385.5 53.6,385.5 		"/>
	</g>
	<g id="freepik--Device--inject-12">
		<path class="st6" d="M265.4,75.3H103.7c-9.1,0.1-16.4,7.6-16.4,16.7c0,0,0,0,0,0v332.7c-0.1,9.1,7.2,16.6,16.3,16.6h161.6
			c9.1-0.1,16.4-7.5,16.4-16.6V92C281.9,82.9,274.5,75.4,265.4,75.3C265.4,75.3,265.4,75.3,265.4,75.3z M271.5,414.5
			c0,8.8-6.6,15.8-14.6,15.8H112.3c-8.1,0-14.7-7.1-14.7-15.8V104.6c0-17.8,6.6-18.7,14.7-18.7h29c1.7,0,3.1,1.9,3.1,4.3v1
			c0,5.6,3,5.6,6.8,5.6h67c3.8,0,6.8,0,6.8-5.6v-1c0-2.4,1.4-4.3,3.1-4.3h29c8.1,0,14.6,2.4,14.6,18.7L271.5,414.5z"/>
		<path class="st4" d="M271.5,104.6v309.9c0,8.8-6.6,15.8-14.6,15.8H112.3c-8.1,0-14.7-7.1-14.7-15.8V104.6
			c0-17.8,6.6-18.7,14.7-18.7h29c1.7,0,3.1,1.9,3.1,4.3v1c0,5.6,3,5.6,6.8,5.6h67c3.8,0,6.8,0,6.8-5.6v-1c0-2.4,1.4-4.3,3.1-4.3h29
			C265,85.9,271.5,88.2,271.5,104.6z"/>
		<g id="freepik--u5Zjqx--inject-12">
			<path class="st4" d="M136.2,92.8c-0.1,0.1-0.2,0.2-0.3,0.3l-0.2,0.2c-0.7-0.7-1.7-1.1-2.7-1.1c-1,0-2,0.4-2.7,1.1l-0.1-0.2
				c-0.1-0.1-0.2-0.2-0.3-0.3l0,0l0,0c0.1-0.1,0.2-0.2,0.4-0.3c0.2-0.2,0.5-0.4,0.8-0.5c0.3-0.2,0.7-0.3,1.1-0.4l0.5-0.1h0.5h0.4
				c0.3,0,0.7,0.1,1,0.2c0.2,0.1,0.5,0.2,0.7,0.3c0.2,0.1,0.4,0.3,0.6,0.4L136.2,92.8L136.2,92.8z"/>
			<path class="st4" d="M131.3,94.2l-0.4-0.4c1.2-1.2,3.3-1.3,4.5,0c0,0,0,0,0,0l-0.4,0.4c-0.5-0.5-1.1-0.8-1.8-0.8
				C132.4,93.4,131.8,93.7,131.3,94.2z"/>
			<path class="st4" d="M134.5,94.6L134,95c-0.5-0.5-1.3-0.5-1.8,0c0,0,0,0,0,0l-0.4-0.4C132.5,93.8,133.7,93.8,134.5,94.6
				C134.5,94.6,134.5,94.6,134.5,94.6z"/>
			<path class="st4" d="M133.5,95.4c0,0.2-0.2,0.4-0.4,0.4c-0.2,0-0.4-0.1-0.5-0.3c0-0.2,0.1-0.4,0.3-0.5c0,0,0.1,0,0.1,0
				C133.3,95,133.5,95.2,133.5,95.4C133.5,95.4,133.5,95.4,133.5,95.4z"/>
		</g>
		<path class="st4" d="M109,93.7c0-0.6,0.5-1.1,1.2-1.1s1.1,0.5,1.1,1.2c0,0.6-0.5,1.1-1.1,1.1C109.5,94.9,109,94.3,109,93.7
			C109,93.7,109,93.7,109,93.7z"/>
		<path class="st4" d="M112.6,93.7c0-0.6,0.5-1.1,1.2-1.1s1.1,0.5,1.1,1.2c0,0.6-0.5,1.1-1.1,1.1C113.1,94.8,112.6,94.3,112.6,93.7z
			"/>
		<path class="st4" d="M116.2,93.7c0-0.6,0.5-1.2,1.2-1.2c0.6,0,1.2,0.5,1.2,1.2c0,0.6-0.5,1.2-1.2,1.2c0,0,0,0,0,0
			C116.7,94.8,116.2,94.3,116.2,93.7z"/>
		<path class="st4" d="M119.8,93.7c0-0.6,0.5-1.2,1.2-1.2c0.6,0,1.2,0.5,1.2,1.2c0,0.6-0.5,1.2-1.2,1.2c0,0,0,0,0,0
			C120.4,94.8,119.8,94.3,119.8,93.7z"/>
		<path class="st4" d="M123.5,93.7c0-0.6,0.5-1.2,1.2-1.2c0.6,0,1.2,0.5,1.2,1.2c0,0.6-0.5,1.2-1.2,1.2c0,0,0,0,0,0
			C124,94.8,123.5,94.3,123.5,93.7z"/>
		<path class="st4" d="M258.5,96.2h-9.4v-4.3h9.4L258.5,96.2z M249.6,95.7h8.4v-3.4h-8.4V95.7z"/>
		<rect x="249.9" y="92.6" class="st4" width="6" height="2.9"/>
		<rect x="258.5" y="92.9" class="st4" width="0.8" height="2.3"/>
		<path class="st4" d="M193.7,89.8h-18.3c-0.6,0-1.1-0.5-1.1-1.1c0,0,0,0,0,0l0,0c0-0.6,0.5-1.1,1.1-1.1l0,0h18.3
			c0.6,0,1.1,0.5,1.1,1.1l0,0C194.8,89.3,194.3,89.8,193.7,89.8L193.7,89.8z"/>
		<path class="st3" d="M127,192.2c0.1-4,3.4-7.1,7.4-7c1.5,0,3,0.6,4.3,1.5c0.5,0.4,0.6,1.1,0.2,1.6c0,0,0,0,0,0
			c-0.4,0.5-1.1,0.6-1.6,0.2c-0.9-0.7-2-1-3.1-1.1c-1.3,0-2.6,0.5-3.5,1.4c-1.9,1.7-2,4.7-0.2,6.5c0.1,0.1,0.1,0.1,0.2,0.2
			c0.9,0.9,2.2,1.4,3.5,1.4c0.9,0,1.9-0.3,2.7-0.7v-2.7h-2.7c-0.6,0-1.1-0.5-1.1-1.1c0-0.6,0.5-1.1,1.1-1.1c0,0,0,0,0,0h3.9
			c0.6,0,1.1,0.5,1.1,1.1c0,0,0,0,0,0v4.3c0,0.1,0,0.2-0.1,0.3c0,0,0,0.1,0,0.1l0,0c-0.1,0.2-0.2,0.4-0.4,0.5
			c-1.3,1-2.8,1.5-4.4,1.5C130.4,199.3,127.1,196.3,127,192.2C127,192.3,127,192.3,127,192.2z"/>
		<path class="st3" d="M142.6,194.4c0-2.7,2.1-4.8,4.8-4.9c2.5,0,4.6,2,4.7,4.5v0.1c0,0.1,0,0.1,0,0.2c-0.1,0.5-0.5,0.8-1,0.8h-6.2
			c0.1,0.5,0.3,0.9,0.7,1.3c0.5,0.5,1.2,0.8,1.9,0.9c0.7,0.1,1.4-0.1,2-0.5c0.4-0.4,1-0.4,1.5-0.1c0.3,0.3,0.4,0.9,0,1.2
			c0,0,0,0,0,0c-0.9,0.9-2.2,1.3-3.5,1.3C144.7,199.2,142.5,197,142.6,194.4z M144.7,193.4h5.5c-0.5-1.2-1.6-2-2.9-2.1
			C146.1,191.3,145,192.2,144.7,193.4L144.7,193.4z"/>
		<path class="st3" d="M158.7,190.6c0,0.6-0.5,1.1-1.1,1.1h-0.5v5.4c0.6,0,1.1,0.5,1.1,1c0,0,0,0,0,0c0,0.6-0.4,1.1-1,1.1
			c0,0,0,0,0,0c-1.2,0-2.1-1-2.2-2.2v-5.4h-0.6c-0.6,0-1.1-0.5-1.1-1.1c0,0,0,0,0,0c0-0.6,0.4-1.1,1-1.1c0,0,0,0,0,0h0.6v-2.8
			c0-0.6,0.5-1.1,1.1-1.1c0,0,0,0,0,0c0.6,0,1.1,0.4,1.1,1c0,0,0,0,0,0v2.8h0.5C158.2,189.5,158.7,190,158.7,190.6z"/>
		<path class="st3" d="M170.1,187.1c0,0.6-0.5,1.1-1,1.1c0,0,0,0,0,0c-0.6,0-1.1-0.5-1.1-1.1v-0.4c0-0.6,0.5-1,1.1-1
			c0.6,0,1,0.4,1,0.9c0,0,0,0,0,0.1V187.1z M170.1,190.6v7.6c0,0.6-0.4,1-0.9,1.1c0,0-0.1,0-0.1,0c-0.6,0-1.1-0.5-1.1-1c0,0,0,0,0,0
			v-7.6c0-0.6,0.4-1,0.9-1.1c0,0,0.1,0,0.1,0c0.6,0,1,0.4,1.1,0.9C170.1,190.5,170.1,190.5,170.1,190.6L170.1,190.6z"/>
		<path class="st3" d="M181.6,193.6v4.7c0,0.6-0.4,1-1,1c-0.5,0-1-0.5-1-1v-4.7c0-1.1-0.9-2-2-2c-1.1,0-2,0.8-2,1.9c0,0,0,0.1,0,0.1
			v4.7c0,0.1,0,0.1,0,0.2c-0.1,0.5-0.5,0.8-1,0.8c-0.6,0-1-0.4-1-1v-7.7c0-0.6,0.4-1,1-1c0.4,0,0.8,0.2,1,0.6
			c0.6-0.4,1.3-0.6,2.1-0.6C179.8,189.6,181.5,191.4,181.6,193.6z"/>
		<path class="st3" d="M195.6,190.6c0,0.6-0.5,1.1-1.1,1.1H194v5.4c0.6,0,1.1,0.5,1.1,1.1s-0.5,1.1-1.1,1.1c-1.2,0-2.1-1-2.2-2.2
			v-5.4h-0.6c-0.6,0-1.1-0.5-1.1-1.1c0,0,0,0,0,0c0-0.6,0.5-1.1,1-1.1c0,0,0,0,0,0h0.6v-2.8c0-0.6,0.5-1.1,1.1-1.1c0,0,0,0,0,0
			c0.6,0,1.1,0.4,1.1,1c0,0,0,0,0,0v2.8h0.5C195.1,189.5,195.6,190,195.6,190.6C195.6,190.6,195.6,190.6,195.6,190.6z"/>
		<path class="st3" d="M199.6,197.8c-0.9-0.9-1.4-2.2-1.4-3.4c0-1.3,0.5-2.5,1.4-3.4c0.9-0.9,2.1-1.5,3.3-1.5c1.2,0,2.4,0.5,3.3,1.5
			c0.9,0.9,1.4,2.1,1.4,3.4c0,1.3-0.5,2.5-1.4,3.4c-0.8,0.9-2,1.5-3.3,1.5C201.7,199.3,200.5,198.8,199.6,197.8z M200.4,194.4
			c0,0.7,0.2,1.5,0.7,2.1c0.5,0.5,1.2,0.7,1.9,0.7c0.7,0,1.3-0.3,1.8-0.7c0.5-0.6,0.8-1.3,0.8-2.1c0-0.7-0.3-1.5-0.8-2
			c-0.5-0.5-1.1-0.7-1.8-0.7c-0.7,0-1.4,0.3-1.9,0.7C200.6,192.9,200.4,193.7,200.4,194.4L200.4,194.4z"/>
		<path class="st3" d="M214.4,199.2c-2.2,0-4-1.8-4-4.1v-4.6c0-0.5,0.5-1,1-1c0.6,0,1,0.4,1,1v4.6c0,1.1,0.9,2,2,2s2-0.9,2-2v-4.6
			c0-0.6,0.4-1,1-1c0.6,0,1,0.4,1.1,1v4.6C218.5,197.4,216.7,199.2,214.4,199.2z"/>
		<path class="st3" d="M221.8,194.4c0.1-2.7,2.3-4.9,5-4.9c1.1,0,2.2,0.4,3.1,1.1c0.4,0.3,0.5,1,0.2,1.4c-0.3,0.5-0.9,0.6-1.4,0.3
			c0,0,0,0-0.1-0.1c-0.5-0.4-1.2-0.6-1.9-0.6c-1.5,0-2.8,1.2-2.8,2.8c0,1.5,1.2,2.8,2.8,2.8c0.7,0,1.3-0.2,1.9-0.6
			c0.5-0.3,1.1-0.2,1.5,0.2c0.3,0.5,0.2,1.1-0.2,1.4c-0.9,0.6-2,1-3.1,1C224.1,199.2,221.9,197.1,221.8,194.4z"/>
		<path class="st3" d="M235.8,198.2c0,0.6-0.5,1.1-1.1,1.1c0,0,0,0,0,0c-0.5,0-0.9-0.3-1-0.8c0-0.1,0-0.2,0-0.3v-11.5
			c0-0.6,0.5-1.1,1-1.1c0,0,0,0,0,0c0.6,0,1.1,0.5,1.1,1.1c0,0,0,0,0,0v3.4c0.6-0.4,1.4-0.6,2.1-0.6c2.3,0,4.2,1.9,4.2,4.3
			c0,0,0,0,0,0v4.4c0,0.6-0.5,1.1-1.1,1.1s-1.1-0.5-1.1-1.1v-4.4c0-1.2-0.9-2.1-2.1-2.1s-2.1,0.9-2.1,2.1c0,0,0,0,0,0L235.8,198.2z"
			/>
		<rect x="115.3" y="210.3" class="st4" width="138.6" height="137.9"/>
		<path class="st2" d="M253.9,348.1l-138.6,0.1h-0.1v-0.1l-0.1-137.9v-0.1h0.1l138.6,0.1h0.1v0.1L253.9,348.1z M253.9,348.1
			l-0.1-137.9l0.1,0.1l-138.6,0.1l0.1-0.1l-0.1,137.9l-0.1-0.1L253.9,348.1z"/>
		<path class="st3" d="M128.3,227.5c0,0.2-0.1,0.3-0.3,0.3s-0.3-0.1-0.3-0.3l0,0V224l0,0c0-0.1,0.1-0.2,0.1-0.3
			c0.1-0.1,0.3-0.1,0.4,0.1c0,0,0,0,0,0l1.9,2.7V224c0-0.2,0.1-0.3,0.3-0.3s0.3,0.1,0.3,0.3v3.5c0,0.2-0.2,0.3-0.3,0.3
			c-0.1,0-0.2,0-0.2-0.1l0,0l-1.9-2.7V227.5z"/>
		<path class="st3" d="M134.7,226.4v1.2c0,0.2-0.1,0.3-0.3,0.3h0c-0.2,0-0.3-0.1-0.3-0.3c-0.2,0.2-0.5,0.3-0.8,0.3
			c-0.4,0-0.7-0.2-1-0.4c-0.5-0.6-0.5-1.5,0-2.1c0.5-0.5,1.3-0.6,1.8-0.2c0-0.2,0.2-0.3,0.3-0.3c0.2,0,0.3,0.1,0.3,0.3v0
			L134.7,226.4z M134.1,226.4c0-0.2-0.1-0.5-0.2-0.6c-0.1-0.2-0.3-0.3-0.6-0.2c-0.2,0-0.4,0.1-0.6,0.2c-0.2,0.2-0.2,0.4-0.2,0.6
			c0,0.2,0.1,0.4,0.2,0.6c0.1,0.2,0.3,0.2,0.6,0.2c0.2,0,0.4-0.1,0.6-0.2C134,226.8,134.1,226.6,134.1,226.4L134.1,226.4z"/>
		<path class="st3" d="M138.4,226.1v1.4c0,0.2-0.1,0.3-0.3,0.3h0c-0.2,0-0.3-0.1-0.3-0.3v-1.4c0-0.3-0.3-0.6-0.6-0.6
			s-0.6,0.3-0.6,0.6v1.4l0,0l0,0l0,0l0,0c-0.1,0.1-0.2,0.2-0.3,0.2h-0.1c-0.1,0-0.3-0.2-0.3-0.3v-1.3l0,0v-0.9
			c0-0.2,0.1-0.3,0.3-0.3h0c0.1,0,0.2,0.1,0.3,0.2c0.2-0.1,0.4-0.2,0.6-0.2c0.4,0,0.7,0.1,1,0.4c0.2-0.3,0.6-0.4,0.9-0.4
			c0.7,0,1.3,0.6,1.3,1.2c0,0,0,0,0,0v1.4c0,0.2-0.1,0.3-0.3,0.3h0c-0.2,0-0.3-0.1-0.3-0.3v0v-1.4c0-0.3-0.4-0.6-0.7-0.5
			C138.8,225.6,138.5,225.8,138.4,226.1L138.4,226.1z"/>
		<path class="st3" d="M141.4,226.3c0-0.8,0.6-1.5,1.5-1.5c0,0,0,0,0,0c0.8,0,1.4,0.6,1.4,1.4v0.1c0,0.1-0.2,0.3-0.3,0.2h-1.9
			c0,0.1,0.1,0.3,0.2,0.4c0.1,0.2,0.4,0.3,0.6,0.3c0.2,0,0.4,0,0.6-0.1c0.1-0.1,0.3-0.1,0.4,0c0.1,0.1,0.1,0.3,0,0.4c0,0,0,0,0,0
			c-0.3,0.3-0.7,0.4-1.1,0.4C142.1,227.9,141.4,227.2,141.4,226.3C141.4,226.4,141.4,226.4,141.4,226.3z M142.1,226.1h1.7
			c-0.1-0.4-0.5-0.6-0.9-0.6C142.5,225.4,142.2,225.7,142.1,226.1L142.1,226.1z"/>
		<rect x="127" y="231.5" class="st8" width="115.1" height="9.7"/>
		<path class="st3" d="M127.6,253.8v-3.6c0-0.2,0.1-0.3,0.3-0.3c0,0,0,0,0,0h2c0.2,0,0.3,0.1,0.3,0.3c0,0.2-0.2,0.3-0.3,0.3h-1.6
			v1.1h1.4c0.2,0,0.3,0.1,0.3,0.3s-0.1,0.3-0.3,0.3l0,0h-1.4v1.1h1.6c0.2,0,0.4,0.1,0.4,0.3s-0.1,0.4-0.3,0.4c0,0-0.1,0-0.1,0H128
			l0,0l0,0C127.8,254.1,127.7,254,127.6,253.8C127.6,253.8,127.6,253.8,127.6,253.8z"/>
		<path class="st3" d="M133.6,252.3L133.6,252.3v1.4c0,0.2-0.1,0.3-0.3,0.3c-0.2,0-0.3-0.1-0.3-0.3v-1.4l0,0c0-0.3-0.3-0.6-0.6-0.6
			s-0.6,0.3-0.6,0.6v1.4l0,0l0,0l0,0l0,0c-0.1,0.1-0.2,0.2-0.3,0.2h-0.1c-0.1,0-0.3-0.2-0.3-0.3v-1.4l0,0v-0.9
			c0-0.2,0.1-0.3,0.3-0.3c0,0,0,0,0,0c0.1,0,0.2,0.1,0.3,0.2c0.2-0.1,0.4-0.2,0.6-0.2c0.4,0,0.7,0.2,0.9,0.4
			c0.2-0.3,0.6-0.4,0.9-0.4c0.7,0,1.3,0.6,1.2,1.3v1.4c0,0.2-0.1,0.3-0.3,0.3h0c-0.2,0-0.3-0.1-0.3-0.3v-1.4c0-0.3-0.4-0.6-0.7-0.5
			c-0.3,0-0.5,0.3-0.5,0.5L133.6,252.3z"/>
		<path class="st3" d="M139.4,252.6v1.2c0,0.2-0.1,0.3-0.3,0.3h0c-0.1,0-0.3-0.1-0.3-0.3c-0.6,0.4-1.3,0.3-1.8-0.2
			c-0.3-0.3-0.4-0.7-0.4-1.1c0-0.4,0.1-0.8,0.4-1.1c0.3-0.3,0.6-0.4,1-0.4c0.3,0,0.6,0.1,0.8,0.3c0-0.1,0.2-0.3,0.3-0.3
			c0.2,0,0.3,0.1,0.3,0.3c0,0,0,0,0,0L139.4,252.6z M138.7,252.6c0-0.2-0.1-0.4-0.2-0.6c-0.1-0.2-0.3-0.3-0.6-0.2
			c-0.2,0-0.4,0.1-0.6,0.2c-0.2,0.2-0.2,0.4-0.2,0.6c0,0.2,0.1,0.4,0.2,0.6c0.1,0.2,0.3,0.2,0.6,0.2c0.2,0,0.4-0.1,0.6-0.2
			C138.7,253,138.7,252.8,138.7,252.6z"/>
		<path class="st3" d="M141.2,250.3c0,0.2-0.1,0.3-0.3,0.3c0,0,0,0,0,0c-0.2,0-0.3-0.1-0.3-0.3l0,0v-0.1c0-0.2,0.1-0.3,0.3-0.3
			c0,0,0,0,0,0c0.2,0,0.3,0.1,0.3,0.3v0V250.3z M141.2,251.4v2.3c0,0.2-0.1,0.3-0.3,0.3c0,0,0,0,0,0c-0.2,0-0.3-0.1-0.3-0.3l0,0
			v-2.3c0-0.2,0.1-0.3,0.3-0.3l0,0C141.1,251.1,141.2,251.2,141.2,251.4C141.2,251.4,141.2,251.4,141.2,251.4z"/>
		<path class="st3" d="M142.5,249.9c0.2,0,0.3,0.1,0.3,0.3v3.6c0,0.2-0.2,0.3-0.4,0.3c-0.1,0-0.3-0.1-0.3-0.3v-3.6
			C142.2,250,142.3,249.9,142.5,249.9L142.5,249.9z"/>
		<path class="st3" d="M148,252.6v1.2c0,0.2-0.1,0.3-0.3,0.3h0c-0.1,0-0.3-0.1-0.3-0.3c-0.6,0.4-1.3,0.3-1.8-0.2
			c-0.3-0.3-0.4-0.7-0.4-1.1c0-0.4,0.1-0.8,0.4-1.1c0.3-0.3,0.6-0.4,1-0.4c0.3,0,0.6,0.1,0.8,0.3c0-0.1,0.2-0.3,0.3-0.3
			c0.2,0,0.3,0.1,0.3,0.3c0,0,0,0,0,0L148,252.6z M147.3,252.6c0-0.2-0.1-0.4-0.2-0.6c-0.1-0.2-0.3-0.2-0.6-0.2
			c-0.2,0-0.4,0.1-0.6,0.2c-0.2,0.2-0.2,0.4-0.2,0.6c0,0.2,0.1,0.4,0.2,0.6c0.1,0.2,0.3,0.2,0.6,0.2c0.2,0,0.4-0.1,0.6-0.2
			C147.3,253.1,147.3,252.8,147.3,252.6z"/>
		<path class="st3" d="M151.9,253.8c0,0.2-0.1,0.3-0.3,0.4c-0.2,0-0.3-0.1-0.4-0.3c-0.2,0.2-0.5,0.3-0.8,0.3
			c-0.8-0.1-1.4-0.8-1.3-1.7c0.1-0.7,0.6-1.2,1.3-1.3c0.3,0,0.6,0.1,0.8,0.2v-1.1c0-0.2,0.2-0.3,0.4-0.3c0.1,0,0.2,0.1,0.3,0.3v2.4
			l0,0L151.9,253.8z M150.4,251.8c-0.2,0-0.4,0.1-0.6,0.2c-0.2,0.2-0.2,0.4-0.2,0.6c0,0.2,0.1,0.4,0.2,0.6c0.2,0.2,0.4,0.2,0.6,0.2
			c0.2,0,0.4-0.1,0.6-0.2c0.2-0.2,0.2-0.4,0.2-0.6c0-0.2-0.1-0.4-0.2-0.6C150.8,251.8,150.6,251.7,150.4,251.8L150.4,251.8z"/>
		<path class="st3" d="M155,251.4c0,0.2-0.1,0.3-0.3,0.3c0,0,0,0,0,0c-0.1,0-0.3,0-0.4,0.1c-0.1,0.1-0.2,0.2-0.3,0.3
			c-0.1,0.2-0.2,0.3-0.2,0.5v1.1c0,0.2-0.2,0.3-0.4,0.3c-0.1,0-0.2-0.1-0.3-0.3v-2.4c0-0.2,0.2-0.3,0.4-0.3c0.1,0,0.2,0.1,0.3,0.3
			l0,0l0.1-0.1c0.2-0.2,0.5-0.2,0.8-0.2C154.8,251,155,251.2,155,251.4C155,251.4,155,251.4,155,251.4z"/>
		<path class="st3" d="M155.2,252.6c0-0.8,0.7-1.5,1.5-1.5c0.8,0,1.4,0.6,1.4,1.4c0,0,0,0,0,0v0.1c0,0.1-0.2,0.2-0.3,0.2h-1.9
			c0,0.2,0.1,0.3,0.2,0.4c0.3,0.3,0.8,0.4,1.2,0.1c0.1-0.1,0.3-0.1,0.4,0c0.1,0.1,0.1,0.3,0,0.4c0,0,0,0,0,0
			c-0.3,0.3-0.7,0.4-1.1,0.4C155.9,254.1,155.2,253.4,155.2,252.6C155.2,252.6,155.2,252.6,155.2,252.6z M155.9,252.3h1.7
			c-0.1-0.4-0.5-0.6-0.9-0.6C156.3,251.6,156,251.9,155.9,252.3L155.9,252.3z"/>
		<path class="st3" d="M159,253.2c0.1-0.1,0.3-0.2,0.4-0.1c0,0,0,0,0,0c0.2,0.2,0.4,0.3,0.7,0.3c0.1,0,0.3,0,0.4-0.1
			c0.1,0,0.1-0.1,0.1-0.2c0,0,0,0,0-0.1c0,0,0-0.1-0.1-0.1c-0.1-0.1-0.3-0.1-0.5-0.2l0,0c-0.2,0-0.4-0.1-0.5-0.2
			c-0.2-0.1-0.3-0.2-0.4-0.4c-0.1-0.1-0.1-0.2-0.1-0.4c0-0.3,0.1-0.5,0.4-0.7c0.2-0.1,0.5-0.2,0.7-0.2c0.3,0,0.6,0.1,0.9,0.3
			c0.1,0.1,0.2,0.3,0.1,0.4c-0.1,0.1-0.3,0.2-0.4,0.1c-0.2-0.1-0.4-0.2-0.6-0.2c-0.1,0-0.3,0-0.4,0.1c0,0-0.1,0.1-0.1,0.1
			c0,0,0,0,0,0.1c0,0,0,0,0.1,0.1c0.1,0.1,0.3,0.1,0.4,0.1l0,0c0.2,0,0.4,0.1,0.6,0.2c0.2,0.1,0.3,0.2,0.4,0.4
			c0.1,0.1,0.1,0.3,0.1,0.4c0,0.3-0.1,0.5-0.4,0.7c-0.2,0.2-0.5,0.2-0.8,0.2c-0.4,0-0.8-0.2-1.1-0.4
			C158.9,253.6,158.8,253.4,159,253.2C159,253.2,159,253.2,159,253.2z"/>
		<path class="st3" d="M161.9,253.2c0.1-0.1,0.3-0.2,0.4-0.1c0,0,0,0,0,0c0.2,0.2,0.4,0.2,0.7,0.3c0.1,0,0.3,0,0.4-0.1
			c0.1,0,0.1-0.1,0.1-0.2c0,0,0,0,0-0.1c0,0,0,0-0.1-0.1c-0.1-0.1-0.3-0.1-0.5-0.2l0,0c-0.2,0-0.4-0.1-0.5-0.2
			c-0.2-0.1-0.3-0.2-0.4-0.4c-0.1-0.1-0.1-0.2-0.1-0.4c0-0.3,0.1-0.5,0.4-0.7c0.2-0.1,0.5-0.2,0.7-0.2c0.3,0,0.6,0.1,0.9,0.3
			c0.1,0.1,0.2,0.3,0.1,0.4c-0.1,0.1-0.3,0.2-0.4,0.1c-0.2-0.1-0.3-0.2-0.6-0.2c-0.1,0-0.3,0-0.4,0.1c-0.1,0.1-0.1,0.1-0.1,0.1
			s0,0,0,0.1c0,0,0,0,0.1,0.1c0.1,0.1,0.3,0.1,0.4,0.1l0,0c0.2,0,0.4,0.1,0.6,0.2c0.2,0.1,0.3,0.2,0.4,0.4c0.1,0.1,0.1,0.3,0.1,0.4
			c0,0.3-0.1,0.5-0.4,0.7c-0.2,0.2-0.5,0.2-0.8,0.2c-0.4,0-0.8-0.2-1.1-0.4C161.8,253.5,161.7,253.4,161.9,253.2z"/>
		<rect x="127" y="257.7" class="st8" width="115.1" height="9.7"/>
		<path class="st3" d="M130.6,276.7l-1.2,1.7v1.6c0,0.2-0.1,0.3-0.3,0.3c0,0,0,0,0,0c-0.2,0-0.3-0.1-0.3-0.3v-1.6l-1.2-1.7
			c-0.1-0.1-0.1-0.3,0.1-0.4c0,0,0,0,0,0c0.1-0.1,0.3-0.1,0.4,0.1c0,0,0,0,0,0l1,1.4l1-1.4c0.1-0.1,0.3-0.2,0.4-0.1c0,0,0,0,0,0
			C130.6,276.3,130.6,276.5,130.6,276.7z"/>
		<path class="st3" d="M130.8,279.9c-0.3-0.3-0.4-0.7-0.4-1.1c0-0.4,0.2-0.8,0.4-1c0.3-0.3,0.6-0.4,1-0.5c0.4,0,0.7,0.2,1,0.5
			c0.3,0.3,0.4,0.7,0.4,1c0,0.4-0.1,0.8-0.4,1.1c-0.3,0.3-0.6,0.5-1,0.5C131.4,280.3,131.1,280.2,130.8,279.9z M131.1,278.8
			c0,0.2,0.1,0.5,0.2,0.6c0.2,0.1,0.4,0.2,0.6,0.2c0.2,0,0.4-0.1,0.6-0.2c0.2-0.2,0.2-0.4,0.2-0.6c0-0.2-0.1-0.5-0.2-0.6
			c-0.1-0.1-0.3-0.2-0.6-0.2c-0.2,0-0.4,0.1-0.6,0.2C131.1,278.4,131,278.6,131.1,278.8L131.1,278.8z"/>
		<path class="st3" d="M135.4,280.3c-0.7,0-1.2-0.6-1.2-1.2v-1.4c0-0.2,0.1-0.3,0.3-0.3c0.2,0,0.3,0.1,0.3,0.3v1.4
			c0,0.3,0.3,0.6,0.6,0.6c0.3,0,0.6-0.3,0.6-0.6c0,0,0,0,0,0v-1.4c0-0.2,0.1-0.3,0.3-0.3c0.2,0,0.3,0.1,0.3,0.3v1.4
			C136.6,279.8,136.1,280.3,135.4,280.3z"/>
		<path class="st3" d="M139.7,277.6c0,0.2-0.1,0.3-0.3,0.3h0c-0.1,0-0.3,0-0.4,0.1c-0.1,0.1-0.2,0.2-0.3,0.3
			c-0.1,0.2-0.2,0.3-0.2,0.5v1.1c0,0.2-0.2,0.3-0.4,0.3c-0.1,0-0.2-0.1-0.3-0.3v-2.4c0-0.2,0.2-0.3,0.4-0.3c0.1,0,0.2,0.1,0.3,0.3v0
			c0,0,0.1-0.1,0.1-0.1c0.2-0.2,0.5-0.2,0.8-0.2C139.6,277.3,139.7,277.4,139.7,277.6C139.7,277.6,139.7,277.6,139.7,277.6z"/>
		<path class="st3" d="M144.8,278.5v1.5c0,0.2-0.1,0.3-0.3,0.3h0c-0.2,0-0.3-0.1-0.3-0.3v-1.4c0-0.3-0.3-0.6-0.6-0.6c0,0,0,0,0,0
			c-0.3,0-0.6,0.3-0.6,0.6c0,0,0,0,0,0v1.5l0,0l0,0c-0.1,0.1-0.2,0.2-0.3,0.2h-0.1c-0.1,0-0.3-0.2-0.3-0.3v-1.4l0,0v-0.9
			c0-0.2,0.1-0.3,0.3-0.3h0c0.1,0,0.2,0.1,0.3,0.2c0.2-0.1,0.4-0.2,0.6-0.2c0.4,0,0.7,0.1,0.9,0.4c0.2-0.3,0.6-0.4,0.9-0.4
			c0.7,0,1.3,0.6,1.3,1.2c0,0,0,0,0,0v1.5c0,0.2-0.1,0.3-0.3,0.3h0c-0.2,0-0.3-0.1-0.3-0.3l0,0v-1.4c0-0.3-0.4-0.6-0.7-0.5
			C145.1,278.1,144.9,278.3,144.8,278.5L144.8,278.5z"/>
		<path class="st3" d="M147.8,278.8c0-0.8,0.6-1.5,1.5-1.5c0,0,0,0,0,0c0.8,0,1.4,0.6,1.4,1.4v0.1c0,0.2-0.2,0.3-0.3,0.2h-1.9
			c0,0.2,0.1,0.3,0.2,0.4c0.2,0.2,0.4,0.3,0.6,0.3c0.2,0,0.4,0,0.6-0.1c0.1-0.1,0.3-0.1,0.4,0c0.1,0.1,0.1,0.3,0,0.4c0,0,0,0,0,0
			c-0.3,0.3-0.7,0.4-1.1,0.4C148.5,280.3,147.8,279.6,147.8,278.8C147.8,278.8,147.8,278.8,147.8,278.8z M148.5,278.5h1.7
			c-0.1-0.4-0.5-0.6-0.9-0.6C148.9,277.9,148.6,278.1,148.5,278.5L148.5,278.5z"/>
		<path class="st3" d="M151.5,279.5c0.1-0.1,0.3-0.2,0.4-0.1c0,0,0,0,0,0c0.2,0.2,0.4,0.3,0.7,0.3c0.1,0,0.3,0,0.4-0.1
			c0.1,0,0.1-0.1,0.1-0.2c0,0,0,0,0-0.1c0,0,0,0-0.1-0.1c-0.1-0.1-0.3-0.1-0.5-0.2l0,0c-0.2,0-0.4-0.1-0.5-0.1
			c-0.2-0.1-0.3-0.2-0.4-0.4c-0.1-0.1-0.1-0.2-0.1-0.4c0-0.3,0.1-0.5,0.4-0.7c0.2-0.2,0.5-0.2,0.7-0.2c0.3,0,0.6,0.1,0.9,0.3
			c0.1,0.1,0.2,0.3,0.1,0.4s-0.3,0.2-0.4,0.1c-0.2-0.1-0.3-0.2-0.6-0.2c-0.1,0-0.3,0-0.4,0.1c-0.1,0-0.1,0.1-0.1,0.1c0,0,0,0,0,0
			l0.1,0.1c0.1,0.1,0.3,0.1,0.4,0.1l0,0c0.2,0,0.4,0.1,0.6,0.2c0.2,0.1,0.3,0.2,0.4,0.4c0.1,0.1,0.1,0.3,0.1,0.4
			c0,0.3-0.1,0.5-0.4,0.7c-0.2,0.2-0.5,0.2-0.8,0.2c-0.4,0-0.8-0.2-1.1-0.4C151.5,279.8,151.4,279.6,151.5,279.5z"/>
		<path class="st3" d="M154.4,279.5c0.1-0.1,0.3-0.2,0.4-0.1c0,0,0,0,0,0c0.2,0.2,0.4,0.3,0.7,0.3c0.1,0,0.3,0,0.4-0.1
			c0.1,0,0.1-0.1,0.1-0.2c0,0,0,0,0-0.1c0,0,0-0.1-0.1-0.1c-0.1-0.1-0.3-0.1-0.5-0.2l0,0c-0.2,0-0.4-0.1-0.5-0.1
			c-0.2-0.1-0.3-0.2-0.4-0.4c-0.1-0.1-0.1-0.2-0.1-0.4c0-0.3,0.1-0.5,0.4-0.7c0.2-0.2,0.5-0.2,0.7-0.2c0.3,0,0.6,0.1,0.9,0.3
			c0.1,0.1,0.2,0.3,0.1,0.4c-0.1,0.1-0.3,0.2-0.4,0.1c0,0,0,0,0,0c-0.2-0.1-0.3-0.2-0.6-0.2c-0.1,0-0.3,0-0.4,0.1
			c-0.1,0-0.1,0.1-0.1,0.1c0,0,0,0,0,0l0.1,0.1c0.1,0.1,0.3,0.1,0.4,0.1l0,0c0.2,0,0.4,0.1,0.6,0.2c0.2,0.1,0.3,0.2,0.4,0.4
			c0.1,0.1,0.1,0.3,0.1,0.4c0,0.3-0.1,0.5-0.4,0.7c-0.2,0.2-0.5,0.2-0.8,0.2c-0.4,0-0.8-0.2-1.1-0.4
			C154.4,279.8,154.3,279.6,154.4,279.5z"/>
		<path class="st3" d="M160.1,278.8v1.2c0,0.2-0.1,0.3-0.3,0.3h0c-0.2,0-0.3-0.1-0.3-0.3c-0.2,0.2-0.5,0.3-0.8,0.3
			c-0.4,0-0.7-0.2-1-0.4c-0.3-0.3-0.4-0.7-0.4-1.1c0-0.4,0.1-0.8,0.4-1c0.3-0.3,0.6-0.4,1-0.5c0.3,0,0.6,0.1,0.8,0.3
			c0-0.2,0.2-0.3,0.3-0.3c0.2,0,0.3,0.1,0.3,0.3l0,0V278.8z M159.5,278.8c0-0.2-0.1-0.4-0.2-0.6c-0.1-0.2-0.3-0.2-0.6-0.2
			c-0.2,0-0.4,0.1-0.6,0.2c-0.3,0.4-0.3,0.9,0,1.2c0.1,0.2,0.3,0.2,0.6,0.2c0.2,0,0.4-0.1,0.6-0.2
			C159.4,279.3,159.5,279,159.5,278.8L159.5,278.8z"/>
		<path class="st3" d="M164.1,278.8v1.1c0,0.8-0.6,1.4-1.4,1.5c-0.2,0-0.4-0.1-0.6-0.1c-0.2-0.1-0.2-0.3-0.1-0.4c0,0,0,0,0,0
			c0.1-0.2,0.3-0.2,0.4-0.2c0,0,0,0,0,0c0.1,0.1,0.2,0.1,0.3,0.1c0.4,0,0.7-0.3,0.8-0.6c-0.2,0.2-0.5,0.3-0.8,0.2
			c-0.4,0-0.7-0.2-1-0.5c-0.3-0.3-0.4-0.7-0.4-1.1c0-0.4,0.2-0.8,0.4-1.1c0.3-0.3,0.6-0.4,1-0.4c0.3,0,0.6,0.1,0.8,0.2
			c0-0.2,0.2-0.3,0.3-0.2c0.2,0,0.3,0.1,0.3,0.3L164.1,278.8L164.1,278.8z M163.5,278.8c0-0.2-0.1-0.4-0.2-0.6
			c-0.1-0.2-0.4-0.3-0.6-0.3c-0.2,0-0.4,0.1-0.6,0.3c-0.3,0.3-0.3,0.9,0,1.2c0.1,0.2,0.3,0.2,0.6,0.2c0.2,0,0.4-0.1,0.6-0.2
			C163.4,279.3,163.5,279.1,163.5,278.8L163.5,278.8z"/>
		<path class="st3" d="M165.2,278.8c0-0.8,0.7-1.5,1.5-1.5c0.8,0,1.4,0.6,1.4,1.4l0,0l0,0c0,0.2-0.2,0.3-0.3,0.2h-1.9
			c0,0.2,0.1,0.3,0.2,0.4c0.3,0.3,0.8,0.4,1.2,0.1c0.1-0.1,0.3-0.1,0.4,0c0.1,0.1,0.1,0.3,0,0.4c0,0,0,0,0,0
			c-0.3,0.3-0.7,0.4-1.1,0.4C165.9,280.2,165.2,279.6,165.2,278.8z M165.9,278.5h1.7c-0.1-0.4-0.5-0.6-0.9-0.6
			C166.3,277.9,166,278.1,165.9,278.5L165.9,278.5z"/>
		<rect x="127" y="284" class="st8" width="115.1" height="49.5"/>
		<path class="st5" d="M186.1,164.6c-1.1-1.6-1.7-3.5-1.7-5.5c0-7,7.6-12.6,17.1-12.6s17.1,5.6,17.1,12.6s-7.6,12.6-17.1,12.6
			c-4.2,0.1-8.3-1.1-11.8-3.5l-5.9,1.5L186.1,164.6z"/>
		<path class="st4" d="M191,145.5c1.4-2,2.1-4.4,2.1-6.9c0-8.7-9.5-15.7-21.3-15.7s-21.3,7-21.3,15.7s9.5,15.7,21.3,15.7
			c5.2,0.1,10.3-1.4,14.7-4.3l7.3,1.9L191,145.5z"/>
		<path class="st2" d="M191,145.5c1.3-1.9,1.9-4.2,2-6.5c0-2.3-0.6-4.5-1.8-6.5c-2.5-3.8-6.3-6.7-10.8-7.9c-4.4-1.4-9-1.7-13.5-0.9
			c-4.5,0.7-8.7,2.8-12,5.9c-1.6,1.6-2.8,3.5-3.5,5.6c-0.7,2.1-0.7,4.4-0.1,6.6c0.7,2.2,1.8,4.1,3.4,5.7c1.6,1.6,3.5,2.9,5.5,3.9
			c2,1,4.2,1.7,6.5,2.1c2.2,0.4,4.5,0.6,6.8,0.5c4.6-0.2,9-1.6,12.9-4.2h0.1h0.1l7.3,2l-0.1,0.1L191,145.5z M191,145.5l2.9,6.4
			l0.1,0.1h-0.2l-7.4-1.8h0.1c-3.8,2.6-8.3,4.2-13,4.4c-4.7,0.3-9.4-0.6-13.6-2.6c-2.1-1-4-2.4-5.7-4c-1.7-1.7-2.9-3.7-3.6-6
			c-0.7-2.3-0.6-4.7,0.1-7c0.7-2.3,2-4.3,3.7-5.9c1.7-1.7,3.6-3,5.7-4c2.1-1,4.4-1.7,6.7-2.1c2.3-0.4,4.6-0.5,6.9-0.3
			c2.3,0.2,4.6,0.6,6.8,1.4c2.2,0.7,4.3,1.8,6.2,3.2c1.9,1.4,3.5,3.1,4.7,5.1C193.9,136.4,193.7,141.5,191,145.5L191,145.5z"/>
		<rect x="154.9" y="362.6" class="st5" width="59.3" height="18"/>
		<path class="st4" d="M170.6,373.4c0.2-0.3,0.6-0.3,0.9-0.1c0.6,0.5,1.4,0.9,2.3,0.9c0.5,0,1.1-0.1,1.5-0.4
			c0.3-0.2,0.5-0.5,0.5-0.9c0-0.1,0-0.3-0.1-0.4c-0.1-0.1-0.2-0.3-0.4-0.4c-0.5-0.3-1.1-0.5-1.6-0.6l0,0c-0.5-0.1-1-0.2-1.5-0.5
			c-0.5-0.2-0.8-0.5-1.1-0.9c-0.2-0.3-0.3-0.6-0.3-1c0-0.7,0.4-1.4,1-1.8c0.6-0.4,1.3-0.6,2.1-0.6c1,0.1,1.9,0.4,2.6,1
			c0.2,0.3,0.2,0.6,0,0.9c-0.2,0.2-0.4,0.2-0.6,0.1c-0.5-0.4-1.2-0.7-1.9-0.8c-0.5,0-0.9,0.1-1.3,0.4c-0.3,0.2-0.4,0.4-0.5,0.8
			c0,0.1,0,0.2,0.1,0.3c0.1,0.1,0.2,0.2,0.3,0.3c0.5,0.3,1,0.5,1.5,0.5l0,0c0.6,0.1,1.1,0.3,1.7,0.5c0.5,0.2,0.9,0.6,1.2,1
			c0.2,0.3,0.3,0.6,0.3,1c0,0.7-0.4,1.4-1,1.9c-0.6,0.5-1.4,0.7-2.2,0.7c-1.1-0.1-2.2-0.5-3.1-1.2
			C170.5,374.1,170.5,373.7,170.6,373.4z"/>
		<path class="st4" d="M178.4,372.5c0-1.6,1.3-3,2.9-3c1.6,0,2.8,1.2,2.9,2.8v0.1c0,0,0,0.1,0,0.1c-0.1,0.3-0.3,0.5-0.6,0.5h-3.8
			c0.1,0.3,0.2,0.6,0.4,0.8c0.3,0.3,0.7,0.5,1.1,0.5c0.4,0,0.9-0.1,1.2-0.3c0.3-0.2,0.6-0.2,0.9,0c0.2,0.2,0.2,0.6,0,0.8
			c-0.6,0.5-1.4,0.8-2.1,0.8C179.6,375.5,178.3,374.1,178.4,372.5z M179.7,371.9h3.4c-0.3-0.7-1-1.2-1.8-1.3
			C180.5,370.6,179.8,371.2,179.7,371.9L179.7,371.9z"/>
		<path class="st4" d="M191.1,372v2.9c0,0.3-0.3,0.6-0.6,0.6c-0.3,0-0.6-0.3-0.6-0.6V372c0-0.7-0.6-1.2-1.2-1.2
			c-0.7,0-1.2,0.5-1.2,1.2c0,0,0,0,0,0v2.9c0,0,0,0.1,0,0.1c-0.1,0.3-0.3,0.5-0.6,0.5c-0.3,0-0.6-0.3-0.6-0.6v-4.7
			c0-0.4,0.3-0.6,0.7-0.6c0.2,0,0.5,0.1,0.6,0.4c0.4-0.2,0.8-0.4,1.3-0.4C190,369.5,191.1,370.6,191.1,372z"/>
		<path class="st4" d="M198.6,374.8c0,0.4-0.3,0.6-0.6,0.6c-0.3,0-0.6-0.2-0.6-0.5c-1.4,0.9-3.2,0.6-4.2-0.8
			c-0.9-1.4-0.6-3.2,0.8-4.2c0.5-0.3,1.1-0.5,1.7-0.5c0.6,0,1.1,0.2,1.6,0.5v-2.3c0-0.4,0.4-0.6,0.7-0.6c0.3,0,0.5,0.3,0.6,0.6v4.8
			l0,0V374.8z M195.7,370.8c-0.4,0-0.8,0.2-1.1,0.5c-0.3,0.3-0.5,0.8-0.5,1.2c0,0.4,0.2,0.9,0.5,1.2c0.3,0.3,0.7,0.5,1.1,0.5
			c0.4,0,0.8-0.2,1.1-0.5c0.3-0.3,0.5-0.7,0.5-1.2c0-0.5-0.2-0.9-0.5-1.2C196.6,371,196.2,370.8,195.7,370.8L195.7,370.8z"/>
	</g>
	<g id="freepik--Character--inject-12">
		<path class="st9" d="M294.7,431.3c-1.9-1.4-39.3-53-39.4-55.9c-0.1-1.1,7.1-7,16-13.8c1.9-1.5,28.3-31.7,28.3-31.7l24.4,33.6
			l-28.5,31.4c0,0,5.5,26.2,5.3,29.3S296.6,432.6,294.7,431.3z"/>
		<path class="st0" d="M294.7,431.3c-1.9-1.4-39.3-53-39.4-55.9c-0.1-1.1,7.1-7,16-13.8c0.7-0.5,4.3-4.6,8.8-9.6l24.2,33.1l-8.8,9.7
			c0,0,5.4,26.2,5.3,29.3S296.6,432.6,294.7,431.3z"/>
		<path class="st5" d="M294.7,431.5c-1.9-1.4-39.5-53.3-39.7-56.2c-0.1-1.1,7-6.6,15.3-13.9c2-1.8,3.8-4,6-5.7l24.5,33.7l-5.4,5.4
			c0,0,5.5,26.3,5.3,29.5S296.7,432.9,294.7,431.5z"/>
		<path class="st6" d="M296.3,429.2c-6.1-8.9-31.5-44-38.1-52.3c-0.1-0.1-0.1,0-0.1,0c5.8,8.9,31.5,43.9,38,52.4
			C296.3,429.5,296.4,429.4,296.3,429.2z"/>
		<path class="st6" d="M298.3,394.6c-1.8-3.9-5.4-7.7-9.7-8.5c-0.2,0-0.2,0.2-0.1,0.3c3.4,2.5,6.6,5.4,9.4,8.6
			c0.1,0.1,0.3,0.1,0.4,0C298.4,394.8,298.4,394.7,298.3,394.6z"/>
		<path class="st6" d="M298.6,398.2c-1.8-3.9-5.4-7.7-9.7-8.5c-0.2,0-0.2,0.2-0.1,0.3c3.4,2.5,6.6,5.4,9.4,8.6
			c0.1,0.1,0.3,0.2,0.4,0.1C298.7,398.5,298.7,398.3,298.6,398.2L298.6,398.2z"/>
		<path class="st6" d="M298.9,401.7c-1.8-3.9-5.4-7.7-9.7-8.5c-0.2,0-0.2,0.2-0.1,0.3c3.4,2.5,6.6,5.4,9.4,8.5
			c0.1,0.1,0.3,0.2,0.4,0.1S299,401.8,298.9,401.7L298.9,401.7z"/>
		<path class="st6" d="M299.2,405.3c-1.8-3.9-5.4-7.7-9.7-8.6c-0.2,0-0.2,0.2-0.1,0.3c3.4,2.5,6.6,5.4,9.4,8.5
			c0.1,0.1,0.3,0.1,0.4,0C299.2,405.5,299.3,405.4,299.2,405.3z"/>
		<path class="st6" d="M310.8,395.2c0.9-2.7-1.8-4.6-4-5.1c-3.9-0.9-7.9-0.8-11.7,0.4c-0.1,0-0.1,0.1-0.1,0.2
			c-0.2,0.2-0.3,0.5-0.1,0.7c0,0,0.1,0.1,0.1,0.1c3.1,2.1,6.1,4.7,9.8,5.7C307,397.8,310,397.8,310.8,395.2z M300.4,393.7
			c-1.5-1-3-2-4.6-3c2.3-0.1,4.5-0.2,6.8-0.1c1.1,0.1,2.2,0.2,3.3,0.4c1.7,0.4,6.6,3,2.4,5.1C305.9,397.3,302.2,394.8,300.4,393.7z"
			/>
		<path class="st6" d="M289.8,381.1c0.8,3.7,3.2,6.9,5.1,10.1c0.2,0.2,0.5,0.3,0.7,0.1c0.1,0,0.1-0.1,0.1-0.1c0.1,0,0.1,0,0.2,0
			c0,0,0,0,0,0c1.4-3.7,1.8-7.7,1.1-11.6c-0.4-2.3-2.2-5-4.9-4.3C289.5,375.9,289.3,379,289.8,381.1z M291.1,377.8
			c2.4-4.1,4.7,1,4.9,2.7c0.1,1.1,0.2,2.2,0.2,3.3c0,2.3-0.3,4.5-0.5,6.8c-0.8-1.6-1.8-3.2-2.7-4.8C292,383.9,289.8,380,291.1,377.8
			z"/>
		<path class="st6" d="M319.1,299.9c-2.3,11.4-40.2,47.4-40.2,47.4l33.1,38.2c0,0,57.8-57.5,54.3-82.8
			c-3.1-22-35.9-110.3-35.9-110.3h-37.9C292.4,192.4,321.4,288.7,319.1,299.9z"/>
		<path class="st10" d="M319.1,299.9c-2.3,11.4-40.2,47.4-40.2,47.4l33.1,38.2c0,0,57.8-57.5,54.3-82.8
			c-3.1-22-35.9-110.3-35.9-110.3h-37.9C292.4,192.4,321.4,288.7,319.1,299.9z"/>
		<path class="st6" d="M315.7,376.4c-4.4-5.5-3.1-4-7.5-9.4c-2.2-2.7-16.5-20.1-19-22.2c-0.1,0-0.1,0-0.1,0.1
			c1.6,2.8,16.3,20,18.5,22.6c4.6,5.3,3.3,3.8,7.9,9C315.7,376.6,315.8,376.5,315.7,376.4z"/>
		<path class="st6" d="M323.9,294.4c-0.5-2.9-1.1-5.7-1.8-8.5c-1.2-5.8-2.5-11.6-3.9-17.4c-2.7-11.5-5.7-22.8-8.9-34.1
			c-3.2-11.4-6.6-22.7-10.6-33.8c-0.5-1.4-1-2.8-1.5-4.1c0,0,0-0.1-0.1-0.1c0,0-0.1,0-0.1,0.1c3.4,11.1,6.9,22.3,10.1,33.5
			s6.1,22.4,8.9,33.7c1.4,5.7,2.7,11.4,4,17c0.6,2.8,1.2,5.6,1.8,8.4c0.7,2.8,1.3,5.7,1.6,8.7c0.1,2.8-0.7,5.5-2.2,7.8
			c-1.4,2.3-3.1,4.5-4.7,6.7c-3.2,4.4-24.6,29.1-25.6,30.1c-0.1,0.1,0,0.2,0.1,0.1c4.1-3.6,20.8-22.3,24.1-26.7
			c1.6-2.2,3.2-4.4,4.8-6.6c1.6-2,2.9-4.3,3.8-6.6C324.5,299.8,324.5,297,323.9,294.4z"/>
		<path class="st6" d="M323.8,192.4l-6.9,90.4c-6.6-30.9-24.5-90.4-24.5-90.4L323.8,192.4z"/>
		<path class="st9" d="M390.6,440.8c-2.2,0.7-66,0.5-68.4-1.1c-0.9-0.6-1.4-9.9-1.7-21.1c-0.1-2.4-9-41.5-9-41.5l41.5,0l8.5,41.5
			c0,0,24.4,11,26.8,13S392.8,440.1,390.6,440.8z"/>
		<path class="st0" d="M390.6,440.8c-2.2,0.7-66,0.5-68.4-1.1c-0.9-0.6-1.4-9.9-1.7-21.1c0-0.9-1.1-6.2-2.6-12.8h41l2.6,12.9
			c0,0,24.4,11,26.8,13S392.8,440.1,390.6,440.8z"/>
		<path class="st5" d="M390.8,440.9c-2.2,0.7-66.3,0.5-68.8-1.1c-0.9-0.6-1.2-9.5-2.2-20.5c-0.2-2.6-1-5.4-1.1-8.2h41.7l1.2,7.5
			c0,0,24.5,11.1,27,13.1S393,440.1,390.8,440.9z"/>
		<path class="st5" d="M390.8,440.9c-2.2,0.7-66.3,0.5-68.8-1.1c-0.9-0.6-1.2-9.5-2.2-20.5c-0.2-2.6-1-5.4-1.1-8.2h41.7l1.2,7.5
			c0,0,24.5,11.1,27,13.1S393,440.1,390.8,440.9z"/>
		<path class="st6" d="M389.9,438.3c-10.7-0.3-54.1-0.5-64.7,0c-0.1,0-0.1,0.1,0,0.1c10.6,0.5,54,0.4,64.7,0.1
			C390.1,438.5,390.1,438.3,389.9,438.3z"/>
		<path class="st6" d="M363.1,416.3c-4.2-0.8-9.4-0.2-12.6,2.8c-0.1,0.1,0,0.3,0.2,0.2c4.1-1.3,8.2-2.1,12.5-2.5
			c0.1,0,0.3-0.1,0.3-0.3C363.4,416.4,363.3,416.3,363.1,416.3z"/>
		<path class="st6" d="M366.2,418.1c-4.2-0.8-9.4-0.2-12.6,2.8c-0.1,0.1,0,0.3,0.2,0.3c4-1.3,8.2-2.1,12.4-2.5
			c0.1,0,0.3-0.1,0.3-0.2C366.4,418.3,366.3,418.1,366.2,418.1L366.2,418.1z"/>
		<path class="st6" d="M369.2,420c-4.2-0.8-9.4-0.2-12.6,2.8c-0.1,0.1,0,0.3,0.2,0.2c4-1.3,8.2-2.1,12.5-2.5c0.1,0,0.3-0.1,0.3-0.3
			C369.5,420.1,369.4,420,369.2,420L369.2,420z"/>
		<path class="st6" d="M372.3,421.8c-4.2-0.8-9.4-0.2-12.6,2.8c-0.1,0.1,0,0.3,0.2,0.2c4-1.3,8.2-2.1,12.4-2.5
			c0.1,0,0.2-0.2,0.2-0.3C372.5,421.9,372.4,421.8,372.3,421.8z"/>
		<path class="st6" d="M371,406.5c-1.6-2.3-4.8-1.3-6.5,0.2c-3,2.6-5.2,5.9-6.5,9.7c0,0.1,0,0.1,0.1,0.1c0,0,0,0,0,0
			c0,0.3,0.3,0.7,0.7,0.5c3.5-1.3,7.4-2.2,10.4-4.5C370.8,411.2,372.5,408.7,371,406.5z M363.6,414c-1.7,0.7-3.4,1.3-5.1,2
			c1.2-1.9,2.6-3.8,4-5.6c0.7-0.9,1.4-1.7,2.2-2.4c1.3-1.1,6.2-3.5,5.5,1.1C369.7,411.7,365.6,413.2,363.6,414L363.6,414z"/>
		<path class="st6" d="M347.1,415.2c3.5,1.5,7.5,1.4,11.2,1.8c0.3,0,0.5-0.2,0.5-0.5c0-0.1,0-0.1,0-0.2c0.1,0,0.1-0.1,0.1-0.1
			c0,0,0,0,0,0c-2.2-3.3-5.2-6-8.7-7.7c-2.1-1-5.3-1.2-6.4,1.4S345.1,414.4,347.1,415.2z M345.2,412.2c-1.9-4.3,3.5-3.2,5-2.4
			c1,0.5,1.9,1.1,2.8,1.8c1.8,1.4,3.5,2.8,5.2,4.4c-1.8-0.3-3.6-0.4-5.4-0.7C350.7,415,346.3,414.6,345.2,412.2L345.2,412.2z"/>
		<path class="st10" d="M329.9,192.4c-1.5,6.2-2.6,12.6-3.3,18.9c-0.8,7.9-1.8,15-2.8,15.8s-7.2,4.8-9.2,6.1
			c0,0,18.7,56.7,23.5,75.6c7,27.4,21.3,94,21.3,94h-44.6c0,0-11.2-62.7-17.1-88.8c-5.1-22.4-24.6-89.4-24.6-89.4
			c-4.2-10.5-3.6-22.2,1.6-32.2C274.8,192.4,329.9,192.4,329.9,192.4z"/>
		<path class="st6" d="M355,394.2c-6.5,0-4.7-0.1-11.2-0.1c-3.2,0-24.2,0.1-27.2,0.7c-0.1,0-0.1,0.1,0,0.1c3,0.5,24,0,27.2-0.1
			c6.5-0.2,4.7-0.2,11.2-0.4C355.1,394.4,355.1,394.2,355,394.2z"/>
		<path class="st6" d="M327,224.9c-4.3,2.4-8.5,5.1-12.3,8.2c-0.1,0-0.1,0.1,0,0.2c0,0.1,0.1,0.1,0.2,0c4.2-2.6,8.4-5.2,12.5-8
			c0.1-0.1,0.1-0.3,0-0.4C327.2,224.9,327.1,224.9,327,224.9z"/>
		<path class="st6" d="M323.6,194.1c0-0.1-0.3-0.1-0.3,0c0.8,5,1.3,10,1.6,15c0.1,2.3,0.3,15.4-3.9,15c-0.7,0-1.1-0.6-1.4-1.6
			c-0.2-1.3-0.2-2.7-0.1-4c0-2.7,0-5.5-0.2-8.2c-0.3-5.1-1.2-10.1-2.5-15c0-0.1-0.1-0.1-0.2-0.1c-0.1,0-0.1,0.1-0.1,0.1
			c1.2,6.9,1.9,14,2,21c0,3.4-0.9,8.6,2.7,8.6s4.6-8.7,4.7-11.1C326,207.2,325.2,200.5,323.6,194.1z"/>
		<path class="st6" d="M321.1,224.5c-0.2,0.9-0.4,1.8-0.5,2.8c-0.1,0.7-0.1,1.5,0,2.2c0,0.1,0.1,0.1,0.2,0.1c0,0,0.1,0,0.1-0.1
			c0.3-0.7,0.5-1.5,0.6-2.2c0.2-0.9,0.4-1.7,0.5-2.6c0-0.3-0.1-0.5-0.4-0.5C321.4,224.1,321.2,224.3,321.1,224.5z"/>
		<path class="st6" d="M310.8,378.7c-0.1-1.2-0.3-2.5-0.5-3.8c-0.3-2.4-4-21.9-5.9-31.4c-1.1-5.4-2.4-10.7-3.7-16
			c-0.1-0.4-0.6-0.2-0.5,0.2c0.8,4.9,1.6,9.7,2.5,14.6s6.1,29.7,6.6,32.4c0.2,1.4,0.5,2.7,0.8,4s0.6,2.6,0.9,4
			c0,0.1,0.2,0.1,0.2-0.1C311,381.3,311,380,310.8,378.7z"/>
		<path class="st6" d="M342.8,325.8c-1.5-7.4-3.5-14.7-5.5-22c-4.1-14.6-8.8-29.1-13.6-43.5c-1.4-4.2-2.8-8.3-4.1-12.5
			c-0.7-2.1-4-13.3-4.5-14.4c0,0-0.1-0.1-0.1-0.1c0,0-0.1,0.1-0.1,0.1l0,0c1,3.8,2.3,9.4,3.4,13.2s2.3,7.4,3.5,11.2
			c2.3,7.3,4.6,14.6,6.8,21.9c4.4,14.5,8.7,29,12.3,43.7c1,4.1,2,8.2,2.9,12.4s1.7,8.3,2.5,12.4c0,0.1,0.1,0.1,0.1,0.1
			c0,0,0.1,0,0.1-0.1C345.8,340.6,344.3,333.2,342.8,325.8z"/>
		<path class="st6" d="M315.1,364.5c-2.5-14.1-5.4-28.2-8.7-42.1s-6.9-28-10.9-41.8s-8.5-27.5-13.3-41.1c-2.4-6.4-4.5-12.9-6.1-19.6
			c-1.5-6.6-2.2-13.7-0.7-20.4c0.4-1.7,0.9-3.4,1.5-5c0-0.1-0.1-0.2-0.2-0.1c-5.4,12.5-1.9,26.2,2.2,38.5c2.2,6.8,4.6,13.5,6.8,20.2
			c2.3,6.9,4.4,13.9,6.5,20.9c4.1,13.9,8,27.8,11.4,41.9s6.5,28.2,9.2,42.4s2.5,13.1,4.8,27.4c0.3,1.9,0.5,3.7,0.8,5.6
			c0,0.1,0.2,0.1,0.2,0C317,377.2,317.5,378.6,315.1,364.5z"/>
		<path class="st7" d="M357.8,87.1l-4.2,27.5c-0.2,0.8,0.2,1.4,1,1.3l13.9-1.3c0.9-0.1,1.6-0.7,1.8-1.6l4.2-27.5
			c0.2-0.8-0.2-1.4-1-1.3l-13.9,1.3C358.7,85.6,358,86.2,357.8,87.1z"/>
		<path class="st10" d="M359.4,86.9l-4.2,27.5c-0.2,0.8,0.2,1.4,1,1.3l13.9-1.3c0.9-0.1,1.6-0.8,1.8-1.6l4.2-27.5
			c0.2-0.8-0.2-1.4-1-1.3l-13.9,1.3C360.4,85.4,359.6,86.1,359.4,86.9z"/>
		<path class="st6" d="M363.3,87.8c0,0.6-0.5,1.2-1.1,1.2c-0.7,0-1.2-0.4-1.3-1.1c0-0.7,0.4-1.2,1.1-1.3
			C362.7,86.6,363.3,87.1,363.3,87.8L363.3,87.8L363.3,87.8z"/>
		<path class="st9" d="M319,131.4c9.3,16,31.4,37.6,38.7,37.1c3.5-0.3,9.7,0,13.9-4.4c9.2-9.6,16-26.9,16.9-36.6
			c0.3-3.4-16.8-9.3-19-6.4c-5.1,7-10.6,20.2-11.7,20.2c-3.8,0-21.1-10.8-32.1-17.5C311.8,115.6,315.2,125.1,319,131.4z"/>
		<path class="st9" d="M387.3,110.1c-2.3-6.7-4-8.1-2.9-14.8c0.7-4.4-1.9-6.7-4.6-3c-4.5,6.1-3.3,15.4-2,18.5L387.3,110.1z"/>
		<path class="st9" d="M387.9,130.6c0,0,2.2-9.8,0.5-17.3c-1.2-5.1-5.2-16-20.2-20.6c-3.6-1.1-9.4-0.1-4.2,3.8
			c3.7,2.8,6.9,3.4,8.7,5.4c0,0-7.3,2.1-8.3,5.7c-0.8,3.2-1.4,6.4-1.8,9.6c0.6,0.2,1.2,0.4,1.8,0.5c0,0-0.6,3.5,2.3,8L387.9,130.6z"
			/>
		<path class="st9" d="M386.4,108.7c-2.3-1.6-7.1-4.9-12-6.2c-5.4-1.5-16.3-2.8-17.4,1.2c-0.8,3,3.3,3.8,3.3,3.8s-4.6,0.4-4.7,3.2
			c-0.1,2.6,3.1,3.1,3.1,3.1s-2.8,0.7-2.4,3.2c0.5,3,6.2,1,9.2,3.7C366.3,121.2,386.4,108.7,386.4,108.7z"/>
		<path class="st6" d="M373.8,108.4c-4.2-1.7-8.9-2.1-13.3-1.1c-0.1,0-0.1,0.1,0,0.1C364.9,107.3,369.4,107.6,373.8,108.4
			L373.8,108.4z"/>
		<path class="st6" d="M372.1,113.9c-4.4-1.3-9-1.4-13.4-0.3c-0.1,0-0.1,0.1,0,0.1C363.2,113.3,367.7,113.3,372.1,113.9
			C372.1,113.9,372.1,113.9,372.1,113.9z"/>
		<path class="st5" d="M344,133.4l-10.2,22.2c0,0-16.4-21.3-19.4-28.9c-3.4-8.6,1.7-8.5,9.8-5.1S344,133.4,344,133.4z"/>
		<path class="st11" d="M344,133.4l-10.2,22.2c0,0-16.4-21.3-19.4-28.9c-3.4-8.6,1.7-8.5,9.8-5.1S344,133.4,344,133.4z"/>
		<path class="st6" d="M339.7,132.3c-1.7,2.6-5.6,11.3-6.3,12.7c-0.4,0.8-1.6,3.8-2,4.6c0,0.1,0.1,0.1,0.1,0.1
			c0.7-1.4,1.5-2.8,2.2-4.2S338.7,135.3,339.7,132.3C339.8,132.3,339.7,132.2,339.7,132.3z"/>
		<path class="st5" d="M270.4,203l66.4,2.3c0,1.3-1.9-52.1-18.1-84c-1.1-2.2-11.5-4.8-16.2-0.8C281.7,138.3,270.3,203.8,270.4,203z"
			/>
		<path class="st11" d="M301.3,121.5l17.9,0.8c0.1,0.1,0.1,0.2,0.1,0.3l-18.3-0.8L301.3,121.5z M296.4,127.3l25.5,1.1
			c0-0.1-0.1-0.2-0.1-0.3l-25.2-1.1L296.4,127.3z M292.8,132.9l31.3,1.3c0-0.1-0.1-0.2-0.1-0.3l-31.1-1.3L292.8,132.9z M289.8,138.5
			l36.2,1.5l-0.1-0.3l-36-1.5L289.8,138.5z M287.2,144.2l40.5,1.7c0-0.1,0-0.2-0.1-0.3l-40.3-1.7L287.2,144.2z M284.9,149.9
			l44.3,1.9c0-0.1,0-0.2-0.1-0.3l-44.1-1.9C285,149.6,285,149.8,284.9,149.9L284.9,149.9z M282.8,155.5l47.7,2l-0.1-0.3l-47.5-2
			C282.9,155.3,282.9,155.4,282.8,155.5L282.8,155.5z M280.9,161.2l50.8,2.1l0-0.3l-50.6-2.1C281,161,280.9,161.1,280.9,161.2
			L280.9,161.2z M279.1,166.9l53.5,2.3c0-0.1,0-0.2,0-0.3l-53.4-2.3C279.2,166.7,279.2,166.8,279.1,166.9z M277.5,172.5l56.1,2.4
			c0-0.1,0-0.2,0-0.3l-56-2.4C277.5,172.4,277.5,172.4,277.5,172.5L277.5,172.5z M275.9,178.2l58.4,2.5c0-0.1,0-0.2,0-0.3L276,178
			C276,178,276,178.1,275.9,178.2L275.9,178.2z M274.5,183.9l60.6,2.6c0-0.1,0-0.2,0-0.3l-60.5-2.6
			C274.6,183.7,274.6,183.8,274.5,183.9L274.5,183.9z M273.2,189.6l62.5,2.6V192l-62.4-2.6L273.2,189.6z M271.9,195.3l64.3,2.7v-0.3
			L272,195L271.9,195.3z M270.7,201l65.9,2.8c0-0.1,0-0.2,0-0.3l-65.8-2.8C270.8,200.8,270.8,200.9,270.7,201L270.7,201z"/>
		<path class="st9" d="M317.1,129.1c-3.1,0.9-9.9-2.7-12.2-7.1c-0.2-0.3,0.3-3.5,0.7-7.4c0.2-2.4,0.4-5,0.5-7.5
			c0-0.5,15.2,3.8,15.2,3.8c-0.9,3-1.4,6.2-1.5,9.3c0,0.3,0,0.7,0.1,1c0,0.1,0,0.1,0,0.2C320.2,123.3,320.5,128.2,317.1,129.1z"/>
		<path class="st6" d="M319.9,121.2c0,0,0,0.1,0,0.2c-0.5,0.1-1,0.1-1.6,0.1c-9-0.2-11.3-11.5-11.8-14.3c2.7,0.4,14.7,3.8,14.7,3.8
			c-0.9,3-1.4,6.2-1.5,9.3C319.8,120.6,319.8,120.9,319.9,121.2z"/>
		<path class="st9" d="M303.3,88.2c-1.5,5.4,1.8,21,5.7,24.4c5.7,4.9,14.9,5.1,19-1.7c4-6.6-0.7-26.8-5-29.8
			C316.5,76.5,305.5,80.1,303.3,88.2z"/>
		<path class="st6" d="M318.8,97.1c0,0-0.1,0.1-0.1,0.1c0.2,1,0.4,2.3-0.5,2.8c0,0,0,0.1,0,0C319.4,99.7,319.2,98,318.8,97.1z"/>
		<path class="st6" d="M317.6,96.2c-1.7,0.2-1.1,3.6,0.4,3.4S319.1,96,317.6,96.2z"/>
		<path class="st6" d="M325,96.3C325,96.2,325,96.3,325,96.3c0.2,1.1,0.6,2.3,1.6,2.5v0.1C325.4,98.9,324.9,97.3,325,96.3z"/>
		<path class="st6" d="M325.7,95c1.7-0.4,2.4,3,0.8,3.3S324.3,95.3,325.7,95z"/>
		<path class="st6" d="M316,94.9c0.4-0.2,0.8-0.4,1.2-0.7c0.5-0.2,0.9-0.5,1.1-0.9c0.1-0.3,0-0.7-0.3-0.9c-0.6-0.3-1.3-0.3-1.8,0.1
			c-0.6,0.3-1.1,0.8-1.3,1.4c-0.1,0.4,0.1,0.9,0.5,1C315.7,94.9,315.9,94.9,316,94.9z"/>
		<path class="st6" d="M326.7,93.1c-0.5,0-0.9-0.1-1.4-0.1c-0.5,0-1-0.1-1.4-0.4c-0.2-0.2-0.3-0.6-0.1-0.9c0.4-0.5,1.1-0.7,1.7-0.6
			c0.7,0,1.3,0.3,1.8,0.7c0.3,0.3,0.3,0.8,0,1.1C327.1,93,326.9,93.1,326.7,93.1z"/>
		<path class="st6" d="M319.5,107.1c0.3,0.3,0.6,0.4,1,0.5c0.4-0.1,0.8-0.2,1.1-0.4 M321.6,107.1c-0.2,0.5-0.7,0.8-1.2,0.8
			c-0.5,0-0.9-0.4-1-0.8c0,0,0.1-0.1,0.1,0L321.6,107.1z"/>
		<path class="st6" d="M320,103.7c0.7,0.8,1.6,1.2,2.7,1.2c0.4,0,0.9,0,1.3-0.2c0.1,0,0.2,0,0.2-0.1l0.2-0.1c0.1,0,0.2-0.2,0.2-0.3
			l0,0c0,0,0-0.1,0-0.1l0,0v-0.1c-0.1-0.8-0.4-2-0.4-2c0.3,0.1,2,0.5,1.9,0.1c-0.7-3.6-1.8-7.2-3.2-10.7c0-0.1-0.1-0.1-0.1-0.1
			c0,0-0.1,0.1-0.1,0.1c0.6,3.4,1.9,6.6,2.5,10c-0.6-0.2-1.2-0.2-1.8-0.2c-0.1,0.1,0.6,2.3,0.6,2.7l0,0c-1.3,0.4-2.7,0.2-3.9-0.5
			C320,103.6,320,103.6,320,103.7z"/>
		<path class="st6" d="M323.5,104.4c-0.4,0.7-0.9,1.2-1.5,1.6c-0.4,0.2-0.8,0.3-1.2,0.3c-0.9-0.1-1-0.8-1-1.5c0-0.4,0.1-0.7,0.2-1.1
			C321.1,104.3,322.3,104.6,323.5,104.4z"/>
		<path class="st12" d="M322,106c-0.4,0.2-0.8,0.3-1.2,0.3c-0.9-0.1-1-0.8-1-1.5C320.7,104.6,321.6,105.1,322,106z"/>
		<path class="st6" d="M326.1,85.8c-0.8-1.2-1.7-2.5-2.5-2.6s-1.1,1.9-2.9,2.3c-2.5,0.6-4-1.5-7.5-1.2c-5,0.5-6.5,5-5.5,12.1
			c0.9,6.3-2.8,7.6-2.8,7.6s-4.6-13.5-1.4-18.8s11.8-8.8,18.6-5.4C324.5,81.1,326.1,85.8,326.1,85.8z"/>
		<path class="st9" d="M307.6,101c0,0-3.8-4.9-6-3.5s0.8,8.6,3.5,9.4c1.4,0.6,3-0.1,3.6-1.5c0,0,0-0.1,0-0.1L307.6,101z"/>
		<path class="st6" d="M302.5,99.6c1.9,0.7,3,2.4,3.8,4.2c-0.5-0.7-1.4-0.9-2.1-0.4c-0.1,0-0.1,0.1-0.2,0.1c0,0,0,0.1,0,0.1
			c0.7-0.2,1.4,0,1.9,0.5c0.4,0.4,0.7,0.9,1,1.5c0.1,0.2,0.4,0.1,0.3-0.1l0,0C307.1,102.9,305.1,99.6,302.5,99.6L302.5,99.6z"/>
		<path class="st9" d="M293,128.9c-9.6,12.8-30.1,37.8-28.1,49.5c2.1,13,10.5,33.5,16,39.4c1.3,1.4,8.7,0.8,14.3-2
			c4.6-2.3,7.8-6.6,7.8-8.3c0-3.7-12.4-27.1-13.3-29.7s10.7-29.5,14.7-42.4C309.5,119.1,301.2,118.1,293,128.9z"/>
		<path class="st5" d="M299.2,153.3l-24.1-4.3c0,0,16.5-21.2,23-26.1c7.4-5.5,8.6-0.5,7.4,8.2S299.2,153.3,299.2,153.3z"/>
		<path class="st11" d="M299.2,153.3l-24.1-4.3c0,0,16.5-21.2,23-26.1c7.4-5.5,8.6-0.5,7.4,8.2S299.2,153.3,299.2,153.3z"/>
		<path class="st6" d="M299.1,148.8c-3-1-12.4-2.6-13.9-2.9c-0.8-0.1-4.1-0.6-4.9-0.8c-0.1,0-0.1,0.1,0,0.2c1.5,0.3,3.1,0.8,4.6,1.1
			s11,2.3,14.2,2.5C299.1,148.9,299.2,148.8,299.1,148.8z"/>
		<path class="st6" d="M303,143.5c0.5-1.2,1.1-2.4,1.6-3.5l0,0c-0.4,0.8-0.8,1.7-1.2,2.6c0.5-1.8,1-3.6,1.4-5.5c0,0,0,0,0,0
			c-1,2.7-1.9,5.4-2.8,8.1s-1.8,5.3-2.7,8c-0.6,0-1.1,0-1.7-0.1c0,0-0.1,0.1-0.1,0.1c0,0,0,0,0.1,0.1c0.6,0.1,1.2,0.3,1.8,0.4
			c0.1,0.1,0.3,0,0.4-0.1C300.8,150.2,301.9,146.9,303,143.5z"/>
		<path class="st6" d="M279.7,218.2c2.4,0.2,4.8,0,7.2-0.4c2.3-0.4,4.6-1.1,6.8-2c4.4-1.6,7.7-5.2,9.8-9.7c-0.3,2.6-1.2,5-2.8,7
			c-1.6,2.1-3.7,3.7-6.2,4.6c-2.4,1-4.8,1.5-7.4,1.7C284.6,219.5,282,219.1,279.7,218.2z"/>
	</g>
</g>
</svg>
