<?xml version="1.0" encoding="utf-8"?>
<!-- Generator: Adobe Illustrator 25.4.1, SVG Export Plug-In . SVG Version: 6.00 Build 0)  -->
<svg version="1.1" id="Layer_1" xmlns="http://www.w3.org/2000/svg" xmlns:xlink="http://www.w3.org/1999/xlink" x="0px" y="0px"
	 viewBox="0 0 668 405.4" style="enable-background:new 0 0 668 405.4;" xml:space="preserve">
<style type="text/css">
	.st0{fill:#EBEBEB;}
	.st1{fill:none;stroke:#EBEBEB;stroke-miterlimit:10;}
	.st2{fill:#C7C7C7;}
	.st3{fill:#FFC727;}
	.st4{fill:#FFFFFF;}
	.st5{fill:#DBDBDB;}
	.st6{fill:#37474F;}
	.st7{fill:#A6A6A6;}
	.st8{fill:#455A64;}
	.st9{fill:#263238;}
	.st10{fill:#EB9481;}
	.st11{opacity:0.2;fill:#263238;enable-background:new    ;}
	.st12{fill:#AD6359;}
	.st13{fill:#D3766A;}
	.st14{fill:#FF9CBD;}
	.st15{fill:#F7A9A0;}
	.st16{opacity:0.1;enable-background:new    ;}
	.st17{opacity:0.2;}
</style>
<g>
	<g id="freepik--background-complete--inject-113">
		<g id="freepik--aiZGp2--inject-113">
			<path class="st0" d="M42.4,38.2c-2.6,6.7-4.2,13.8-4.6,21.1H19.2v-0.5c0-0.5,0.1-1,0.2-1.4c0.2-2.5,0.6-4.9,1.2-7.3
				c1-4,2.4-7.8,4.1-11.5c0.1-0.2,0.3-0.3,0.5-0.3L42.4,38.2L42.4,38.2z"/>
			<path class="st0" d="M41.9,85.2H24.7c-0.2,0-0.4-0.1-0.4-0.3c-2-4.1-3.4-8.5-4.3-13c-0.4-2.2-0.7-4.4-0.8-6.6c0-0.1,0-0.1,0-0.2
				v-0.5h0.3h18c0.3,0,0.3,0,0.3,0.3c0.1,1.5,0.2,3,0.3,4.5c0.2,2.4,0.6,4.7,1.2,7.1c0.6,2.8,1.4,5.7,2.4,8.4
				C41.8,85,41.8,85.1,41.9,85.2z"/>
			<path class="st0" d="M114,90.7c-0.1,0.1-0.1,0.2-0.1,0.2c-1.5,2.2-3.1,4.3-4.9,6.3c-2.1,2.4-4.5,4.6-7.1,6.6
				c-5,3.8-10.7,6.6-16.7,8.4c-2.3,0.7-4.7,1.2-7.1,1.5c-0.2,0-0.5,0.1-0.7,0.1h-0.4l-0.4-0.2l0.4-0.3c5.2-3.6,9.8-8,13.5-13.1
				c2.1-2.9,3.9-6,5.5-9.2c0.1-0.2,0.2-0.3,0.4-0.3L114,90.7L114,90.7z"/>
			<path class="st0" d="M96.8,59.2H72.7v-21h18.8c0.2,0,0.3,0.1,0.4,0.2c1.7,4,3,8.1,3.8,12.3c0.4,2.2,0.7,4.4,0.9,6.7
				C96.7,58,96.8,58.6,96.8,59.2z"/>
			<path class="st0" d="M96.7,64.8c0,0.5,0,1-0.1,1.5c-0.1,1.2-0.2,2.3-0.4,3.5c-0.2,1.6-0.5,3.2-0.8,4.8c-0.7,3.5-1.8,7-3.1,10.3
				c0,0.2-0.2,0.3-0.4,0.3H72.6V64.8H96.7z"/>
			<path class="st0" d="M67.3,38.3v21H43.8c0-0.5,0-1.1,0.1-1.6c0.1-1.2,0.2-2.4,0.4-3.5c0.3-1.8,0.6-3.6,1-5.3
				c0.8-3.6,1.9-7,3.4-10.4c0.1-0.1,0.2-0.2,0.3-0.2H67.3z"/>
			<path class="st0" d="M67.3,65.1c0,6.6,0,13.2,0,19.8v0.3H48.5c-0.2,0-0.4-0.1-0.4-0.3c-1.4-3.4-2.5-7-3.2-10.6
				c-0.3-1.9-0.6-3.8-0.9-5.7c-0.2-1.2-0.2-2.5-0.3-3.7c0,0,0-0.1,0-0.1h23.3C67.3,64.8,67.3,64.9,67.3,65.1z"/>
			<path class="st0" d="M122.3,59.3h-19.7c-0.4-7.3-1.9-14.4-4.6-21.2h18.4c0.2,0,0.4,0.1,0.4,0.3c2.1,4.2,3.6,8.6,4.6,13.2
				c0.5,2.4,0.8,4.9,1,7.4C122.4,59.1,122.3,59.2,122.3,59.3z"/>
			<path class="st0" d="M122.4,64.7c0,0.5,0,0.9-0.1,1.4c-0.1,1.8-0.3,3.6-0.6,5.3c-0.7,4.1-1.9,8.1-3.6,11.9
				c-0.3,0.6-0.6,1.2-0.8,1.8c0,0.1-0.2,0.2-0.3,0.2H98.8h-0.2l0.6-1.8c1.8-5.4,2.9-11.1,3.3-16.8c0-0.6,0.1-1.1,0.1-1.7
				c0-0.2,0-0.2,0.2-0.2c0.1,0,0.1,0,0.2,0L122.4,64.7z"/>
			<path class="st0" d="M113.4,32.8C113.4,32.8,113.4,32.9,113.4,32.8l-17.5,0.1c-0.2,0-0.3-0.1-0.4-0.2c-2.3-4.6-5.2-8.8-8.6-12.7
				c-2-2.2-4.2-4.3-6.6-6.1c-1.2-0.9-2.4-1.8-3.6-2.6l-0.2-0.2l0.2-0.2c0-0.1-0.1-0.2-0.1-0.4C91.6,12.3,105,20.4,113.4,32.8z"/>
			<path class="st0" d="M64,113.5c-0.2,0.1-0.3,0.1-0.5,0.1c-1.9-0.2-3.8-0.6-5.6-1.1c-7.4-1.9-14.4-5.5-20.2-10.4
				c-2.2-1.9-4.3-3.9-6.1-6.1c-1.4-1.7-2.7-3.5-3.8-5.3l-0.1-0.2h16.4c0.2,0,0.3,0.1,0.4,0.3c1.7,3.4,3.6,6.6,5.9,9.6
				c2.1,2.7,4.4,5.3,6.9,7.7c2.1,2,4.3,3.8,6.7,5.4L64,113.5z"/>
			<path class="st0" d="M63.8,11.1c-0.7,0.5-1.6,1.1-2.4,1.8c-2.8,2.2-5.4,4.6-7.8,7.2c-3.2,3.5-6,7.4-8.2,11.7
				c-0.1,0.3-0.3,0.5-0.4,0.8c-0.1,0.1-0.1,0.1-0.2,0.2c-0.3,0-0.6,0-0.9,0H28.1c8.7-12.4,20.5-19.8,35.5-22l-0.1,0.2L63.8,11.1z"/>
			<path class="st0" d="M89.6,90.7c-2.2,3.9-4.9,7.5-8,10.8c-2.7,2.9-5.8,5.5-9.1,7.7V90.7H89.6z"/>
			<path class="st0" d="M67.3,90.7v18.1c-6.8-4.7-12.4-10.9-16.3-18.1H67.3z"/>
			<path class="st0" d="M89.1,32.7H72.8V15.5c3.4,2.2,6.4,4.8,9.2,7.7C84.6,26.1,87,29.3,89.1,32.7z"/>
			<path class="st0" d="M67.3,16v16.9H51.6C55.5,26.1,60.8,20.3,67.3,16z"/>
		</g>
		<rect x="414.5" y="22.7" class="st1" width="234.3" height="176.9"/>
		<rect x="414.5" y="22.7" class="st1" width="234.3" height="11.8"/>
		<path class="st2" d="M425.5,28.6c0,1.7-1.3,3-3,3s-3-1.3-3-3s1.3-3,3-3S425.5,27,425.5,28.6L425.5,28.6z"/>
		<path class="st0" d="M437.6,28.6c0,1.7-1.3,3-3,3s-3-1.3-3-3s1.3-3,3-3S437.6,27,437.6,28.6L437.6,28.6z"/>
		<path class="st3" d="M449.7,28.6c0,1.7-1.3,3-3,3s-3-1.3-3-3s1.3-3,3-3S449.7,27,449.7,28.6L449.7,28.6z"/>
		<rect x="28.3" y="125.9" class="st1" width="129.3" height="93.1"/>
		<rect x="28.3" y="125.9" class="st1" width="129.3" height="11.8"/>
		<path class="st2" d="M39.3,131.9c0,1.7-1.3,3-2.9,3s-3-1.3-3-2.9c0-1.7,1.3-3,2.9-3c0,0,0,0,0,0C38,128.9,39.3,130.2,39.3,131.9z"
			/>
		<path class="st0" d="M51.4,131.9c0,1.7-1.3,3-2.9,3s-3-1.3-3-2.9c0-1.7,1.3-3,2.9-3c0,0,0,0,0,0C50.1,128.9,51.4,130.2,51.4,131.9
			z"/>
		<path class="st3" d="M63.5,131.9c0,1.7-1.3,3-2.9,3s-3-1.3-3-2.9c0-1.7,1.3-3,2.9-3c0,0,0,0,0,0C62.1,128.9,63.5,130.2,63.5,131.9
			z"/>
	</g>
	<rect x="58" y="48.3" class="st4" width="572.2" height="346"/>
	<path class="st0" d="M630.2,394.3l-572.2,0.3h-0.4v-0.3l-0.1-346v-0.5h0.5l572.2,0.2h0.3v0.3L630.2,394.3z M630.2,394.3l-0.3-346
		l0.3,0.3L58.1,48.8l0.5-0.5l-0.1,346l-0.4-0.4L630.2,394.3z"/>
	<rect x="112.1" y="104.3" class="st0" width="15.2" height="2.4"/>
	<rect x="112.1" y="115.3" class="st0" width="15.2" height="2.4"/>
	<rect x="112.1" y="109.8" class="st0" width="15.2" height="2.4"/>
	<rect x="155.2" y="194.2" class="st3" width="125.7" height="3.7"/>
	<rect x="90.7" y="133.2" class="st3" width="181.3" height="3.7"/>
	<path class="st5" d="M112.1,218.6c10.2-0.2,20.5-0.3,30.7-0.4l30.7-0.1l30.8,0.1l15.4,0.1l15.4,0.2l-15.4,0.2l-15.4,0.1l-30.8,0.1
		l-30.7-0.1C132.5,218.9,122.3,218.8,112.1,218.6z"/>
	<path class="st5" d="M112.1,228.3c10.2-0.2,20.5-0.3,30.7-0.4l30.7-0.1l30.8,0.1l15.4,0.1l15.4,0.2l-15.4,0.2l-15.4,0.1l-30.8,0.1
		l-30.7-0.1C132.5,228.6,122.3,228.5,112.1,228.3z"/>
	<path class="st5" d="M112.1,238.1c10.2-0.2,20.5-0.3,30.7-0.4l30.7-0.1l30.8,0.1l15.4,0.1l15.4,0.2l-15.4,0.2l-15.4,0.1l-30.8,0.1
		l-30.7-0.1C132.5,238.3,122.3,238.3,112.1,238.1z"/>
	<path class="st5" d="M112.1,257.6c10.2-0.2,20.5-0.3,30.7-0.4l30.7-0.1l30.8,0.1l15.4,0.1l15.4,0.2l-15.4,0.2l-15.4,0.1l-30.8,0.1
		l-30.7-0.1C132.5,257.9,122.3,257.8,112.1,257.6z"/>
	<path class="st5" d="M112.1,267.3c10.2-0.2,20.5-0.3,30.7-0.4l30.7-0.1l30.8,0.1l15.4,0.1l15.4,0.2l-15.4,0.2l-15.4,0.1l-30.8,0.1
		l-30.7-0.1C132.5,267.6,122.3,267.6,112.1,267.3z"/>
	<path class="st5" d="M112.1,277.1c6.2-0.2,12.5-0.3,18.7-0.4s12.5-0.1,18.7-0.1s12.5,0,18.7,0.1l9.4,0.1c3.1,0.1,6.2,0.1,9.4,0.2
		c-3.1,0.1-6.2,0.1-9.4,0.2l-9.4,0.1c-6.2,0.1-12.5,0.1-18.7,0.1s-12.5,0-18.7-0.1S118.3,277.3,112.1,277.1z"/>
	<rect x="112.1" y="297.2" class="st3" width="56.6" height="15.6"/>
	<path class="st4" d="M119.3,307.3v-4.8h0.5v4.4h2.8v0.4H119.3z"/>
	<path class="st4" d="M126.4,306.9v0.4h-3.2v-4.8h3.1v0.4h-2.7v1.7h2.4v0.4h-2.3v1.8L126.4,306.9z"/>
	<path class="st4" d="M128.8,302.6h0.4l2,4.8h-0.5l-0.6-1.5h-2.1l-0.6,1.5h-0.5L128.8,302.6z M129.9,305.5l-1-2.4l-1,2.4H129.9z"/>
	<path class="st4" d="M131.9,307.3v-4.8h2c0.2,0,0.4,0,0.6,0.1c0.2,0.1,0.3,0.2,0.4,0.4c0.1,0.1,0.2,0.3,0.3,0.5
		c0.1,0.2,0.1,0.4,0.1,0.5c0,0.2,0,0.3-0.1,0.5c-0.1,0.2-0.1,0.3-0.2,0.4c-0.1,0.1-0.2,0.2-0.3,0.3c-0.1,0.1-0.3,0.2-0.4,0.2
		l1.2,1.8h-0.5l-1.1-1.8h-1.4v1.8H131.9z M132.3,305.2h1.6c0.1,0,0.3,0,0.4-0.1c0.1-0.1,0.2-0.1,0.3-0.2c0.1-0.1,0.1-0.2,0.2-0.4
		c0-0.1,0.1-0.3,0.1-0.4c0-0.1,0-0.3-0.1-0.4c0-0.1-0.1-0.2-0.2-0.4c-0.1-0.1-0.2-0.2-0.3-0.2c-0.1-0.1-0.2-0.1-0.4-0.1h-1.5
		L132.3,305.2z"/>
	<path class="st4" d="M136.7,303.5v3.9h-0.5v-4.8h0.4l3.1,4v-4h0.5v4.8h-0.4L136.7,303.5z"/>
	<path class="st4" d="M147.4,307.3v-3.9l-1.7,3h-0.3l-1.7-3v3.9h-0.5v-4.8h0.5l1.9,3.3l1.9-3.3h0.5v4.8H147.4z"/>
	<path class="st4" d="M150.9,307.4c-0.3,0-0.6-0.1-0.9-0.2c-0.3-0.1-0.5-0.3-0.7-0.5c-0.2-0.2-0.4-0.5-0.5-0.8
		c-0.1-0.3-0.2-0.6-0.2-0.9c0-0.3,0.1-0.6,0.2-0.9c0.1-0.3,0.3-0.5,0.5-0.8c0.2-0.2,0.4-0.4,0.7-0.5c0.3-0.1,0.6-0.2,0.9-0.2
		c0.3,0,0.6,0.1,0.9,0.2c0.3,0.1,0.5,0.3,0.7,0.6c0.2,0.2,0.3,0.5,0.4,0.8c0.1,0.3,0.2,0.6,0.2,0.9c0,0.3-0.1,0.6-0.2,0.9
		c-0.1,0.3-0.3,0.5-0.5,0.8c-0.2,0.2-0.4,0.4-0.7,0.5C151.6,307.3,151.3,307.4,150.9,307.4z M149.2,305c0,0.3,0,0.5,0.1,0.8
		c0.1,0.2,0.2,0.4,0.4,0.6c0.2,0.2,0.3,0.3,0.6,0.5c0.2,0.1,0.5,0.2,0.7,0.2c0.3,0,0.5-0.1,0.7-0.2c0.2-0.1,0.4-0.3,0.6-0.5
		c0.2-0.2,0.3-0.4,0.4-0.6c0.1-0.2,0.1-0.5,0.1-0.7c0-0.3,0-0.5-0.1-0.8c-0.1-0.2-0.2-0.4-0.4-0.6c-0.2-0.2-0.3-0.3-0.6-0.4
		c-0.2-0.1-0.5-0.2-0.7-0.2c-0.3,0-0.5,0.1-0.7,0.2c-0.2,0.1-0.4,0.3-0.6,0.5c-0.2,0.2-0.3,0.4-0.4,0.6
		C149.2,304.5,149.2,304.7,149.2,305L149.2,305z"/>
	<path class="st4" d="M154.1,307.3v-4.8h2c0.2,0,0.4,0,0.6,0.1c0.2,0.1,0.3,0.2,0.4,0.4c0.1,0.1,0.2,0.3,0.3,0.5
		c0.1,0.2,0.1,0.4,0.1,0.5c0,0.2,0,0.3-0.1,0.5c0,0.2-0.1,0.3-0.2,0.4c-0.1,0.1-0.2,0.2-0.3,0.3c-0.1,0.1-0.3,0.2-0.4,0.2l1.2,1.8
		h-0.5l-1.1-1.8h-1.4v1.8H154.1z M154.5,305.2h1.5c0.1,0,0.3,0,0.4-0.1c0.1-0.1,0.2-0.1,0.3-0.2c0.1-0.1,0.1-0.2,0.2-0.4
		c0-0.1,0.1-0.3,0.1-0.4c0-0.1,0-0.3-0.1-0.4c-0.1-0.1-0.1-0.2-0.2-0.4c-0.1-0.1-0.2-0.2-0.3-0.2c-0.1-0.1-0.2-0.1-0.4-0.1h-1.5
		L154.5,305.2z"/>
	<path class="st4" d="M161.6,306.9v0.4h-3.2v-4.8h3.1v0.4h-2.7v1.7h2.3v0.4h-2.3v1.8L161.6,306.9z"/>
	<rect x="58" y="48.3" class="st6" width="572.2" height="9"/>
	<path class="st2" d="M65.2,52.7c0,1.2-1,2.2-2.2,2.2c-1.2,0-2.2-1-2.2-2.2c0-1.2,1-2.2,2.2-2.2C64.2,50.5,65.2,51.5,65.2,52.7z"/>
	<path class="st4" d="M74.2,52.7c0,1.2-1,2.2-2.2,2.2c-1.2,0-2.2-1-2.2-2.2s1-2.2,2.2-2.2c0,0,0,0,0,0
		C73.3,50.5,74.2,51.5,74.2,52.7z"/>
	<path class="st3" d="M83.3,52.7c0,1.2-1,2.2-2.2,2.2c-1.2,0-2.2-1-2.2-2.2c0-1.2,1-2.2,2.2-2.2C82.3,50.5,83.3,51.5,83.3,52.7
		C83.3,52.7,83.3,52.7,83.3,52.7z"/>
	<rect x="620.4" y="57.2" class="st5" width="9.8" height="337.1"/>
	<path class="st7" d="M625.3,174.1L625.3,174.1c-1.4,0-2.5-1.1-2.5-2.5c0,0,0,0,0,0V61.7c0-1.4,1.1-2.5,2.5-2.5l0,0
		c1.4,0,2.5,1.1,2.5,2.5v109.8C627.8,172.9,626.7,174.1,625.3,174.1z"/>
	<g id="freepik--character-4--inject-113">
		<path class="st0" d="M553.7,332.2v39.4h39.4v-39.4H553.7z M556.7,368.6v-33.5h33.5v33.5H556.7z"/>
		<rect x="456.5" y="263.3" class="st8" width="115.4" height="115.4"/>
		<path class="st9" d="M478.7,378.6h64.2c0.3-2.5-9.6-54.6-21.1-71.4c-1.3-1.9-12.5-3.3-16.7,1.4C483.3,333.8,478.2,378,478.7,378.6
			z"/>
		<path class="st10" d="M523.3,311.6c1.8,4.7,8.7,21.3,12.4,33.1c2.5,8,3.5,14.6,4,16.4c0,0-19-6.1-23.2-6.1
			c-6.6,0-17.1,13.7-14.5,15.4c4.1,2.7,23.4,11.9,38.9,14.8c8.4,1.6,24.2-9.1,23-17.6c-1.8-11.9-23.3-43.4-31.5-52.3
			C528.1,310.7,521.1,305.8,523.3,311.6z"/>
		<path class="st9" d="M565.1,370.2c-0.4,8.6-11.2,15.8-17.4,16.2c-10.8,0.6-43-8.7-43-8.7l12.5-24.2c0,0,22,7.5,22.5,7.7l0,0
			c-0.2-0.6-5.6-21-8-27.7c-0.1-0.4-0.3-0.8-0.4-1.1c-0.7-1.9-1.7-4.3-2.7-7l0,0c-0.6-1.5-1.2-3-1.8-4.5l0,0
			c-2.7-6.6-5.2-12.9-5.2-12.9c3.7,0.6,7.3,2.5,13.3,8.8S565.7,356,565.1,370.2z"/>
		<path class="st6" d="M513.1,372.4c0.9-1.7,1.8-3.4,2.7-5.1s1.8-3.3,2.7-5c1-1.7,1.9-3.5,2.7-5.2c0,0,0-0.1,0,0
			c-1.1,1.5-2.1,3.1-3,4.8c-1,1.7-1.9,3.4-2.8,5.1c-0.9,1.7-1.8,3.4-2.7,5c-0.9,1.7-1.7,3.5-2.4,5.4c0,0.1,0.1,0.1,0.1,0.1
			C511.3,375.7,512.2,374.1,513.1,372.4z"/>
		<path class="st6" d="M546.4,364.7l-6.7-3.6l0,0c-0.2-0.6-5.6-21-8-27.7c-0.1-0.4-0.3-0.8-0.4-1.1c-0.7-1.9-1.7-4.3-2.7-7
			L546.4,364.7z"/>
		<path class="st6" d="M552,367.6c-1.9-1.4-3.8-2.6-5.9-3.8c-1-0.6-2-1.1-3.1-1.6s-2.3-0.9-3.4-1.4c-0.1,0-0.2,0.1-0.1,0.1
			c1,0.5,2,1.1,3,1.7s2.1,1.1,3.2,1.7C547.8,365.5,549.8,366.6,552,367.6C552,367.8,552.1,367.7,552,367.6z"/>
		<path class="st10" d="M547.1,362.4c-1.7,0-11.8-2.7-13.3-1.3c-9,8.5-11.9,6.8-13.8,7.9c-14.8,8.5-34.7,18.6-41.8,18.6
			c-10.7,0.1-15-8.9-13.2-17.4c3.5-16.8,26.2-49.6,36.5-58.4c5.5-4.6,5,2.4,2.8,9.9c-1.3,4.4-3.6,11-6,17.5
			c-2.1,5.8-7.6,20.5-7.7,20.9l0,0l0,0c0,0,0,0,0.1,0c0.5-0.1,13.2-6.1,26-9.4c4.5-1.2,13.9-2.8,17.2-1.3c2,0.9,2,2.1,2,2.1
			c1.2,0,2.4,0.4,3.3,1.2c0.7,0.6,1.2,1.4,1.5,2.2c1,0.1,1.9,0.6,2.7,1.3c0.6,0.7,1.1,1.6,1.2,2.5
			C546.8,359.5,547.1,362.4,547.1,362.4z"/>
		<path class="st9" d="M532.1,351.3c-1.3,0-2.7,0.2-4,0.5c-0.1,0-0.1,0.1,0,0.1c1.3-0.1,2.6-0.2,3.9-0.2s2.6-0.1,3.9,0l0,0
			C534.7,351.4,533.4,351.3,532.1,351.3z"/>
		<path class="st9" d="M540.6,355c-2.3-0.7-4.7-0.9-7.1-0.6c0,0-0.1,0.1,0,0.1c0,0,0,0,0,0C535.9,354.4,538.3,354.6,540.6,355
			C540.6,355.1,540.6,355.1,540.6,355z"/>
		<path class="st9" d="M544.5,358.8c-2.1-0.9-4.4-1.3-6.7-1.3c-0.1,0-0.1,0.1,0,0.1c2.3,0.2,4.5,0.6,6.7,1.2
			C544.5,358.9,544.5,358.8,544.5,358.8z"/>
		<path class="st9" d="M516,351c-1.1,0.2-2.2,0.4-3.3,0.7c-1.2,0.3-2.3,0.6-3.5,1c-2.3,0.8-4.5,1.6-6.7,2.6c0,0-0.1,0-0.1,0
			c0,0,0,0.1,0,0.1c0,0,0,0,0.1,0c2.2-0.8,4.5-1.5,6.7-2.2l3.3-1.1c1.1-0.4,2.3-0.6,3.4-1.1C516.1,351.1,516.1,351,516,351z"/>
		<path class="st9" d="M507.1,353.4c1.1-0.4,2.2-0.7,3.4-0.8l13.4,22.6c0,0-36.8,13.2-44.4,14c-8.3,0.7-15.6-5.5-16.3-13.8
			c0-0.3,0-0.6,0-0.9c-0.2-13.3,21.5-45.4,32.5-57.7c5-5.7,10.8-9.8,12.3-8.9c1.8,1.1-1.4,8.2-3.1,13.5
			c-3.1,9.8-14.3,38.7-14.3,38.7S504.3,354.3,507.1,353.4z"/>
		<path class="st6" d="M510.4,352.6c-2.1,0.1-11,3.2-15.4,5.1c-4.4,1.9-8.6,4.1-12.5,6.8c-2.2,1.5-4.4,3.1-6.5,4.9c0,0,0,0.1,0,0.1
			c0,0,0.1,0,0.1,0l0,0c7.8-5.4,16.2-10,25-13.6c2.5-1,6.8-2.4,9.3-3.1C511,352.6,510.5,352.6,510.4,352.6z"/>
		<path class="st6" d="M501.6,332.9c-0.6,0.9-1.1,1.8-1.6,2.8l-0.1,0.1c0.7-2.2,1.4-4.3,2-6.5c0-0.1-0.2-0.2-0.2-0.1
			c-3.2,8-6.1,16.1-9,24.2c-0.8,2.3-1.5,4.6-2.2,6.9c0,0.1,0.1,0.1,0.1,0c0.9-2,1.8-3.9,2.5-5.9s1.5-4,2.3-6
			c1.3-3.5,2.6-7.1,3.8-10.6c0.4-0.6,0.8-1.2,1.1-1.9c0.5-0.9,0.9-1.9,1.4-2.9C501.8,332.9,501.6,332.8,501.6,332.9z"/>
		<path class="st6" d="M514.9,370.3c-1-1.7-1.9-3.3-2.9-5s-1.9-3.3-2.8-4.9c-0.9-1.7-1.9-3.4-3-5c0,0-0.1,0-0.1,0
			c0.7,1.7,1.5,3.4,2.5,5c0.9,1.7,1.8,3.4,2.8,5.1s1.9,3.3,2.9,4.9c1,1.7,2.1,3.3,3.3,4.9c0,0.1,0.2,0,0.1-0.1
			C516.8,373.5,515.9,371.8,514.9,370.3z"/>
		<path class="st6" d="M524.4,375.2c-1.1-2.2-2.8-4.3-4.1-6.4c0-0.1-0.2,0-0.1,0.1c1.2,2,2.2,4,3.3,6c-5,2.1-10.4,4-15.6,5.8
			s-10.6,3.6-16,5.2c-3,0.9-6,1.8-9.1,2.6c-0.2,0-0.1,0.2,0,0.2c5.5-1.1,10.9-2.5,16.2-4.2c5.4-1.7,10.7-3.6,16-5.6
			C518,377.7,524.5,375.4,524.4,375.2z"/>
		<path class="st10" d="M515.7,351c-6.3,1.7-12.5,3.7-18.5,6.1l-0.3,0.1c-3.2,1.2-5.1,2.2-5.6,2.2l-0.1-0.1l0,0
			c-0.3-0.2-0.6-0.4-1-0.5c-0.9-0.3-9.4-1.4-9.2-4s3.7-2.5,4.2-2.4c-0.5-0.1-5.2-1.2-3.7-3.5c1.1-1.6,5.7-1.4,6.1-1.4
			c-0.5-0.1-4.7-1.5-3.3-3.9c1-1.7,6.2-1.5,6.8-1.4c-0.5-0.2-4.3-0.8-2.5-2.9c1.2-1.4,10.9,0,15.2,2.2
			C510.2,344.7,515.7,351,515.7,351z"/>
		<path class="st9" d="M497.1,357.1l-0.3,0.1c-3.5-2.3-7.4-3.9-11.5-4.7c-0.3,0-0.3-0.2,0-0.2C489.7,352.7,493.8,354.4,497.1,357.1z
			"/>
		<path class="st9" d="M487.8,347.7c6.1,1.2,8.8,2.5,14.1,5.9c0.1,0,0.2-0.1,0.1-0.1c-4.9-3.6-7.9-5.5-14.1-5.9
			C487.6,347.5,487.5,347.6,487.8,347.7z"/>
		<path class="st9" d="M491.3,342.3c5.8,1.6,8.9,2.9,13.6,6.7c0.1,0.1,0.2,0,0.1-0.1c-3.6-3.8-8.5-6.2-13.7-6.7
			C491,342.1,490.9,342.3,491.3,342.3z"/>
		<path class="st10" d="M520.5,318.9c-3.5,1.2-10.2-3.5-13.1-7.6c-0.2-0.3-0.1-3.5-0.2-7.5c0-2.4-0.2-5-0.4-7.5l15.6,2
			c-0.5,3.1-0.7,6.3-0.4,9.5c0,0.3,0.1,0.7,0.2,1c0,0,0,0.1,0,0.2C522.8,310.8,523.9,317.7,520.5,318.9z"/>
		<path class="st9" d="M522.3,309c0,0.1,0.1,0.2,0.1,0.3c-9.3-0.4-12.9-4.5-15.2-8.4c-0.1-1.5-0.2-3-0.3-4.5l15.6,2
			c-0.5,3.1-0.7,6.3-0.4,9.5C522.1,308.2,522.2,308.5,522.3,309C522.3,308.9,522.3,308.9,522.3,309z"/>
		<path class="st10" d="M500.5,280.1c-0.8,5.6,4.3,20.6,8.6,23.5c6.3,4.2,15.4,3.3,18.6-3.9c3.2-7-3.8-26.5-8.5-29
			C512.2,266.9,501.7,271.8,500.5,280.1z"/>
		<path class="st9" d="M514.9,286.8c0,0-0.1,0.1,0,0.1c0.4,1,0.6,2.2-0.2,2.9c0,0,0,0.1,0,0C515.8,289.3,515.4,287.7,514.9,286.8z"
			/>
		<path class="st9" d="M513.6,286.1c-1.7,0.4-0.7,3.7,0.8,3.3S515.1,285.7,513.6,286.1z"/>
		<path class="st9" d="M521.1,284.9c0,0,0.1,0,0.1,0.1c0.3,1,0.8,2.2,1.8,2.2c0,0,0,0,0,0.1C521.8,287.5,521.2,286,521.1,284.9z"/>
		<path class="st9" d="M521.8,283.6c1.6-0.6,2.7,2.7,1.2,3.2S520.4,284.1,521.8,283.6z"/>
		<path class="st9" d="M511.9,284.9c0.4-0.3,0.8-0.5,1.2-0.8c0.4-0.3,0.8-0.5,1-1.1c0.1-0.3-0.1-0.7-0.4-0.8
			c-0.6-0.2-1.3-0.1-1.8,0.3c-0.6,0.4-1,0.9-1.2,1.5c-0.1,0.4,0.2,0.8,0.6,0.9C511.5,285.1,511.7,285,511.9,284.9z"/>
		<path class="st9" d="M522.5,281.6c-0.5,0-0.9,0-1.4,0c-0.5,0.1-1,0-1.5-0.2c-0.3-0.2-0.3-0.6-0.2-0.9c0.4-0.6,1-0.9,1.6-0.8
			c0.7-0.1,1.3,0.1,1.8,0.5c0.3,0.3,0.4,0.7,0.2,1.1C523,281.4,522.8,281.5,522.5,281.6z"/>
		<path class="st9" d="M517.3,296.3c0.3,0.2,0.7,0.4,1,0.4c0.4-0.1,0.7-0.3,1-0.6 M519.3,296.1c-0.2,0.5-0.6,0.9-1.1,0.9
			c-0.5,0-0.9-0.3-1.1-0.7c0,0,0.1,0,0.2,0L519.3,296.1z"/>
		<path class="st9" d="M517.5,293c0.8,0.7,1.8,1,2.8,0.9c0.4,0,0.9-0.1,1.3-0.3l0.2-0.1l0.2-0.1c0.1-0.1,0.2-0.2,0.1-0.3l0,0
			c0,0,0-0.1,0-0.1l0,0v-0.1c-0.2-0.8-0.6-2-0.6-2c0.3,0.1,2,0.3,1.8-0.1c-1.1-3.5-2.6-7-4.4-10.2c0-0.1-0.2,0-0.2,0.1
			c1,3.3,2.6,6.4,3.7,9.6c-0.6-0.1-1.2-0.1-1.8,0c-0.1,0.1,0.9,2.3,0.9,2.6l0,0c-1.3,0.5-2.7,0.5-3.9-0.1
			C517.4,292.8,517.4,292.9,517.5,293z"/>
		<path class="st11" d="M502.1,290.7c0.9-0.7,2-4.4,2.5-6s-1.1-8-1.6-9.9c-1.4,1.5-2.2,3.4-2.6,5.4
			C500.1,282.4,500.8,286.6,502.1,290.7z"/>
		<path class="st9" d="M516.9,276.6c-0.7,1.6-2.2,2.8-4,3c-1.8,0.2-3.6-0.5-4.8-1.9c0,0-0.1,0-0.1,0c1.1,1.6,2.9,2.5,4.9,2.3
			c1.9-0.3,3.4-1.6,4.1-3.3C517,276.6,516.9,276.5,516.9,276.6z"/>
		<path class="st9" d="M508.2,265.9c-2.7,0.8-4.7,2.8-5.5,5.5c-0.3,1.3-0.1,2.6,0.5,3.8c0,0,0.1,0,0.1,0c-0.8-2.2-0.3-4.6,1.3-6.3
			c1.7-1.9,4.2-3,6.7-2.8c1.2,0.1,2.4,0.5,3.3,1.4c0.1,0.1,0.3,0,0.2-0.1C513.5,265.6,510.8,265.1,508.2,265.9z"/>
		<path class="st9" d="M526.7,267.3c-0.9-1.3-2.2-2.2-3.7-2.6c-2.1-0.6-4,0.1-5.9,0.9c0,0,0,0.1,0,0.1c1.6-0.8,3.4-1.1,5.1-0.9
			c1.5,0.3,2.8,1.1,3.8,2.2c2.2,2.7,1.8,6.6-0.9,8.8c-1.2,1-2.7,1.4-4.2,1.4c-0.1,0-0.1,0.1,0,0.1c3.5,0.2,6.6-2.4,6.9-6
			C527.8,269.9,527.4,268.5,526.7,267.3L526.7,267.3z"/>
		<path class="st9" d="M500.5,283.3c0,0-4.2-4.4-2.7-8c0.8-2,5.2-3,5.2-3c0.7-2,2.1-3.7,4-4.7c3.3-1.8,8.2-1,8.2-1s2.9-2.9,6.6-2
			c5.2,1.3,6.5,8.2,2.7,11.7c-2.7,2.4-7.8,0.8-7.8,0.8c-0.4,0.2-3.9,3.9-8.1,1c0,0-1.9,3-4.7,2.1C503.4,281.8,502.1,283,500.5,283.3
			z"/>
		<path class="st10" d="M505.7,292.2c0,0-4.3-4.4-6.4-2.8s1.8,8.4,4.6,9c1.4,0.4,2.9-0.5,3.3-1.9c0,0,0-0.1,0-0.1L505.7,292.2z"/>
		<path class="st9" d="M500.4,291.3L500.4,291.3c2,0.5,3.3,2.1,4.2,3.8c-0.5-0.6-1.5-0.7-2.1-0.2c-0.1,0-0.1,0.1-0.2,0.2
			c0,0,0,0.1,0.1,0.1c0.6-0.3,1.4-0.2,1.9,0.3c0.4,0.4,0.8,0.9,1.1,1.3c0.1,0.1,0.4,0,0.3-0.2l0,0
			C505.4,294.1,503.1,291.1,500.4,291.3z"/>
		<path class="st0" d="M522.2,308.6l-3.3,9.2l-11.6-11l-3,3.8c0,0,11.6,17.6,11.6,16.8l3.4-7.9l5.5,5.2l-1-13.5L522.2,308.6z"/>
		<path class="st9" d="M524.8,318c-0.2-2.2-0.4-4.5-0.7-6.7c0-0.1-0.1-0.1-0.2,0c-0.4,2.2,0.6,10.7,0.6,12.7l0,0
			c-0.2-0.2-5.1-4.5-5.2-4.5c-0.8,1.3-3.3,7-3.4,7.5c-1.8-2.8-8.9-13-11-15.6c0,0-0.1,0-0.1,0c0,0,0,0,0,0.1
			c1.6,3,10.9,16.7,11.1,16.6c1.3-2.7,2.5-5.5,3.6-8.3c0.8,1,5.8,5.9,5.8,5.5C525.3,322.9,525.1,320.5,524.8,318z"/>
	</g>
	<g id="freepik--character-3--inject-113">
		<rect x="330.5" y="205.7" class="st3" width="118" height="121.8"/>
		<path class="st7" d="M301.8,242v62.6h62.6V242H301.8z M306.5,300v-53.2h53.2V300L306.5,300z"/>
		<path class="st9" d="M408.3,239.9c3.1-0.7,11.1,1.4,13.9,5.5s2.6,10.8,1.2,11.5s-7.3,0.3-11.4-1.9
			C408,252.8,406.8,240.3,408.3,239.9z"/>
		<path class="st9" d="M408.3,240c-0.1,0-0.1-0.2,0-0.2c2.7-0.1,5.7,0.8,8.3,1.5c2.2,0.5,4.2,1.4,6,2.6c1.7,1.3,2.7,3.3,2.7,5.5
			c0.2,2.6-0.2,5.1-1.3,7.5c0,0.1-0.1,0-0.1,0c1.2-4.6,2.2-10.1-2.4-13.1C417.6,241.1,412.7,240.8,408.3,240z"/>
		<path class="st9" d="M423.1,255.8c2.7,0.3,9.9,5.4,11.1,10.5s-2.8,12.9-4.1,13.5s-7.4-4.3-9.4-7.9c-1.4-2.4-0.4-5.3,0.2-8.1
			C421.6,259.6,422.6,255.7,423.1,255.8z"/>
		<path class="st9" d="M418.9,271.2c-0.9-5.3,2-10.5,3.7-15.3c0,0,0.1,0,0.1,0c-0.9,4.6-3.6,8.7-3.6,13.5c-0.1,2.8,1.1,5.6,3.4,7.3
			c2,1.5,4.6,2.1,7,2.9c0.2,0,0.1,0.3-0.1,0.2C424.7,278.4,419.9,276.7,418.9,271.2z"/>
		<path class="st9" d="M423.6,256.2c-0.1,0-0.1-0.1,0-0.2c0,0,0.1-0.1,0.1-0.1c3.9,1.8,8.6,4.4,10.7,8.3c2.3,4.2,0.1,8.7-1.8,12.6
			c0,0-0.1,0-0.1,0c1.9-3.9,3.9-8.8,1.3-12.9C431.6,260.4,427.3,258,423.6,256.2z"/>
		<path class="st9" d="M429.7,279.6c-2.5,2-4,5-4.3,8.2c-0.4,6.3-2.9,5.3-9.5,7.7c-5.6,2-6.2,8.5-2.8,11.4c0,0-2.2-3.8,1.5-6.1
			c4.4-2.8,15.5,1,20.1-6.1C440.7,285.5,429.7,279.6,429.7,279.6z"/>
		<path class="st9" d="M427.6,282.7c0.1-0.1-0.1-0.2-0.2-0.1c-0.7,0.9-1.2,1.8-1.6,2.9c-0.5,1.4-0.3,2.8-0.7,4.2
			c-0.9,3.5-5,3.8-8,4.4c-4,0.7-7,3.5-6.8,7.7 M410.4,301.8c-0.1-2.7,1.3-5.2,3.6-6.5c2.2-1.2,4.9-1,7.3-1.8
			c1.6-0.6,3.2-1.4,3.8-3.1c0.3-1,0.4-1.9,0.5-2.9c0.2-1.7,0.9-3.3,1.9-4.7L410.4,301.8z"/>
		<path class="st9" d="M430.8,280.3C430.8,280.3,430.8,280.3,430.8,280.3c2.5,2.1,5.1,4.1,6.1,7.3c1.1,3.5-0.4,7.2-3,9.6
			c-2.9,2.7-6.3,1.9-9.8,1.6c-2.5-0.4-5.1-0.1-7.5,0.8c-0.1,0,0,0.2,0.1,0.1c3.9-1.3,7.6-0.5,11.6-0.3c3,0.2,5.9-1.2,7.4-3.8
			C439.6,289.6,436.2,283.7,430.8,280.3z"/>
		<path class="st3" d="M410.7,237c0.4-0.4,1.1-0.5,1.5-0.1c0.4,0.4,0.5,1,0.2,1.4C411.5,239.5,409.8,238.2,410.7,237z"/>
		<path class="st3" d="M409.9,238.9c0.4-0.4,1.1-0.5,1.5-0.1c0.4,0.4,0.5,1,0.2,1.4C410.7,241.3,409.1,240,409.9,238.9z"/>
		<path class="st3" d="M408.7,240.6c0.4-0.4,1.1-0.5,1.5-0.1c0.4,0.4,0.5,1,0.2,1.4c-0.4,0.4-1.1,0.5-1.5,0.1
			C408.5,241.6,408.4,241,408.7,240.6z"/>
		<path class="st3" d="M407.4,242.1c0.4-0.4,1.1-0.5,1.5-0.1c0.4,0.4,0.5,1,0.2,1.4C408.3,244.5,406.6,243.2,407.4,242.1z"/>
		<path class="st3" d="M405.9,243.3c0.9-1.1,2.6,0.2,1.7,1.3c-0.4,0.4-1.1,0.5-1.5,0.1C405.6,244.4,405.6,243.8,405.9,243.3z"/>
		<path class="st3" d="M404.1,244.3c0.4-0.4,1.1-0.5,1.5-0.1c0.4,0.4,0.5,1,0.2,1.4C405,246.7,403.3,245.4,404.1,244.3z"/>
		<path class="st12" d="M402.5,264.4c-4.7,5.8-29.8,24-51,23.6c-7.2-0.1-27.2-30.8-30.9-42.5c-2.6-8.4,15.2-12.6,20.2-11.4
			c6.3,1.5,18.5,27.9,20.9,28c7.2,0.5,19.6-3.8,34.7-5.4C404.3,256,406.1,260,402.5,264.4z"/>
		<path class="st12" d="M321.3,247.5c-1.3-2.9-7.6-19.1-8.1-23.3s-1.1-16.3,2.1-17s3.6,2.8,3.6,2.8s0.6-5.2,3.8-5.6s3.8,5.1,3.8,5.1
			s1-5.3,4.2-5.5s2.9,5.4,2.9,5.4s0.6-4.9,3.4-3.9c3.3,1.2,1.1,10,2,14.5c0.2,1,5.7,20.7,5.7,20.7L321.3,247.5z"/>
		<path class="st9" d="M333.5,209c-1.6,6.5-1.2,9.6,0.9,15.8c0,0.1-0.1,0.2-0.2,0.1c-2.6-5.9-3.7-9.8-1-16
			C333.4,208.6,333.6,208.7,333.5,209z"/>
		<path class="st9" d="M326.6,209c-1.1,6.9-0.7,10.2,1,16.9c0,0.1-0.1,0.1-0.2,0.1c-2.2-6.4-3.2-10.3-1.2-17
			C326.3,208.7,326.6,208.6,326.6,209z"/>
		<path class="st9" d="M318.9,210.3c-0.6,6.7-0.3,10.5,2.2,16.8c0,0.1,0,0.1-0.1,0.2c-0.1,0-0.1,0-0.1,0c-3.1-6.2-3.5-10.8-2.2-16.9
			C318.8,209.9,319,209.9,318.9,210.3z"/>
		<path class="st12" d="M349.1,243.9c0,0,0.9-8.3,0.5-12s-7-17.1-10-15.9c-3.8,1.6-1.5,10.1,0.1,14.1c0,0-8.9,3.8-8.6,10.2
			S349.1,243.9,349.1,243.9z"/>
		<path class="st9" d="M338.7,216.8c-2.4,4,0.1,9.1,1.4,13.1c0.1,0.2,0,0.4-0.2,0.5c0,0-0.1,0-0.1,0c-3.6,1.8-8.2,5.5-8.8,9.7
			c0,0.1-0.1,0.1-0.1,0.1c0,0-0.1,0-0.1-0.1c0-4.6,4.2-8.6,8.3-10.3C337.7,225.7,335.4,220.5,338.7,216.8
			C338.7,216.7,338.7,216.8,338.7,216.8z"/>
		<path class="st0" d="M372.5,260.1l8.7,20.2c0,0,13.2-6.3,21.3-14.4s-0.9-10.9-8.7-9.7C386,257.4,372.5,260.1,372.5,260.1z"/>
		<path class="st2" d="M402.5,266c-8,8.1-21.3,14.4-21.3,14.4l-2.7-6.1l26.6-15.4C406.2,260.4,405.6,262.8,402.5,266z"/>
		<path class="st9" d="M384.5,277.5c-2.9-5.6-5.4-11.4-7.5-17.4c0-0.1,0.1-0.1,0.1,0c0.6,1.6,4.8,10.2,7.6,17.4
			C384.7,277.6,384.6,277.6,384.5,277.5z"/>
		<path class="st0" d="M382.5,300.1l-3.6,27.4h57.3c0,0-7.6-51.4-19.8-67.1c-6.1-7.9-14.3-7.7-20.1-1.6
			c-1.3,1.3-14.1,19.6-16.3,27.1C377.9,292.5,382.5,300.1,382.5,300.1z"/>
		<path class="st9" d="M399.1,261.5l-3.6,9.7c-1.2,3.2-2.3,6.5-3.4,9.8c-1,3.3-2.2,6.6-1.8,9.9c0.4,3.4,1.5,6.6,3.2,9.5l0.1,0.1v0.1
			c-0.5,4.4-1.1,8.7-1.6,13s-1.1,8.7-1.8,13c0.4-4.4,0.8-8.7,1.2-13.1c0.4-4.4,0.8-8.7,1.3-13.1l0.1,0.3c-1.8-3-3-6.4-3.5-9.9
			c-0.2-1.8-0.1-3.6,0.4-5.3c0.4-1.7,1-3.4,1.5-5c1.1-3.3,2.4-6.5,3.7-9.7S397.7,264.6,399.1,261.5z"/>
		<path class="st9" d="M391.1,274.1c-0.1,0.4,0.2,0.9,0.6,1c0.4,0.1,0.8-0.2,0.9-0.7c0,0,0,0,0,0c0.1-0.4-0.2-0.9-0.6-1
			C391.6,273.3,391.2,273.6,391.1,274.1C391.1,274.1,391.1,274.1,391.1,274.1z"/>
		<path class="st9" d="M387.7,283.6c-0.1,0.4,0.2,0.9,0.6,1c0.4,0.1,0.8-0.2,0.9-0.7c0,0,0,0,0,0c0.1-0.4-0.2-0.9-0.6-1
			C388.1,282.8,387.7,283.1,387.7,283.6C387.7,283.5,387.7,283.5,387.7,283.6z"/>
		<path class="st9" d="M387.2,293.2c-0.1,0.4,0.2,0.9,0.6,1c0.4,0.1,0.8-0.2,0.9-0.7c0,0,0,0,0,0c0.1-0.4-0.2-0.9-0.6-1
			C387.7,292.4,387.3,292.7,387.2,293.2C387.2,293.2,387.2,293.2,387.2,293.2z"/>
		<path class="st9" d="M389.9,301.2c-0.1,0.4,0.2,0.9,0.6,1c0.4,0.1,0.8-0.2,0.9-0.7c0,0,0,0,0,0c0.1-0.4-0.2-0.9-0.6-1
			C390.4,300.4,390,300.7,389.9,301.2C389.9,301.2,389.9,301.2,389.9,301.2z"/>
		<path class="st9" d="M388.9,309.9c-0.1,0.4,0.2,0.9,0.6,1c0.4,0.1,0.8-0.2,0.9-0.7c0,0,0,0,0,0c0.1-0.4-0.2-0.9-0.6-1
			C389.3,309.1,388.9,309.4,388.9,309.9C388.9,309.9,388.9,309.9,388.9,309.9z"/>
		<path class="st9" d="M387.9,318.5c-0.1,0.4,0.2,0.9,0.6,1c0.4,0.1,0.8-0.2,0.9-0.7c0,0,0,0,0,0c0.1-0.5-0.2-0.9-0.6-1
			C388.4,317.7,388,318,387.9,318.5C387.9,318.4,387.9,318.5,387.9,318.5z"/>
		<path class="st12" d="M399.4,357.5c2.9,2,7.8-6.7,9.4-8.5s2.4-1.8,2.3-0.4l3.8-14.9c-2,1.5-6.1,4.8-8.3,6.9
			C403.6,343.4,396.5,355.5,399.4,357.5z"/>
		<path class="st12" d="M421.1,262.6c12.2,9.9,27.7,27.2,30.8,38.5c2.4,8.7-9.8,38.8-13.4,45.8c-1.6,3.1-22.5-6.2-23.5-9.8
			s13.7-29.5,13.8-32.2s-9.4-20.9-15.9-33.2C405,256.7,410.6,254.2,421.1,262.6z"/>
		<path class="st12" d="M401.5,366c1.9,2.1,5.8-0.5,5.8-0.5s-3.5,4.3-0.8,6s6.4-2,6.4-2s-3,4.1-0.1,5.6s6.5-1.7,6.5-1.7
			s-0.2,1.6,2.3,1.7c3.5,0.2,8.6-5.5,10.5-9.2s6.3-18.3,7-20.6l-23.1-12.6c0,0-0.4,0.3-1.1,0.8l-3.8,14.9c-0.1,0.9-2.7,6.7-3.7,8.3
			C405.2,360.6,399.3,363.7,401.5,366z"/>
		<path class="st9" d="M407.4,365.3c5.2-3.9,6.8-6.5,9-12.5c0-0.1,0.2-0.1,0.2,0c-1.7,6.1-3.2,9.6-9,12.8
			C407.3,365.8,407.2,365.6,407.4,365.3z"/>
		<path class="st9" d="M412.7,369.7c5-4.6,6.8-7.4,9.6-13.5c0-0.1,0.2,0,0.1,0.1c-2.3,6.2-3.9,9.8-9.5,13.6
			C412.7,370.1,412.5,369.9,412.7,369.7z"/>
		<path class="st9" d="M419.3,373.3c4.5-4.8,6.6-7.8,8.6-14.1c0-0.1,0.1-0.1,0.1-0.1s0.1,0.1,0.1,0.1c-1.4,6.6-3.9,10.4-8.7,14.1
			C419.2,373.7,419.1,373.6,419.3,373.3z"/>
		<path class="st0" d="M418.7,289.6l17.7-13.2c0,0-9.2-11.4-19-17.3c-9.8-5.9-10.4,3.4-7.4,10.7S418.7,289.6,418.7,289.6z"/>
		<path class="st9" d="M432.9,273.8c-4.8,4.1-9.9,7.9-15.1,11.4c-0.1,0-0.1-0.1-0.1-0.1c1.4-0.9,8.8-7,15.1-11.4
			C432.9,273.7,432.9,273.8,432.9,273.8z"/>
		<path class="st9" d="M415.6,282.1c-1.1-2.4-2.5-5.9-3.8-8.3c0,0-0.1,0-0.1,0c0.5,1.4,1,2.7,1.6,4.1c0-0.1-0.1-0.1-0.1-0.2
			c-0.4-0.6-0.9-1.2-1.4-1.9l0,0c0.4,0.7,0.8,1.4,1.2,2c0.3,0.4,0.6,0.8,0.9,1.2c0.3,0.7,1,2.5,1.3,3.2c0.5,1.2,3.1,7.9,3.2,7.8
			c0.6-0.4,1.2-0.9,1.8-1.3c0.1-0.1,0-0.2-0.1-0.2c-0.3,0.3-1.1,0.8-1.2,0.9c-0.6-1.2-1-2.5-1.6-3.7S416.1,283.3,415.6,282.1z"/>
		<path class="st12" d="M408.2,256.6c-0.3,1-5.6,7.4-10.3,7c-1.5-0.2-1-8.5-1-8.5l-0.1-0.6l-1.5-8.8l10.5-6l1.5-0.8
			c0,0,0.2,2.4,0.5,5.5c0,0.1,0,0.3,0,0.4s0,0.3,0,0.5c0,0.5,0.1,0.9,0.1,1.4s0.1,0.7,0.1,1.1s0,0.7,0.1,1.1
			C408.4,251.4,408.3,254,408.2,256.6z"/>
		<path class="st9" d="M407.9,244.3c-2,4.8-6.1,8.5-11.1,10.1l-1.5-8.8l10.5-6l1.5-0.8C407.3,238.8,407.6,241.3,407.9,244.3z"/>
		<path class="st12" d="M384.3,230.2c-3.2,15.3,5.6,18.9,8.9,19.6c3,0.6,13.3,2.3,18-12.5s-1.4-21.2-8.1-23S387.5,214.9,384.3,230.2
			z"/>
		<path class="st9" d="M389.4,226.5c0.4,0,0.7,0,1.1,0c0.4,0,0.8-0.1,1.1-0.2c0.2-0.2,0.2-0.4,0.1-0.7c-0.3-0.4-0.8-0.6-1.3-0.6
			c-0.5,0-1,0.2-1.4,0.5c-0.2,0.2-0.2,0.6,0.1,0.8C389.2,226.5,389.3,226.5,389.4,226.5z"/>
		<path class="st9" d="M400,228.9c-0.4-0.1-0.7-0.3-1-0.4c-0.4-0.1-0.7-0.3-1-0.6c-0.1-0.2-0.1-0.5,0.1-0.7c0.4-0.3,0.9-0.3,1.4-0.1
			c0.5,0.2,0.9,0.5,1.1,0.9c0.1,0.3,0,0.7-0.3,0.8C400.2,228.9,400.1,228.9,400,228.9z"/>
		<path class="st9" d="M397.2,232.2c0,0,0.1,0.1,0.1,0.1c-0.2,1-0.3,2.3,0.5,2.8c0,0,0,0.1,0,0.1
			C396.7,234.8,396.9,233.1,397.2,232.2z"/>
		<path class="st9" d="M398.4,231.3c1.7,0.2,1.2,3.6-0.4,3.4S397,231.1,398.4,231.3z"/>
		<path class="st9" d="M399.1,231.6c0.3,0.2,0.5,0.6,0.9,0.7s0.8-0.2,1.1-0.5c0,0,0.1,0,0,0c-0.1,0.6-0.4,1.3-1.1,1.3
			s-1-0.6-1.1-1.3C398.8,231.6,398.9,231.5,399.1,231.6z"/>
		<path class="st9" d="M390.8,230.7C390.8,230.7,390.7,230.7,390.8,230.7c-0.2,1.1-0.5,2.3-1.5,2.5v0.1
			C390.5,233.3,390.9,231.8,390.8,230.7z"/>
		<path class="st9" d="M390.1,229.5c-1.7-0.4-2.3,3-0.8,3.4S391.4,229.8,390.1,229.5z"/>
		<path class="st9" d="M389.3,229.6c-0.3,0.1-0.6,0.4-1,0.4s-0.6-0.5-0.8-0.9c0,0,0,0-0.1,0c-0.1,0.6,0,1.4,0.5,1.6s1.1-0.3,1.3-0.9
			C389.5,229.7,389.4,229.5,389.3,229.6z"/>
		<path class="st9" d="M394.9,240.2c-0.3,0.2-0.6,0.5-1,0.5c-0.4-0.1-0.8-0.2-1.1-0.4 M392.7,240.4c0.3,0.5,0.8,0.7,1.3,0.7
			c0.5-0.1,0.8-0.4,0.9-0.9c0.1-0.1,0-0.1-0.1-0.1L392.7,240.4z"/>
		<path class="st9" d="M391.1,235.7c0,0-0.5,1.5-0.6,2.3c0,0.1,0.2,0.1,0.4,0.2l0,0c1.3,0.5,2.7,0.2,3.6-0.8c0.1-0.1,0-0.1-0.1-0.1
			c-1,0.5-2.2,0.6-3.4,0.4c0-0.2,0.9-2.6,0.8-2.6c-0.6,0-1.2,0-1.7,0.1c0.9-3.2,2.3-6.3,3.1-9.5c0-0.1,0-0.1-0.1-0.1s-0.1,0-0.1,0.1
			c-1.6,3.2-2.9,6.6-3.8,10.1C389.2,236.1,390.8,235.8,391.1,235.7z"/>
		<path class="st9" d="M395.9,216.2c-0.5,1.3-0.5,2.7-0.2,4c1.3,3.6,5.6,3.1,6.9,4.6s0.5,4,1.6,5.4c1.5,1.9,3.9,1.5,4,2.7
			s0.6,5.1,2.1,5.7s10.9-24-9.1-25.1c0,0-2.6-1.4-7.1,0.4c-4.9,1.9-7.7,9.4-7.7,9.4s0.1-0.1,0.9-0.6c1-0.8,1.5-1.5,2.2-2
			c1.2-0.8,1.8-0.4,3-1.1C393.8,218.6,395,217.5,395.9,216.2z"/>
		<path class="st9" d="M396.3,215.1c-0.4,1-0.7,2-0.9,3c-0.2,1-0.2,2,0.1,3c0.4,0.9,1.2,1.6,2.1,2c0.9,0.4,2,0.6,2.9,1.1
			c0.5,0.3,0.9,0.7,1.2,1.1c0.3,0.5,0.4,1,0.4,1.6c0,1,0.3,2,0.8,2.9c0.6,0.8,1.5,1.3,2.6,1.4c1-0.1,2.1,0.1,3.1,0.5
			c-1-0.3-2-0.4-3.1-0.2c-1.1,0-2.1-0.5-2.9-1.4c-0.6-0.9-1-1.9-1-3c0-0.5-0.2-1-0.4-1.4c-0.3-0.4-0.6-0.7-1.1-0.9
			c-0.9-0.5-1.9-0.7-2.9-1.2c-0.5-0.2-0.9-0.5-1.4-0.9c-0.4-0.4-0.7-0.8-0.9-1.4c-0.3-1-0.3-2.1,0-3.2
			C395.5,217.1,395.8,216.1,396.3,215.1z"/>
		<path class="st9" d="M395.9,216c-0.3,0.9-0.7,1.8-1.2,2.6c-0.5,0.9-1.3,1.6-2.2,2c-0.5,0.2-0.9,0.3-1.4,0.4
			c-0.4,0.1-0.8,0.3-1.1,0.6c-0.3,0.4-0.6,0.8-1,1.1c-0.4,0.3-0.9,0.5-1.3,0.6c0.4-0.2,0.8-0.4,1.2-0.8c0.3-0.4,0.6-0.7,0.9-1.1
			c0.3-0.4,0.8-0.7,1.3-0.8c0.5-0.1,0.9-0.2,1.4-0.4c0.8-0.4,1.6-1,2.1-1.8C394.9,217.6,395.4,216.8,395.9,216z"/>
		<path class="st12" d="M407.1,236.4c0,0,4.1-4.3,6.1-2.8s-1.6,8.1-4.3,8.7c-1.4,0.4-2.9-0.4-3.3-1.8c0,0,0-0.1,0-0.1L407.1,236.4z"
			/>
		<path class="st9" d="M412.1,235.5C412.1,235.5,412.1,235.6,412.1,235.5c-1.9,0.5-3.1,2.1-4,3.7c0.5-0.6,1.4-0.7,2-0.2
			c0.1,0,0.1,0.1,0.2,0.2c0,0,0,0.1-0.1,0.1c-0.6-0.3-1.4-0.2-1.9,0.3c-0.4,0.4-0.8,0.8-1.1,1.3c-0.1,0.1-0.4,0-0.3-0.2l0,0
			C407.4,238.3,409.6,235.3,412.1,235.5z"/>
		<path class="st0" d="M396.7,255.7l2.2,7.1l9.3-8l2.2,3c0,0-9.5,13.2-9.5,12.5l-2.4-6.2l-4.4,3.8l1.2-10.4L396.7,255.7z"/>
		<path class="st9" d="M394.4,262.8c0.2-1.7,0.5-3.4,0.8-5.1c0-0.1,0.1-0.1,0.1,0c0.2,1.7-0.8,8.2-0.9,9.8l0,0
			c0.2-0.2,4.1-3.3,4.1-3.3c0.5,1,2.3,5.5,2.4,5.9c1.5-2.1,7.2-9.7,9-11.6c0,0,0.1,0,0.1,0.1c-1.4,2.2-9,12.5-9.1,12.4
			c-0.9-2.1-1.8-4.3-2.5-6.5c-0.7,0.7-4.7,4.3-4.6,4.1C393.9,266.6,394.1,264.7,394.4,262.8z"/>
	</g>
	<g id="freepik--character-2--inject-113">
		<rect x="456.5" y="125.7" class="st5" width="129.4" height="129.4"/>
		<path class="st9" d="M511.6,92.9v87.2h87.2V92.9H511.6z M594.1,175.3h-77.7V97.7h77.7V175.3z"/>
		<path class="st9" d="M499.2,202.6l7,0.5c2.2-3.9,3.2-8.3,2.8-12.7c-0.1-1,2,4.9,0.7,13c7.4,0.5,17.5,1.2,26.2,1.7
			c0.3-3.4,0.8-6.6,0.8-6.6c0.2,2.3,0.6,4.5,1.1,6.7c1.2,0.1,2.4,0.1,3.5,0.2c0.2-4.9,0.6-9.8,1.3-14.6c0.4,5.1,1.6,10.1,3.7,14.9
			c5.6,0.3,9.3,0.4,9,0.1c-8-10.1-1.6-15.4-3.6-24c-2.4-10.4-11.2-12.4-10.5-20c0.5-6.2,1.8-17.5-6-20.3c-4.1-4.5-10.5-6-16.3-4
			c-12.7,4.2-8.6,23.7-9.7,27.6c-1.5,5.5-4.2,7.4-6.5,13.7s0.4,10.8,0.6,15.2S497.8,202.5,499.2,202.6z"/>
		<path class="st9" d="M555.8,204.3c-1.1-1.7-1.9-3.6-2.5-5.6c-0.4-1.9-0.3-4,0.3-5.9c0.5-2,1-4.1,1.3-6.1c0.3-2.2,0.2-4.3-0.3-6.5
			c-0.6-2.1-1.7-4.1-3.1-5.7c-1.4-1.6-3-3-4.6-4.3c-1.6-1.2-3-2.7-4.2-4.3c-1.2-1.7-1.9-3.6-2-5.7c-0.2,2.1,0.3,4.2,1.3,6.1
			c1.1,1.8,2.5,3.4,4.1,4.8c1.5,1.4,2.9,2.8,4.3,4.4c1.3,1.5,2.2,3.3,2.7,5.1c0.5,1.9,0.6,3.9,0.3,5.9c-0.2,2-0.7,4-1,6
			c-0.2,1-0.3,2.1-0.3,3.2c0,1.1,0.2,2.2,0.6,3.2C553.3,200.9,554.4,202.7,555.8,204.3z"/>
		<path class="st9" d="M511.7,144.3c-1,2.4-1.6,4.8-2,7.4c-0.4,2.5-0.7,5-1,7.6l-0.5,3.8c-0.1,1.2-0.4,2.4-0.7,3.6
			c-0.8,2.3-2.1,4.4-3.7,6.3c-0.8,1-1.5,2.1-2.2,3.2c-0.7,1.2-1.2,2.4-1.6,3.7c-0.3,1.3-0.6,2.6-0.7,3.9c-0.2,1.3-0.2,2.7,0,4
			c0.2,1.3,0.5,2.6,0.7,3.8c0.3,1.2,0.4,2.4,0.4,3.7c0,2.5-1.3,4.9-3.4,6.3c2.3-1.3,3.9-3.6,4.2-6.3c0.1-1.3,0-2.6-0.2-3.9
			c-0.2-1.3-0.4-2.5-0.5-3.7c-0.1-2.4,0.2-4.9,0.9-7.2c0.4-1.2,0.9-2.3,1.5-3.3c0.6-1.1,1.3-2.1,2.1-3.1c0.8-1,1.5-2.1,2.2-3.2
			c0.7-1.1,1.3-2.4,1.7-3.6c0.4-1.3,0.6-2.6,0.7-3.9c0.1-1.3,0.2-2.6,0.3-3.8c0.2-2.5,0.3-5.1,0.5-7.6
			C510.6,149.3,511,146.8,511.7,144.3z"/>
		<path class="st3" d="M572.7,251.6c0-0.1,0-0.3-0.1-0.5c0,0.2,0.1,0.4,0.1,0.6C572.7,251.6,572.7,251.6,572.7,251.6z"/>
		<path class="st3" d="M547.7,256c0.1,0.1,0.2,0.1,0.3,0.1v-0.1l0,0L547.7,256L547.7,256z"/>
		<path class="st13" d="M511.9,186c-15.7,17.7-34.8,54.2-30.5,61.1c4.8,7.8,27.4-17.4,26.6-18.6c-0.7-1,6.7-22.8,12.1-38.7
			S515.8,181.6,511.9,186z"/>
		<path class="st8" d="M511.9,186c-15.7,17.7-34.8,54.2-30.5,61.1c4.8,7.8,27.4-17.4,26.6-18.6c-0.7-1,6.7-22.8,12.1-38.7
			S515.8,181.6,511.9,186z"/>
		<path class="st0" d="M514,208.1c-1.5,4.6-2.9,9-4,12.5c-2.4,0.1-9.5-0.3-16.9-7.4c2.2-3.9,4.6-7.9,7.1-11.7
			C503.9,205.3,508.8,207.6,514,208.1z"/>
		<path class="st8" d="M496.7,255.2l3.9-26.8c0,0-6.3-11-2.7-19c1.8-4,14.6-23.6,21.4-28.6c6.4-4.7,15.2-0.4,18.2,3.6
			c8.6,11.7,12.8,32.6,17.6,70.7L496.7,255.2z"/>
		<path class="st9" d="M508.2,193.2c-1.3,1.8-2.6,3.6-3.8,5.4c0.3-0.7,0.7-1.4,1-2.1c0-0.1,0-0.1-0.1,0c-0.5,0.9-0.9,1.8-1.3,2.7
			c-1.7,2.4-3.3,4.9-4.8,7.5c-0.7,1.1-1.2,2.2-1.7,3.3c-0.4,1.1-0.7,2.3-0.8,3.5c-0.1,1.2-0.2,2.4-0.1,3.6c0.1,1.2,0.3,2.5,0.5,3.7
			c0.3,1.4,0.7,2.7,1.3,4.1c0.3,0.6,0.6,1.3,0.9,1.9s0.9,1.7,0.9,1.8c-0.1,0.6-0.2,1.1-0.3,1.6s-0.2,1.1-0.2,1.6
			c-0.2,1.1-1.6,11.8-1.8,12.9c-0.3,2.2-0.6,4.4-0.9,6.5c-0.2,1.3-0.2,2.5-0.4,3.8c0,0,0.1,0.1,0.1,0c0.2-1.1,0.5-2.2,0.6-3.2
			s0.4-2.2,0.6-3.3c0.4-2.2,2-14,2.3-16.2c0.1-0.6,0.2-1.2,0.3-1.8c0.1-0.7,0.2-1.3,0.2-2c-1.1-2.2-2-4.5-2.7-6.8
			c-0.4-1.2-0.6-2.4-0.8-3.6c-0.1-1.2-0.1-2.4,0-3.6c0.1-1.2,0.3-2.4,0.7-3.6c0.4-1.2,0.9-2.3,1.5-3.4c1.3-2.3,2.6-4.5,4-6.7
			C505.1,198.2,506.7,195.7,508.2,193.2C510.7,189.5,508.3,193.1,508.2,193.2z"/>
		<path class="st13" d="M481.4,247.1c4,5.1,14.2,5.6,39.8,9.3c3.5,0.5,13.8-23.5,10.1-24.3c-4.7-0.9-23.3-3.5-24.7-3.5
			C495,228.5,478.7,243.6,481.4,247.1z"/>
		<path class="st13" d="M526.2,231.2c0,0,10.8,1.1,16.3,3.4c5.7,2.6,10.7,6.5,14.5,11.4c4.2,5.3,10.6,20.9,6.4,23.5
			c-3.8,2.4-9.5-13.9-9.5-13.9s8.6,15.7,3.5,17.7S546.8,256,546.8,256s8.5,16.3,2.9,17.5c-4.2,1-10.2-16.2-10.2-16.2
			s7.2,14,2.9,15.2c-4.7,1.3-11.3-14.2-11.3-14.2c-11.4,1.1-17.3-3-21.1-6.4C508.9,251,526.2,231.2,526.2,231.2z"/>
		<path class="st9" d="M551.2,250c1.1,1.8,2.2,3.6,3.1,5.5c0.9,1.9,1.8,3.8,2.5,5.8c1,2.6,1.7,5.2,2.1,7.9
			c-1.1-4.8-4.2-11.6-5.1-13.5C552.9,253.8,552.1,251.9,551.2,250L551.2,250z"/>
		<path class="st9" d="M544.3,253.1c1.3,2.4,2.6,4.7,3.8,7.1s2,4.8,3,7.3c0.1,0.2,0,0.2-0.1,0c-1.1-2.4-2.3-4.6-3.4-7
			s-2.2-4.9-3.4-7.3C544.3,253.1,544.3,253.1,544.3,253.1z"/>
		<path class="st9" d="M537.9,254.8c2.1,3.6,3.7,7.3,5,11.3c0.1,0.2-0.1,0.1-0.2,0C541.2,262.2,540,259.2,537.9,254.8
			C537.8,254.8,537.9,254.7,537.9,254.8z"/>
		<path class="st8" d="M534.4,231.4l-21.1,24.8c0,0-28.8-2-32.1-9.6s18.6-18.6,25.5-18S534.4,231.4,534.4,231.4z"/>
		<path class="st9" d="M495.5,231.9c1.7-1.1,6.4-3.8,11.1-3.3 M506.6,228.6c-3.9,0.1-9.4,2.3-11.1,3.3c0,0-0.1,0,0-0.1L506.6,228.6z
			"/>
		<path class="st9" d="M508.8,251.9c8.3-8.8,15.7-19.3,17.1-21c0.1-0.1-0.1-0.2-0.1-0.1c-1.3,1.8-11,12.9-17.1,21
			C508.6,251.9,508.7,252,508.8,251.9z"/>
		
			<rect x="476.5" y="206.3" transform="matrix(0.2001 -0.9798 0.9798 0.2001 180.1669 669.158)" class="st3" width="46.7" height="35.9"/>
		
			<rect x="502.1" y="193" transform="matrix(0.2011 -0.9796 0.9796 0.2011 205.7746 655.3502)" class="st0" width="5.2" height="17"/>
		<polygon class="st0" points="509.7,200 507.7,199.5 508.1,197.2 503.2,196.2 502.7,198.5 500.6,198.1 501.5,193.8 510.6,195.7 		
			"/>
		<path class="st13" d="M541.8,190c16.9,21.6,23.3,60.3,13.9,63.3c-8.6,2.8-43.9-6.1-54.5-9.7c-3.1-1,6.5-25.1,9.8-24
			c4,1.4,25.8,6.5,26.3,6.5c0.9,0-4-23.8-6-34.6C528.4,176.6,535.5,181.9,541.8,190z"/>
		<path class="st13" d="M482.8,210.7c-1,1.3-1.2,3-0.3,4.4c-1.3,0.4-2.4,1.2-3.1,2.3c-1.2,2,1.5,4.9,1.5,4.9c-1.3,0.7-2.3,1.7-2.9,3
			c-1,2.1,1.3,5.3,1.3,5.3c-0.8,1.3-1.1,2.8-0.9,4.2c0.7,3.9,6.4,6.2,10,7.6s15.2,2.2,17.4,2.6l9.6-23.1c0,0-14.3-11.1-18.8-12.2
			C492.7,208.8,484.8,208.3,482.8,210.7z"/>
		<path class="st9" d="M482.8,214.8c4.3,0,8.3,1.3,12.3,2.4c0.1,0,0,0.2,0,0.1c-4-1.1-8.3-1.4-12.3-2.3c-0.1,0-0.1,0-0.1-0.1
			C482.7,214.8,482.7,214.8,482.8,214.8L482.8,214.8z"/>
		<path class="st9" d="M481,222c1,0.1,1.9,0.3,2.8,0.7c1,0.3,2,0.6,2.9,1c2,0.7,3.9,1.4,5.8,2.2c0.1,0,0,0.2,0,0.1
			c-1.9-0.7-3.9-1.3-5.8-1.9c-1-0.3-2-0.6-3-0.9c-1-0.2-1.9-0.5-2.8-0.9c-0.1,0-0.1-0.1-0.1-0.2C480.8,222,480.9,222,481,222
			L481,222z"/>
		<path class="st9" d="M479.3,230.6c0.9,0.1,1.7,0.4,2.5,0.8c0.9,0.3,1.8,0.6,2.6,1c1.8,0.6,3.5,1.3,5.3,1.8c0,0,0.1,0.1,0,0.1
			c0,0,0,0,0,0c-1.8-0.6-3.6-1.1-5.5-1.7l-2.7-0.9c-0.8-0.2-1.6-0.5-2.4-1C479.2,230.7,479.2,230.7,479.3,230.6
			C479.2,230.6,479.2,230.6,479.3,230.6z"/>
		<path class="st8" d="M537.1,225.3c0.3-0.2-4.8-23.2-6.5-35.2s3.7-10.9,11.4-0.6c8.3,11,23,40.8,17.9,62.8
			c-1.7,7.1-52.8-2.9-52.8-2.9l6.9-29.4C513.9,220,536.6,225.5,537.1,225.3z"/>
		<path class="st0" d="M557.9,223.1c-8.3,2.4-17.4,1.2-21.1,0.5c-0.5-2.9-1.8-9.1-3.1-15.9c8.8,1,14.7-0.3,18-1.4
			C554.1,211.7,556.2,217.3,557.9,223.1z"/>
		<path class="st9" d="M513.7,246.4c3.1-10.2,4.8-21.5,5.3-23.4c0-0.1-0.1-0.1-0.1,0c-0.3,1.9-3.7,14.5-5.3,23.4
			C513.5,246.5,513.7,246.5,513.7,246.4z"/>
		<path class="st9" d="M546.6,228.7c-1-0.2-27.1-7.5-32.8-8.4c-0.1,0,0-0.3,0.1-0.3c11.2,2,22.2,4.7,33.1,8.2
			C548.3,228.7,548.5,229,546.6,228.7z"/>
		<path class="st9" d="M536.8,225.5c0,0-1.7-8.9-2-9.4s-1-1.8-1.3-2.4c-0.6-1.2-1.1-2.4-1.6-3.6c0-0.1,0.1-0.2,0.2-0.1
			c0.6,1.2,1.2,2.3,1.9,3.4c0.3,0.5,0.7,1.1,1,1.6c0,0-1.6-8.6-1.8-10.1c0-0.1,0.1-0.1,0.1,0c0.5,1.5,3.9,18.8,4.4,20.8
			C537.4,225.6,537.1,225.5,536.8,225.5z"/>
		<path class="st9" d="M517.5,251.2c-1.7-0.5-8.5-1.6-10.2-1.8c0.3-1.2,0.5-2.5,0.6-3.7c0,0-0.1-0.1-0.1,0c0,0,0,0,0,0
			c-0.5,1.4-0.9,2.8-1.2,4.3c0,0.1,9.2,1.3,11,1.4C517.6,251.3,517.6,251.3,517.5,251.2z"/>
		<path class="st13" d="M515.2,183c0,0,0.7,6.8,6.3,7.8s16.1-6.3,16.1-6.3c-2.9-3.5-7.2-5.6-11.8-5.7
			C518.5,178.8,515.2,183,515.2,183z"/>
		<path class="st13" d="M531.3,181.1c-0.3,1-5.6,7.4-10.3,6.9c-1.5-0.2-1-8.6-1-8.6l-0.1-0.6l-1.5-8.8l10.6-6l1.5-0.8
			c0,0,0.2,2.4,0.5,5.5c0,0.1,0,0.3,0,0.4s0,0.3,0,0.5c0,0.4,0.1,0.9,0.1,1.4s0.1,0.7,0.1,1.1l0.1,1.1
			C531.6,175.8,531.5,178.5,531.3,181.1z"/>
		<path class="st9" d="M531.1,168.8c-2.1,4.8-6.1,8.5-11.1,10.1l-1.5-8.8l10.6-6l1.5-0.8C530.6,163.3,530.8,165.8,531.1,168.8z"/>
		<path class="st13" d="M508.3,153.7c-4.1,15.1,4.5,19.2,7.7,20.1c3,0.8,13.1,3.1,18.7-11.4s-0.1-21.2-6.7-23.4
			S512.5,138.6,508.3,153.7z"/>
		<path class="st9" d="M513.8,150.7c0.4,0,0.7,0,1.1,0c0.4,0.1,0.8,0,1.1-0.2c0.2-0.2,0.3-0.4,0.2-0.7c-0.3-0.4-0.7-0.7-1.2-0.6
			c-0.5,0-1,0.1-1.4,0.4c-0.3,0.2-0.3,0.6-0.1,0.8C513.5,150.6,513.6,150.7,513.8,150.7z"/>
		<path class="st9" d="M524.5,152.2c-0.3-0.1-0.7-0.3-1-0.4c-0.4-0.1-0.7-0.3-0.9-0.6c-0.1-0.2,0-0.5,0.2-0.7c0.4-0.3,1-0.3,1.4,0
			c0.5,0.2,0.9,0.5,1.1,1c0.1,0.3-0.1,0.6-0.4,0.7C524.7,152.2,524.6,152.2,524.5,152.2z"/>
		<path class="st9" d="M521.1,157c0,0,0.1,0.1,0,0.1c-0.3,1-0.4,2.2,0.4,2.8c0,0,0,0.1,0,0.1C520.4,159.6,520.6,158,521.1,157z"/>
		<path class="st9" d="M522.2,156.2c1.7,0.3,1,3.6-0.6,3.4S520.8,156,522.2,156.2z"/>
		<path class="st9" d="M522.9,156.5c0.2,0.2,0.5,0.6,0.8,0.8s0.8-0.2,1.1-0.4c0,0,0.1,0,0,0.1c-0.1,0.6-0.5,1.3-1.2,1.2
			s-1-0.7-1-1.4C522.6,156.6,522.8,156.4,522.9,156.5z"/>
		<path class="st9" d="M514.9,155C514.9,155,514.8,155,514.9,155c-0.3,1.1-0.7,2.3-1.7,2.4v0.1C514.3,157.6,514.8,156,514.9,155z"/>
		<path class="st9" d="M514.2,153.7c-1.7-0.5-2.5,2.8-1,3.3S515.5,154.1,514.2,153.7z"/>
		<path class="st9" d="M513.4,153.7c-0.3,0.1-0.7,0.4-1,0.3s-0.5-0.5-0.7-0.9c0,0,0,0-0.1,0c-0.2,0.6-0.1,1.4,0.4,1.6
			s1.1-0.2,1.4-0.8C513.6,153.9,513.5,153.7,513.4,153.7z"/>
		<path class="st9" d="M518.4,164.9c-0.3,0.2-0.6,0.5-1,0.5c-0.4-0.1-0.8-0.2-1.1-0.4c0,0-0.1,0-0.1,0c0.2,0.5,0.7,0.8,1.2,0.8
			C518,165.7,518.4,165.4,518.4,164.9C518.5,164.9,518.5,164.9,518.4,164.9z"/>
		<path class="st9" d="M514.9,160.2c0,0-0.5,1.5-0.7,2.2c0,0.1,0.2,0.1,0.4,0.2l0,0c1.2,0.5,2.6,0.3,3.7-0.6c0.1-0.1,0-0.1-0.1-0.1
			c-1.1,0.4-2.3,0.5-3.4,0.2c0-0.2,1-2.5,0.9-2.6c-0.6-0.1-1.2-0.1-1.8,0c1.1-3.2,2.6-6.1,3.6-9.3c0-0.1-0.1-0.2-0.2-0.1
			c-1.8,3.1-3.2,6.4-4.3,9.9C512.9,160.5,514.6,160.3,514.9,160.2z"/>
		<path class="st9" d="M514.9,162.4c0.3,0.7,0.7,1.3,1.3,1.7c0.3,0.2,0.7,0.4,1.1,0.4c0.9,0,1.1-0.7,1.1-1.4c0-0.4,0-0.7-0.1-1.1
			C517.2,162.5,516,162.7,514.9,162.4z"/>
		<path class="st14" d="M516.2,164.1c0.3,0.2,0.7,0.4,1.1,0.4c0.9,0,1.1-0.7,1.1-1.4C517.5,162.9,516.6,163.3,516.2,164.1z"/>
		<path class="st9" d="M534,162.1c-1.6-0.6-4.6-6.3-2.4-14.2c0,0-1.4,7.3-1.2,8.4s-1.7-3.2,0-9.6c-2.4,0.9-4.9,1.4-7.5,1.5
			c-3.2,0-5.1-0.6-5.2-0.9s4.7-0.4,6.3-1.4c0,0-9.1,1.4-12.8,0.6c-0.4-0.1,1.6-9,8.3-11.1s14.6,4.5,16.4,7.6c0,0,2.7,1.2,4.6,6.3
			S535.7,162.7,534,162.1z"/>
		<path class="st13" d="M531.6,162.5c0,0,4.2-4.2,6.2-2.6s-1.8,8.1-4.5,8.6c-1.4,0.4-2.8-0.5-3.2-1.9c0,0,0-0.1,0-0.1L531.6,162.5z"
			/>
		<path class="st9" d="M536.7,161.7C536.7,161.7,536.7,161.8,536.7,161.7c-1.9,0.5-3.2,2-4.1,3.6c0.5-0.6,1.4-0.7,2-0.2
			c0.1,0.1,0.1,0.1,0.2,0.2c0,0,0,0.1-0.1,0.1c-0.6-0.3-1.4-0.2-1.9,0.2c-0.4,0.4-0.8,0.8-1.1,1.3c-0.1,0.1-0.4,0-0.3-0.2l0,0
			C531.8,164.3,534.2,161.5,536.7,161.7z"/>
		<path class="st13" d="M547.7,256l0.3,0.1l0,0L547.7,256z"/>
		<path class="st3" d="M572.6,251.1c0,0.2,0.1,0.4,0.1,0.6c0,0,0-0.1,0-0.1C572.7,251.4,572.7,251.3,572.6,251.1z"/>
		<path class="st3" d="M572.6,251.1c0,0.2,0.1,0.4,0.1,0.6c0,0,0-0.1,0-0.1C572.7,251.4,572.7,251.3,572.6,251.1z"/>
		<path class="st3" d="M546.5,258.7L546.5,258.7l0.8,0.2L546.5,258.7z"/>
		<path class="st5" d="M572.6,251.1c0,0.2,0.1,0.4,0.1,0.6c0,0,0-0.1,0-0.1C572.7,251.4,572.7,251.3,572.6,251.1z"/>
	</g>
	<g id="freepik--character-1--inject-113">
		<path class="st0" d="M286.7,84v39.4h39.4V84H286.7z M289.7,120.4V86.9h33.5v33.5H289.7z"/>
		<rect x="314.7" y="73.9" class="st6" width="133.8" height="123.2"/>
		<path class="st15" d="M405.5,135c16.3,16.5,36.8,51.3,33,58.3c-4.3,7.9-27-15.3-26.9-16.7c0.1-1-7.9-22.1-14-37.5
			S401.5,130.9,405.5,135z"/>
		<path class="st3" d="M411.5,176.7c-0.7-2.3-11.6-30.1-14.7-38.9s-0.2-11.5,8.6-3.5s28.3,35,32.8,49.3c4.3,13.8-2.8,13.8-12.1,7.4
			C418.4,185.8,411.5,176.7,411.5,176.7z"/>
		<path class="st16" d="M403.9,135.2c-0.2,1.2-0.7,2.4-1.5,3.4c0.1-0.6,0.3-1.2,0.5-1.8C403.2,136.2,403.5,135.7,403.9,135.2z
			 M430.8,173.5c-0.3,0.6-0.5,1.2-0.5,1.8c0.4-0.5,0.7-1,1-1.6c0.3-0.6,0.4-1.2,0.5-1.8C431.4,172.4,431,172.9,430.8,173.5z
			 M421.2,158.9c-0.3,0.6-0.5,1.2-0.5,1.8c0.4-0.5,0.7-1,1-1.6c0.3-0.6,0.5-1.2,0.5-1.8C421.8,157.8,421.4,158.3,421.2,158.9
			L421.2,158.9z M411.2,155.2c-0.6-0.3-1.2-0.5-1.8-0.6c1,0.8,2.1,1.3,3.4,1.5C412.3,155.8,411.8,155.4,411.2,155.2L411.2,155.2z
			 M420.2,170c-0.6-0.3-1.2-0.5-1.8-0.6c0.5,0.4,1,0.7,1.6,1c0.6,0.3,1.2,0.5,1.8,0.6C421.3,170.6,420.8,170.2,420.2,170L420.2,170z
			 M412.9,144.7c-0.6-0.3-1.2-0.5-1.8-0.6c0.5,0.4,1,0.7,1.6,1c0.6,0.3,1.2,0.5,1.8,0.6C414,145.2,413.4,144.9,412.9,144.7
			L412.9,144.7z M407.3,164.4c0.2,0.6,0.5,1.1,0.9,1.6c-0.1-1.2-0.6-2.4-1.3-3.5C406.9,163.2,407.1,163.8,407.3,164.4L407.3,164.4z
			 M426.1,182c0.2,0.6,0.5,1.1,0.9,1.6c-0.1-1.2-0.6-2.4-1.3-3.5C425.7,180.8,425.9,181.4,426.1,182L426.1,182z M413.4,179
			L413.4,179l0.3,0.4c0.5-0.2,1.1-0.5,1.5-0.8C414.7,178.7,414,178.8,413.4,179L413.4,179z M435.7,189.5c0.6-0.2,1.1-0.5,1.6-0.9
			c-0.6,0.1-1.2,0.2-1.8,0.4c-0.6,0.2-1.1,0.5-1.6,0.9C434.5,189.9,435.2,189.8,435.7,189.5L435.7,189.5z M402.3,148.8
			c-0.4,0.2-0.8,0.3-1.2,0.6l0.1,0.2c0.4-0.1,0.8-0.2,1.2-0.4c0.6-0.2,1.2-0.5,1.7-0.9C403.5,148.4,402.9,148.5,402.3,148.8
			L402.3,148.8z"/>
		<path class="st3" d="M409.5,197.1h-62c0,0,9.9-48.6,33.6-69.6c2.9-2.6,9.6-2,13.9,0.1c1.5,0.8,7.1,8.5,8.7,15.9
			S409.7,196.9,409.5,197.1z"/>
		<path class="st9" d="M404.3,146.5c0.5,1.6,0.9,3.3,1.2,5c0-0.1,0-0.1,0-0.2c0-1,0-1.9,0.1-2.9c0,0,0.1-0.1,0.1,0
			c0.1,1,0.2,1.9,0.1,2.9c0,0.4,0,0.9-0.1,1.4c0.1,0.8,0.2,1.5,0.3,2.3c0.2,1.4,0.7,6.8,0.7,7.9c0,0.2-0.2,0.3-0.3,0
			c-0.3-1.1-1.1-6.6-1.3-8.1c-0.5-2.8-0.8-5.6-1-8.4C404.1,146.4,404.2,146.4,404.3,146.5z"/>
		<path class="st16" d="M385.1,140.2c-0.1,0.6-0.3,1.2-0.6,1.8c-0.3,0.6-0.6,1.1-1,1.6c0.1-0.6,0.3-1.2,0.6-1.8
			C384.3,141.2,384.7,140.6,385.1,140.2z M376.7,164.8c-0.3,0.6-0.5,1.2-0.5,1.8c0.8-1,1.3-2.1,1.5-3.4
			C377.2,163.7,376.9,164.3,376.7,164.8z M356.5,173.7c-0.3,0.6-0.5,1.2-0.5,1.8c0.4-0.5,0.7-1,1-1.6c0.3-0.6,0.5-1.2,0.5-1.8
			C357.1,172.6,356.8,173.1,356.5,173.7z M371.3,189.5c-0.3,0.6-0.5,1.2-0.5,1.8c0.4-0.5,0.7-1,1-1.6c0.3-0.6,0.4-1.2,0.5-1.8
			C371.9,188.4,371.6,188.9,371.3,189.5z M397.2,158.9c-0.3,0.6-0.5,1.2-0.5,1.8c0.4-0.5,0.7-1,1-1.6c0.3-0.6,0.5-1.2,0.5-1.8
			C397.8,157.8,397.4,158.4,397.2,158.9L397.2,158.9z M405.3,175.7c-0.3,0.6-0.5,1.2-0.5,1.8c0.4-0.5,0.7-1,1-1.6
			c0.3-0.6,0.5-1.2,0.5-1.8C405.9,174.6,405.6,175.1,405.3,175.7z M385.6,187.8c-0.3,0.6-0.4,1.2-0.5,1.8c0.4-0.5,0.7-1,1-1.6
			c0.3-0.6,0.5-1.2,0.6-1.8C386.2,186.7,385.9,187.2,385.6,187.8L385.6,187.8z M366.7,155.1c-0.3,0.6-0.5,1.2-0.6,1.8
			c0.4-0.5,0.7-1,1-1.6c0.3-0.6,0.5-1.2,0.6-1.8C367.3,154,367,154.5,366.7,155.1L366.7,155.1z M390.1,149.6
			c-0.6-0.3-1.2-0.5-1.8-0.6c0.5,0.4,1,0.7,1.6,1c0.6,0.3,1.2,0.5,1.8,0.6C391.3,150.2,390.7,149.8,390.1,149.6z M394.1,169.5
			c-0.6-0.3-1.2-0.5-1.8-0.6c0.5,0.4,1,0.7,1.6,1c0.6,0.3,1.2,0.5,1.8,0.6C395.2,170.1,394.6,169.8,394.1,169.5z M357.6,190.6
			c-0.6-0.3-1.2-0.5-1.8-0.6c0.5,0.4,1,0.7,1.6,1c0.6,0.3,1.2,0.5,1.8,0.6C358.7,191.2,358.2,190.9,357.6,190.6L357.6,190.6z
			 M394.7,194.6c-0.6-0.3-1.2-0.5-1.8-0.6c0.5,0.4,1,0.7,1.6,1l0.4,0.2c0.3,0,0.6,0,1,0.1C395.5,195.1,395.1,194.8,394.7,194.6
			L394.7,194.6z M371.6,174.5c-0.6-0.3-1.2-0.5-1.8-0.6c0.5,0.4,1,0.7,1.6,1c0.6,0.3,1.2,0.5,1.8,0.6
			C372.6,175.1,372.1,174.7,371.6,174.5L371.6,174.5z M390.2,131.9c-0.6-0.3-1.2-0.5-1.8-0.6c0.5,0.4,1,0.7,1.6,1
			c0.6,0.3,1.2,0.4,1.8,0.6C391.3,132.5,390.7,132.2,390.2,131.9L390.2,131.9z M394.2,141.1c0.2,0.6,0.5,1.1,0.9,1.6
			c-0.1-0.6-0.2-1.2-0.4-1.8c-0.2-0.6-0.5-1.1-0.9-1.6C393.8,139.9,393.9,140.6,394.2,141.1L394.2,141.1z M404.1,187.3
			c0.2,0.6,0.5,1.1,0.9,1.6c-0.1-1.2-0.6-2.4-1.3-3.5C403.7,186.1,403.8,186.7,404.1,187.3z M377.5,152.8c0.2,0.6,0.5,1.1,0.9,1.6
			c0-0.6-0.2-1.2-0.4-1.8c-0.2-0.6-0.5-1.1-0.9-1.6C377.1,151.6,377.2,152.2,377.5,152.8L377.5,152.8z M385.1,173.1
			c0.2,0.6,0.5,1.1,0.9,1.6c-0.1-0.6-0.2-1.2-0.4-1.8c-0.2-0.6-0.5-1.1-0.9-1.6C384.7,171.9,384.9,172.5,385.1,173.1L385.1,173.1z
			 M349.6,196.9c0,0.1,0,0.2,0,0.2h0.2L349.6,196.9z M367.1,196.8c-0.2-0.6-0.5-1.2-0.9-1.7c0.1,0.6,0.2,1.2,0.4,1.8l0.1,0.2h0.5
			C367.1,197,367.1,196.9,367.1,196.8z M363.5,182.5c0.2,0.6,0.5,1.1,0.9,1.6c-0.1-0.6-0.2-1.2-0.4-1.8c-0.2-0.6-0.5-1.1-0.9-1.6
			C363.1,181.3,363.2,181.9,363.5,182.5L363.5,182.5z M378.5,134.7c0.2,0.6,0.5,1.1,0.9,1.6c-0.1-0.6-0.2-1.2-0.4-1.8
			c-0.2-0.6-0.5-1.1-0.9-1.6C378.1,133.5,378.2,134.1,378.5,134.7L378.5,134.7z M395.1,181.5c0.6-0.2,1.1-0.5,1.6-0.9
			c-0.6,0-1.2,0.2-1.8,0.4c-0.6,0.2-1.1,0.5-1.6,0.9C393.9,181.9,394.5,181.7,395.1,181.5z M378.8,196.4c0.6-0.2,1.1-0.5,1.6-0.9
			c-1.2,0.1-2.4,0.6-3.5,1.3C377.6,196.8,378.2,196.7,378.8,196.4z M351.2,182.9c0,0.1-0.1,0.3-0.1,0.4c0.3-0.1,0.6-0.3,0.9-0.5
			C351.7,182.8,351.5,182.9,351.2,182.9L351.2,182.9z M365.4,165.7c0.6-0.2,1.2-0.5,1.7-0.9c-0.6,0.1-1.2,0.2-1.8,0.4
			c-0.6,0.2-1.2,0.5-1.7,0.9C364.2,166.1,364.8,166,365.4,165.7L365.4,165.7z M378.4,182.2c0.6-0.2,1.2-0.5,1.7-0.8
			c-1.2,0.1-2.4,0.6-3.5,1.3C377.2,182.6,377.8,182.4,378.4,182.2L378.4,182.2z M386.1,158.6c0.6-0.2,1.1-0.5,1.7-0.9
			c-0.6,0-1.2,0.2-1.8,0.4c-0.6,0.2-1.1,0.5-1.6,0.9C384.9,159,385.5,158.8,386.1,158.6z M402.4,149.2c0.6-0.2,1.2-0.5,1.7-0.9
			c-0.6,0.1-1.2,0.2-1.8,0.4c-0.6,0.2-1.1,0.5-1.6,0.9C401.2,149.6,401.9,149.5,402.4,149.2L402.4,149.2z M373.2,143.8
			c0.6-0.2,1.1-0.5,1.6-0.9c-1.2,0.1-2.4,0.6-3.5,1.3C372,144.1,372.6,144,373.2,143.8L373.2,143.8z"/>
		<path class="st15" d="M327.5,108.3c-0.1-3,0.5-16.7,1.5-20.4s4.7-14.4,7.7-13.9s2.1,3.7,2.1,3.7s2.3-4.2,5.2-3.5s1.5,5.7,1.5,5.7
			s2.7-4.2,5.5-3.2s0.6,5.7,0.6,5.7s2.2-3.9,4.3-2.1c2.5,2.2-2.5,9-3.3,13.2c-0.2,1-2.4,19.8-2.4,19.8L327.5,108.3z"/>
		<path class="st9" d="M351.9,82c-3.7,5-4.4,7.8-4.8,13.9c0,0.1-0.2,0.1-0.2,0c-0.1-6,0.3-9.7,4.7-14.1
			C351.8,81.6,352.1,81.7,351.9,82z"/>
		<path class="st9" d="M345.8,79.5c-3.3,5.5-4.2,8.6-5.1,14.9c0,0.1-0.2,0.1-0.2,0c0.4-6.3,0.9-10,4.9-15
			C345.7,79.2,346,79.3,345.8,79.5z"/>
		<path class="st9" d="M338.8,78c-2.8,5.6-3.9,8.9-4,15.2c0,0.1-0.1,0.1-0.1,0.1c0,0-0.1,0-0.1-0.1c-0.5-6.4,0.7-10.6,4-15.3
			C338.9,77.6,339,77.7,338.8,78z"/>
		<path class="st15" d="M350.1,117.2c0,0,5.6-5.3,7.6-8.2s5.4-16.3,2.5-17.2c-3.7-1.2-7.2,6.2-8.4,10.1c0,0-8.6-2.7-12.2,2.1
			S350.1,117.2,350.1,117.2z"/>
		<path class="st9" d="M359.1,91.7c-4.1,1.4-5.4,6.5-6.9,10.2c-0.1,0.2-0.3,0.3-0.5,0.2c0,0-0.1,0-0.1-0.1c-3.7-0.9-9.1-1.1-12,1.6
			c0,0-0.1,0-0.1,0s0-0.1,0-0.1c2.8-3.3,8.1-3.5,12.1-2.3C353,97.5,354.5,92.4,359.1,91.7C359.1,91.7,359.1,91.7,359.1,91.7z"/>
		<path class="st15" d="M384.6,134.7c-3.7,6.4-25.2,26.3-44,29.7c-2.5,0.5-12.2-1.6-14.2-8c-3.6-11.4-0.7-35.1,1.1-49.3
			c0.4-2.8,26.1,2.9,25.5,7.2c-0.7,4.7-3.5,21.9-3.1,22.1c1.5,0.7,18-6.4,28.8-8.7C386.4,126.1,387.5,129.8,384.6,134.7z"/>
		<path class="st8" d="M323.9,114.2l29.4,6.4c0,0-2.7,15-2.1,14.9s21.1-7.6,29.1-8.4s7.9,2.7,3.9,9.3s-30.4,28.5-43.4,28.5
			c-6.6,0-12.8-4.2-14-6.3C322.9,152.3,323.9,114.2,323.9,114.2z"/>
		<path class="st3" d="M323.9,114.2l29.4,6.4c0,0-2.7,15-2.1,14.9s21.1-7.6,29.1-8.4s7.9,2.7,3.9,9.3s-30.4,28.5-43.4,28.5
			c-6.6,0-12.8-4.2-14-6.3C322.9,152.3,323.9,114.2,323.9,114.2z"/>
		<path class="st16" d="M366,135.1c-0.3,0.6-0.5,1.2-0.5,1.8c0.4-0.5,0.7-1,1-1.6c0.3-0.6,0.5-1.2,0.5-1.8
			C366.5,134,366.2,134.5,366,135.1z M342.6,161.3c-0.3,0.6-0.5,1.2-0.5,1.8c0.8-1,1.3-2.1,1.5-3.4
			C343.2,160.2,342.9,160.8,342.6,161.3z M325.3,143.3c-0.3,0.6-0.5,1.2-0.6,1.8c0.4-0.5,0.7-1,1-1.6c0.3-0.6,0.4-1.2,0.5-1.8
			C325.9,142.2,325.6,142.8,325.3,143.3z M350.9,143.4c-0.3,0.6-0.5,1.2-0.5,1.8c0.4-0.5,0.7-1,1-1.6c0.3-0.6,0.5-1.2,0.6-1.8
			C351.5,142.3,351.1,142.8,350.9,143.4L350.9,143.4z M338.1,150.8c-0.3,0.6-0.4,1.2-0.5,1.8c0.4-0.5,0.7-1,1-1.6
			c0.3-0.6,0.5-1.2,0.6-1.8C338.7,149.7,338.3,150.3,338.1,150.8z M339.2,132.8c-0.3,0.6-0.5,1.2-0.5,1.8c0.8-1,1.3-2.1,1.5-3.4
			C339.8,131.7,339.4,132.2,339.2,132.8L339.2,132.8z M326.1,119.3c-0.3,0.6-0.5,1.2-0.6,1.8c0.4-0.5,0.8-1,1-1.6
			c0.3-0.6,0.5-1.2,0.6-1.8C326.7,118.2,326.3,118.8,326.1,119.3z M378.9,134.5c-0.2-0.6-0.5-1.1-0.9-1.6c0.1,0.6,0.2,1.2,0.4,1.8
			c0.2,0.6,0.5,1.1,0.9,1.6C379.3,135.7,379.1,135.1,378.9,134.5L378.9,134.5z M361.5,146.5c-0.2-0.6-0.5-1.1-0.9-1.6
			c0.1,0.6,0.2,1.2,0.4,1.8c0.2,0.6,0.5,1.1,0.9,1.6C361.9,147.7,361.7,147.1,361.5,146.5L361.5,146.5z M348.4,133
			c-0.2-0.6-0.5-1.1-0.9-1.6c0.1,1.2,0.6,2.4,1.3,3.5C348.8,134.2,348.7,133.6,348.4,133L348.4,133z M346.7,152.6
			c-0.2-0.6-0.5-1.1-0.9-1.6c0.1,0.6,0.2,1.2,0.4,1.8c0.2,0.6,0.5,1.1,0.9,1.6C347.1,153.8,347,153.2,346.7,152.6L346.7,152.6z
			 M330,150.5c-0.2-0.6-0.5-1.1-0.9-1.6c0.1,0.6,0.2,1.2,0.4,1.8c0.2,0.6,0.5,1.1,0.9,1.6C330.3,151.7,330.2,151,330,150.5
			L330,150.5z M335.3,122.8c-0.2-0.6-0.5-1.2-0.9-1.7c0,0.6,0.2,1.2,0.4,1.8c0.2,0.6,0.5,1.1,0.9,1.6
			C335.6,124,335.5,123.4,335.3,122.8L335.3,122.8z M333.3,138.5c-0.2-0.6-0.5-1.1-0.9-1.6c0.1,0.6,0.2,1.2,0.4,1.8
			c0.2,0.6,0.5,1.1,0.9,1.6C333.6,139.7,333.5,139.1,333.3,138.5L333.3,138.5z M373.1,143.3c-0.6,0.2-1.1,0.5-1.6,0.9
			c0.6-0.1,1.2-0.2,1.8-0.4c0.6-0.2,1.1-0.5,1.6-0.9C374.3,143,373.6,143.1,373.1,143.3z M342,142.6c-0.6,0.2-1.1,0.5-1.6,0.9
			c0.6-0.1,1.2-0.2,1.8-0.4c0.6-0.2,1.1-0.5,1.6-0.9C343.2,142.2,342.6,142.4,342,142.6L342,142.6z M344.9,124.2
			c-0.6,0.2-1.1,0.5-1.6,0.9c0.6-0.1,1.2-0.2,1.8-0.4c0.6-0.2,1.1-0.5,1.6-0.9C346.1,123.8,345.5,123.9,344.9,124.2L344.9,124.2z
			 M328.2,130c-0.6,0.2-1.1,0.5-1.6,0.9c1.2-0.1,2.4-0.6,3.5-1.3C329.4,129.6,328.8,129.7,328.2,130L328.2,130z M356,155
			c-0.6,0.2-1.1,0.5-1.6,0.9c1.2-0.1,2.4-0.6,3.5-1.3C357.2,154.6,356.5,154.7,356,155L356,155z M333.6,159.8
			c-0.6,0.2-1.1,0.5-1.6,0.9c0.6-0.1,1.2-0.2,1.8-0.4c0.6-0.2,1.1-0.5,1.6-0.9C334.8,159.5,334.2,159.6,333.6,159.8L333.6,159.8z
			 M357.7,135c-0.6,0.2-1.1,0.5-1.6,0.9c0.6-0.1,1.2-0.2,1.8-0.4c0.6-0.2,1.1-0.5,1.6-0.9C358.9,134.6,358.3,134.8,357.7,135
			L357.7,135z"/>
		<path class="st9" d="M351.3,135.6c-0.2,2.2-0.6,4.5-1.2,6.6c-0.5,2.2-1.2,4.4-1.8,6.5 M348.2,148.8c0.6-2.2,1-4.4,1.5-6.6
			s0.8-4.4,1.4-6.6c0-0.2,0.3-0.1,0.2,0L348.2,148.8z"/>
		<path class="st9" d="M351.5,126.1c-3.4-0.8-6.8-1.5-10.3-2.2s-6.9-1.3-10.4-1.9c-2-0.3-3.9-0.6-5.9-0.9c0,0-0.1,0.1,0,0.1
			c3.4,0.9,6.8,1.5,10.3,2.2s6.9,1.3,10.4,1.9c2,0.3,3.9,0.6,5.9,0.9C351.5,126.3,351.6,126.1,351.5,126.1z"/>
		<path class="st9" d="M361.2,156.1c0.5-0.5,1.1-0.9,1.7-1.3s1.1-0.9,1.7-1.3l3.4-2.6c2.3-1.8,4.5-3.6,6.7-5.3c1.3-1,2.5-2,3.8-3.1
			c0,0,0.1,0,0.1,0c0,0,0,0.1,0,0.1c-1.5,1.4-3.1,2.9-4.7,4.3l0.6-0.3c0.6-0.3,1.2-0.6,1.8-1c0,0,0.1,0.1,0,0.1
			c-0.6,0.4-1.2,0.8-1.8,1.1c-0.3,0.2-0.6,0.3-0.9,0.5l-0.5,0.2l0,0c-0.4,0.3-0.7,0.6-1.1,0.9c-2.2,1.8-4.5,3.6-6.8,5.2
			c-0.7,0.5-1.3,0.9-2,1.4C362.6,155.3,362,155.8,361.2,156.1C361.2,156.2,361.2,156.1,361.2,156.1z"/>
		<polygon class="st9" points="390.4,142.3 393.8,137.1 397,141.5 395.7,145.4 392,145.4 		"/>
		<polygon class="st9" points="392,145.4 386,185.9 392.1,200.1 397.7,185.4 395.7,145.4 		"/>
		<path class="st15" d="M395.1,136.7c-3.6,0.9-9.7-4.6-12.2-9c-0.2-0.3,0.3-3.5,0.6-7.4c0.2-2.4,0.4-5,0.4-7.5l15.3,3.6
			c-0.9,3-1.3,6.2-1.4,9.4c0,0.3,0,0.7,0.1,1c0,0.1,0,0.1,0,0.2C398.1,128.9,398.5,135.9,395.1,136.7z"/>
		<path class="st9" d="M384.9,113.1c0.5,3.2,2.6,13.8,11.4,14c0.5,0,1,0,1.6-0.1c0-0.1,0-0.1,0-0.2c-0.1-0.3-0.1-0.7-0.1-1
			c0.1-3.2,0.6-6.3,1.4-9.4L384.9,113.1z"/>
		<path class="st15" d="M380.3,95.8c-1.2,5.5,3.1,20.8,7.2,24c6,4.5,15.1,4.2,18.8-2.9c3.6-6.8-2.3-26.7-6.9-29.5
			C392.8,83.3,382.1,87.6,380.3,95.8z"/>
		<path class="st9" d="M394,104.9c0,0-0.1,0.1-0.1,0.1c0.3,1,0.5,2.2-0.3,2.9c0,0,0,0.1,0,0.1C394.7,107.4,394.4,105.8,394,104.9z"
			/>
		<path class="st9" d="M392.7,104.1c-1.7,0.3-0.9,3.7,0.6,3.4S394.1,103.8,392.7,104.1z"/>
		<path class="st9" d="M400.2,103.3c0-0.1,0.1,0,0.1,0.1c0.2,1.1,0.6,2.2,1.6,2.4v0.1C400.7,105.9,400.2,104.3,400.2,103.3z"/>
		<path class="st9" d="M400.9,102c1.6-0.5,2.5,2.8,1,3.3S399.5,102.5,400.9,102z"/>
		<path class="st7" d="M391.1,102.8c0.4-0.2,0.8-0.5,1.2-0.8s0.9-0.5,1.1-1c0.1-0.3,0-0.7-0.3-0.8c-0.6-0.3-1.3-0.2-1.8,0.2
			c-0.6,0.3-1,0.8-1.2,1.5c-0.1,0.4,0.1,0.8,0.6,1C390.7,102.9,390.9,102.9,391.1,102.8z"/>
		<path class="st7" d="M401.8,100c-0.5,0-0.9,0-1.4,0c-0.5,0.1-1-0.1-1.4-0.3c-0.2-0.2-0.3-0.6-0.2-0.9c0.4-0.5,1-0.8,1.7-0.7
			c0.7,0,1.3,0.2,1.8,0.6c0.3,0.3,0.3,0.8-0.1,1.1C402.1,99.9,401.9,100,401.8,100z"/>
		<path class="st9" d="M395.5,114.5c0.3,0.2,0.6,0.5,1,0.4c0.4-0.1,0.7-0.3,1.1-0.5 M397.6,114.4c-0.2,0.5-0.7,0.8-1.2,0.9
			c-0.4,0-0.8-0.3-1-0.7c0,0,0,0,0.1,0L397.6,114.4z"/>
		<path class="st9" d="M395.9,111.1c0.7,0.7,1.7,1.1,2.7,1c0.4,0,0.9-0.1,1.3-0.2l0.2-0.1l0.2-0.1c0.1-0.1,0.2-0.2,0.1-0.3l0,0
			c0,0,0-0.1,0-0.1l0,0v-0.1c-0.2-0.8-0.5-2-0.5-2c0.3,0.1,2,0.4,1.9,0c-0.9-3.6-2.2-7.1-3.8-10.4c0-0.1-0.1-0.1-0.1-0.1
			s-0.1,0.1-0.1,0.1c0.8,3.3,2.2,6.5,3.1,9.8c-0.6-0.1-1.2-0.2-1.8-0.1c-0.1,0.1,0.7,2.3,0.8,2.7l0,0c-1.3,0.4-2.7,0.3-3.9-0.3
			C395.9,111,395.8,111.1,395.9,111.1z"/>
		<path class="st9" d="M399.4,111.8c-0.3,0.7-0.8,1.2-1.5,1.6c-0.3,0.2-0.7,0.3-1.1,0.3c-0.9-0.1-1-0.8-1-1.5c0-0.4,0.1-0.7,0.2-1.1
			C397,111.7,398.2,111.9,399.4,111.8z"/>
		<path class="st14" d="M397.9,113.4c-0.3,0.2-0.7,0.3-1.1,0.3c-0.9-0.1-1-0.8-1-1.5C396.7,112,397.6,112.5,397.9,113.4z"/>
		<g class="st17">
			<path d="M395.6,97.7c0.6,0,1.1-0.1,1.6-0.2c0.5-0.1,1.1-0.4,1.6-0.5c1.1-0.2,2.1-0.2,3.2,0c0.1,0,0.1,0.1,0,0.1
				c-1.1-0.2-2.3-0.1-3.3,0.3c-0.9,0.3-1.8,0.6-2.7,0.7c-2.1,0-4.2,0.7-5.9,1.9l0,0C391.7,98.6,393.6,97.9,395.6,97.7z"/>
			<path d="M395.2,96.2c0.5,0,1.1-0.1,1.6-0.2c0.5-0.1,1-0.4,1.5-0.5c1-0.2,2-0.2,3,0c0.1,0,0.1,0.1,0,0.1c-1.1-0.1-2.1,0-3.2,0.3
				c-0.8,0.3-1.7,0.5-2.5,0.6c-2,0-3.9,0.7-5.5,1.8l0,0C391.5,97.1,393.3,96.4,395.2,96.2z"/>
		</g>
		<path class="st7" d="M381.8,109c0,0-5.4-8.8-4.9-13.9c0.2-2.3,3.4-3.9,3.4-3.9c-0.5-1.9,0.1-4,1.6-5.2c2.7-2.6,9.3-2,9.3-2
			s4.3-6.2,10.3-3.7s2.1,9.3,2.1,9.3s2.2,3.2-3.2,5.6s-16.1,0.1-16.1,0.1c0.5,3.7,0.5,7.5-0.2,11.2C384,107.7,383.1,108.7,381.8,109
			z"/>
		<path class="st7" d="M392.4,84c-1.4-0.5-2.8-0.8-4.3-0.8c-1.3,0-2.6,0.2-3.8,0.6c-2.3,0.6-4,2.5-4.5,4.8c-0.2,1.2,0.1,2.4,0.9,3.3
			c0,0,0.1,0,0.1,0c-1.4-1.7-0.7-4.4,0.8-5.9c1.8-1.5,4-2.4,6.4-2.4c1.5,0,3,0.1,4.5,0.5C392.4,84.2,392.4,84.1,392.4,84z"/>
		<path class="st7" d="M406,83.1c-0.6-1.6-1.9-2.9-3.6-3.3c-1.9-0.6-3.9-0.5-5.7,0.2c-1.8,0.7-3.5,1.9-4.7,3.5c0,0,0,0.1,0.1,0
			c2.3-2.8,5.8-4.1,9.4-3.5c2.6,0.2,4.6,2.6,4.4,5.2c-0.1,0.7-0.3,1.3-0.6,1.9c-0.9,1.6-2.3,3-3.9,3.9 M401.3,91.1
			c1.5-0.8,2.9-1.9,3.9-3.3c0.9-1.4,1.3-3.1,0.9-4.7L401.3,91.1z"/>
		<path class="st15" d="M384.8,108.2c0,0-4.1-4.6-6.2-3.1s1.3,8.5,4.1,9.2c1.4,0.5,3-0.3,3.5-1.7c0,0,0-0.1,0-0.1L384.8,108.2z"/>
		<path class="st9" d="M379.6,107.1c2,0.6,3.1,2.2,4,3.9c-0.5-0.7-1.5-0.8-2.1-0.3c-0.1,0-0.1,0.1-0.2,0.1c0,0,0,0.1,0,0.1
			c0,0,0.1,0,0.1,0l0,0c0.6-0.3,1.4-0.1,1.9,0.4c0.4,0.4,0.7,0.9,1,1.4c0.1,0.2,0.4,0,0.3-0.1l0,0
			C384.4,110.1,382.2,107,379.6,107.1L379.6,107.1z"/>
		<path class="st8" d="M393.6,110.3c-2.6,0.3-5-1.5-5.3-4c-0.3-2.6,1.5-5,4-5.3c2.1-0.3,4.2,0.9,5,2.9l0,0c1,2.4-0.2,5.2-2.6,6.1
			c0,0,0,0,0,0C394.4,110.2,394,110.3,393.6,110.3z M392.5,101.6c-0.3,0-0.7,0.1-1,0.3c-2.1,0.8-3.1,3.2-2.3,5.3
			c0.8,2.1,3.2,3.1,5.3,2.3c2.1-0.8,3.1-3.2,2.3-5.3C396.1,102.4,394.3,101.4,392.5,101.6z"/>
		<path class="st8" d="M404.1,107.6c-1.8,0.2-3.7-1.4-4.3-3.8c-0.3-1.1-0.3-2.3,0.2-3.4c0.5-1.5,2.1-2.4,3.7-2
			c0.5,0.1,0.9,0.4,1.2,0.7c0.9,0.8,1.5,1.8,1.8,3c0.6,2.5-0.4,5-2.2,5.4C404.3,107.6,404.2,107.6,404.1,107.6z M402.5,99h-0.2
			c-0.8,0.2-1.4,0.8-1.7,1.6c-0.4,1-0.4,2-0.1,3.1c0.6,2.2,2.3,3.6,3.8,3.2s2.4-2.5,1.8-4.7c-0.2-1-0.8-1.9-1.6-2.6
			C403.9,99.1,403.2,98.9,402.5,99L402.5,99z"/>
		<path class="st8" d="M397.4,104.5l-0.5-0.4c0.5-0.8,2-1.9,3.4-1l-0.3,0.5C398.6,102.8,397.4,104.4,397.4,104.5z"/>
		<path class="st8" d="M377.3,110.8l-0.6-0.1c0.1-0.3,0.7-2.8,2-3.4s9.6-1.9,10-1.9l0.1,0.6c-2.4,0.4-8.9,1.4-9.8,1.9
			S377.5,110.1,377.3,110.8z"/>
		<path class="st0" d="M397.8,126.7l-4.3,8.8l-10.4-12.1l-3.4,3.4c0,0,9.7,18.8,9.8,18l4.2-7.5l5,5.8l0.5-13.5L397.8,126.7z"/>
		<path class="st9" d="M399.4,136.3c0-2.2,0.1-4.5,0-6.7c0-0.1-0.1-0.1-0.1,0c-0.6,2.1-0.6,10.7-0.7,12.7l0,0
			c-0.2-0.2-4.6-5.1-4.7-5c-0.9,1.2-4,6.6-4.2,7.1c-1.5-3-7.4-13.9-9.3-16.7c0,0-0.1,0-0.1,0c0,0,0,0.1,0,0.1
			c1.3,3.1,9.1,17.8,9.2,17.7c1.6-2.6,3.1-5.2,4.4-7.9c0.7,1,5.1,6.4,5.2,6.1C399.3,141.2,399.4,138.8,399.4,136.3z"/>
		<path class="st15" d="M438.5,193.3c-3.7,5.2-13.7,6.2-38.6,11.1c-3.5,0.7-14.8-22.4-11.1-23.3c4.6-1.1,22.6-4.6,24-4.7
			C424.2,175.7,441,189.7,438.5,193.3z"/>
		<path class="st15" d="M393.8,180c0,0-10.6,1.6-15.8,4.1c-5.4,2.8-10.1,6.9-13.6,11.9c-3.8,5.4-9.3,21-5,23.4
			c3.8,2.1,8.6-14.1,8.6-14.1s-7.6,15.8-2.5,17.5s9.6-17.4,9.6-17.4s-7.5,16.4-2,17.3c4.2,0.7,9.2-16.4,9.2-16.4s-6.3,14.1-2.1,15.1
			c4.7,1,10.4-14.5,10.4-14.5c11.2,0.5,16.8-3.8,20.4-7.4C411.8,198.5,393.8,180,393.8,180z"/>
		<path class="st9" d="M370.2,199.7c-1,1.8-2,3.7-2.7,5.6s-1.5,3.8-2.1,5.8c-0.9,2.6-1.4,5.2-1.7,7.9c0.8-4.7,3.5-11.6,4.4-13.5
			S369.5,201.6,370.2,199.7C370.3,199.6,370.2,199.6,370.2,199.7z"/>
		<path class="st9" d="M377.1,202.4c-1.1,2.4-2.3,4.7-3.4,7.1s-1.8,4.8-2.6,7.3c-0.1,0.2,0.1,0.2,0.1,0c1-2.4,2-4.6,3-7.1
			S376.1,204.8,377.1,202.4C377.2,202.4,377.1,202.3,377.1,202.4z"/>
		<path class="st9" d="M383.5,203.7c-1.8,3.6-3.3,7.4-4.3,11.3c-0.1,0.2,0.1,0.1,0.2-0.1c1.4-3.8,2.4-6.8,4.3-11.2
			C383.6,203.7,383.5,203.6,383.5,203.7z"/>
		<path class="st3" d="M391.6,180l21.8,24.3c0,0,22.1-5.1,25.3-10.7c2.1-3.7-14.5-18.8-27-17.1L391.6,180z"/>
		<path class="st16" d="M411,195.2c-0.1,0.6-0.3,1.2-0.5,1.8c-0.3,0.6-0.6,1.1-1,1.6c0.1-0.6,0.3-1.2,0.5-1.8
			C410.2,196.2,410.6,195.7,411,195.2z M426.1,193.8c-0.3,0.6-0.5,1.2-0.5,1.8c0.4-0.5,0.7-1,1-1.6c0.3-0.6,0.5-1.2,0.6-1.8
			C426.7,192.7,426.4,193.2,426.1,193.8z M415.3,188.7c-0.6-0.3-1.2-0.5-1.8-0.6c1,0.8,2.1,1.3,3.4,1.5
			C416.4,189.3,415.9,189,415.3,188.7z M426.1,182c0.2,0.6,0.5,1.1,0.9,1.6c-0.1-1.2-0.6-2.4-1.3-3.5
			C425.8,180.8,425.9,181.4,426.1,182z M404.1,187.3c0.2,0.6,0.5,1.1,0.9,1.6c-0.1-1.2-0.6-2.4-1.3-3.5
			C403.7,186.1,403.8,186.7,404.1,187.3z M395.1,181.5c0.6-0.2,1.1-0.5,1.6-0.9c-0.6,0-1.2,0.2-1.8,0.4c-0.6,0.2-1.1,0.5-1.6,0.9
			C393.9,181.9,394.5,181.7,395.1,181.5L395.1,181.5z M413.6,179.5c0.6-0.2,1.1-0.5,1.6-0.9c-0.6,0-1.2,0.2-1.8,0.4
			c-0.6,0.2-1.1,0.5-1.6,0.9C412.4,179.9,413,179.7,413.6,179.5L413.6,179.5z M420.5,200.9c0.6-0.2,1.1-0.5,1.6-0.9
			c-0.6,0.1-1.2,0.2-1.8,0.4c-0.6,0.2-1.1,0.5-1.6,0.9C419.3,201.2,419.9,201.1,420.5,200.9L420.5,200.9z M436.9,188.8
			c-0.4,0.1-0.9,0.2-1.3,0.4c-0.6,0.2-1.1,0.5-1.6,0.9c0.6-0.1,1.2-0.2,1.8-0.4c0.5-0.2,0.9-0.4,1.3-0.6L436.9,188.8z"/>
		<path class="st9" d="M426.7,180.5c-4.3-3.1-9.7-4.6-15-4c-0.1,0-0.1,0.1,0,0.1C417.2,176.4,424.5,179.3,426.7,180.5
			C426.7,180.6,426.7,180.5,426.7,180.5z"/>
		<path class="st9" d="M419.4,200.2c-2.3-2.8-4.7-5.5-7.1-8.1s-4.8-5.4-7.3-8c-1.4-1.5-2.8-3-4.2-4.4c0,0,0,0-0.1,0c0,0,0,0,0,0.1
			c2.3,2.8,4.6,5.5,7,8.2s4.8,5.4,7.3,8c1.4,1.5,2.8,3,4.2,4.4C419.3,200.4,419.5,200.3,419.4,200.2z"/>
		<path class="st9" d="M391.6,179.7c1.3-0.4,2.7-0.7,4.1-0.9c1.4-0.2,2.8-0.5,4.1-0.7c2.8-0.4,8.5-1.7,13.6-1.7
			c0.1,0-0.2,0.3-0.3,0.3c-2.4-0.1-19.8,3.3-21.2,3.4c0,0.1,0.1,0.2,0.1,0.3c0,0,0,0.1,0,0.1c0,0-0.1,0-0.1,0l0,0
			c-0.2-0.1-0.3-0.3-0.5-0.4c-0.1-0.1-0.1-0.2-0.1-0.3C391.5,179.7,391.5,179.7,391.6,179.7z"/>
	</g>
	<g id="freepik--Cursor--inject-113">
		<polygon class="st9" points="270.9,238.5 275.1,248.7 270.9,250.4 266.7,240.2 259.8,245.6 259.8,217 279.8,237.2 		"/>
		<path class="st9" d="M260.1,213.2c-0.3-0.6-0.5-1.2-0.5-1.9c0-0.7,0.2-1.3,0.5-1.9c0.3,0.6,0.5,1.2,0.5,1.9
			C260.6,212,260.4,212.7,260.1,213.2z"/>
		<path class="st9" d="M256.8,214.6c-0.6-0.2-1.2-0.5-1.7-1c-0.5-0.5-0.8-1-1-1.7c0.6,0.2,1.2,0.5,1.7,1
			C256.2,213.4,256.6,213.9,256.8,214.6z"/>
		<path class="st9" d="M255.4,217.8c-0.6,0.3-1.2,0.5-1.9,0.5c-0.7,0-1.3-0.2-1.9-0.5c0.6-0.3,1.2-0.5,1.9-0.5
			C254.2,217.3,254.8,217.5,255.4,217.8z"/>
		<path class="st9" d="M256.8,221.1c-0.2,0.6-0.5,1.2-1,1.7c-0.5,0.5-1,0.8-1.7,1c0.2-0.6,0.5-1.2,1-1.7
			C255.5,221.6,256.1,221.3,256.8,221.1z"/>
		<path class="st9" d="M264.6,217.8c0.6-0.3,1.2-0.5,1.9-0.5c0.7,0,1.3,0.2,1.9,0.5C267.3,218.5,265.8,218.5,264.6,217.8z"/>
		<path class="st9" d="M263.3,214.6c0.2-0.6,0.5-1.2,1-1.7c0.5-0.5,1.1-0.8,1.7-1c-0.2,0.6-0.5,1.2-1,1.7
			C264.5,214.1,263.9,214.4,263.3,214.6z"/>
	</g>
	<g id="freepik--Plant--inject-113">
		<path class="st3" d="M73.8,310.8c-1.1,4-1.8,8.1-2.2,12.3c0.1,0.2,0.1,1,0,0.8c0,0.7-1,0.5-1-0.1c0-0.4,0-0.9,0-1.3
			c-2.4-3-5.9-4.9-8.7-7.5c-2.3-2-3.9-4.7-4.8-7.6c-2.3-8.1-0.2-16.6-3-24.7c-2.4-6.9-6.8-13-10.5-19.2c-3.9-6.6-6.8-13.6-7-21.4
			c-0.2-6,0.5-13.9,5-18.4c4.8-4.7,10.8-1.2,14.5,3c10.7,12.3,15.6,27.8,17.6,43.6c1.1,8.8,2.2,17.6,2,26.4
			C75.6,301.5,75,306.2,73.8,310.8z"/>
		<path class="st9" d="M71.7,326.3c0.6-8.3,0.5-16.6-0.3-24.8c0,0,0,0,0-0.1c0.1-6.7,0.7-13.4,0.4-20.1c-0.3-7.3-1.3-14.5-3-21.6
			c0-0.1-0.2-0.1-0.1,0c1.3,7,2.1,14,2.3,21.1c0.1,3.8,0.1,7.6-0.1,11.4c-0.1,1.2-0.2,2.5-0.3,3.7l0,0c-2.8-18.9-9.6-36.9-20-52.9
			c-0.1-0.2-0.5,0-0.4,0.2c7.4,12.2,12.9,25.4,16.3,39.2c-5.1-9.5-12.9-17.3-18.7-26.5c0,0-0.1,0-0.1,0
			c5.3,10.2,13.8,18.2,19.3,28.3c0.9,4.1,1.7,8.2,2.3,12.4c0.8,5.7,1.2,11.4,1.2,17.2c-3.1-5.9-6.4-11.4-8.9-17.6
			c-0.1-0.2-0.3,0-0.2,0.1c2.2,6.4,5.1,13.4,9.2,18.8c0,4.1-0.1,8.1-0.3,12.2c-0.6,10.9-2.5,21.5-3.3,32.4c0,0.1,0.1,0.2,0.3,0.2
			c0.1,0,0.2-0.1,0.2-0.2C69.6,348.8,71,337.6,71.7,326.3z"/>
		<path class="st9" d="M60.2,242.7c0-0.1-0.1,0-0.1,0.1c2,5.5,3.1,11,4.5,16.6c0,0.1,0.1,0.2,0.2,0.2c0.1,0,0.2-0.1,0.2-0.2
			C64.4,253.6,62.4,248,60.2,242.7z"/>
		<path class="st3" d="M110.5,265.7c-1.3,3.2-2.8,6.3-4.6,9.4c-3.6,6.5-7.3,12.4-8,20c-0.3,3.4-0.4,6.8-1.4,10
			c-0.9,2.8-2.3,5.4-4,7.8c-3.9,5.6-8.7,10.5-12.3,16.3c-3.7,6.1-6.5,12.7-8.2,19.7c-0.1,0.4-0.7,0.3-0.6-0.1c0,0,0-0.1,0-0.1
			c0,0,0-0.1,0-0.1c-0.6-16.2,0.7-32.5,5.7-48c2.2-6.8,4.8-13.5,7.8-20c2.6-5.6,5.9-11,10.6-15.2c3-2.7,9.5-7.9,13.8-5.1
			C111.5,261.6,111.3,263.6,110.5,265.7z"/>
		<path class="st9" d="M94.2,302.3c-2.9,4.7-6,9.2-9.4,13.5c-1.6,2-3.2,4.1-4.7,6.1c-0.7,1-1.6,1.9-2.2,3c0.4-1.7,0.8-3.4,1.3-5.1
			c2.1-8.2,4.1-16.4,7.2-24.3c3.2-7.6,6.9-15,11.2-22c0.1-0.2-0.2-0.3-0.3-0.1c-3.4,5.6-6.9,11.2-9.8,17.2c-1.6,3.3-3,6.7-4.1,10.2
			c1.3-7.4,3.2-14.6,5.5-21.8c0-0.1-0.1-0.1-0.1,0c-3.1,7.2-5,14.8-5.7,22.5l0,0c-0.7,2.1-1.3,4.2-1.9,6.4c-2.6,9-4.8,18.2-6.9,27.4
			c0-6,0.5-12.1,1.6-18c0-0.1-0.1-0.1-0.1-0.1c0,0-0.1,0-0.1,0.1c-1.6,6.2-2.1,12.6-1.6,19c-0.8,3.5-1.5,7-2.3,10.5
			c-1.6,7.5-3.5,15-4.5,22.6c0,0.1,0,0.2,0.1,0.2c0.1,0,0.2,0,0.2-0.1c1.1-4.1,1.8-8.3,2.7-12.4s1.8-8.3,2.8-12.4
			c1.4-6,2.9-12,4.4-18c1-2.2,2.9-4.1,4.4-6c1.6-2,3.2-4,4.7-6.1c2.9-3.8,5.5-7.8,7.8-12C94.4,302.3,94.3,302.2,94.2,302.3z"/>
		<path class="st9" d="M94.9,295.4c-3.6,4.5-6.6,9.4-9.2,14.6c0,0.1,0.1,0.1,0.1,0.1c3.1-4.9,6.1-9.7,9.2-14.6
			C95.1,295.4,95,295.3,94.9,295.4z"/>
		<path class="st3" d="M26.1,281c2.1,3.6,4.5,7.9,3.6,12.3c-0.6,2.7-2.6,5-2.9,7.8c-0.8,6.2,5.3,10.3,9.8,13.2
			c11.1,7.3,26.3,13.8,28.4,28.7c0.1,0.5,1,0.4,0.9-0.1c0,0,0-0.1,0-0.1c0,0,0,0,0-0.1c1.5-7.5,1.4-15.2-0.2-22.7
			c-1.7-7.7-5-14.6-9-21.3c-6.7-11.4-13.8-23.1-23.9-31.8c-2.7-2.4-8.5-6.8-10.7-1.3C19.9,270.7,23.5,276.6,26.1,281z"/>
		<path class="st9" d="M36.2,305.2c7.4,8,19.1,12.4,25.4,21.4c-3.5-13.6-10.2-26.2-19.5-36.7c-0.1-0.1-0.1-0.3,0.1-0.4
			c0.1-0.1,0.2-0.1,0.3,0c6.8,6.6,12.2,14.4,16,23.1c-1.8-6.1-4.1-11.9-6.9-17.6c-0.1-0.1,0-0.2,0.1-0.3c0.1-0.1,0.2,0,0.3,0.1l0,0
			c3.5,6.2,6,12.8,7.4,19.8c8.4,20.2,9.1,43.9,7.4,65.2c0,0.3-0.5,0.3-0.5,0c0.5-16.8,0.2-33.9-3.8-50.3c-0.1-0.4-0.2-0.7-0.3-1
			c-6.9-9.6-18.6-14.1-26-23.2C36.1,305.2,36.2,305.1,36.2,305.2z"/>
		<path class="st9" d="M34.5,298.3c3.9,3.5,7.7,7.2,11.5,10.7c0,0,0,0.1,0,0.1c-4.4-3-8.3-6.5-11.7-10.6
			C34.2,298.4,34.4,298.2,34.5,298.3z"/>
		<path class="st9" d="M33.9,283c3.4,5.6,7.3,10.9,11.6,15.9c0,0.1,0,0.2-0.1,0.1c-4.8-4.6-8.8-9.9-11.7-15.9
			C33.7,282.9,33.8,282.8,33.9,283z"/>
		<polygon class="st8" points="51.3,394.8 85.2,394.8 80.6,349.3 56.5,349.3 		"/>
		<polygon class="st9" points="55.7,356.7 81.4,356.7 80.6,349.3 56.5,349.3 		"/>
		<rect x="52.4" y="344.2" class="st8" width="31.7" height="7.3"/>
	</g>
	<g>
		<path class="st9" d="M117.8,128.5h-13.3l-2.1,6.3h-9.1l12.9-35.6h10.1l12.9,35.6h-9.2L117.8,128.5z M115.5,121.8l-4.4-13l-4.4,13
			H115.5z"/>
		<path class="st9" d="M162.1,119.5c1.3,1.6,1.9,3.4,1.9,5.5c0,3-1,5.3-3.1,7.1s-5,2.6-8.7,2.6h-16.6V99.1h16c3.6,0,6.5,0.8,8.5,2.5
			c2,1.7,3.1,3.9,3.1,6.8c0,2.1-0.5,3.8-1.6,5.2c-1.1,1.4-2.6,2.4-4.4,2.9C159.2,116.9,160.8,117.9,162.1,119.5z M144.2,113.5h5.7
			c1.4,0,2.5-0.3,3.3-0.9c0.8-0.6,1.1-1.5,1.1-2.8c0-1.2-0.4-2.1-1.1-2.8c-0.8-0.6-1.9-1-3.3-1h-5.7V113.5z M154,126.8
			c0.8-0.7,1.2-1.6,1.2-2.9c0-1.3-0.4-2.2-1.2-2.9c-0.8-0.7-2-1.1-3.4-1.1h-6.3v7.9h6.4C152.1,127.7,153.2,127.4,154,126.8z"/>
		<path class="st9" d="M179.2,132.8c-2.8-1.6-5-3.7-6.7-6.5c-1.6-2.8-2.5-5.9-2.5-9.4s0.8-6.6,2.5-9.4c1.6-2.8,3.9-4.9,6.7-6.5
			c2.8-1.6,5.9-2.3,9.2-2.3c3.3,0,6.4,0.8,9.2,2.3c2.8,1.6,5,3.7,6.6,6.5c1.6,2.8,2.4,5.9,2.4,9.4s-0.8,6.6-2.4,9.4
			c-1.6,2.8-3.8,5-6.6,6.5c-2.8,1.6-5.8,2.3-9.2,2.3C185,135.1,182,134.3,179.2,132.8z M195.2,124.3c1.7-1.9,2.6-4.4,2.6-7.5
			c0-3.1-0.9-5.7-2.6-7.5c-1.7-1.9-4-2.8-6.8-2.8c-2.9,0-5.2,0.9-6.9,2.8c-1.7,1.9-2.6,4.4-2.6,7.6c0,3.1,0.9,5.7,2.6,7.5
			s4,2.8,6.9,2.8C191.2,127.2,193.5,126.2,195.2,124.3z"/>
		<path class="st9" d="M222.5,99.1v21.3c0,2.1,0.5,3.8,1.6,4.9c1,1.2,2.6,1.7,4.6,1.7s3.6-0.6,4.7-1.7c1.1-1.2,1.6-2.8,1.6-4.9V99.1
			h8.7v21.3c0,3.2-0.7,5.9-2,8.1c-1.4,2.2-3.2,3.9-5.5,5c-2.3,1.1-4.8,1.7-7.6,1.7c-2.8,0-5.3-0.5-7.5-1.6s-4-2.8-5.3-5
			c-1.3-2.2-1.9-4.9-1.9-8.1V99.1H222.5z"/>
		<path class="st9" d="M277.9,99.1v7h-9.4v28.7h-8.7v-28.7h-9.4v-7H277.9z"/>
	</g>
	<g>
		<path class="st9" d="M181.3,162.3c2.8,1.5,5,3.6,6.5,6.3c1.5,2.7,2.3,5.8,2.3,9.3c0,3.5-0.8,6.6-2.3,9.3c-1.5,2.7-3.7,4.8-6.5,6.3
			c-2.8,1.5-6.1,2.2-9.8,2.2h-13.4V160h13.4C175.2,160,178.5,160.8,181.3,162.3z M178.6,185.5c1.8-1.8,2.7-4.3,2.7-7.6
			c0-3.3-0.9-5.8-2.7-7.7c-1.8-1.8-4.4-2.7-7.7-2.7h-4.1v20.7h4.1C174.2,188.2,176.7,187.3,178.6,185.5z"/>
		<path class="st9" d="M218.2,195.7l-12-15.7v15.7h-8.7V160h8.7v15.6l11.9-15.6h10.2l-13.8,17.5l14.3,18.2H218.2z"/>
		<path class="st9" d="M241.4,194.8c-2.1-0.8-3.7-2.1-4.9-3.8c-1.2-1.7-1.9-3.7-2-6h9.2c0.1,1.3,0.6,2.3,1.4,3c0.8,0.7,1.8,1,3,1
			c1.3,0,2.3-0.3,3-0.9c0.7-0.6,1.1-1.4,1.1-2.5c0-0.9-0.3-1.6-0.9-2.2c-0.6-0.6-1.3-1-2.2-1.4c-0.9-0.4-2.1-0.8-3.7-1.3
			c-2.3-0.7-4.2-1.4-5.6-2.1s-2.7-1.8-3.8-3.1c-1-1.4-1.6-3.2-1.6-5.4c0-3.3,1.2-5.9,3.6-7.8c2.4-1.9,5.5-2.8,9.4-2.8
			c3.9,0,7.1,0.9,9.5,2.8c2.4,1.9,3.7,4.5,3.9,7.8h-9.4c-0.1-1.1-0.5-2.1-1.3-2.7c-0.8-0.7-1.8-1-3-1c-1,0-1.9,0.3-2.5,0.8
			c-0.6,0.6-1,1.4-1,2.4c0,1.2,0.5,2,1.6,2.7c1.1,0.6,2.8,1.3,5.1,2.1c2.3,0.8,4.2,1.5,5.6,2.2c1.4,0.7,2.7,1.7,3.7,3.1
			s1.6,3.1,1.6,5.2c0,2-0.5,3.9-1.5,5.5c-1,1.7-2.5,3-4.5,4c-2,1-4.3,1.5-7,1.5C245.8,196,243.4,195.6,241.4,194.8z"/>
		<path class="st9" d="M277.9,160v35.6h-8.7V160H277.9z"/>
	</g>
</g>
</svg>
