<svg id="Layer_1" data-name="Layer 1" xmlns="http://www.w3.org/2000/svg" viewBox="0 0 554.73 556.51"><defs><style>.cls-1{fill:#ececec;}.cls-2{fill:#dcdcdc;}.cls-3{fill:#1a2e35;}.cls-4{fill:#ffc800;}.cls-5{fill:#2b454e;}.cls-6{fill:#ff9581;}.cls-7{fill:#fff;}.cls-11,.cls-8{opacity:0.1;}.cls-9{opacity:0.4;}.cls-10{opacity:0.2;}.cls-12{fill:#ff9abd;}.cls-13{fill:#c36358;}.cls-14{fill:#375a64;}.cls-15{opacity:0.5;}.cls-16,.cls-17{fill:none;stroke:#1a2e35;stroke-miterlimit:10;}.cls-16{stroke-width:3px;}.cls-18{fill:#c8c8c8;}.cls-19{fill:#a8a8a8;}.cls-20{opacity:0.7;}</style></defs><rect class="cls-1" x="472.61" y="455.06" width="45.57" height="14.51" transform="translate(990.8 924.62) rotate(180)"/><rect class="cls-1" x="346.02" y="67.15" width="45.57" height="14.51" transform="translate(737.62 148.81) rotate(180)"/><path class="cls-1" d="M498,487.85l22.9-.29,11.35-.12,11.32,0-.46.45,0-14.5.5.5-22.79-.07L498,473.59l.23-.24Zm0,0-.24-14.5v-.24H498l22.78-.19,22.79-.07h.5v.5l0,14.5v.46h-.45l-11.47,0-11.44-.12Z"/><path class="cls-1" d="M152.49,338.76l22.9-.29,11.36-.12,11.31,0-.46.45,0-14.5.5.5-22.79-.07-22.78-.19.23-.24Zm0,0-.24-14.5V324h.24l22.78-.19,22.79-.07h.5v.5l0,14.5v.46h-.45l-11.47,0-11.44-.12Z"/><path class="cls-1" d="M177.91,357.05l22.91-.29,11.35-.12,11.31,0-.45.45-.05-14.5.5.5L200.7,343l-22.79-.19.24-.24Zm0,0-.24-14.5v-.24h.24l22.79-.19,22.78-.07h.5v.5l0,14.5v.46h-.46l-11.47,0-11.44-.12Z"/><rect class="cls-1" x="203.23" y="324.26" width="45.57" height="14.51" transform="translate(452.04 663.02) rotate(180)"/><rect class="cls-1" x="7.37" y="473.35" width="45.57" height="14.51" transform="translate(60.31 961.2) rotate(180)"/><rect class="cls-1" x="32.79" y="25.42" width="45.57" height="14.51" transform="translate(111.15 65.35) rotate(180)"/><path class="cls-1" d="M7.37,58.22l22.9-.3,11.36-.12,11.31,0-.46.46,0-14.51.5.5-22.79-.07L7.37,44l.23-.24Zm0,0L7.13,43.71v-.23h.24l22.78-.19,22.79-.07h.5v.5l0,14.51v.45h-.45l-11.47,0L30,58.51Z"/><path class="cls-1" d="M472.61,39.93l22.91-.3,11.35-.12,11.32,0-.46.46,0-14.51.5.5-22.79-.07-22.79-.19.24-.24Zm0,0-.23-14.51v-.23h.24L495.4,25l22.79-.07h.5v.5l-.05,14.51v.45h-.45l-11.48,0-11.43-.12Z"/><path class="cls-1" d="M149.15,8.52c-60.18,0-60.28,85.57,0,85.57S209.43,8.52,149.15,8.52Z"/><path class="cls-2" d="M185.74,59.33c-3.21,14.72-15.41,27.49-36.6,27.49-50,0-49.94-71,0-71,.33,0,.66,0,1,0-47,.86-46.77,68.12.93,68.12C170.5,83.93,182.09,72.68,185.74,59.33Z"/><path class="cls-2" d="M149.51,25.16a1.52,1.52,0,0,1,1.56,1.43V29a22.44,22.44,0,0,1,11.59,4.17c.58.42.91.77.91,1.37A1.61,1.61,0,0,1,161.88,36a1.7,1.7,0,0,1-1.18-.42,19.46,19.46,0,0,0-9.76-3.87V48.39c9.9,1.9,14.06,5.3,14.06,11.14,0,6.31-5.79,10.78-13.93,11V75.2a1.57,1.57,0,0,1-3.13,0V70.49a25.61,25.61,0,0,1-14.64-5.78,1.51,1.51,0,0,1-.72-1.25A1.64,1.64,0,0,1,134.21,62a1.73,1.73,0,0,1,1.17.42,21.92,21.92,0,0,0,12.7,5.42v-17c-9.77-2-13.81-5.24-13.81-11.2S140,29,147.94,28.85V26.59A1.52,1.52,0,0,1,149.51,25.16Zm-1.43,22.63V31.53c-6.32.12-10.49,3.57-10.49,7.86C137.59,43.44,139.68,46,148.08,47.79Zm2.86,3.64V67.87c6.51-.12,10.74-3.58,10.74-8.1C161.68,55.66,159.4,53.15,150.94,51.43Z"/><path class="cls-1" d="M320.61,274.82C262.4,290.1,284,372.89,342.34,357.59S378.91,259.51,320.61,274.82Z"/><path class="cls-2" d="M368.91,314.67c.63,15.06-7.94,30.51-28.43,35.88-48.38,12.7-66.34-56-18-68.7l.95-.23c-45.24,12.77-27.94,77.77,18.19,65.66C360.41,342.34,368.76,328.51,368.91,314.67Z"/><path class="cls-2" d="M325.18,290.82a1.51,1.51,0,0,1,1.87,1l.61,2.3a22.46,22.46,0,0,1,12.27,1.09c.67.26,1.08.52,1.23,1.1a1.62,1.62,0,0,1-1.26,1.87,1.73,1.73,0,0,1-1.24-.11,19.45,19.45,0,0,0-10.43-1.27l4.23,16.14c10.06-.67,15,1.56,16.43,7.2,1.61,6.11-2.86,11.9-10.67,14.2l1.18,4.49a1.57,1.57,0,0,1-3,.8l-1.19-4.55a25.72,25.72,0,0,1-15.64-1.87,1.53,1.53,0,0,1-1-1,1.65,1.65,0,0,1,1.2-1.86,1.73,1.73,0,0,1,1.24.11,21.89,21.89,0,0,0,13.65,2L330.31,316c-9.94.58-14.68-1.57-16.19-7.33S317,297,324.61,294.79L324,292.6A1.52,1.52,0,0,1,325.18,290.82Zm4.36,22.26-4.13-15.73c-6.07,1.72-9.23,6.12-8.14,10.27C318.3,311.53,321,313.43,329.54,313.08Zm3.7,2.79,4.17,15.9c6.27-1.77,9.48-6.19,8.33-10.56C344.7,317.23,341.86,315.39,333.24,315.87Z"/><path class="cls-2" d="M462.18,108.68c-49,25.09-11.91,97.71,37.17,72.57S511.26,83.54,462.18,108.68Z"/><path class="cls-1" d="M466.78,106.32c-46.7,23.92-9.6,96.53,37.18,72.57S513.56,82.36,466.78,106.32Z"/><path class="cls-2" d="M517.25,134.87c3.9,13.76,0,29.44-16.46,37.86-38.81,19.88-69.61-40.39-30.85-60.24.25-.13.5-.26.77-.37-36.1,19.41-6.71,76.36,30.3,57.41C516.11,161.79,520.22,147.64,517.25,134.87Z"/><path class="cls-2" d="M481.17,118.16a1.38,1.38,0,0,1,1.58,1.1l.4,2.23a18.6,18.6,0,0,1,10.65,2.11,1.62,1.62,0,0,1,1,1.15,1.46,1.46,0,0,1-1.2,1.66,1.41,1.41,0,0,1-1.08-.21,16.13,16.13,0,0,0-9-2.12l2.83,15.64c8.81.25,13,2.79,13.95,8.27,1.07,5.92-3.14,11-10.08,12.49l.78,4.36a1.36,1.36,0,1,1-2.68.48l-.79-4.41A21.41,21.41,0,0,1,474,157.76a1.43,1.43,0,0,1,.32-2.71,1.41,1.41,0,0,1,1.07.21,18.34,18.34,0,0,0,11.81,3.11l-2.87-15.92c-8.72-.32-12.73-2.77-13.74-8.36s3.12-10.83,9.9-12.23l-.38-2.12A1.37,1.37,0,0,1,481.17,118.16Zm2.6,21.45L481,124.36c-5.4,1.09-8.39,5-7.66,9C474,137.15,476.25,139.18,483.77,139.61Zm3.08,3L489.63,158c5.57-1.13,8.61-5,7.85-9.27C496.78,144.87,494.4,142.88,486.85,142.57Z"/><path class="cls-2" d="M67.37,146.57c43.81,7.86,32.24,72.76-11.64,64.88S23.49,138.69,67.37,146.57Z"/><path class="cls-1" d="M63.26,145.83c41.75,7.49,30.17,72.39-11.65,64.89S21.44,138.33,63.26,145.83Z"/><path class="cls-2" d="M31,179.8c.23,11.56,7,22.77,21.66,25.4,34.7,6.23,44.31-47.64,9.66-53.85l-.68-.11c32.49,6.5,23.18,57.48-9.91,51.54C38.18,200.36,31.67,190.38,31,179.8Z"/><path class="cls-2" d="M59.89,156.08a1.12,1.12,0,0,1,.88,1.28l-.34,1.81a14.89,14.89,0,0,1,7.44,4.65,1.25,1.25,0,0,1,.44,1.16,1.17,1.17,0,0,1-1.38.9,1.09,1.09,0,0,1-.75-.46A13.05,13.05,0,0,0,60,161.23L57.6,173.86c6.59,2.72,9,5.83,8.18,10.25-.9,4.78-5.54,7.42-11.21,6.55l-.66,3.52a1.1,1.1,0,1,1-2.16-.41l.66-3.56a17.28,17.28,0,0,1-9.34-6.27,1.23,1.23,0,0,1-.32-1,1.2,1.2,0,0,1,1.34-.92,1.16,1.16,0,0,1,.75.47,14.8,14.8,0,0,0,8,5.74l2.39-12.85c-6.49-2.75-8.82-5.75-8-10.27s5.46-7.29,11-6.4L58.6,157A1.12,1.12,0,0,1,59.89,156.08ZM55.7,173,58,160.72c-4.4-.72-7.77,1.35-8.38,4.6C49.05,168.39,50.14,170.55,55.7,173Zm1.47,3.12-2.32,12.45c4.53.75,7.95-1.32,8.59-4.75C64,180.75,62.79,178.56,57.17,176.16Z"/><path class="cls-3" d="M288.68,400.54a119.73,119.73,0,0,0-2.77-19.5c-1.38-5.77-3.33-11.68-7-16.45-3.32-4.35-8.1-7.82-13.65-8.5-5.35-.66-10.37,1.73-14.37,5.09-5,4.18-8.75,9.7-12.31,15.06A183.27,183.27,0,0,0,228,394.86c-.11.21.22.39.32.18a115.82,115.82,0,0,1,9.51-15.58,98.09,98.09,0,0,1,11-13.26c3.67-3.59,8.33-6.94,13.65-7.11s10.18,2.8,13.36,6.88c3.57,4.56,5.38,10.26,6.73,15.81a117.38,117.38,0,0,1,2.75,18.56c1,12.84,1.33,25.76,1.62,38.64q.24,10.93.33,21.87l.09,11.08a68,68,0,0,0,.42,10.68c.12.72,1.3.65,1.42,0a64.39,64.39,0,0,0,.49-10.12c0-3.5.09-7,.12-10.5.06-6.8.1-13.61.08-20.42C289.78,427.88,289.61,414.16,288.68,400.54Z"/><path class="cls-4" d="M246.77,366.82c-1.16.47.42-13.22-5-15-7.62-2.47-25.1,2-34.79,15a29,29,0,0,0-4.21,8.73c4.81-2.33,20.71-9.69,24.7-7.44,3.63,2.06-19.16,9.21-26.17,13.81a52,52,0,0,0-.64,5.73C204.79,384.83,216,377.5,221,377.5c5.55,0-12.87,9.75-20.31,16.73A58.58,58.58,0,0,0,205,414c1.9-3.61,6.11-10.64,11.53-14.43,7.53-5.25,10.82,3.2,1.34,9.89-5,3.57-8.7,6.52-11,8.5a39.18,39.18,0,0,0,8.42,10.91,30.82,30.82,0,0,1,12.37-8.45c1.84-.65,4.84-1.48,8.45-2.69.64-2.37,2.41-9.46,2.57-14,.21-5.57,6.8-2.48,4.13,7.41-.51,1.86-1,3.39-1.4,4.67,1.93-.76,5.79-2.23,8.06-3.95.36-3.23-.19-10.69-1.51-17.72-1.65-8.76,5-9.38,6.47,1.65.67,5.09-.3,10.37-.62,13.81,7.54-4.4,13.79-13.33,13.79-13.33a33.5,33.5,0,0,0-5.22-13.81c-3.71-5.59.3-7.79,4-2.74,2.07,2.82,3.3,7.55,4,11.18C278.3,364.26,268.44,358.1,246.77,366.82ZM210.61,396c-2.06-3,5.06-8.46,6.59-6.6C219.19,391.73,212.67,398.93,210.61,396Zm47.54-12.26c-2.89,2.09-5.65-4.82-3.78-6S260.6,381.9,258.15,383.69Z"/><path class="cls-3" d="M251.53,379.8c-1-1.94-2-3.86-3.11-5.72a33.76,33.76,0,0,0-3.59-5.19c.31-.38.61-.77.93-1.14.13-.15-.09-.37-.23-.22l-1.06,1.26a.34.34,0,0,0-.15.18c-1.34,1.6-2.6,3.26-3.8,4.94a57.43,57.43,0,0,0-6.3,1.83c-2.12.71-4.23,1.45-6.3,2.32-.21.09-.1.45.11.35,2.05-.9,4.12-1.78,6.25-2.5s4-1.2,6.08-1.77c-.66.93-1.31,1.87-1.94,2.83a75.09,75.09,0,0,0-11.13,4.54c-3.76,1.79-7.38,3.86-11,5.95-.21.11,0,.43.19.31,3.53-2.11,7.21-3.91,10.93-5.66,3.48-1.63,7.09-3,10.6-4.52-8.84,13.81-14.15,29.75-21.25,44.5-.1.22.23.39.32.18,2.17-5.18,4.66-10.22,7-15.31,2.12-4.57,4.19-9.16,6.31-13.73.62-1.34,1.26-2.67,1.91-4-.39,7.38-.23,14.89-1.44,22.18a.18.18,0,1,0,.36,0c.51-7.89,1.9-15.65,1.84-23.57,0-.05,0-.07,0-.11,1.5-3,3.1-6,4.83-8.88,2.93,6.91,6,13.92,7.38,21.33,0,.23.42.12.36-.11-2-7.43-3.85-14.87-7.43-21.74a84.57,84.57,0,0,1,6.24-9c1,1.83,2.24,3.57,3.36,5.32s2.16,3.44,3.17,5.2a74.89,74.89,0,0,1,5.54,11.7c.08.23.44.11.35-.1C255.18,387.57,253.46,383.61,251.53,379.8Z"/><path class="cls-3" d="M321.3,396.59c-5.68-5.7-12.29-13.17-21.06-13.16-8.47,0-14.71,6.84-18.29,13.88-3.75,7.35-5.09,15.69-6.15,23.79a289.22,289.22,0,0,0-2.25,29.26c-.15,5.43-.13,10.87,0,16.3a106.43,106.43,0,0,0,1.24,16.45.82.82,0,0,0,1.62,0c.25-4.57.07-9.16,0-13.74s.05-9,.22-13.53c.33-9.11,1-18.21,2.06-27.27.94-7.91,1.68-16,4.05-23.69,2.13-6.89,6.14-14.78,13.13-17.81,9.53-4.13,18.85,3.42,25.09,9.79C321.18,397,321.46,396.76,321.3,396.59Z"/><path class="cls-4" d="M338.58,405.5c-7.62-.78-5.52-4.92,1.41-3.1a31.52,31.52,0,0,1,10.34,5c.05-6.27-.73-12.65-3.06-18-6.36-1.59-12.14,1.21-18.08,4s-9.9-4.43-2.93-7.89a22.07,22.07,0,0,1,18.84-.34c-.55-1-1.1-1.84-1.69-2.68A32.27,32.27,0,0,0,337.6,376c-5.2.42-8.08,3.62-9.62,4.64-2.19,1.44-5.63-.25-3.45-3.36,1.71-2.44,6-3.55,9.47-3.84-6.27-3.69-12.51-3.7-16-2.1-6.14,2.8-4.42,19-4.42,19s-16.09-8.61-21.37-1.84a20,20,0,0,0-3.34,7.92c5.7-2.1,12.69-2.61,13.35.81.7,3.6-8.93,2.54-13.93,3.12-.61,7.2,1.07,15.63,6.82,21.59,4.89-9.39,15.75-16.53,17.3-11.36S302.25,417,297.47,424a31,31,0,0,0,6.7,3.73c2.6-3.9,6.95-9.29,9.05-7.65s-3.39,5.44-6.93,8.51a102.1,102.1,0,0,0,15.49,4.27c1.28-5.43,3.77-10.49,6.16-10s-2.24,6.13-4.25,10.4A156.66,156.66,0,0,0,345,436c.44-.12,3.37-8.68,4.68-19.32a30.71,30.71,0,0,0-11.06-2.22c-5.38-.25-5.9-6.38,2.16-5.53a20.66,20.66,0,0,1,9.31,3.86c.08-1.12.15-2.27.19-3.44h0A30.45,30.45,0,0,0,338.58,405.5Zm-2-8.39c.82-1.82,5.74-1.17,5.26,1.07S335.89,398.67,336.57,397.11Zm-40.28,15.21c-.29-1.52,3-2.92,3.46-1.69S296.71,414.37,296.29,412.32Zm23.16,12.56c-2.61-1.36,1.14-7.33,3.53-6.37C324.94,419.3,322.07,426.25,319.45,424.88Z"/><path class="cls-3" d="M344.05,434.75c-3.61-6.05-7.19-12.12-11-18.05q-2.65-4.15-5.54-8.13c.29-.06.58-.15.86-.21l1.44-.27c1.11-.2,2.23-.36,3.35-.47s2.11-.16,3.17-.18a16,16,0,0,1,3.39.18c.14,0,.16-.18,0-.18-1.13.05-2.28-.1-3.42-.12s-2.19,0-3.29.08-2.05.16-3.07.32c-.57.09-1.13.19-1.69.3a8.62,8.62,0,0,0-1,.21q-2.94-4-6.1-7.91A72.34,72.34,0,0,1,341,394c.12,0,.07-.2,0-.18a67.38,67.38,0,0,0-20.08,6.09q-1.73-2.13-3.48-4.23c-1.31-1.58-2.71-3.11-3.89-4.78-.08-.11-.24,0-.15.1a71.12,71.12,0,0,1,4.59,5.62h0a67.17,67.17,0,0,0-7.35,5.91q-3.62,3.19-7,6.59c-.09.09,0,.22.12.14,2.26-2.24,4.59-4.38,7-6.41s5-3.89,7.47-5.9c0,0,0,0,0,0l1.68,2.21.85,1.11a.12.12,0,0,0,.06.08c.94,1.23,1.88,2.45,2.81,3.69a29.47,29.47,0,0,0-2.8,5c-.81,1.7-1.51,3.46-2.16,5.24a77.4,77.4,0,0,0-3,11.32c0,.12.16.17.18.05a67,67,0,0,1,3.29-11.1c.7-1.85,1.5-3.65,2.33-5.45.75-1.63,1.66-3.2,2.36-4.85.81,1.07,1.62,2.15,2.41,3.25.23.31.45.64.68.95,0,.08,0,.17.08.17h0c2.48,3.47,4.85,7,7.14,10.61a3.34,3.34,0,0,0-.31.78q-.22.66-.42,1.32c-.25.89-.46,1.78-.63,2.69s-.27,1.71-.36,2.57a23.77,23.77,0,0,1-.21,2.93c0,.14.2.15.17,0a9.68,9.68,0,0,1,.2-2.73c.14-.93.31-1.86.53-2.78s.41-1.65.66-2.47c.12-.41.26-.82.4-1.22.07-.21.18-.44.25-.67,1.07,1.69,2.14,3.38,3.19,5.09,2.08,3.38,4.14,6.77,6.22,10.15C343.88,435.07,344.15,434.92,344.05,434.75Z"/><path class="cls-3" d="M288.3,481.16c-.09-3.43-.63-6.88-1-10.28s-.76-6.84-1.13-10.27c-.7-6.59-1.09-13.33-2.64-19.8-1.34-5.56-3.79-10.89-8.06-14.81a13.15,13.15,0,0,0-7.9-3.77,13.61,13.61,0,0,0-8.39,2.58,29.4,29.4,0,0,0-7.06,7.44,74.32,74.32,0,0,0-5.5,8.93c-.06.12.12.19.19.08a45.7,45.7,0,0,1,11.9-13.33,14,14,0,0,1,7.5-3.13,10.18,10.18,0,0,1,7.28,2.9c4,3.47,6.3,8.58,7.68,13.6,1.63,5.94,2.16,12.2,3,18.29.48,3.62.94,7.25,1.42,10.87s.78,7.31,1.54,10.86A.6.6,0,0,0,288.3,481.16Z"/><path class="cls-4" d="M267,429.67c-7.87-.16-16.21,5.71-16.21,5.71s4.43-15.31-7.88-14.82c-7.32.3-16.44,8-18.28,19.93,2.82-1.5,8.77-4.38,13.47-4.46,6.38-.12,6.81,4.87-2,5.63a55.78,55.78,0,0,0-11.78,1.95,32.87,32.87,0,0,0,1.48,11.06c4.9-3,13.28-6.14,13.53-2,.18,3.06-8.47,3.3-12.74,4.37A51.74,51.74,0,0,0,234,470.06a118.29,118.29,0,0,0,17.73-4,33,33,0,0,0-.55-6.42c-1-5.46,3-5.55,3.5-.31a19.07,19.07,0,0,1-.38,5.86,52.54,52.54,0,0,0,11.38-5.37,34.7,34.7,0,0,0-2.52-12.1c-1.56-4.27,1.54-6.72,4.16-1.81,1.69,3.16,1,9.1.44,12.44a19.1,19.1,0,0,0,3.73-3.8C279.87,442.85,274.88,429.84,267,429.67Zm-33.94,2.83c.28-2.21,5.78-1.8,5.5-.08S232.76,435,233.09,432.5Zm-6.13,18c.54-1.41,2.91-1.22,2.8-.09S226.6,451.41,227,450.48Zm32.63,7.72c-3.2.13-2.14-6.5-.29-6.76C260.88,451.21,262,458.1,259.59,458.2Z"/><path class="cls-3" d="M256.74,458.8c-.31-.83-.58-1.66-.84-2.51.24.86.45,1.71.61,2.57A.12.12,0,1,0,256.74,458.8Z"/><path class="cls-3" d="M253.49,448.14c-.58-1.7-1.23-3.38-1.89-5.05-.35-.89-.71-1.77-1.1-2.65a11.47,11.47,0,0,0-1.1-2.22,15.82,15.82,0,0,0,1-2.14.07.07,0,0,0-.11-.07,26.82,26.82,0,0,0-2.4,3.72c-.34.58-.66,1.17-1,1.75a18.16,18.16,0,0,0-2.07.32c-.74.14-1.47.29-2.2.45l-2.2.51c-.72.18-1.44.42-2.18.53a.12.12,0,1,0,.07.23,13.63,13.63,0,0,1,2.3-.6c.7-.15,1.41-.28,2.13-.38s1.43-.19,2.15-.26c.53-.06,1.08-.08,1.62-.14l-.88,1.55c0,.08-.08.17-.13.25a6.69,6.69,0,0,0-1.77.21c-.63.11-1.27.23-1.9.37-1.28.29-2.56.59-3.83.94-2.66.75-5.29,1.6-7.92,2.46-.14,0,0,.27.1.22a74.83,74.83,0,0,1,8-2.21l3.78-.84,1.9-.4a12,12,0,0,0,1.47-.32q-2,3.75-3.8,7.63c-2.55,5.65-4.7,11.46-6.89,17.26-.06.14.17.24.22.09a157.44,157.44,0,0,1,7.33-16.87c.49-1,1-2,1.49-3,0,.2.09.4.13.61.13.68.25,1.37.37,2,.23,1.38.46,2.75.67,4.12a49.47,49.47,0,0,1,1,8.56c0,.17.26.16.23,0a41.54,41.54,0,0,1-.3-4.17c-.09-1.44-.2-2.88-.36-4.31s-.34-2.76-.57-4.14l-.36-2a4,4,0,0,0-.39-1.49q1.08-2.18,2.17-4.34t2.07-4c.3-.57.62-1.14.94-1.72a15.36,15.36,0,0,0,.82,2.07c.31.78.63,1.55.95,2.33.7,1.71,1.36,3.45,2,5.18.93,2.46,2,5,2.73,7.55C255,453.18,254.33,450.62,253.49,448.14Z"/><path class="cls-3" d="M255.9,456.29l-.18-.59Z"/><polygon class="cls-5" points="308.88 474.5 308.01 492.81 305.79 540.02 257.08 540.02 254.85 492.81 253.99 474.5 308.88 474.5"/><polygon class="cls-3" points="308.88 474.5 308.33 486.09 254.6 487.38 253.99 474.5 308.88 474.5"/><rect class="cls-5" x="250.52" y="467.09" width="61.82" height="14.81"/><rect class="cls-5" x="261.02" y="540.02" width="8.55" height="7.75"/><rect class="cls-3" x="261.02" y="540.02" width="8.55" height="3.88"/><rect class="cls-5" x="293.3" y="540.02" width="8.54" height="7.75"/><rect class="cls-3" x="293.3" y="540.02" width="8.54" height="3.88"/><polygon class="cls-3" points="11.9 547.78 77.8 547.54 143.7 547.45 275.49 547.28 407.28 547.45 473.18 547.54 539.07 547.78 473.18 548.03 407.28 548.12 275.49 548.28 143.7 548.12 77.8 548.03 11.9 547.78"/><path class="cls-6" d="M408.11,453s4.28,59.34,4.28,59.38c.06,11.62-.09,21.81-.67,27.07,0,0,0,.06,0,.09-.21,2-.48,3.25-.84,3.59a.22.22,0,0,1-.06.07c-3.45,2.36-96.3,5.54-99.58,4.56s-.74-10.39,2.77-13.39,38.52-20.11,38.52-20.11L348.82,455Z"/><path class="cls-7" d="M412.39,499.94v12.48c.06,11.62-.09,21.81-.67,27.07,0,0,0,.06,0,.09a14.83,14.83,0,0,1-.84,3.59.22.22,0,0,1-.06.07c-3.45,2.36-96.3,5.54-99.58,4.56s-.74-10.39,2.77-13.39,38.52-20.11,38.52-20.11l-.17-12.66Z"/><path class="cls-4" d="M311.23,547.81c3.28,1,96.13-2.2,99.58-4.57,1.33-.87,1.65-14.43,1.58-30.82,0-.17,0-.34,0-.51l-59.92,1.38.06,1s-35,17.12-38.52,20.12S308,546.84,311.23,547.81Z"/><path class="cls-3" d="M312.16,544.17c15.64-.92,78.79-3.15,94.32-2.88.13,0,.13.09,0,.1-15.47,1.25-78.65,3-94.31,3C311.84,544.43,311.83,544.19,312.16,544.17Z"/><path class="cls-3" d="M347.49,514.66c6.12-1.36,13.69-.68,18.54,3.55.19.16,0,.43-.25.37a87.29,87.29,0,0,0-18.24-3.15A.39.39,0,0,1,347.49,514.66Z"/><path class="cls-3" d="M343.14,517.49c6.12-1.36,13.68-.67,18.54,3.55.19.17-.05.43-.25.37a87.29,87.29,0,0,0-18.24-3.15A.39.39,0,0,1,343.14,517.49Z"/><path class="cls-3" d="M338.78,520.32c6.12-1.36,13.69-.67,18.54,3.55.19.17,0,.43-.25.38a85.92,85.92,0,0,0-18.23-3.15A.4.4,0,0,1,338.78,520.32Z"/><path class="cls-5" d="M416,515l-65-1.3s-7.92-116.95-6.44-155.94c1.6-42.35,19.79-168.37,19.79-168.37h54.89s-14,126.51-14.33,168.88C404.61,397.53,416,515,416,515Z"/><path class="cls-3" d="M364.32,189.37l41.83,140c3.91-54,13.06-140,13.06-140Z"/><path class="cls-3" d="M408.79,195.58l-3.48,37.62-3.23,37.64c-2.07,25.1-4,50.21-5.52,75.36-.37,6.29-.59,12.61-.5,18.93s.39,12.6.7,18.89q1,18.89,2.43,37.71t3.05,37.66L405.75,497l-2.81-37.67q-1.41-18.84-2.65-37.68c-.8-12.57-1.65-25.13-2.23-37.7-.29-6.28-.52-12.57-.64-18.85s.18-12.55.56-18.83c1.37-25.13,3.36-50.24,5.19-75.36Z"/><path class="cls-3" d="M353.69,502.84c10.15-.09,7.24-.21,17.38-.18,5,0,37.6.12,42.23.95a.11.11,0,0,1,0,.21c-4.65.71-37.28,0-42.24-.08-10.15-.22-7.23-.27-17.37-.6A.15.15,0,0,1,353.69,502.84Z"/><path class="cls-6" d="M504,421.22l31.37,51c5.09,10.45,9.37,19.69,11.13,24.69a.1.1,0,0,1,0,.08c.67,1.88,1,3.14.8,3.6,0,0,0,.07,0,.09-2.08,3.63-84.37,46.75-87.74,47.29s-5.18-9-3.32-13.26,26-34.83,26-34.83l-30.82-51.19Z"/><path class="cls-7" d="M547.31,500.59a.15.15,0,0,1,0,.09c-2.09,3.62-84.37,46.74-87.75,47.28s-5.17-9-3.33-13.26,26-34.84,26-34.84l-5.5-9.13c13.45-7.17,37.9-19.76,53.08-27.56,3.3,5.36,5.56,9,5.56,9.05,5.09,10.44,9.37,19.68,11.13,24.67a.16.16,0,0,1,0,.09C547.19,498.86,547.49,500.12,547.31,500.59Z"/><path class="cls-4" d="M459.54,548c3.38-.53,85.66-43.66,87.75-47.29.81-1.37-4.77-13.72-11.95-28.46l-.23-.46L481.72,499l.49.89s-24.11,30.6-26,34.83S456.16,548.51,459.54,548Z"/><path class="cls-3" d="M458.8,544.28c13.69-7.6,69.63-37,83.74-43.49.12-.05.16,0,.05.09-13.41,7.84-69.59,36.78-83.67,43.63C458.62,544.66,458.51,544.45,458.8,544.28Z"/><path class="cls-3" d="M477.84,502.37c4.92-3.88,12-6.54,18.24-4.84.24.07.15.41-.06.45a86.48,86.48,0,0,0-17.8,5.07A.39.39,0,0,1,477.84,502.37Z"/><path class="cls-3" d="M475.14,506.81c4.92-3.88,12-6.54,18.25-4.84.24.07.14.41-.07.45a86.48,86.48,0,0,0-17.8,5.07A.39.39,0,0,1,475.14,506.81Z"/><path class="cls-3" d="M472.44,511.25c4.93-3.88,12-6.54,18.25-4.84.24.07.15.41-.06.44a87,87,0,0,0-17.8,5.08A.4.4,0,0,1,472.44,511.25Z"/><path class="cls-5" d="M364.32,189.32a.16.16,0,0,0,0,.05c.24,1.13,4.07,18.94,8.05,34.24,2.9,11.17,5.87,21,7.58,22,1.93,1.14,11.36,5.32,14.52,6.63,0,0,14.72,105.82,25.91,138.64,10.32,30.28,53.41,109.88,53.41,109.88l62-31.32S487,388.64,482,373.9c-7.89-22.85-31.85-133-31.85-133s.57-9.37.43-12.83c-.26-6.51-9-34-11.1-38.71Z"/><path class="cls-3" d="M473,488.34c8.86-4.95,6.25-3.65,15.16-8.5,4.37-2.38,33-17.94,37.5-19.44.1,0,.18.12.1.18-3.74,2.85-32.68,17.92-37.09,20.21-9,4.68-6.47,3.24-15.53,7.81A.15.15,0,0,1,473,488.34Z"/><path class="cls-3" d="M429.44,226.73c-1.63-.71-14.63-3.52-17.76-8.62-1.66-2.71-4.6-17.65-4.76-18.7,0-.15-.26-.11-.22,0,.17.71.19,15,4.2,20.92,2.81,4.15,16.76,6.81,18.42,6.84A.25.25,0,0,0,429.44,226.73Z"/><path class="cls-3" d="M378.06,244.09a123.35,123.35,0,0,1,19.43,9,.22.22,0,0,1-.18.4c-6.54-2.81-13.22-5.5-19.6-8.67A.43.43,0,0,1,378.06,244.09Z"/><path class="cls-3" d="M376.09,199.26c0-.23.42-.28.41,0-.05,7.77.45,14.6,1.1,21.86.31,3.38,3,22,8.86,20.65,1-.23,1.48-1.19,1.64-2.67.18-1.77-.49-3.95-.78-5.71-.65-3.9-1.17-7.81-1.5-11.75a106.91,106.91,0,0,1,.23-22.05.19.19,0,0,1,.38,0A202.16,202.16,0,0,0,388.21,230c.73,4.85,3.17,12.15-1.9,12.89s-8.5-11.46-9.13-14.8A111.42,111.42,0,0,1,376.09,199.26Z"/><path class="cls-3" d="M386.31,242.24a31.32,31.32,0,0,1,1.31,3.86,8.73,8.73,0,0,1,.55,3.18.22.22,0,0,1-.4.09,11,11,0,0,1-1.36-3.09c-.45-1.2-.92-2.38-1.33-3.59A.66.66,0,0,1,386.31,242.24Z"/><path class="cls-3" d="M516.69,457.27c-8.83-16.62-15.89-29.85-25-46.3-4.51-8.11-9.2-16.12-13.5-24.34s-7.12-16.65-9.81-25.38C462.9,343.5,445.83,250,444.77,245.43c-.65-2.74.55-18.23-.11-22.57s-6.54-26.54-7.29-28.7c-.08-.24-.46-.13-.38.11,2.67,8.75,5.65,23.82,6.43,28.37s-.35,21.23,0,23.3c.44,2.31,16.27,91.88,21.68,109.73,2.63,8.67,5.09,17.49,8.83,25.78s8.47,16.14,12.93,24.07c9.21,16.38,16.46,29.5,26,45.71q1.8,3.09,3.63,6.16C516.56,457.52,516.76,457.4,516.69,457.27Z"/><path class="cls-3" d="M360.61,223.9c1.17,0,4.61-2.41,5-3,2.86-4.33,3.56-18.07,3.81-21.69,0-.18.09-.12.09.05,0,4.05-.14,8.18-.47,12.09a43,43,0,0,1-1.5,9.39c-.87,2.46-5.7,4.16-7,3.6C360.53,224.27,360.53,223.9,360.61,223.9Z"/><path class="cls-6" d="M395.08,123.1c-4.77,14-28.57,64.58-43.89,67.33-10.89,2-51.88-6.31-61.18-11.06-5.29-2.7,8.53-33.8,15.64-32.7,8.8,1.37,33.7,8.36,38.9,7.56,2.81-.44,17.44-17,38.36-39.28C393.67,103.51,399.19,111,395.08,123.1Z"/><path class="cls-6" d="M292.26,180.36c-4-.85-24.48-6.84-29.16-9.49s-17.59-11.24-15.92-15,5.64-1.57,5.64-1.57-4.88-4.5-2.86-8.16,8.11,0,8.11,0-4.68-5-2.4-8.49,7.78,1.19,7.78,1.19-4.48-4.35-1.39-6.45c3.72-2.53,11.08,6.43,16.46,9,1.23.58,25.61,9.91,25.61,9.91Z"/><path class="cls-3" d="M263,138.41c5.43,6.57,8.94,8.51,16.91,11.13a.13.13,0,0,1-.05.26c-8-1.86-12.8-3.66-17.19-11.15C262.42,138.29,262.71,138.09,263,138.41Z"/><path class="cls-3" d="M257.64,145.57c6.24,6.34,10,8.47,18.18,11.83.12,0,.05.25-.07.21-8.27-2.63-13-4.53-18.38-11.67C257.13,145.61,257.36,145.28,257.64,145.57Z"/><path class="cls-3" d="M253.24,154.42c6.48,5.7,10.53,8.22,18.86,10.47a.16.16,0,0,1-.06.31c-8.72-1.46-13.8-4.57-19-10.56C252.74,154.23,252.83,154.07,253.24,154.42Z"/><path class="cls-6" d="M311,147.7s-7.72-8.45-11.83-10.94-22.84-6.16-23.86-2.16c-1.32,5.17,9.08,9.41,14.45,10.83,0,0-3.06,11.94,3.74,16.6S311,147.7,311,147.7Z"/><path class="cls-3" d="M275.36,136.14c2.2,5.58,9.36,7,14.46,8.74a.49.49,0,0,1,.26.77c-.95,5.09-.8,12.55,3,16.44a.13.13,0,0,1-.17.19c-4.68-3.61-5.42-10.93-4-16.44-5.26-1.72-12.38-3.44-13.61-9.68C275.3,136.13,275.35,136.11,275.36,136.14Z"/><path class="cls-4" d="M311,146.64,298.37,188s39.49,6.83,55.86,3c12.2-2.88,34.55-46.56,41.63-66s-4.89-19.73-14.65-9.55-34.83,37-36.55,37.63C343.47,153.39,311,146.64,311,146.64Z"/><path class="cls-3" d="M315.12,169.22q1.29-4.62,2.54-9.25c.82-3.07,1.77-6.16,2.39-9.27,0-.14-.17-.23-.23-.08-1.1,2.87-1.92,5.89-2.82,8.83q-1.44,4.7-2.84,9.39c-1.84,6.19-3.45,12.43-5,18.71,0,.15.17.18.22,0C311.44,181.5,313.38,175.4,315.12,169.22Z"/><path class="cls-8" d="M395.85,124.91c-7.06,19.43-29.42,63.1-41.61,66a62.73,62.73,0,0,1-14.71,1.18l55.89-82.8C398.3,110.88,399.17,115.78,395.85,124.91Z"/><path class="cls-4" d="M360.58,213.44c2.2,1.75,87.5,1,87.86.38s-11.25-80.43-36.73-102.06c-7.33-6.24-21.22-5.74-26.25,1.33C373.66,129.67,359.19,212.34,360.58,213.44Z"/><polygon class="cls-3" points="396.02 130.91 392.42 124.28 386.88 130.33 388.47 135.34 393.75 135.75 396.02 130.91"/><polygon class="cls-3" points="393.75 135.75 394.92 195.43 386.36 213.51 377.78 194.27 388.47 135.34 393.75 135.75"/><path class="cls-4" d="M380.86,171.78s-4.1-4.43-9.66-3.16S364.46,178,358.64,180s-13.05-1.74-17.72,1.47-3.61,11.14-5.67,12.46,18.8,2,18.8,2,23.84-18,26.62-23.52"/><path class="cls-9" d="M380.86,171.78s-4.1-4.43-9.66-3.16S364.46,178,358.64,180s-13.05-1.74-17.72,1.47-3.61,11.14-5.67,12.46,18.8,2,18.8,2,23.84-18,26.62-23.52"/><path class="cls-4" d="M321.28,288c2.15,1.62,9.8-2.26,12.54-1.81s16.57,5,31.06,5.81,27.79-5.32,30.13-5.28c1.06,0,7.43,1.2,10.09-1s-.84-8.62-.84-8.62,8.17-13.79,2.85-28.33c-5.59-15.29-24.53-22.1-33.7-32.88-3.05-3.59-5.36-22,1.72-31.42l.67-.9c.46-.64.88-1.24,1.26-1.82h0a1,1,0,0,1,.08-.11c4.8-7.26,3.72-9.9,3.72-9.9a11.29,11.29,0,0,1-10.12,5.52c-7.35,0-17.11-4.14-21.87-1.92s-1.37,11.16-2.35,13.7-2.25,2.16-7.51,1.47-13.29,5.19-6.14,5.62,15.22,14.26,12.47,21c-1.64,4-18,13.14-23.67,24.21-8.14,16,2.1,35.36,1.48,35.79S319.14,286.4,321.28,288Z"/><path class="cls-10" d="M321.28,288c2.15,1.62,9.8-2.26,12.54-1.81s16.57,5,31.06,5.81,27.79-5.32,30.13-5.28c1.06,0,7.43,1.2,10.09-1s-.84-8.62-.84-8.62,8.17-13.79,2.85-28.33c-5.59-15.29-24.53-22.1-33.7-32.88-3.05-3.59-5.36-22,1.72-31.42l.67-.9c.46-.64.88-1.24,1.26-1.82h0a1,1,0,0,1,.08-.11c4.8-7.26,3.72-9.9,3.72-9.9a11.29,11.29,0,0,1-10.12,5.52c-7.35,0-17.11-4.14-21.87-1.92s-1.37,11.16-2.35,13.7-2.25,2.16-7.51,1.47-13.29,5.19-6.14,5.62,15.22,14.26,12.47,21c-1.64,4-18,13.14-23.67,24.21-8.14,16,2.1,35.36,1.48,35.79S319.14,286.4,321.28,288Z"/><path class="cls-8" d="M392.57,287.08a5.21,5.21,0,0,0,2.18-.36,9.2,9.2,0,0,0,1.94-1,10.07,10.07,0,0,0,1.64-1.42,9.37,9.37,0,0,0,.68-.85,6.41,6.41,0,0,0,.56-.95,7.38,7.38,0,0,0-1,.5c-.32.17-.61.36-.91.54-.59.37-1.15.76-1.72,1.15l-1.67,1.18Z"/><path class="cls-8" d="M334.93,286.23l-1.79-1.13L331.4,284c-.58-.35-1.17-.71-1.78-1.05-.3-.17-.61-.34-.93-.49a8.32,8.32,0,0,0-1-.44,8.23,8.23,0,0,0,.62.92,9.23,9.23,0,0,0,.73.8,9.57,9.57,0,0,0,1.71,1.33,9,9,0,0,0,2,.92A5.1,5.1,0,0,0,334.93,286.23Z"/><g class="cls-11"><path d="M368.06,217a13.15,13.15,0,0,0,2,1.86,21.24,21.24,0,0,0,2.28,1.49,18.4,18.4,0,0,0,2.45,1.18,12.9,12.9,0,0,0,2.63.79,22,22,0,0,0-2.21-1.59c-.76-.48-1.52-.95-2.3-1.38s-1.57-.86-2.37-1.26A26.92,26.92,0,0,0,368.06,217Z"/><path d="M365.66,217a6.53,6.53,0,0,0,.66,1.76,9.11,9.11,0,0,0,1,1.53,7.8,7.8,0,0,0,1.33,1.3,4.59,4.59,0,0,0,1.69.86c-.36-.54-.69-1-1.05-1.5s-.71-.94-1.08-1.39-.77-.9-1.19-1.33A10.42,10.42,0,0,0,365.66,217Z"/><path d="M354.28,217.73c-.33.87-.67,1.69-1,2.49a25.37,25.37,0,0,1-2.61,4.52c-.49.74-1.07,1.4-1.62,2.17a7.88,7.88,0,0,0,2.31-1.57,9.61,9.61,0,0,0,1.73-2.22,10.2,10.2,0,0,0,1.05-2.61A7.45,7.45,0,0,0,354.28,217.73Z"/><path d="M342.23,225.07a7.21,7.21,0,0,0,1.9-.9,10.68,10.68,0,0,0,1.62-1.31,9.51,9.51,0,0,0,1.32-1.63,5.64,5.64,0,0,0,.77-2c-.54.49-1,.95-1.48,1.41s-1,.92-1.42,1.38-.94.94-1.4,1.44A17.32,17.32,0,0,0,342.23,225.07Z"/><path d="M350.35,219.63c-.61.76-1.18,1.52-1.75,2.28l-1.69,2.25-1.71,2.23c-.57.76-1.17,1.48-1.72,2.3a11.37,11.37,0,0,0,2.38-1.68,16.06,16.06,0,0,0,3.51-4.63A10.61,10.61,0,0,0,350.35,219.63Z"/><path d="M354.34,213.74a17.37,17.37,0,0,0-1.42-2.79,20.34,20.34,0,0,0-1.73-2.37,12.93,12.93,0,0,0-2-1.86,5.46,5.46,0,0,0-2.24-1c.68.58,1.32,1.16,2,1.78s1.22,1.31,1.83,2C351.93,210.87,353.09,212.33,354.34,213.74Z"/><path d="M363.16,212.48a29.93,29.93,0,0,1,.86-4.73c.21-.72.43-1.45.71-2.15s.57-1.38.86-2.13a5.12,5.12,0,0,0-1.35,1.6,8.71,8.71,0,0,0-.93,2.22,11,11,0,0,0-.39,2.58A8.74,8.74,0,0,0,363.16,212.48Z"/><path d="M360.74,213.57c.3-1.16.46-2.23.64-3.3l.3-1.58c.1-.53.23-1.05.36-1.64a3,3,0,0,0-.91,1.23,7.44,7.44,0,0,0-.49,1.68,9.86,9.86,0,0,0-.14,1.8A7.37,7.37,0,0,0,360.74,213.57Z"/></g><path class="cls-3" d="M375.7,214.43a22.55,22.55,0,0,1-8,4.3c-8,2.73-16.61,2.72-24.88,1.84-3-.32-1.86-4.9,1.13-4.58,7.42.79,15.24.67,22.37-1.78a22.44,22.44,0,0,0,4.7-2.15c.43-.27.84-.57,1.26-.86s-.4.38,0,0c2.22-2.05,5.66,1.18,3.43,3.25Z"/><path class="cls-3" d="M372.7,211.45a19.27,19.27,0,0,1-6.7,3.68c-6.54,2.35-13.76,2.49-20.6,1.81-3-.3-3.15-5-.13-4.72,6.33.63,12.92.61,19-1.48a19.39,19.39,0,0,0,4-1.82c.38-.23.73-.49,1.09-.74s-.41.38,0,0c2.2-2.07,5.64,1.16,3.42,3.25Z"/><ellipse class="cls-4" cx="349.01" cy="255.27" rx="20.84" ry="22.06"/><g class="cls-11"><path d="M347.54,239a1,1,0,0,1,1,.91l.05,1.57a12.74,12.74,0,0,1,7.07,2.54,1.08,1.08,0,0,1,.58.88,1,1,0,0,1-1.71.76,11.17,11.17,0,0,0-6-2.37l.33,11c6,1.08,8.58,3.24,8.7,7.09.13,4.16-3.28,7.21-8.18,7.51l.09,3.07a.94.94,0,1,1-1.88,0l-.1-3.1a14.75,14.75,0,0,1-8.95-3.54,1,1,0,0,1-.45-.81,1,1,0,0,1,.95-1,1,1,0,0,1,.71.25,12.67,12.67,0,0,0,7.77,3.34L347.19,256c-5.93-1.11-8.43-3.2-8.55-7.13s3.25-7.09,8-7.35l0-1.49A1,1,0,0,1,347.54,239ZM347.13,254l-.32-10.72c-3.81.2-6.25,2.55-6.17,5.38C340.72,251.29,342,252.9,347.13,254Zm1.8,2.34.33,10.84c3.92-.2,6.4-2.55,6.31-5.53C355.49,258.9,354.07,257.29,348.93,256.3Z"/></g><path class="cls-6" d="M422,124.14c21,27.85,35.78,68.92,30,80.75-4.2,8.54-49.86,14.52-76.53,17.27-4.93.51-5.82-38.51-.53-38.72,9.47-.37,41.78-8.67,42.42-8.74,1.37-.15-5.95-27.48-9.31-45.39C403.78,106.45,412.63,111.66,422,124.14Z"/><path class="cls-6" d="M330.63,189.16c-1.11,3.86,2.35,6.15,2.35,6.15a8.58,8.58,0,0,0-2.74,5.13c-.33,3.5,5,5.57,5,5.57a10.61,10.61,0,0,0-2,5.87c0,3.39,5.11,6.24,5.11,6.24a9.3,9.3,0,0,0,1.47,6.29c3.48,4.8,12.53,4.19,18.28,3.86s21.76-6.66,24.94-7.56l-1.81-37s-26.23-5.85-32.94-4.5C342.63,180.4,331.88,184.84,330.63,189.16Z"/><path class="cls-3" d="M333,195.16c5.72-2.65,11.91-3.47,18.05-4.64a.11.11,0,0,1,0,.22c-6.11,1.08-11.93,3.37-18,4.7A.15.15,0,0,1,333,195.16Z"/><path class="cls-3" d="M335.21,205.87a16.7,16.7,0,0,1,4.21-.88c1.51-.21,3-.39,4.53-.55,3-.32,6.08-.57,9.12-.73.14,0,.18.2,0,.21-3,.33-6,.7-9.05,1.15-1.5.22-3,.46-4.5.71a19.3,19.3,0,0,1-4.27.5A.22.22,0,0,1,335.21,205.87Z"/><path class="cls-3" d="M338.47,218.11a11.46,11.46,0,0,1,3.83-.6c1.38-.11,2.77-.24,4.15-.37,2.77-.26,5.53-.53,8.29-.89a.11.11,0,0,1,0,.21c-2.79.38-5.59.8-8.39,1.16l-4.13.5a10.64,10.64,0,0,1-3.77.12A.07.07,0,0,1,338.47,218.11Z"/><path class="cls-4" d="M378.87,180.94l8.37,43.22s57.94-8.77,65.09-17.25-6.61-50.3-26.51-79.06c-10.91-15.76-23.21-26-18,4.24s8.67,41.13,8.57,41.48S378.87,180.94,378.87,180.94Z"/><path class="cls-3" d="M393.6,199.25c-.61-3.13-1.24-6.27-1.89-9.4s-1.18-6.3-2-9.36a.12.12,0,0,0-.24,0c.31,3.06.94,6.13,1.45,9.17q.83,4.83,1.69,9.65c1.13,6.37,2.5,12.66,4,18.95,0,.16.24.09.21-.06C395.84,211.88,394.83,205.56,393.6,199.25Z"/><path class="cls-3" d="M419.43,173.15c-.94,0-1.87.07-2.81.14a132.51,132.51,0,0,0-3.08-15.51c-1.29-5.25-2.59-10.51-4-15.74,0-.06-.1,0-.09,0,.59,3.36,1.23,6.71,1.88,10.06-.58-1.59-1.1-3.2-1.62-4.8,0-.11-.22,0-.19.06a31.1,31.1,0,0,0,1.34,4.44c.25.61.51,1.21.77,1.81.3,1.5.59,3,.89,4.51a136.2,136.2,0,0,0,3.76,15.18,134.29,134.29,0,0,0-14,2.2c-5.66,1.08-17.61,3.42-23.12,5.11-.84.22-.33.53-.2.42,0,0,17.84-3.41,23.49-4.44,2.8-.52,5.61-1,8.42-1.45s5.75-.86,8.59-1.55C419.67,173.56,419.71,173.14,419.43,173.15Z"/><path class="cls-3" d="M435.55,214.25c2-.86,4.1-1.58,6.16-2.31s4.12-1.44,6.24-2.08a30,30,0,0,1-6,2.79A33.41,33.41,0,0,1,435.55,214.25Z"/><path class="cls-6" d="M391.64,125.33c5,1.11,13.29-6,16.57-12.2.23-.42-.47-4.84-1.06-10.25-.34-3.28-.65-6.94-.69-10.31l-21,5.38a53.91,53.91,0,0,1,2.19,12.88,8.75,8.75,0,0,1-.13,1.39,1.3,1.3,0,0,0,0,.22C387.06,115.07,386.85,124.26,391.64,125.33Z"/><path class="cls-3" d="M405.29,92.87c-.91,5.7-4.41,19.28-15.67,19.67a12.48,12.48,0,0,1-2.16-.09,1.17,1.17,0,0,1,0-.23,7.61,7.61,0,0,0,.13-1.38,53.4,53.4,0,0,0-2.19-12.9Z"/><path class="cls-6" d="M409.14,67.16c2.34,7.46-1.43,29.1-6.72,34-7.65,7-20.27,7.81-26.28-1.41-5.82-8.94-.4-37,5.51-41.48C390.35,51.72,405.69,56.14,409.14,67.16Z"/><path class="cls-3" d="M389,80.55c0-.06.1.08.09.14-.25,1.46-.29,3.17,1,3.84,0,0,0,.1,0,.08C388.4,84.16,388.48,81.89,389,80.55Z"/><path class="cls-3" d="M390.47,79.2c2.38.15,1.91,4.9-.3,4.76S388.47,79.07,390.47,79.2Z"/><path class="cls-3" d="M380.49,79.7c0-.06-.12.06-.13.12-.1,1.48-.46,3.15-1.84,3.51a0,0,0,0,0,0,.08C380.17,83.34,380.63,81.12,380.49,79.7Z"/><path class="cls-3" d="M379.33,78c-2.35-.41-3,4.32-.83,4.7S381.3,78.38,379.33,78Z"/><path class="cls-3" d="M392.28,77.58c-.65-.17-1.22-.43-1.85-.66a3.14,3.14,0,0,1-1.76-1,1,1,0,0,1,.17-1.22,2.5,2.5,0,0,1,2.52-.25,3.67,3.67,0,0,1,2.12,1.6A1.08,1.08,0,0,1,392.28,77.58Z"/><path class="cls-3" d="M377.62,75.58a18.18,18.18,0,0,0,1.94-.3,3.12,3.12,0,0,0,1.91-.69,1,1,0,0,0,.07-1.23,2.53,2.53,0,0,0-2.44-.71,3.65,3.65,0,0,0-2.37,1.18A1.07,1.07,0,0,0,377.62,75.58Z"/><path class="cls-3" d="M388.36,94.34c-.38.31-.78.75-1.32.74a3.92,3.92,0,0,1-1.55-.53.05.05,0,0,0-.07.07,2,2,0,0,0,1.79,1,1.57,1.57,0,0,0,1.29-1.18C388.53,94.33,388.42,94.29,388.36,94.34Z"/><path class="cls-3" d="M387.25,89.78a5,5,0,0,1-3.56,1.89,6.55,6.55,0,0,1-1.82-.09l-.34-.07-.31-.09a.38.38,0,0,1-.27-.36h0s0-.09,0-.15h0l0-.13c.08-1.13.36-2.84.36-2.84-.43.16-2.64.9-2.55.31.78-4.87,1.65-10.29,3.45-15a.13.13,0,0,1,.26.06c-.56,4.71-1.95,9.3-2.59,14a8.84,8.84,0,0,1,2.44-.48c.16.06-.6,3.3-.6,3.81a.28.28,0,0,0,0,.06c1.88.43,3.37,0,5.35-1.1C387.25,89.56,387.35,89.67,387.25,89.78Z"/><path class="cls-3" d="M382.59,91.28a5.9,5.9,0,0,0,2.19,2,2.59,2.59,0,0,0,1.59.25c1.19-.2,1.32-1.26,1.19-2.19a6.22,6.22,0,0,0-.39-1.45A7.65,7.65,0,0,1,382.59,91.28Z"/><path class="cls-12" d="M384.78,93.32a2.59,2.59,0,0,0,1.59.25c1.19-.2,1.32-1.26,1.19-2.19A2.72,2.72,0,0,0,384.78,93.32Z"/><path class="cls-3" d="M406.2,84.44c-3.84-.51-2.8-9.92-2.8-9.92s-5.81-1.48-8.11-9.77c0,0-7.92,4.22-14.2,2.61-9.83-2.53-8.63-15.45-4.72-17.82C381.92,46.18,391,52.3,391,52.3s14.53-2.95,18.08,7a7.33,7.33,0,0,1,6.27,7.78C415.23,74.12,409.07,84.82,406.2,84.44Z"/><path class="cls-3" d="M404.71,75.73a13.13,13.13,0,0,1-7.15-4.6,9.83,9.83,0,0,1-1.65-8.88c.06-.16-.2-.24-.25-.07-.94,3.24-1,6.63.91,9.56a9.17,9.17,0,0,0,8.1,4.28A.15.15,0,0,0,404.71,75.73Z"/><path class="cls-3" d="M416.1,63c-1.78-2.63-4.75-3.23-7.72-3.34a.13.13,0,0,0,0,.26c2.93-.13,5.73,2,7.08,4.52s.77,5.37,0,7.91a20.75,20.75,0,0,1-9.14,11.73.07.07,0,0,0,.06.12A20.72,20.72,0,0,0,416.6,71.37C417.3,68.69,417.74,65.42,416.1,63Z"/><path class="cls-3" d="M391.31,52.79a9.71,9.71,0,0,0-5.18-4.58,11.65,11.65,0,0,0-8.32.25A6.57,6.57,0,0,0,374,53.81c-.37,2.68.71,5.31,2.08,7.54a.06.06,0,0,0,.1-.06,11.59,11.59,0,0,1-1.56-6.83,6.07,6.07,0,0,1,3.95-5.09c4.21-1.53,10.17-.8,12.55,3.55C391.16,53.07,391.39,52.94,391.31,52.79Z"/><path class="cls-6" d="M403.55,84.28s5-6.92,8.12-5.14S411,91,407.28,92.34a3.78,3.78,0,0,1-5-2.1Z"/><path class="cls-3" d="M410.51,82a.05.05,0,0,1,0,.1c-2.63,1-4,3.43-5,5.92a2.09,2.09,0,0,1,3.13-.53c.07.05,0,.16-.07.14a2.32,2.32,0,0,0-2.57.78,10.78,10.78,0,0,0-1.25,2.06c-.13.23-.55.1-.46-.17l0-.06C404.29,86.92,406.93,82.29,410.51,82Z"/><path class="cls-4" d="M387.48,109.9l5.4,12.3,15-16.26,4.55,4.92s-14.36,25.53-14.49,24.4l-5.47-10.58-7.18,7.71V113.61Z"/><path class="cls-3" d="M384.76,123.11c.1-3.1.12-6.23.37-9.32,0-.11.18-.16.21,0,.72,3,.25,14.82.35,17.65l0,0c.29-.33,6.66-6.79,6.73-6.7,1.16,1.67,5.18,9.38,5.46,10.08,2.27-4,11.94-20.06,14.65-23.92a.11.11,0,0,1,.19.11c-2,4.26-14.46,25.38-14.64,25.33a120.39,120.39,0,0,1-5.74-11.18c-1.06,1.4-7.46,8.66-7.5,8.2A96.23,96.23,0,0,1,384.76,123.11Z"/><path class="cls-13" d="M219.9,547.52c-3.11,1-94.13-1-97.45-3.21-1.28-.82,6.52-87,6.52-87l57.72,1.1-6.56,57.67s33.58,15.91,37,18.74S223,546.56,219.9,547.52Z"/><path class="cls-3" d="M219.9,547.52c-3.11,1-94.13-1-97.45-3.21-.4-.25-.52-9,.92-20.41,16.51,2.77,75.42,11.82,80,9.12,3.19-1.88.36-4.82-2.26-6.8,7.52,3.75,14.54,7.36,16,8.57C220.48,537.6,223,546.57,219.9,547.52Z"/><path class="cls-3" d="M181.75,502.23l-56.67-.8s11.23-135.73,10.76-138.34c-.59-3.34-40.8-161-40.8-161h54.08S191.77,349,193.3,363.2C195.78,386.06,181.75,502.23,181.75,502.23Z"/><path class="cls-5" d="M130.18,488.63c3.35-.24,6.73-.2,10.09-.24s6.72-.05,10.08,0q10.08.09,20.16.36c1.83,0,3.67.1,5.51.19s3.92.43,5.88.5a.12.12,0,0,1,0,.24c-1.65,0-3.3.26-5,.3s-3.42.07-5.13.07q-5,0-10.09,0c-6.71-.06-13.44-.15-20.15-.43-3.79-.15-7.62-.2-11.4-.58A.18.18,0,0,1,130.18,488.63Z"/><path class="cls-5" d="M106.94,214.84c4.84,17.13,9.26,34.42,13.6,51.69s8.65,34.57,13,51.86q3.24,13,6.46,25.93c2.09,8.42,4.52,16.88,5,25.58s-.6,17.75-1.34,26.55-1.49,17.7-2.27,26.55c-1.55,17.7-3,35.41-5,53.08-.24,2.21-.48,4.42-.7,6.63,0,.19-.31.18-.3,0,1.17-17.71,2.39-35.41,3.81-53.11q1.05-13.27,2.16-26.54c.73-8.83,1.76-17.7,2-26.55s-1.36-17.51-3.51-26.14L133.56,325q-6.5-25.92-13-51.86c-4.8-19.36-9.6-38.75-13.83-58.24A.08.08,0,1,1,106.94,214.84Z"/><path class="cls-5" d="M95,202.11s17.25,67.63,29.32,115.24l23-115.24Z"/><path class="cls-13" d="M151.93,547.73c-3.11,1-94.13-1-97.45-3.21C53.2,543.7,58,457.44,58,457.44l57,1.1-2.75,57.72s33.58,15.91,37,18.74S155.05,546.77,151.93,547.73Z"/><path class="cls-3" d="M151.94,547.73c-3.12,1-94.14-1-97.46-3.21-.4-.25-.31-8.78,0-20.42,16.5,2.77,76.33,11.83,80.92,9.13,3.19-1.88.36-4.82-2.26-6.8,7.52,3.75,14.54,7.36,16,8.57C152.51,537.81,155.05,546.78,151.94,547.73Z"/><path class="cls-3" d="M147.38,202.08s-3.06,38.24-9.36,47.84a96,96,0,0,0-15.69,7.82S118.43,360,118.5,366.18c.26,23-5.62,134.91-5.62,134.91l-57.14-.54s5.93-126.58,5.95-135c0-8.14,3.89-59.5,7.34-104,0,0-5.09-14.23-4.52-21.41,1.36-17.42,9.17-38,9.17-38Z"/><path class="cls-5" d="M127.27,238.45c.21-1.43.43-2.87.65-4.3.4-2.62.93-5.22,1.39-7.83,1.05-5.93,2.13-11.88,3.45-17.75,0-.14.27-.1.25,0-.23,2.37-.5,4.74-.84,7.1s-.57,4.74-.9,7.1c-.66,4.68-1.31,9.37-2.11,14-.31,1.79-1.43,5,1.16,5.57,2.05.44,3.55-1.57,4.15-3.25a40.68,40.68,0,0,0,1.37-6.47c.43-2.36.8-4.73,1.13-7.11.73-5.18,1.53-10.33,2.38-15.49,0-.15.26-.11.25,0A155.55,155.55,0,0,1,138.46,226c-.34,2.52-.71,5-1.14,7.54a26.73,26.73,0,0,1-1.73,7,5.68,5.68,0,0,1-4.28,3.43h-.12a.16.16,0,0,1,.08.15c0,.84,0,1.69-.1,2.52s-.26,1.66-.41,2.47a17.57,17.57,0,0,1-.64,2.47,12.16,12.16,0,0,1-.46,1.13,9.66,9.66,0,0,1-.67,1c-.09.14-.26.05-.27-.09h0c0-.14,0-.27,0-.41s0,0,0-.07h0a6.12,6.12,0,0,1,0-.74c.06-.4.15-.8.24-1.2.18-.79.39-1.59.61-2.38s.38-1.58.59-2.37.47-1.61.66-2.44c0,0,0-.05.06-.07a3.75,3.75,0,0,1-3.61-2.26A6.4,6.4,0,0,1,127.27,238.45Z"/><path class="cls-5" d="M117.71,259a44.86,44.86,0,0,1,5.37-3.54,53.13,53.13,0,0,1,6.13-3.18c4.13-1.79,8.39-3,12.66-4.43.13,0,.21.17.09.22-4.13,1.65-8.1,3.83-12.09,5.78-2,1-4,1.87-6,2.76s-4,1.92-6.06,2.67C117.71,259.33,117.58,259.09,117.71,259Z"/><path class="cls-5" d="M85.45,227.06c2.9,0,13-.73,15.94-4.07a20.42,20.42,0,0,0,3.72-6.71,65.42,65.42,0,0,0,2.26-8.14c0-.14.23-.09.23,0a31.79,31.79,0,0,1-1.17,9.25c-.7,2.55-1.65,5.4-3.71,7.19s-5.12,2.55-7.9,2.89a35.92,35.92,0,0,1-9.38-.13A.16.16,0,0,1,85.45,227.06Z"/><path class="cls-5" d="M154.21,227.85c-.9,0-3.53-1.85-3.85-2.33-2.19-3.31-2.73-13.83-2.91-16.6,0-.14-.08-.09-.08,0,0,3.1.11,6.26.37,9.25a32.43,32.43,0,0,0,1.14,7.19c.67,1.88,4.37,3.18,5.33,2.75C154.27,228.13,154.27,227.85,154.21,227.85Z"/><path class="cls-5" d="M58.27,489.47c3.35-.24,6.73-.2,10.09-.24s6.72-.06,10.08,0c6.72.06,13.44.16,20.16.35,1.83.06,3.67.11,5.51.2s3.92.42,5.88.5a.12.12,0,1,1,0,.23c-1.65,0-3.3.27-5,.31s-3.42.06-5.13.06l-10.09,0c-6.71-.06-13.44-.15-20.15-.43-3.79-.16-7.62-.2-11.4-.58A.18.18,0,0,1,58.27,489.47Z"/><path class="cls-5" d="M65.24,482h0a.71.71,0,0,1-.67-.73l12.9-221.49c-.16-1-3.8-13.35-4.12-19.67-.34-6.68,6.57-32.72,6.86-33.82a.7.7,0,1,1,1.35.36c-.08.27-7.15,26.93-6.82,33.39s4.1,19.47,4.12,19.58S65.94,481.37,65.94,481.37A.7.7,0,0,1,65.24,482Z"/><path class="cls-3" d="M141.91,70.94s-11.45-8-25.37,1.94C100,84.69,99.6,131.43,98.2,135.46s-3.3,4.82-4.32,8.45,1.78,6.39,2,7.74-4.22,7.72-4.22,7.72,19.74,7.61,32.78,6.53,28.35-8.25,28.35-8.25-2.45-4.42-2.23-6.36,2.76-4.27,3-7.81-4.66-8.42-5-10.37,6.3-36.64,4.6-49.2S141.91,70.94,141.91,70.94Z"/><path class="cls-3" d="M153.54,156.72a18.82,18.82,0,0,1-2.35-4.65,2.7,2.7,0,0,1-.09-1.36c1-2.75,3.7-5,3.55-8.06-.37-2.39-2.42-4.55-3.74-6.52a7.72,7.72,0,0,1-1.71-3.76,13.66,13.66,0,0,1,.13-1.36c2.1-14.48,4.8-29.08,4-43.77a26.12,26.12,0,0,0-2.28-10c1.8,3,2.4,6.54,2.83,10,1.36,14.73-1.25,29.46-3.55,44-.06.42-.13.87-.15,1.23a7.32,7.32,0,0,0,1.49,3.23c1.37,2.15,3.39,4.34,3.7,7,.08,3.29-2.75,5.44-3.93,8.21a2.33,2.33,0,0,0,0,1.2,20.64,20.64,0,0,0,2.07,4.72Z"/><path class="cls-3" d="M90.86,157.43c1-1.69,2.46-3.81,3.35-5.54l0-.06a3.71,3.71,0,0,0-.44-.83c-1.39-2.17-2.47-4.78-1.91-7.42.55-3.1,3-5.5,4.32-8.13a14.5,14.5,0,0,0,1.21-5.78c1.43-17.09,4.36-46,18.83-57a17.81,17.81,0,0,1,5.47-2.75,18.67,18.67,0,0,0-5.29,3c-13.74,11.47-16.34,39.83-18,56.86a14.44,14.44,0,0,1-1.4,6.08c-1.48,2.77-3.81,4.8-4.47,7.88a8.75,8.75,0,0,0,.9,5.75c.32.7.73,1.34,1.06,2a.69.69,0,0,1,.08.38,58.57,58.57,0,0,1-3.69,5.54Z"/><path class="cls-13" d="M132.67,146.52C148,173,166.93,201.23,179.41,203.28c9.71,1.6,33.7-2.28,57.66-12.55,4.56-2-15.7-35.34-19.08-34.44-9,2.4-34.55,10.93-35.89,9.86-1.77-1.41-22.42-19.92-36.67-31.64C126.25,118.73,124.74,132.85,132.67,146.52Z"/><path class="cls-13" d="M231.05,193.27c4.17-.59,23.07-5,28.05-7.35s18.84-10.32,17.4-14.33-5.69-2-5.69-2,5.32-4.28,3.5-8.18-8.32-.57-8.32-.57,5.14-4.79,3.05-8.55S261,153,261,153s4.91-4.16,1.88-6.53c-3.64-2.85-11.82,5.83-17.53,8.06-1.29.51-27,8.39-27,8.39Z"/><path class="cls-3" d="M261.49,152.6c-6,6.37-9.77,8.12-18.13,10.25-.17,0-.14.3,0,.27,8.39-1.35,13.39-2.86,18.43-10.25C262.06,152.51,261.78,152.29,261.49,152.6Z"/><path class="cls-3" d="M266.46,160.32c-6.84,6.08-10.88,8-19.48,10.89-.12,0-.06.25.06.22,8.68-2.12,13.64-3.75,19.67-10.71C267,160.4,266.78,160.05,266.46,160.32Z"/><path class="cls-3" d="M270.37,169.72c-7.05,5.4-11.39,7.71-20.09,9.43a.17.17,0,0,0,0,.33c9.05-.9,14.49-3.74,20.19-9.53C270.9,169.56,270.81,169.38,270.37,169.72Z"/><path class="cls-13" d="M212.49,161.52s6.82-8.63,10.65-11.76,22.39-9.53,24-5.59c2.08,5.07-7.91,10.88-13.17,13.08,0,0,4.82,11.74-1.45,17.46S212.49,161.52,212.49,161.52Z"/><path class="cls-3" d="M247.26,145.75c-1.44,6-8.54,8.44-13.49,11a.51.51,0,0,0-.15.82c1.69,5.06,2.61,12.68-.75,17.2a.13.13,0,0,0,.19.17c4.26-4.36,4-11.92,1.76-17.34,5.12-2.5,12.13-5.27,12.5-11.8C247.32,145.72,247.27,145.71,247.26,145.75Z"/><path class="cls-14" d="M210.46,157.28l18.64,39.88s-39.43,11.4-52.18,6.71-36.19-38-46-59.7c-10.08-22.17,4.3-19.48,14.19-10.56s36.57,31.35,37.44,31.54S210.46,157.28,210.46,157.28Z"/><path class="cls-3" d="M210.1,178.79q-1.83-4.12-3.7-8.22c-1.24-2.72-2.4-5.52-3.83-8.15-.07-.12-.27-.06-.23.08.91,2.74,2.12,5.42,3.22,8.09q1.75,4.24,3.56,8.49c2.36,5.59,4.94,11.07,7.61,16.52.06.14.24,0,.19-.1C214.77,189.88,212.55,184.3,210.1,178.79Z"/><path class="cls-8" d="M130.89,144.18c9.85,21.67,33.29,55,46,59.68,3,1.09,7.4,1.32,12.43,1l-55.44-77.6C128,126,124.48,130.07,130.89,144.18Z"/><path class="cls-14" d="M151.68,187.92l2.53,22.34s-3.05-.15-13.12-.7l-2.38-8.14L134,209.28l-63.67-5,9.75-17.49c7.68-16.93,17.41-42.46,30.22-54.66,10.18-9.7,21.28-8.2,27.92-.52,1.68,1.94,18.05,29.4,19.6,40.39C159.21,181.7,151.68,187.92,151.68,187.92Z"/><path class="cls-3" d="M125.65,181.83a74.52,74.52,0,0,1,11.81,2.24c1.92.56,3.8,1.21,5.68,1.91.94.35,1.88.66,2.83,1a11.4,11.4,0,0,0,3,.66c.09,0,.09.16,0,.16a20.59,20.59,0,0,1-2.94-.09,19.3,19.3,0,0,1-2.79-.61c-1.95-.54-3.88-1.19-5.83-1.76-3.93-1.14-7.85-2.29-11.85-3.12C125.42,182.15,125.47,181.8,125.65,181.83Z"/><path class="cls-3" d="M115.78,185.6a79.58,79.58,0,0,1,9.88-.43c1.65,0,3.29.18,4.93.37.78.09,1.56.2,2.34.32s1.71.38,2.57.49c.09,0,.09.17,0,.16-.81-.08-1.64,0-2.46,0l-2.46-.1c-1.64-.06-3.29-.1-4.93-.18-3.29-.15-6.57-.27-9.86-.3C115.6,185.89,115.61,185.62,115.78,185.6Z"/><path class="cls-3" d="M133.84,138.11c1.75,3.92,3.47,7.87,5.07,11.86s3.17,8,4.54,12.09c.69,2,1.34,4.1,1.89,6.19a20.19,20.19,0,0,1,.91,6.44,11.44,11.44,0,0,1-2.44,6,17.21,17.21,0,0,1-4.89,4.3l.12-.21c0,2.77-.06,5.54-.12,8.31s-.13,5.54-.21,8.31c0-2.77-.1-5.54-.11-8.31s0-5.54,0-8.31v-.13l.12-.07a16.72,16.72,0,0,0,4.73-4.18,11.22,11.22,0,0,0,2.33-5.78,19.94,19.94,0,0,0-.87-6.28c-.54-2.07-1.17-4.12-1.85-6.16-1.36-4.07-2.84-8.11-4.39-12.12S135.51,142.07,133.84,138.11Z"/><path class="cls-3" d="M138.26,151a1,1,0,0,1-1,1,1,1,0,1,1,0-2.09A1,1,0,0,1,138.26,151Z"/><path class="cls-3" d="M141,162.76a1,1,0,1,1-1-1A1,1,0,0,1,141,162.76Z"/><path class="cls-3" d="M143.4,173.54a1,1,0,1,1-1-1A1,1,0,0,1,143.4,173.54Z"/><path class="cls-3" d="M136.77,183.19a1,1,0,0,1-2.09,0,1.06,1.06,0,0,1,1.06-1A1,1,0,0,1,136.77,183.19Z"/><path class="cls-3" d="M136.28,193.93a1.06,1.06,0,0,1-1.06,1,1,1,0,1,1,1.06-1Z"/><path class="cls-13" d="M122.37,128.43c.16,1.44,5.73,11.35,12.17,11.84,2.1.15,3.45-11.26,3.45-11.26l.29-.82,4.08-11.48-12.77-10.58-1.86-1.42s-.91,3.21-2,7.22c0,.19-.11.37-.16.57l-.19.65c-.17.6-.34,1.21-.5,1.82s-.24.92-.35,1.41-.24,1-.36,1.47A77.57,77.57,0,0,0,122.37,128.43Z"/><path class="cls-3" d="M125.73,111.93a24.43,24.43,0,0,0,12.55,16.26l4.08-11.48-12.77-10.58-1.86-1.42S126.82,107.92,125.73,111.93Z"/><path class="cls-13" d="M158.75,94.48c4.8,20.83-7.14,26.06-11.63,27.09-4.08.93-18.08,3.6-25-16.62s1.24-29,10.46-31.67S154,73.65,158.75,94.48Z"/><path class="cls-3" d="M155.1,93.42a14.52,14.52,0,0,1-1.48-.07,2.38,2.38,0,0,1-1.48-.37.76.76,0,0,1-.15-.92,1.88,1.88,0,0,1,1.77-.72,2.73,2.73,0,0,1,1.87.7A.81.81,0,0,1,155.1,93.42Z"/><path class="cls-3" d="M140.91,95.13a13.37,13.37,0,0,0,1.37-.53,2.33,2.33,0,0,0,1.31-.8.76.76,0,0,0-.15-.92,1.87,1.87,0,0,0-1.9-.14A2.77,2.77,0,0,0,140,94,.81.81,0,0,0,140.91,95.13Z"/><path class="cls-3" d="M144.66,98.7s-.1.09-.09.15c.31,1.42.42,3.1-.79,3.81,0,0,0,.1,0,.08C145.34,102.23,145.18,100,144.66,98.7Z"/><path class="cls-3" d="M143.11,97.44c-2.34.24-1.68,4.89.49,4.67S145.06,97.23,143.11,97.44Z"/><path class="cls-3" d="M142.23,97.81c-.37.32-.7.84-1.19,1s-1-.29-1.49-.7c0,0-.08,0-.07.06.11.9.59,1.76,1.56,1.76s1.4-.88,1.5-1.81C142.56,97.91,142.38,97.68,142.23,97.81Z"/><path class="cls-3" d="M152.57,96.88c0-.06.12.05.13.11.14,1.45.56,3.09,1.92,3.39,0,0,0,.08,0,.08C153,100.45,152.47,98.28,152.57,96.88Z"/><path class="cls-3" d="M153.65,95.2c2.3-.49,3.1,4.14,1,4.6S151.73,95.61,153.65,95.2Z"/><path class="cls-3" d="M154.67,95.34c.41.18.85.56,1.29.52s.8-.62,1-1.16c0-.06.07,0,.08,0,.18.88,0,1.85-.77,2.17s-1.45-.37-1.82-1.22C154.43,95.54,154.51,95.27,154.67,95.34Z"/><path class="cls-3" d="M146.34,110.88c.38.31.77.74,1.3.73a3.81,3.81,0,0,0,1.52-.51.05.05,0,0,1,.07.07,2,2,0,0,1-1.76,1A1.56,1.56,0,0,1,146.2,111C146.17,110.88,146.28,110.84,146.34,110.88Z"/><path class="cls-3" d="M151.55,104.76s.63,2.1.78,3.11c0,.1-.22.18-.56.25,0,0,0,0,0,0a4.9,4.9,0,0,1-5-1.08.1.1,0,0,1,.13-.16,7.39,7.39,0,0,0,4.6.58c0-.29-1.2-3.57-1-3.6a8.64,8.64,0,0,1,2.38.17c-1.18-4.42-3.06-8.62-4.16-13,0-.16.18-.25.25-.11,2.28,4.26,3.75,9.31,5.08,13.84C154.19,105.31,152,104.87,151.55,104.76Z"/><path class="cls-3" d="M151.61,107.76a5.88,5.88,0,0,1-1.92,2.29,2.69,2.69,0,0,1-1.56.44c-1.2,0-1.46-1.09-1.44-2a6.52,6.52,0,0,1,.21-1.49A7.65,7.65,0,0,0,151.61,107.76Z"/><path class="cls-12" d="M149.69,110.05a2.69,2.69,0,0,1-1.56.44c-1.2,0-1.46-1.09-1.44-2A2.75,2.75,0,0,1,149.69,110.05Z"/><path class="cls-3" d="M122.28,106.1a8.84,8.84,0,0,0,4.37-7.56,23.13,23.13,0,0,0,8.78-8.28c-.11.46-.9,3.72-1.35,5.37,13.36-3.6,16.74-14.3,16.74-14.3a23.47,23.47,0,0,1,6.59,8.13s-.55-8.33-5.27-13.56a13.46,13.46,0,0,0-12.81-4.56,19.21,19.21,0,0,0-18.26,7.23C113,88.85,122.28,106.1,122.28,106.1Z"/><path class="cls-3" d="M144.21,92.58a24.92,24.92,0,0,1-6.76,3.09s0,0,0,0a21.4,21.4,0,0,0,9.48-6.79,20.41,20.41,0,0,0,2.6-4.32,14,14,0,0,0,1.4-5.31.1.1,0,1,1,.21,0,16.36,16.36,0,0,1-.66,5.43,14.71,14.71,0,0,1-2.66,4.72,17.53,17.53,0,0,1-3.61,3.21"/><path class="cls-13" d="M125.79,105.78s-5.55-6-8.32-3.88,2.06,11.15,5.76,12a3.62,3.62,0,0,0,4.53-2.6Z"/><path class="cls-3" d="M118.92,104.47c-.06,0-.06.08,0,.09,2.6.66,4.23,2.76,5.47,5a2,2,0,0,0-3-.13.07.07,0,0,0,.08.12A2.24,2.24,0,0,1,124,110a10.83,10.83,0,0,1,1.44,1.8c.15.2.53,0,.41-.21l0-.06C125.41,108.37,122.34,104.31,118.92,104.47Z"/><path class="cls-1" d="M138.32,128.23l-4.23,9.55-11.61-12.69-3.55,3.82s11.09,19.89,11.19,19l4.29-8.21,5.56,6,.05-14.6Z"/><path class="cls-3" d="M140.4,138.51c-.07-2.41-.08-4.84-.26-7.24,0-.09-.14-.13-.16,0-.57,2.3-.24,11.52-.33,13.73l0,0c-.24-.26-5.17-5.3-5.22-5.22-.91,1.29-4.06,7.27-4.28,7.82-1.75-3.16-9.22-15.64-11.32-18.65-.06-.08-.2,0-.15.08,1.53,3.33,11.17,19.79,11.32,19.75a96.81,96.81,0,0,0,4.49-8.68c.82,1.09,5.78,6.76,5.81,6.4A77.67,77.67,0,0,0,140.4,138.51Z"/><path class="cls-3" d="M287.61,45.47a70.12,70.12,0,0,1,.76-8.82A68.07,68.07,0,0,1,290.12,28a68.3,68.3,0,0,1-.76,8.82A68.07,68.07,0,0,1,287.61,45.47Z"/><path class="cls-3" d="M246,50.13a69.56,69.56,0,0,1-3.76-8,69.46,69.46,0,0,1-2.82-8.39,69.49,69.49,0,0,1,3.75,8A69.5,69.5,0,0,1,246,50.13Z"/><path class="cls-3" d="M212.23,75A70.73,70.73,0,0,1,205,69.93a69.56,69.56,0,0,1-6.64-5.86A78.65,78.65,0,0,1,212.23,75Z"/><path class="cls-3" d="M195.44,113.39a70.12,70.12,0,0,1-8.82-.76,68.42,68.42,0,0,1-8.68-1.75,78.4,78.4,0,0,1,17.5,2.51Z"/><path class="cls-3" d="M200.1,155a68.72,68.72,0,0,1-8,3.75,67.24,67.24,0,0,1-8.39,2.83A77.61,77.61,0,0,1,200.1,155Z"/><path class="cls-3" d="M338.75,176a69.28,69.28,0,0,1,7.26,5.07,68.09,68.09,0,0,1,6.64,5.85,69.28,69.28,0,0,1-7.26-5.07A68.09,68.09,0,0,1,338.75,176Z"/><path class="cls-3" d="M355.53,137.64a70.12,70.12,0,0,1,8.83.76,68.42,68.42,0,0,1,8.68,1.75,70.12,70.12,0,0,1-8.83-.76A68.42,68.42,0,0,1,355.53,137.64Z"/><path class="cls-3" d="M350.87,96a67.93,67.93,0,0,1,8-3.76,69.5,69.5,0,0,1,8.39-2.83,67.19,67.19,0,0,1-8,3.76A71.29,71.29,0,0,1,350.87,96Z"/><path class="cls-3" d="M326,62.26a79.2,79.2,0,0,1,10.92-13.91,69.79,69.79,0,0,1-5.06,7.27A72.09,72.09,0,0,1,326,62.26Z"/><g class="cls-15"><path class="cls-4" d="M343.68,142c-10.35,42.25-48.09,49.37-48.09,49.37-3.68,6.08-11,24.83-11,24.83L238,208.69s-.52-20-2.09-27c0,0-33.57-18.68-30-62,2.45-30.12,30.74-70.64,80.59-62.58l.52.09C336.82,65.3,350.88,112.68,343.68,142Z"/><path class="cls-3" d="M343.68,142A74.34,74.34,0,0,1,337.3,159a64.27,64.27,0,0,1-10.64,14.62,65,65,0,0,1-14.28,11.11,61.74,61.74,0,0,1-16.78,6.77l0,0c-1.14,1.95-2.12,4-3.07,6.05s-1.86,4.12-2.75,6.21c-1.78,4.16-3.49,8.36-5.14,12.57l0,.08h-.09L238,208.84l-.12,0v-.13q-.19-6.75-.63-13.51c-.14-2.25-.32-4.49-.53-6.74a61.89,61.89,0,0,0-.95-6.67l.09.12a61.89,61.89,0,0,1-14.34-12.31,66,66,0,0,1-10.26-15.88c-5.32-11.52-6.82-24.57-5.26-37.09a70.5,70.5,0,0,1,5.22-18.18,75,75,0,0,1,9.65-16.27A67.35,67.35,0,0,1,250.91,59.9a65,65,0,0,1,18.49-3.8,79.49,79.49,0,0,1,18.86,1.23c12.39,2.2,24.44,7.35,33.89,15.78a67.06,67.06,0,0,1,6.65,6.73,69.31,69.31,0,0,1,5.55,7.65c.89,1.31,1.59,2.73,2.39,4.09s1.47,2.79,2.08,4.25a74.65,74.65,0,0,1,3.34,8.84,80.38,80.38,0,0,1,2.18,9.2,77.92,77.92,0,0,1,1,9.39A66.91,66.91,0,0,1,343.68,142Zm0,0a66.89,66.89,0,0,0,1.65-18.77,77.56,77.56,0,0,0-1.05-9.38,82.44,82.44,0,0,0-2.2-9.19,75.08,75.08,0,0,0-3.35-8.82c-.61-1.46-1.39-2.83-2.08-4.24s-1.51-2.77-2.4-4.07a68.23,68.23,0,0,0-5.56-7.63,65.63,65.63,0,0,0-6.64-6.7c-9.45-8.39-21.47-13.49-33.84-15.66a79.44,79.44,0,0,0-18.79-1.2A65.1,65.1,0,0,0,251,60.2a67,67,0,0,0-29.87,22.21,74.66,74.66,0,0,0-9.56,16.19,69.5,69.5,0,0,0-5.14,18.07,75.25,75.25,0,0,0,0,18.79,72.14,72.14,0,0,0,1.9,9.22,69.25,69.25,0,0,0,3.24,8.84,65.87,65.87,0,0,0,10.16,15.8A61.87,61.87,0,0,0,236,181.57l.07.05,0,.07a61.32,61.32,0,0,1,.93,6.72c.22,2.25.39,4.5.53,6.75.28,4.5.47,9,.6,13.52l-.13-.15,46.58,7.6-.12.07q2.5-6.33,5.17-12.57,1.35-3.13,2.77-6.21c.95-2.06,1.94-4.1,3.09-6.06l0,0h0a61.58,61.58,0,0,0,16.75-6.73A64.49,64.49,0,0,0,337.27,159,74.74,74.74,0,0,0,343.68,142Z"/></g><line class="cls-16" x1="248.88" y1="214.69" x2="246.97" y2="134.63"/><line class="cls-16" x1="272.9" y1="218.58" x2="299.98" y2="143.21"/><path class="cls-17" d="M247.73,137.8s.4,15.68,7.3,16.8,17-20.53,8-22-5.1,29.67,6.39,31.53,22.9-26.79,14.86-28.09-9.33,22.8,1.72,24.59c5.93,1,12.64-13.61,12.64-13.61"/><rect class="cls-18" x="227.47" y="212.28" width="62.64" height="34.47" transform="translate(40.05 -38.44) rotate(9.2)"/><path class="cls-18" d="M279.94,250.4c-4.68,5.86-12.59,10.5-25.88,8.34s-19.34-9.05-21.93-16.09Z"/><path class="cls-19" d="M279.94,250.4a23.13,23.13,0,0,1-4.85,4.59l-42-10.17a21.36,21.36,0,0,1-.92-2.17Z"/><polygon class="cls-19" points="293.22 224.29 226.79 219.74 227.28 216.77 293.7 221.33 293.22 224.29"/><polygon class="cls-19" points="291.77 233.28 225.34 228.72 225.82 225.75 292.25 230.31 291.77 233.28"/><polygon class="cls-19" points="290.31 242.26 223.88 237.71 224.36 234.74 290.79 239.29 290.31 242.26"/><g class="cls-20"><path class="cls-7" d="M221.07,107.38c2.2.74,7-10.48,21.81-22,6.56-5.11,29-9.2,28.58-16.39S251,65.89,239.68,75.37C221.5,90.63,219,106.69,221.07,107.38Z"/><path class="cls-7" d="M333.23,132.52c4.17.68,5.23-5.8,1-6.48S329.05,131.85,333.23,132.52Z"/><path class="cls-7" d="M304.93,179.42c2,2.1,14.72-6.31,21.68-17.69,5.78-9.44,8.56-22.11,5.9-23.3s-7.31,16.06-11.71,22C315.26,167.87,302.79,177.16,304.93,179.42Z"/></g><path class="cls-13" d="M110.42,154.06c7.78,33.88,28.27,75.94,40.25,76.77,13.33.93,3.12-45.41,1.34-46.38-1.34-.74-15.47-17-30-37S108.5,145.69,110.42,154.06Z"/><path class="cls-14" d="M152.17,184.27c-2.3-2.69-21.66-28.64-30.28-39.65s-15.34-8.87-12.28,8.82,14,51.45,28.51,68.55c14,16.47,21,9.14,20.48-7.79C158.19,200.35,152.17,184.27,152.17,184.27Z"/><path class="cls-3" d="M155.6,188.92c-2.78-3.47-5.51-7-8.23-10.51s-5.39-7.08-8.08-10.61l-8-10.71-3.94-5.38c-1.3-1.81-2.61-3.6-3.89-5.42,1.4,1.73,2.76,3.49,4.14,5.23l4.09,5.28,8.08,10.61c2.66,3.57,5.34,7.12,8,10.71S153,185.29,155.6,188.92Z"/><path class="cls-3" d="M129.85,154.43a23.59,23.59,0,0,1-1.66-3.09c-.24-.53-.48-1.06-.69-1.6s-.42-1.09-.62-1.64a16,16,0,0,1,1.75,3.05A20.8,20.8,0,0,1,129.85,154.43Z"/><path class="cls-13" d="M150.65,230.77c9.95,0,19.42-10.3,47.79-37.7,3.92-3.79-15.22-40-19.62-36.18-5.54,4.83-26,24.76-27.31,26.41C140.45,197.19,143.9,230.77,150.65,230.77Z"/><path class="cls-13" d="M170.66,167.32s7.83-12.69,13.34-20.74c3.07-4.5,9-11.73,12.8-14,5.64-3.4,31.38-14,34.08-7.8,2.45,5.6-20.82,11.89-20.82,11.89s22.92-8.42,24.62-1.14-25.53,10.9-25.53,10.9,23.75-8.13,24.32-.34c.43,5.89-24.06,10.55-24.06,10.55s20.46-6.85,21.17-.81c.77,6.67-21.56,12.39-21.56,12.39-.79,15.64-7.57,22.76-13,27.26C194.72,196.57,170.66,167.32,170.66,167.32Z"/><path class="cls-3" d="M201.94,139.08c2.66-1.09,5.34-2.21,8.09-3.06s5.52-1.6,8.33-2.18a48.54,48.54,0,0,1,11.15-1.25c-6.66.47-16.53,3.35-19.28,4.19s-5.52,1.56-8.26,2.4A.05.05,0,0,1,201.94,139.08Z"/><path class="cls-3" d="M204.82,149c3.45-1.24,6.84-2.6,10.34-3.69s6.9-1.8,10.46-2.65c.27-.06.22.11-.05.18-3.52,1-6.7,2.17-10.21,3.19s-7.06,1.91-10.52,3.06C204.79,149.14,204.77,149.06,204.82,149Z"/><path class="cls-3" d="M205.75,158A81.59,81.59,0,0,1,222,153.61c.27-.06.18.15-.1.22-5.43,1.37-9.69,2.41-16.07,4.39C205.73,158.25,205.65,158.08,205.75,158Z"/><path class="cls-14" d="M174.9,159.42l11.56,49.42s-25.93,23.19-36,22.3c-6.65-.58-11.25-34.75,2.14-49.17Z"/><path class="cls-3" d="M144.31,204.55c-.07-3.88.64-14.17,8.26-22.62.06-.07.2,0,.14.1-5.07,6.84-8,18.8-8.25,22.54C144.46,204.67,144.31,204.65,144.31,204.55Z"/><path class="cls-3" d="M176,212.82c-1.56-5.36-2.83-10.81-4.09-16.25s-2.53-10.9-3.66-16.39c-.63-3.09-1.28-6.19-1.81-9.31,0-.08.12-.12.14,0,1.56,5.36,2.86,10.8,4.15,16.23s2.54,10.9,3.73,16.37c.67,3.09,1.28,6.19,1.81,9.31C176.27,212.9,176,213,176,212.82Z"/><path class="cls-3" d="M174.54,159.09a48.92,48.92,0,0,0-4.83,4.39q-2.33,2.28-4.59,4.64c-3,3.11-9.74,9.36-14.24,15.85,0,.07.55-.05.6-.13,2-3.19,21.79-22.22,23.19-23.94a3.81,3.81,0,0,0,.23.45c.06.1.24.09.24,0,0-.33-.07-.63-.09-1A.31.31,0,0,0,174.54,159.09Z"/><path class="cls-3" d="M109.72,164.75c1.22,3.1,2.45,6.2,3.74,9.27s2.56,6.16,3.91,9.21c2.67,6.1,5.43,12.17,8.49,18.08a145.57,145.57,0,0,0,10,17.21,54,54,0,0,0,6.3,7.67c2.34,2.3,5.08,4.44,8.41,5a11.62,11.62,0,0,1-4.72-1.63,24.14,24.14,0,0,1-4-3,54,54,0,0,1-6.6-7.58A136.23,136.23,0,0,1,125,201.76q-4.5-9-8.31-18.23C114.13,177.35,111.77,171.1,109.72,164.75Z"/><path class="cls-3" d="M109.47,167.72c.66,1,1.27,1.92,1.88,2.9s1.18,1.95,1.69,3a14.26,14.26,0,0,1-1.14-1.31,17.22,17.22,0,0,1-1-1.43,15.08,15.08,0,0,1-.83-1.53A10.33,10.33,0,0,1,109.47,167.72Z"/><path class="cls-14" d="M196.64,42.54a81.8,81.8,0,0,1,8.17-6.8c2.84-2.12,5.78-4.13,8.8-6a125.64,125.64,0,0,1,19-9.67,114.26,114.26,0,0,1,41.82-8.57,110.4,110.4,0,0,1,41.95,7.89l4.94,2.07c.83.32,1.62.73,2.42,1.12l2.4,1.19,2.38,1.2a26.62,26.62,0,0,1,2.35,1.27l4.61,2.69c.77.45,1.55.88,2.29,1.37l2.2,1.5,4.4,3c2.88,2.08,5.65,4.3,8.43,6.48l-.1.13a161.75,161.75,0,0,0-37.17-19.78c-1.62-.68-3.32-1.12-5-1.66l-2.5-.79a24.9,24.9,0,0,0-2.52-.72l-5.09-1.25c-1.7-.43-3.44-.65-5.15-1A106.21,106.21,0,0,0,274.5,14.5a121.45,121.45,0,0,0-41,7.73A142.29,142.29,0,0,0,214.34,31,123.6,123.6,0,0,0,196.64,42.54Z"/><polygon class="cls-14" points="343.6 43.76 343.39 41.97 352.21 40.97 350.57 32.25 352.34 31.92 354.34 42.54 343.6 43.76"/><path class="cls-14" d="M354.34,249.52a83.28,83.28,0,0,1-8.17,6.81c-2.85,2.11-5.78,4.12-8.81,6a127.4,127.4,0,0,1-19,9.67,117.63,117.63,0,0,1-20.49,6.24,115.76,115.76,0,0,1-21.33,2.32,110.36,110.36,0,0,1-41.95-7.89l-4.94-2.06c-.83-.33-1.63-.73-2.42-1.13l-2.4-1.19-2.39-1.2a26.62,26.62,0,0,1-2.35-1.27l-4.61-2.69c-.76-.45-1.54-.88-2.28-1.37l-2.21-1.5-4.4-3c-2.87-2.08-5.65-4.29-8.43-6.48l.1-.13a162,162,0,0,0,37.17,19.79c1.62.67,3.32,1.11,5,1.65l2.5.79a24.18,24.18,0,0,0,2.52.72l5.09,1.25c1.7.43,3.43.65,5.15,1a106.21,106.21,0,0,0,20.83,1.73,121.89,121.89,0,0,0,41-7.73,143,143,0,0,0,19.14-8.76A123.21,123.21,0,0,0,354.34,249.52Z"/><polygon class="cls-14" points="207.38 248.3 207.58 250.09 198.76 251.09 200.4 259.81 198.63 260.14 196.64 249.52 207.38 248.3"/></svg>