<svg id="e56ade81-3661-47ae-8937-7cb1d5ec1ace" data-name="Layer 1" xmlns="http://www.w3.org/2000/svg" xmlns:xlink="http://www.w3.org/1999/xlink" viewBox="0 0 637.47 587.06"><defs><style>.a31785e4-e9d1-45b7-8b5b-c8870d2d3a06{fill:none;}.f738c539-4fdd-44df-a989-c1ada9d82004{fill:#e5e5e4;}.e42e306a-1461-4459-bb6c-f183f329aa9e{fill:#bdbfbf;}.aa89d339-45dd-48df-b522-47f17ed33df7{fill:#d3d5d4;}.b8fa43af-017e-419a-82c2-0a070c648cc3{fill:#fff;}.a0d4f17b-c209-4b90-9a43-8c5c66f40061{fill:#0b2b34;}.b5c8e6b2-7616-473a-bd2c-fbb3f5276586{fill:#fec131;}.a93e143d-62e4-4620-a3e4-5772e840aa06{fill:#345863;}.f6a380c2-3521-402a-974a-54da67941b57{fill:#dedfde;}.eaba91da-9ca6-4bc6-bac9-525e671f4347{fill:#cacccc;}.bc99bc35-d1de-4d7d-96b2-bf07a01cb295{fill:#04252d;}.a8abbcd8-38fa-4bd4-90ae-6443ac8e5d3b{fill:#f5b320;}.bce1bbb3-c6f8-4de4-bae2-0aade96a3a38{fill:#bbbdbd;}.ac6c4384-b59a-41ad-962b-7a45670c2ec7{fill:#f27b6d;}.acb324ae-211f-4baf-a2b8-9da1cc2f57dc{fill:#f494b6;}.b08290fb-e570-42a2-9a87-a6baaef55936{fill:#f7a09c;}.e219c1e0-5e5b-4ff6-b9ff-ed318d1061e7{fill:#c3c4c4;}.a315ac2b-32c3-4576-8cf7-f214e3396c7c{fill:#d69d25;}.be349a27-ca1c-488c-a18d-ac3a8b55fd60{fill:#001e27;}.aac8b427-7ee5-4c04-92a5-c9c1a3b6a3d9{fill:#25434c;}.b1b1f778-d484-4750-93f7-a82aa4eb47de{clip-path:url(#a6a0fda8-1cb1-4138-8424-7a0266475d53);}.f3776312-1d22-4d14-be66-060831b76544{fill:#805f1f;}.b33c57bc-ae58-43f1-8d2f-b23c5bd67a6f{fill:#644a17;}.a164b728-13fd-490a-9542-6bca1c7a3b9e{fill:#ffd26a;}.ecd65718-f38f-4cc9-ac45-b5d3afb21f82{fill:#d0d2d1;}.eaf789b6-338c-4815-85e9-ed60b1688f7f{fill:#ffcc57;}.b8da64c7-353f-4c87-bbf4-c5661eec7928{fill:#c9cbca;}.f9f9e8be-e559-40c3-99e6-0a913116059e{fill:#987d40;}</style><clipPath id="a6a0fda8-1cb1-4138-8424-7a0266475d53"><polyline class="a31785e4-e9d1-45b7-8b5b-c8870d2d3a06" points="115.55 104.1 111.89 86.96 119 86.14 122.66 103.28 115.55 104.1"/></clipPath></defs><path class="f738c539-4fdd-44df-a989-c1ada9d82004" d="M49.15,126.76a13.29,13.29,0,1,1,5.44,18,13.3,13.3,0,0,1-5.44-18Zm-4.07,25.61a3.86,3.86,0,0,1,4.05,0l1,.59c.36.19.71.37,1.07.54a3.85,3.85,0,0,1,2.26,3.35l.16,5,16.21-.51-.15-5a3.88,3.88,0,0,1,2-3.5c.71-.39,1.39-.81,2.06-1.27a3.84,3.84,0,0,1,4-.26l4.38,2.35,7.67-14.31L85.51,137a3.84,3.84,0,0,1-2-3.49,21.66,21.66,0,0,0-.08-2.42,3.87,3.87,0,0,1,1.79-3.63l4.23-2.63-8.55-13.79-4.26,2.64a3.87,3.87,0,0,1-4,0c-.34-.21-.68-.41-1-.59s-.71-.37-1.07-.54a3.87,3.87,0,0,1-2.26-3.36l-.15-5-16.22.5.15,5a3.85,3.85,0,0,1-2,3.5,20.71,20.71,0,0,0-2.06,1.27,3.84,3.84,0,0,1-4,.26l-4.38-2.34-7.67,14.3L36.22,129a3.85,3.85,0,0,1,2,3.5c0,.81,0,1.62.07,2.43a3.84,3.84,0,0,1-1.79,3.63L32.3,141.2,40.85,155l4.23-2.62Z"/><path class="f738c539-4fdd-44df-a989-c1ada9d82004" d="M570.29,27.68A9.31,9.31,0,1,1,561,37a9.32,9.32,0,0,1,9.31-9.32Zm-17.16,6a2.72,2.72,0,0,1,1.33,2.51q0,.42,0,.84t0,.84a2.71,2.71,0,0,1-1.32,2.5l-3,1.74,5.68,9.85,3-1.74a2.7,2.7,0,0,1,2.83.1,15.19,15.19,0,0,0,1.47.85,2.71,2.71,0,0,1,1.49,2.4V57H576V53.54a2.71,2.71,0,0,1,1.49-2.4,15.19,15.19,0,0,0,1.47-.85,2.7,2.7,0,0,1,2.83-.1l3,1.74,5.68-9.85-3-1.75a2.68,2.68,0,0,1-1.31-2.5c0-.27,0-.55,0-.83s0-.56,0-.84a2.69,2.69,0,0,1,1.32-2.51l3-1.74-5.68-9.85-3,1.74a2.72,2.72,0,0,1-2.83-.09,14.37,14.37,0,0,0-1.47-.85,2.73,2.73,0,0,1-1.5-2.41V17H564.61v3.48a2.73,2.73,0,0,1-1.5,2.41,15.53,15.53,0,0,0-1.47.85,2.72,2.72,0,0,1-2.83.09l-3-1.74-5.68,9.85,3,1.74Z"/><path class="f738c539-4fdd-44df-a989-c1ada9d82004" d="M559.58,250.32A20.68,20.68,0,1,1,580.26,271a20.68,20.68,0,0,1-20.68-20.67Zm-23.6,0a44.28,44.28,0,1,0,44.28-44.27A44.29,44.29,0,0,0,536,250.32Z"/><polygon class="f738c539-4fdd-44df-a989-c1ada9d82004" points="571.75 207.88 588.77 207.88 587.83 195.83 572.69 195.83 571.75 207.88 571.75 207.88"/><polygon class="f738c539-4fdd-44df-a989-c1ada9d82004" points="604.15 213.62 616.19 225.66 624.05 216.47 613.34 205.76 604.15 213.62 604.15 213.62"/><polygon class="f738c539-4fdd-44df-a989-c1ada9d82004" points="623.01 240.59 623.01 257.62 635.07 256.68 635.07 241.53 623.01 240.59 623.01 240.59"/><polygon class="f738c539-4fdd-44df-a989-c1ada9d82004" points="617.27 273 605.24 285.04 614.43 292.89 625.13 282.19 617.27 273 617.27 273"/><polygon class="f738c539-4fdd-44df-a989-c1ada9d82004" points="590.3 291.86 573.28 291.86 574.22 303.91 589.36 303.91 590.3 291.86 590.3 291.86"/><polygon class="f738c539-4fdd-44df-a989-c1ada9d82004" points="557.9 286.12 545.86 274.08 538 283.27 548.71 293.98 557.9 286.12 557.9 286.12"/><polygon class="f738c539-4fdd-44df-a989-c1ada9d82004" points="539.04 259.15 539.04 242.12 526.98 243.06 526.98 258.21 539.04 259.15 539.04 259.15"/><polygon class="f738c539-4fdd-44df-a989-c1ada9d82004" points="544.77 226.74 556.81 214.7 547.63 206.84 536.92 217.55 544.77 226.74 544.77 226.74"/><path class="f738c539-4fdd-44df-a989-c1ada9d82004" d="M130.63,217.08a20.68,20.68,0,1,1,20.68,20.67,20.68,20.68,0,0,1-20.68-20.67m-23.59,0a44.28,44.28,0,1,0,44.27-44.27A44.28,44.28,0,0,0,107,217.08"/><polygon class="f738c539-4fdd-44df-a989-c1ada9d82004" points="142.8 174.64 159.82 174.64 158.88 162.59 143.74 162.59 142.8 174.64 142.8 174.64"/><polygon class="f738c539-4fdd-44df-a989-c1ada9d82004" points="175.21 180.38 187.25 192.42 195.1 183.23 184.39 172.52 175.21 180.38 175.21 180.38"/><polyline class="f738c539-4fdd-44df-a989-c1ada9d82004" points="194.06 207.35 194.06 224.38 206.12 223.44 206.12 208.29 194.06 207.35"/><polyline class="f738c539-4fdd-44df-a989-c1ada9d82004" points="188.33 239.76 176.29 251.8 185.48 259.66 196.19 248.95 188.33 239.76"/><polygon class="f738c539-4fdd-44df-a989-c1ada9d82004" points="161.36 258.62 144.33 258.62 145.27 270.67 160.41 270.67 161.36 258.62 161.36 258.62"/><polyline class="f738c539-4fdd-44df-a989-c1ada9d82004" points="128.95 252.88 116.91 240.84 109.05 250.03 119.76 260.74 128.95 252.88"/><polyline class="f738c539-4fdd-44df-a989-c1ada9d82004" points="110.09 225.91 110.09 208.88 98.04 209.82 98.04 224.97 110.09 225.91"/><polygon class="f738c539-4fdd-44df-a989-c1ada9d82004" points="115.83 193.5 127.87 181.46 118.68 173.61 107.97 184.32 115.83 193.5 115.83 193.5"/><polyline class="f738c539-4fdd-44df-a989-c1ada9d82004" points="247.79 391.08 246.19 400.94 244.46 411.53 228.7 508.16 202.93 508.16 218.69 411.53 220.42 400.94 222.02 391.08 247.79 391.08"/><path class="e42e306a-1461-4459-bb6c-f183f329aa9e" d="M244.06,391.08c-1.36,9.78-2.82,19.56-4.29,29.33l-4.55,29.28L230.46,479,228,493.56l-2.56,14.6,2.1-14.67,2.2-14.66,4.54-29.29L239,420.29c1.63-9.74,3.27-19.49,5-29.21"/><polyline class="e42e306a-1461-4459-bb6c-f183f329aa9e" points="246.19 400.94 244.46 411.53 218.69 411.53 220.42 400.94 246.19 400.94"/><polyline class="f738c539-4fdd-44df-a989-c1ada9d82004" points="375.02 391.08 376.62 400.94 378.35 411.53 394.11 508.16 419.88 508.16 404.12 411.53 402.39 400.94 400.79 391.08 375.02 391.08"/><path class="e42e306a-1461-4459-bb6c-f183f329aa9e" d="M378.83,391.08c1.36,9.78,2.82,19.56,4.3,29.33l4.54,29.28L392.43,479l2.46,14.61,2.56,14.6-2.1-14.67-2.19-14.66-4.55-29.29-4.76-29.25c-1.63-9.74-3.27-19.49-5-29.21Z"/><polygon class="e42e306a-1461-4459-bb6c-f183f329aa9e" points="376.62 400.94 402.39 400.94 404.12 411.53 378.35 411.53 376.62 400.94 376.62 400.94"/><polyline class="e42e306a-1461-4459-bb6c-f183f329aa9e" points="246.85 363.9 226.42 363.9 228.96 344.85 244.31 344.85 246.85 363.9"/><path class="aa89d339-45dd-48df-b522-47f17ed33df7" d="M255.68,331.24a19,19,0,1,1-19-19.05,19,19,0,0,1,19,19.05"/><path class="b8fa43af-017e-419a-82c2-0a070c648cc3" d="M251.11,331.24a14.48,14.48,0,1,1-14.47-14.48,14.47,14.47,0,0,1,14.47,14.48Z"/><path class="f738c539-4fdd-44df-a989-c1ada9d82004" d="M248.74,330.4a12.58,12.58,0,0,0-4.73-8.89,12.8,12.8,0,0,0-9.73-2.55,12.19,12.19,0,0,0-8.37,5.45,12.77,12.77,0,0,0-1.53,10.44A12,12,0,0,0,230,342a12.59,12.59,0,0,0,8.86,1.36,13,13,0,0,0,7.44-4.55,13.74,13.74,0,0,0,3.06-8.06c0-.14,0-.26-.12-.26s-.13.11-.14.25a13.31,13.31,0,0,1-.67,3.49,14.29,14.29,0,0,1-1.6,3.14,15,15,0,0,1-2.37,2.61,15.65,15.65,0,0,1-3,1.94,12.07,12.07,0,0,1-9.88.23,11.83,11.83,0,0,1-6.7-7.35,12.24,12.24,0,0,1,1.26-10.13,11.71,11.71,0,0,1,8.15-5.36,12.57,12.57,0,0,1,12,4.77,12.86,12.86,0,0,1,1.62,3,14.75,14.75,0,0,1,.76,3.36l0,0,0-.09Z"/><path class="f738c539-4fdd-44df-a989-c1ada9d82004" d="M247,330.41a10.79,10.79,0,0,0-4.1-7.58,11.1,11.1,0,0,0-8.31-2.21,10.56,10.56,0,0,0-7.25,4.62,11.06,11.06,0,0,0-1.4,9,10.33,10.33,0,0,0,4.9,6.26,10.87,10.87,0,0,0,7.73,1.15,11.32,11.32,0,0,0,6.44-4,12.1,12.1,0,0,0,2.64-7l-.11-.22-.14.21a11.54,11.54,0,0,1-6.61,9.65,10.37,10.37,0,0,1-8.55.25,10.17,10.17,0,0,1-5.79-6.38,10.53,10.53,0,0,1,1.16-8.73,10,10,0,0,1,7-4.52,10.89,10.89,0,0,1,10.22,4,11.09,11.09,0,0,1,1.41,2.57,12.39,12.39,0,0,1,.68,2.87l.05,0v-.08Z"/><path class="f738c539-4fdd-44df-a989-c1ada9d82004" d="M245.35,330.42a9.18,9.18,0,0,0-3.48-6.28,9.44,9.44,0,0,0-6.89-1.86,8.8,8.8,0,0,0-6.12,3.79,9.36,9.36,0,0,0-1.28,7.65,8.58,8.58,0,0,0,4.16,5.35,9.18,9.18,0,0,0,6.59.95,9.61,9.61,0,0,0,5.44-3.43,10.39,10.39,0,0,0,2.23-5.91l-.12-.19-.14.18a9.84,9.84,0,0,1-5.56,8.12,8.74,8.74,0,0,1-7.22.26,8.5,8.5,0,0,1-4.88-5.41,8.88,8.88,0,0,1,1-7.33,8.32,8.32,0,0,1,5.89-3.69,10.15,10.15,0,0,1,4.67.56,8.78,8.78,0,0,1,3.8,2.79,10,10,0,0,1,1.19,2.11,11.54,11.54,0,0,1,.61,2.38l0,0,0-.07Z"/><path class="f738c539-4fdd-44df-a989-c1ada9d82004" d="M243.65,330.44a7.39,7.39,0,0,0-2.85-5,7.76,7.76,0,0,0-5.47-1.52,7.11,7.11,0,0,0-5,3,7.69,7.69,0,0,0-1.17,6.25,7,7,0,0,0,3.42,4.46,7.57,7.57,0,0,0,5.46.74,8,8,0,0,0,4.44-2.87,8.71,8.71,0,0,0,1.81-4.83l-.11-.16-.14.15a8.21,8.21,0,0,1-4.53,6.59,7,7,0,0,1-5.88.27,6.84,6.84,0,0,1-4-4.44,7.17,7.17,0,0,1,.94-5.93,6.63,6.63,0,0,1,4.77-2.85,8.63,8.63,0,0,1,3.67.47,7.2,7.2,0,0,1,3,2.16,8.1,8.1,0,0,1,1,1.66,8.88,8.88,0,0,1,.54,1.9l0,0v-.05Z"/><polygon class="e42e306a-1461-4459-bb6c-f183f329aa9e" points="395.95 363.9 375.52 363.9 378.06 344.85 393.41 344.85 395.95 363.9 395.95 363.9"/><path class="aa89d339-45dd-48df-b522-47f17ed33df7" d="M404.78,331.24a19,19,0,1,1-19-19.05,19,19,0,0,1,19,19.05Z"/><path class="b8fa43af-017e-419a-82c2-0a070c648cc3" d="M400.21,331.24a14.48,14.48,0,1,1-14.48-14.48,14.47,14.47,0,0,1,14.48,14.48Z"/><path class="f738c539-4fdd-44df-a989-c1ada9d82004" d="M397.83,330.4a12.51,12.51,0,0,0-4.73-8.89,12.79,12.79,0,0,0-9.73-2.55,12.24,12.24,0,0,0-8.37,5.45,12.77,12.77,0,0,0-1.53,10.44,12,12,0,0,0,5.66,7.15,12.59,12.59,0,0,0,8.86,1.36,12.94,12.94,0,0,0,7.43-4.55,13.74,13.74,0,0,0,3.06-8.06c0-.14,0-.26-.11-.26s-.13.11-.14.25a12.93,12.93,0,0,1-.68,3.49,13.47,13.47,0,0,1-1.6,3.14,15,15,0,0,1-2.37,2.61,15.65,15.65,0,0,1-3,1.94,12.07,12.07,0,0,1-9.88.23,11.86,11.86,0,0,1-6.7-7.35,12.28,12.28,0,0,1,1.27-10.13,11.69,11.69,0,0,1,8.14-5.36,12.58,12.58,0,0,1,12,4.77,13.21,13.21,0,0,1,1.61,3,13.76,13.76,0,0,1,.76,3.36l.05,0v-.09Z"/><path class="f738c539-4fdd-44df-a989-c1ada9d82004" d="M396.14,330.41a10.86,10.86,0,0,0-4.1-7.58,11.12,11.12,0,0,0-8.32-2.21,10.52,10.52,0,0,0-7.24,4.62,11.1,11.1,0,0,0-1.41,9,10.35,10.35,0,0,0,4.91,6.26,10.87,10.87,0,0,0,7.73,1.15,11.3,11.3,0,0,0,6.43-4,12.11,12.11,0,0,0,2.65-7l-.12-.22-.13.21a11.53,11.53,0,0,1-6.62,9.65,10.35,10.35,0,0,1-8.54.25,10.18,10.18,0,0,1-5.8-6.38,10.56,10.56,0,0,1,1.16-8.73,10,10,0,0,1,7-4.52A10.9,10.9,0,0,1,394,325a11.44,11.44,0,0,1,1.4,2.57,12.4,12.4,0,0,1,.69,2.87l0,0,0-.08Z"/><path class="f738c539-4fdd-44df-a989-c1ada9d82004" d="M394.44,330.42a9.13,9.13,0,0,0-3.47-6.28,9.46,9.46,0,0,0-6.9-1.86,8.82,8.82,0,0,0-6.12,3.79,9.4,9.4,0,0,0-1.28,7.65,8.65,8.65,0,0,0,4.16,5.35,9.21,9.21,0,0,0,6.6.95,9.59,9.59,0,0,0,5.43-3.43,10.32,10.32,0,0,0,2.23-5.91l-.11-.19-.14.18a9.85,9.85,0,0,1-5.57,8.12,8.72,8.72,0,0,1-7.21.26,8.52,8.52,0,0,1-4.89-5.41,8.84,8.84,0,0,1,1.06-7.33,8.3,8.3,0,0,1,5.89-3.69,10.11,10.11,0,0,1,4.66.56,8.73,8.73,0,0,1,3.8,2.79,10,10,0,0,1,1.19,2.11,10.94,10.94,0,0,1,.61,2.38l.05,0v-.07Z"/><path class="f738c539-4fdd-44df-a989-c1ada9d82004" d="M392.75,330.44a7.47,7.47,0,0,0-2.85-5,7.78,7.78,0,0,0-5.48-1.52,7.13,7.13,0,0,0-5,3,7.69,7.69,0,0,0-1.16,6.25,7,7,0,0,0,3.41,4.46,7.59,7.59,0,0,0,5.47.74,8,8,0,0,0,4.43-2.87,8.65,8.65,0,0,0,1.82-4.83l-.12-.16-.14.15a8.18,8.18,0,0,1-4.52,6.59,7,7,0,0,1-5.88.27,6.81,6.81,0,0,1-4-4.44,7.13,7.13,0,0,1,.94-5.93,6.63,6.63,0,0,1,4.76-2.85,8.66,8.66,0,0,1,3.68.47,7.17,7.17,0,0,1,3,2.16,8.14,8.14,0,0,1,1,1.66,10.21,10.21,0,0,1,.54,1.9l0,0,0-.05Z"/><polyline class="aa89d339-45dd-48df-b522-47f17ed33df7" points="439.8 354.19 439.8 403.3 183.01 403.3 183.01 354.19 439.8 354.19"/><polyline class="f738c539-4fdd-44df-a989-c1ada9d82004" points="235.79 354.19 217.15 403.3 183.99 403.3 202.63 354.19 235.79 354.19"/><polygon class="f738c539-4fdd-44df-a989-c1ada9d82004" points="303.77 354.19 285.13 403.3 251.96 403.3 270.6 354.19 303.77 354.19 303.77 354.19"/><polygon class="f738c539-4fdd-44df-a989-c1ada9d82004" points="371.74 354.19 353.1 403.3 319.94 403.3 338.57 354.19 371.74 354.19 371.74 354.19"/><polygon class="f738c539-4fdd-44df-a989-c1ada9d82004" points="439.71 354.19 421.08 403.3 387.9 403.3 406.54 354.19 439.71 354.19 439.71 354.19"/><polyline class="aa89d339-45dd-48df-b522-47f17ed33df7" points="434.6 448.71 434.6 479.8 188.21 479.8 188.21 448.71 434.6 448.71"/><polyline class="f738c539-4fdd-44df-a989-c1ada9d82004" points="238.85 448.71 220.97 479.8 189.15 479.8 207.03 448.71 238.85 448.71"/><polygon class="f738c539-4fdd-44df-a989-c1ada9d82004" points="304.08 448.71 286.2 479.8 254.37 479.8 272.25 448.71 304.08 448.71 304.08 448.71"/><polygon class="f738c539-4fdd-44df-a989-c1ada9d82004" points="369.29 448.71 351.41 479.8 319.59 479.8 337.47 448.71 369.29 448.71 369.29 448.71"/><polygon class="f738c539-4fdd-44df-a989-c1ada9d82004" points="434.52 448.71 416.64 479.8 384.81 479.8 402.69 448.71 434.52 448.71 434.52 448.71"/><path class="f738c539-4fdd-44df-a989-c1ada9d82004" d="M622.21,561.7c0,14-135.87,25.36-303.48,25.36S15.26,575.71,15.26,561.7s135.87-25.36,303.47-25.36,303.48,11.35,303.48,25.36"/><polyline class="a0d4f17b-c209-4b90-9a43-8c5c66f40061" points="0 508.16 79.68 507.81 159.37 507.68 318.73 507.44 478.1 507.68 557.78 507.81 637.47 508.16 557.78 508.51 478.1 508.64 318.73 508.89 159.37 508.64 79.68 508.51 0 508.16"/><path class="e42e306a-1461-4459-bb6c-f183f329aa9e" d="M471.34,89.51a21.36,21.36,0,1,1,21.36,21.35,21.35,21.35,0,0,1-21.36-21.35Zm-24.36,0A45.72,45.72,0,1,0,492.7,43.8,45.72,45.72,0,0,0,447,89.51Z"/><polygon class="e42e306a-1461-4459-bb6c-f183f329aa9e" points="483.91 45.69 501.49 45.69 500.52 33.25 484.88 33.25 483.91 45.69 483.91 45.69"/><polygon class="e42e306a-1461-4459-bb6c-f183f329aa9e" points="517.37 51.62 529.8 64.05 537.91 54.56 526.86 43.5 517.37 51.62 517.37 51.62"/><polygon class="e42e306a-1461-4459-bb6c-f183f329aa9e" points="536.84 79.47 536.84 97.05 549.29 96.07 549.29 80.44 536.84 79.47 536.84 79.47"/><polygon class="e42e306a-1461-4459-bb6c-f183f329aa9e" points="530.92 112.93 518.49 125.36 527.97 133.47 539.03 122.41 530.92 112.93 530.92 112.93"/><polygon class="e42e306a-1461-4459-bb6c-f183f329aa9e" points="503.07 132.4 485.49 132.4 486.46 144.84 502.1 144.84 503.07 132.4 503.07 132.4"/><polygon class="e42e306a-1461-4459-bb6c-f183f329aa9e" points="469.61 126.48 457.18 114.05 449.06 123.53 460.12 134.59 469.61 126.48 469.61 126.48"/><polygon class="e42e306a-1461-4459-bb6c-f183f329aa9e" points="450.13 98.63 450.13 81.05 437.69 82.02 437.69 97.66 450.13 98.63 450.13 98.63"/><polygon class="e42e306a-1461-4459-bb6c-f183f329aa9e" points="456.06 65.17 468.49 52.73 459 44.62 447.94 55.68 456.06 65.17 456.06 65.17"/><path class="e42e306a-1461-4459-bb6c-f183f329aa9e" d="M492.7,94.14a4.63,4.63,0,1,1,4.62-4.63,4.63,4.63,0,0,1-4.62,4.63ZM503,79.2l-14.09-3.78L478.6,85.74l3.78,14.09,14.09,3.78,10.32-10.32L503,79.2Z"/><path class="b5c8e6b2-7616-473a-bd2c-fbb3f5276586" d="M351.69,196.4a35.79,35.79,0,1,1,35.77,35.8,35.77,35.77,0,0,1-35.77-35.8Zm-9.68,0a45.47,45.47,0,1,0,45.45-45.47A45.51,45.51,0,0,0,342,196.4Zm-4.36,0a49.83,49.83,0,1,1,49.81,49.84,49.88,49.88,0,0,1-49.81-49.84Zm-26.82,0a76.65,76.65,0,1,0,76.63-76.66,76.65,76.65,0,0,0-76.63,76.66Zm40.86,0a35.79,35.79,0,1,1,35.77,35.8,35.77,35.77,0,0,1-35.77-35.8Zm-9.68,0a45.47,45.47,0,1,0,45.45-45.47A45.51,45.51,0,0,0,342,196.4Zm9.68,0a35.79,35.79,0,1,1,35.77,35.8,35.77,35.77,0,0,1-35.77-35.8Zm-9.68,0a45.47,45.47,0,1,0,45.45-45.47A45.51,45.51,0,0,0,342,196.4Z"/><polygon class="b5c8e6b2-7616-473a-bd2c-fbb3f5276586" points="378.48 121.14 396.03 121.14 394.28 103.62 380.23 103.62 378.48 121.14 378.48 121.14"/><polygon class="b5c8e6b2-7616-473a-bd2c-fbb3f5276586" points="417.32 126.72 432.52 135.5 439.76 119.45 427.59 112.42 417.32 126.72 417.32 126.72"/><polygon class="b5c8e6b2-7616-473a-bd2c-fbb3f5276586" points="448.16 150.97 456.94 166.17 471.23 155.9 464.2 143.73 448.16 150.97 448.16 150.97"/><polygon class="b5c8e6b2-7616-473a-bd2c-fbb3f5276586" points="462.75 187.4 462.75 204.95 480.26 203.2 480.26 189.15 462.75 187.4 462.75 187.4"/><polygon class="b5c8e6b2-7616-473a-bd2c-fbb3f5276586" points="457.16 226.24 448.39 241.44 464.43 248.68 471.46 236.51 457.16 226.24 457.16 226.24"/><polygon class="b5c8e6b2-7616-473a-bd2c-fbb3f5276586" points="432.91 257.08 417.71 265.86 427.98 280.15 440.15 273.13 432.91 257.08 432.91 257.08"/><polygon class="b5c8e6b2-7616-473a-bd2c-fbb3f5276586" points="396.48 271.67 378.93 271.67 380.68 289.19 394.74 289.19 396.48 271.67 396.48 271.67"/><polygon class="b5c8e6b2-7616-473a-bd2c-fbb3f5276586" points="357.64 266.08 342.44 257.31 335.2 273.35 347.37 280.38 357.64 266.08 357.64 266.08"/><polygon class="b5c8e6b2-7616-473a-bd2c-fbb3f5276586" points="326.8 241.83 318.02 226.63 303.73 236.9 310.75 249.07 326.8 241.83 326.8 241.83"/><polygon class="b5c8e6b2-7616-473a-bd2c-fbb3f5276586" points="312.21 205.4 312.21 187.85 294.7 189.6 294.7 203.66 312.21 205.4 312.21 205.4"/><polygon class="b5c8e6b2-7616-473a-bd2c-fbb3f5276586" points="317.8 166.56 326.57 151.37 310.53 144.12 303.5 156.29 317.8 166.56 317.8 166.56"/><polygon class="b5c8e6b2-7616-473a-bd2c-fbb3f5276586" points="342.05 135.72 357.25 126.95 346.98 112.65 334.81 119.68 342.05 135.72 342.05 135.72"/><path class="a93e143d-62e4-4620-a3e4-5772e840aa06" d="M123.34,52.88a18.31,18.31,0,1,1,16.53,19.93,18.31,18.31,0,0,1-16.53-19.93m16.3,22.47a20.86,20.86,0,1,0-18.83-22.71,20.86,20.86,0,0,0,18.83,22.71m-16.3-22.47a18.31,18.31,0,1,1,16.53,19.93,18.31,18.31,0,0,1-16.53-19.93m16.3,22.47a20.86,20.86,0,1,0-18.83-22.71,20.86,20.86,0,0,0,18.83,22.71m-16.3-22.47a18.31,18.31,0,1,1,16.53,19.93,18.31,18.31,0,0,1-16.53-19.93m-2.53-.24A20.86,20.86,0,1,0,143.5,33.8a20.87,20.87,0,0,0-22.69,18.84m-3.23-.29a24.1,24.1,0,1,1,21.76,26.22,24.13,24.13,0,0,1-21.76-26.22m19.92,46A44,44,0,1,0,97.8,50.51a44,44,0,0,0,39.7,47.85M123.34,52.88a18.31,18.31,0,1,1,16.53,19.93,18.31,18.31,0,0,1-16.53-19.93m16.3,22.47a20.86,20.86,0,1,0-18.83-22.71,20.86,20.86,0,0,0,18.83,22.71m-16.3-22.47a18.31,18.31,0,1,1,16.53,19.93,18.31,18.31,0,0,1-16.53-19.93m16.3,22.47a20.86,20.86,0,1,0-18.83-22.71,20.86,20.86,0,0,0,18.83,22.71m-16.3-22.47a18.31,18.31,0,1,1,16.53,19.93,18.31,18.31,0,0,1-16.53-19.93m16.3,22.47a20.86,20.86,0,1,0-18.83-22.71,20.86,20.86,0,0,0,18.83,22.71"/><polygon class="a93e143d-62e4-4620-a3e4-5772e840aa06" points="137.06 11.83 153.89 13.39 154.07 1.39 139.1 0 137.06 11.83 137.06 11.83"/><polygon class="a93e143d-62e4-4620-a3e4-5772e840aa06" points="168.57 20.48 179.37 33.49 187.98 25.13 178.38 13.55 168.57 20.48 168.57 20.48"/><polygon class="a93e143d-62e4-4620-a3e4-5772e840aa06" points="184.74 48.88 183.18 65.71 195.18 65.89 196.57 50.92 184.74 48.88 184.74 48.88"/><polygon class="a93e143d-62e4-4620-a3e4-5772e840aa06" points="176.09 80.39 163.08 91.19 171.44 99.8 183.02 90.2 176.09 80.39 176.09 80.39"/><polygon class="a93e143d-62e4-4620-a3e4-5772e840aa06" points="147.69 96.56 130.86 95 130.68 107 145.66 108.39 147.69 96.56 147.69 96.56"/><polyline class="a93e143d-62e4-4620-a3e4-5772e840aa06" points="116.18 87.91 105.38 74.9 96.77 83.27 106.37 94.84 116.18 87.91"/><polygon class="a93e143d-62e4-4620-a3e4-5772e840aa06" points="100.01 59.51 101.58 42.68 89.57 42.5 88.18 57.47 100.01 59.51 100.01 59.51"/><polygon class="a93e143d-62e4-4620-a3e4-5772e840aa06" points="108.66 28 121.67 17.2 113.31 8.59 101.74 18.19 108.66 28 108.66 28"/><path class="e42e306a-1461-4459-bb6c-f183f329aa9e" d="M222.34,128.73a24.66,24.66,0,1,1,24,25.3,24.66,24.66,0,0,1-24-25.3ZM194.2,128a52.81,52.81,0,1,0,54.18-51.41A52.82,52.82,0,0,0,194.2,128Z"/><polygon class="e42e306a-1461-4459-bb6c-f183f329aa9e" points="238.18 78.51 258.48 79.04 257.74 64.64 239.68 64.16 238.18 78.51 238.18 78.51"/><polygon class="e42e306a-1461-4459-bb6c-f183f329aa9e" points="276.64 86.37 290.62 101.1 300.28 90.39 287.85 77.29 276.64 86.37 276.64 86.37"/><polygon class="e42e306a-1461-4459-bb6c-f183f329aa9e" points="298.28 119.12 297.75 139.43 312.15 138.68 312.62 120.62 298.28 119.12 298.28 119.12"/><polygon class="e42e306a-1461-4459-bb6c-f183f329aa9e" points="290.42 157.59 275.69 171.56 286.39 181.22 299.5 168.79 290.42 157.59 290.42 157.59"/><polygon class="e42e306a-1461-4459-bb6c-f183f329aa9e" points="257.67 179.23 237.36 178.69 238.1 193.09 256.16 193.57 257.67 179.23 257.67 179.23"/><polygon class="e42e306a-1461-4459-bb6c-f183f329aa9e" points="219.2 171.37 205.22 156.63 195.57 167.34 208 180.44 219.2 171.37 219.2 171.37"/><polygon class="e42e306a-1461-4459-bb6c-f183f329aa9e" points="197.56 138.61 198.1 118.31 183.7 119.05 183.22 137.11 197.56 138.61 197.56 138.61"/><polygon class="e42e306a-1461-4459-bb6c-f183f329aa9e" points="205.42 100.15 220.16 86.17 209.45 76.51 196.34 88.94 205.42 100.15 205.42 100.15"/><path class="e42e306a-1461-4459-bb6c-f183f329aa9e" d="M247.77,134.59a5.73,5.73,0,1,1,5.88-5.58,5.73,5.73,0,0,1-5.88,5.58ZM261,116.44l-17.31-5.14-13.1,12.44,4.22,17.55,17.3,5.13L265.24,134,261,116.44Z"/><path class="b5c8e6b2-7616-473a-bd2c-fbb3f5276586" d="M411.49,547.4l8.09-55.66,2.35,1.06,3.75,1.7,16.23,7.33,14.56,6.58,9.58,4.32,14.55,6.58,8,3.61a7.68,7.68,0,0,1-2.07,14.26l-3.37.46h0l-5.3.72L462,540.51l-10.42,1.42-15.82,2.16-6.62.9-17.66,2.41"/><path class="f6a380c2-3521-402a-974a-54da67941b57" d="M413,536.8a75,75,0,0,1,2.24-28.06h1.84L413,536.8"/><path class="eaba91da-9ca6-4bc6-bac9-525e671f4347" d="M417.28,507.59h-1.65a39.41,39.41,0,0,1,2.56-6.24l-.91,6.25"/><path class="bc99bc35-d1de-4d7d-96b2-bf07a01cb295" d="M415.27,508.74l.36-1.16h1.65l-.17,1.15h-1.84"/><path class="f6a380c2-3521-402a-974a-54da67941b57" d="M485.48,521.46l-.21,0-4.67-2.11-14.55-6.58-9-4.05h.1l8.89,4,14.55,6.57,4.88,2.2m-30.61-13.82h-.1l-12.86-5.81-2.47-1.12,2.48,1.08,12.95,5.85"/><polyline class="bc99bc35-d1de-4d7d-96b2-bf07a01cb295" points="457.06 508.68 456.47 508.41 454.77 507.64 454.87 507.64 456.47 508.37 457.15 508.68 457.06 508.68"/><path class="a8abbcd8-38fa-4bd4-90ae-6443ac8e5d3b" d="M414.74,546.68c-.71-1.48-1-4.2-1.2-5.74s-.38-2.77-.51-4.14l4.08-28.06.17-1.15.91-6.25c.38-.72.77-1.4,1.17-2a35.2,35.2,0,0,0,3-6l17.11,7.41,2.47,1.12,12.86,5.81,1.7.77.59.27,9,4.05,14.55,6.58,4.67,2.11a94.08,94.08,0,0,0-17.12-1.65c-37.87,0-50,26.68-50,26.68l-3.38.23"/><polygon class="f738c539-4fdd-44df-a989-c1ada9d82004" points="462.01 540.51 466.05 512.74 480.6 519.31 477.83 538.36 462.01 540.51 462.01 540.51"/><polygon class="f738c539-4fdd-44df-a989-c1ada9d82004" points="435.77 544.09 441.91 501.83 456.47 508.41 451.59 541.93 435.77 544.09 435.77 544.09"/><path class="b5c8e6b2-7616-473a-bd2c-fbb3f5276586" d="M269.5,546H215.33l.68-2.39,1.1-3.81,4.74-16.49,4.25-14.78,2.8-9.74L233.15,484l2.33-8.12a7.39,7.39,0,0,1,13.88,0l.91,3.15h0l1.42,5,4.24,14.77,2.8,9.74L263,523.33l1.78,6.18L269.5,546"/><polyline class="b5c8e6b2-7616-473a-bd2c-fbb3f5276586" points="271.44 560.08 200.24 560.08 211.59 531.96 211.59 531.96 282.8 531.96 271.44 560.08 271.44 560.08"/><polyline class="f738c539-4fdd-44df-a989-c1ada9d82004" points="255.94 498.81 228.9 498.81 233.15 484.04 251.69 484.04 255.94 498.81"/><polyline class="f738c539-4fdd-44df-a989-c1ada9d82004" points="262.98 523.33 221.85 523.33 226.1 508.55 258.73 508.55 262.98 523.33"/><path class="a0d4f17b-c209-4b90-9a43-8c5c66f40061" d="M214.57,542.24a55.39,55.39,0,0,0,13.73,4.18,74.52,74.52,0,0,0,14.22,1.09c2.38-.16,4.77-.17,7.13-.55,1.18-.15,2.37-.23,3.55-.44s2.35-.44,3.53-.65c.59-.11,1.18-.19,1.76-.32l1.75-.44,3.5-.85c2.33-.63,4.61-1.4,7-2-2.19,1-4.39,2.08-6.65,3l-3.46,1.18-1.74.58c-.59.17-1.18.3-1.77.45-1.19.3-2.38.59-3.57.86s-2.42.4-3.62.6a71.8,71.8,0,0,1-7.33.67A58.72,58.72,0,0,1,228,548a39.48,39.48,0,0,1-13.4-5.75"/><path class="f6a380c2-3521-402a-974a-54da67941b57" d="M221.14,525.8l.67-2.47L226,508.74h0l-4.19,14.59-.71,2.47M232,488.14l.06-.39L233.1,484l1.22-4.25h.05L233.15,484l-1.18,4.1"/><polyline class="eaba91da-9ca6-4bc6-bac9-525e671f4347" points="226.34 507.58 228.86 498.81 232.03 487.75 231.97 488.13 228.9 498.81 226.38 507.58 226.34 507.58"/><path class="bce1bbb3-c6f8-4de4-bae2-0aade96a3a38" d="M234.37,479.79h-.05l.2-.71a1.48,1.48,0,0,1,0,.21l-.14.5"/><polyline class="bc99bc35-d1de-4d7d-96b2-bf07a01cb295" points="226.04 508.74 226 508.74 226.06 508.55 226.34 507.58 226.38 507.58 226.1 508.55 226.04 508.74"/><path class="a8abbcd8-38fa-4bd4-90ae-6443ac8e5d3b" d="M250.06,532H219.47l1.67-6.16.71-2.47L226,508.74l.06-.19.28-1,2.52-8.77L232,488.14l1.18-4.1,1.22-4.25.14-.5c-.06,1.62-.08,3.2-.07,4.75h-1.29l-4.25,14.77h6.9a67.61,67.61,0,0,0,2.56,9.74H226.1l-4.25,14.78h24.22c1,1.36,2,2.61,3.06,3.77l.93,4.86"/><path class="a8abbcd8-38fa-4bd4-90ae-6443ac8e5d3b" d="M241.16,547.52a74,74,0,0,1-12.86-1.1c-2-.36-4-.8-6-1.35a34.76,34.76,0,0,0-5.2-1.73c-.22-.08-.45-.17-.67-.27l3-11.11h30.59l2.77,14.62c-1.06.17-2.13.25-3.18.38-2.36.38-4.75.39-7.13.55h-1.36m19.43-2.5-1.83-9.63a36.78,36.78,0,0,0,8.92,4.43l.66,3.09c-1.54.46-3.06.94-4.6,1.35l-3.15.76"/><path class="eaba91da-9ca6-4bc6-bac9-525e671f4347" d="M235.8,498.81h-6.9L233.15,484h1.29a83.84,83.84,0,0,0,1.36,14.77"/><path class="eaba91da-9ca6-4bc6-bac9-525e671f4347" d="M246.07,523.33H221.85l4.25-14.78h12.26a55.77,55.77,0,0,0,7.71,14.78"/><path class="bc99bc35-d1de-4d7d-96b2-bf07a01cb295" d="M240.66,548.35c-7.52,0-13.86-1.25-18.09-3.17l-.24-.11c2,.55,4,1,6,1.35a74,74,0,0,0,12.86,1.1h1.36c2.38-.16,4.77-.17,7.13-.55,1-.13,2.12-.21,3.18-.38l.13.73a75.25,75.25,0,0,1-12.3,1m20-2.72-.11-.61,3.15-.76c1.54-.41,3.06-.89,4.6-1.35l0,.11c-1.31.89-3.87,1.5-5.3,1.93-.79.24-1.57.46-2.36.68m-43.57-2.29-.7-.16,0-.11c.22.1.45.19.67.27"/><polygon class="b5c8e6b2-7616-473a-bd2c-fbb3f5276586" points="396.75 547.3 407.39 474.14 434.58 490 423.95 563.16 396.75 547.3 396.75 547.3"/><path class="a0d4f17b-c209-4b90-9a43-8c5c66f40061" d="M423.85,520.28c-1.52,13.52-6.42,24.06-10.94,23.56S406,532,407.49,518.44s6.42-24.06,10.93-23.55,6.95,11.88,5.43,25.39Z"/><path class="ac6c4384-b59a-41ad-962b-7a45670c2ec7" d="M442.76,569.24c2.52.84,74.46.63,77.2-1.11,1-.65,1.62-11.14,2-23.82.08-2.74.13-5.56.18-8.44,0-3.4.1-6.85.12-10.19.08-15-.12-28.25-.12-28.25H475.26l0,28.25v10.19l.24,8.44S448,556.71,445.24,559s-5,9.46-2.48,10.29Z"/><path class="b8fa43af-017e-419a-82c2-0a070c648cc3" d="M442.76,569.24c2.52.84,74.46.63,77.2-1.11,1-.65,1.62-11.14,2-23.82.08-2.74.13-5.56.18-8.44,0-3.4.1-6.85.12-10.19H475.29v10.19l.24,8.44S448,556.71,445.24,559s-5,9.46-2.48,10.29Z"/><path class="b5c8e6b2-7616-473a-bd2c-fbb3f5276586" d="M442.55,569.35c1.64.54,32.28.65,54.59.18,5.16-.1,9.88-.25,13.69-.41,5.25-.24,8.77-.53,9.34-.89,1.27-.82,1.87-16.2,2.16-32.44H475.27l.24,8.49S447.85,556.75,445,559s-5,9.51-2.48,10.36Z"/><path class="a0d4f17b-c209-4b90-9a43-8c5c66f40061" d="M443.58,566.45c12.12-.33,61.06-.53,73.07.06v.08c-12,.59-60.95.39-73.07.06-.26,0-.26-.19,0-.2Z"/><path class="a0d4f17b-c209-4b90-9a43-8c5c66f40061" d="M473.79,541.59c4.77-.9,10.61-.19,14.26,3.2.14.13,0,.33-.2.28a67.07,67.07,0,0,0-14-2.88.3.3,0,0,1,0-.6Z"/><path class="a0d4f17b-c209-4b90-9a43-8c5c66f40061" d="M470.35,543.67c4.77-.9,10.61-.18,14.26,3.21.15.13,0,.33-.2.28a67.07,67.07,0,0,0-14-2.88.31.31,0,0,1,0-.61Z"/><path class="a0d4f17b-c209-4b90-9a43-8c5c66f40061" d="M466.91,545.76c4.77-.9,10.61-.19,14.26,3.2.15.13,0,.33-.2.28a67.07,67.07,0,0,0-14-2.88.3.3,0,0,1,0-.6Z"/><path class="a0d4f17b-c209-4b90-9a43-8c5c66f40061" d="M463.47,547.85c4.77-.91,10.61-.19,14.27,3.2.14.13-.05.33-.2.28a67.29,67.29,0,0,0-14.05-2.88.3.3,0,0,1,0-.6Z"/><path class="a0d4f17b-c209-4b90-9a43-8c5c66f40061" d="M537.72,297.86s-12.66,125.18-13,126.76c0,.21-.13,2.62-.25,6.55-.68,21.55-1.83,110.06-1.83,110.06H471s2.83-100.9,4.77-119.47c2.46-23.68,18-123.9,18-123.9Z"/><path class="a93e143d-62e4-4620-a3e4-5772e840aa06" d="M518.6,429q2.4-40.69,7.19-81.18c1.81-15.21,4-30.37,6.16-45.53,0-.13.23-.13.21,0-4,27-6.83,54.17-9.27,81.34s-4.13,54.32-5.25,81.54c-.63,15.42-1.1,49.3-1.6,64.73a.29.29,0,0,1-.57,0c.73-27.5,1.52-73.45,3.13-100.9Z"/><path class="a93e143d-62e4-4620-a3e4-5772e840aa06" d="M473.76,532.81c1.35-.18,2.82-.12,4.2-.17,1.55,0,3.1-.06,4.65-.12,3-.12,6-.19,9-.24q9-.15,18.1.12l5,.18c1.77.07,3.54.23,5.31.22.13,0,.13.16,0,.16-3,0-6.11.26-9.14.37s-6,.16-9,.2c-6,.09-12.08,0-18.1-.19-1.66-.06-3.31-.08-5-.14-.89,0-1.77-.07-2.66-.11s-1.57,0-2.36-.07a.11.11,0,0,1,0-.21Z"/><path class="a93e143d-62e4-4620-a3e4-5772e840aa06" d="M537.72,297.86s-12.66,125.18-13,126.76c0,.21-.13,2.62-.25,6.55L500.16,297.86Z"/><path class="ac6c4384-b59a-41ad-962b-7a45670c2ec7" d="M523.92,569.56c2.6.55,74.07-7.56,76.61-9.59,1-.76.38-11.25-.67-23.89-.23-2.73-11.61-46.62-11.61-46.62l-48.2,5.15,13.71,46.57s-26,15.35-28.51,17.88-3.91,10-1.33,10.5Z"/><path class="b8fa43af-017e-419a-82c2-0a070c648cc3" d="M600.53,560c-2.53,2-74,10.14-76.61,9.59s-1.2-8,1.34-10.5,28.5-17.89,28.5-17.89L549.29,526l46.56-6.8c2,8.18,3.92,15.88,4,16.9,1.06,12.66,1.63,23.14.68,23.9Z"/><path class="b5c8e6b2-7616-473a-bd2c-fbb3f5276586" d="M523.72,569.69c1.69.35,32.15-2.9,54.28-5.82,5.12-.67,9.79-1.33,13.56-1.92,5.19-.81,8.66-1.49,9.19-1.91.94-.77.49-11.54-.89-24a49.41,49.41,0,0,0-1.93-8.51l-46.33,6.25,2.12,7.32s-26.12,15.44-28.67,18-3.93,10-1.33,10.57Z"/><path class="a0d4f17b-c209-4b90-9a43-8c5c66f40061" d="M524.42,566.7c12-1.67,60.64-7.24,72.64-8v.07c-11.88,1.91-60.54,7.09-72.63,8.09-.25,0-.27-.16,0-.19Z"/><path class="a0d4f17b-c209-4b90-9a43-8c5c66f40061" d="M551.72,538.66c4.64-1.42,10.52-1.35,14.53,1.62.15.11,0,.33-.17.3a67.64,67.64,0,0,0-14.27-1.32.31.31,0,0,1-.09-.6Z"/><path class="a0d4f17b-c209-4b90-9a43-8c5c66f40061" d="M548.53,541.12c4.64-1.43,10.52-1.36,14.53,1.61.15.11,0,.33-.17.3a67.58,67.58,0,0,0-14.27-1.32.3.3,0,0,1-.09-.59Z"/><path class="a0d4f17b-c209-4b90-9a43-8c5c66f40061" d="M545.34,543.57c4.64-1.43,10.52-1.36,14.53,1.61.16.11,0,.33-.17.3a67.58,67.58,0,0,0-14.27-1.32.3.3,0,0,1-.09-.59Z"/><path class="a0d4f17b-c209-4b90-9a43-8c5c66f40061" d="M542.15,546c4.65-1.43,10.53-1.36,14.53,1.61.16.11,0,.33-.17.3a67.58,67.58,0,0,0-14.27-1.32.3.3,0,0,1-.09-.59Z"/><path class="a0d4f17b-c209-4b90-9a43-8c5c66f40061" d="M493.18,297.16s2.26,13.44,9.57,22.63c1.75,2.2,7.13,4.25,9.9,6.28,0,0,9.21,98.36,10.47,112.86,1.73,19.86,24.72,101.39,24.72,101.39l53.26-9.11s-22.29-83.33-26.85-102.51c-1-4.41-9.33-95.06-9.07-97,3.11-23.13-7.93-37.5-7.93-37.5l-64.07,3Z"/><path class="a93e143d-62e4-4620-a3e4-5772e840aa06" d="M535.62,299.26a17.26,17.26,0,0,0,6.32,9.07,21.35,21.35,0,0,0,11.47,3.93c.7.06.76,1.11,0,1.11-8.42.05-16.93-5.33-18.17-14.06,0-.2.3-.24.35-.05Z"/><path class="a93e143d-62e4-4620-a3e4-5772e840aa06" d="M501.75,319.41a46.45,46.45,0,0,1,8.7,4.61c2.89,1.79,5.56,3.89,8.35,5.82l-.1.18c-2.93-1.68-6-3.14-8.87-4.88a55.37,55.37,0,0,1-8.2-5.5l.12-.23Z"/><path class="a93e143d-62e4-4620-a3e4-5772e840aa06" d="M500.57,301.85c.45,1.93,1,3.84,1.51,5.75s.86,3.64,1.42,5.41a9.22,9.22,0,0,0,2.75,4.45c.74.63,1.55,1.18,2.34,1.75.42.31.88.61,1.32.92q-.11-.39-.18-.78-.25-1.1-.48-2.19-.53-2.45-1-4.89c-.64-3.21-1.24-6.45-2.06-9.61l.2-.06c.95,3.13,2,6.22,2.83,9.38.41,1.55,2,9.23,2.07,9.77s.15,1.13.2,1.7a7.2,7.2,0,0,1,.08,1.73.14.14,0,0,1-.26,0h0a6.79,6.79,0,0,1-.57-1.66c-.17-.55-.32-1.1-.44-1.66,0-.2-.09-.41-.12-.61-.79-.43-1.52-1-2.26-1.49s-1.6-1-2.35-1.61a8.74,8.74,0,0,1-3-4.21,31.31,31.31,0,0,1-1.16-5.52c-.34-2.18-.63-4.38-1-6.56,0-.12.17-.19.2-.06Z"/><path class="a93e143d-62e4-4620-a3e4-5772e840aa06" d="M550.1,530.31c1.29-.42,14.47-3.25,17.4-3.86,5.9-1.23,26.24-4.47,28-4.81.13,0,.16.13,0,.16-3,.56-11.78,2.63-17.69,4s-26.89,4.71-27.68,4.76c-.14,0-.16-.16,0-.21Z"/><path class="a93e143d-62e4-4620-a3e4-5772e840aa06" d="M576.66,473.81c-3.75-14.56-7.84-29.07-10.45-43.88-1.31-7.45-2-14.95-2.64-22.48s-1.19-15.11-1.78-22.66-1.19-15.15-1.79-22.72-1.3-15.3-1.36-23c-.11-12.45,2.15-26-3.2-37.69a29.5,29.5,0,0,0-2.14-3.85.22.22,0,0,0-.38.24c6.58,11.38,4.86,25.1,4.61,37.67-.15,7.43.36,14.85.93,22.26q.87,11.37,1.77,22.72T562,403.16c.59,7.45,1.15,14.91,2.17,22.32,2,14.63,6,28.93,9.73,43.21,3.82,14.69,7.59,29.42,11.84,44,.53,1.82,1,3.65,1.56,5.48,0,.16.28.08.24-.08q-5.23-22.19-10.9-44.27Z"/><path class="a0d4f17b-c209-4b90-9a43-8c5c66f40061" d="M501.81,174.33c3.93-4.24,10.53-5.13,16.91-3.75s14,4.63,14.51,14.85c.43,8.3-2.4,16.32-2.51,25.56s10.42,32-7.3,42.62c-15.91,9.51-47.68-.27-48.31-20.62-.51-16.13,19.74-30.57,22-36.9s.43-17.12,4.74-21.76"/><path class="a0d4f17b-c209-4b90-9a43-8c5c66f40061" d="M498.78,183.35a34.29,34.29,0,0,1-3,13.57,12.89,12.89,0,0,1-2,3c-.79.91-1.63,1.77-2.46,2.62-1.69,1.69-3.36,3.37-4.94,5.12a46.66,46.66,0,0,0-7.9,11.4,34.64,34.64,0,0,0-3.29,13.28,29.82,29.82,0,0,1,.33-6.93,32.65,32.65,0,0,1,2-6.73,41.32,41.32,0,0,1,7.81-11.85c1.61-1.77,3.33-3.45,5-5.12a23.86,23.86,0,0,0,4.5-5.26,29.2,29.2,0,0,0,2.53-6.36,55.29,55.29,0,0,0,1.5-6.75Z"/><path class="a0d4f17b-c209-4b90-9a43-8c5c66f40061" d="M532.66,192.38c-.21,4.7-.59,9.39-.54,14.06a53.65,53.65,0,0,0,.49,7c.33,2.27,1,4.56,1.55,6.86s1.05,4.64,1.4,7a38.65,38.65,0,0,1,.35,7.13,24.26,24.26,0,0,1-1.5,7,17.43,17.43,0,0,1-4.21,5.87,18.62,18.62,0,0,0,3.57-6.08,23.58,23.58,0,0,0,1.07-6.82,57.36,57.36,0,0,0-2-13.82,68.94,68.94,0,0,1-1.5-7,44.55,44.55,0,0,1-.26-7.11,109.9,109.9,0,0,1,1.61-14Z"/><path class="ac6c4384-b59a-41ad-962b-7a45670c2ec7" d="M517.73,223.41c-1.92,7.85-24.7,81.33-29.21,82.35-13.28,3-29.23,5.19-29-5.71C459.9,283,492,238,507.44,223c10.13-9.85,12.18-7.31,10.29.43Z"/><path class="f738c539-4fdd-44df-a989-c1ada9d82004" d="M487.34,243.79,511,249.44s6.78-22.95,7.88-28.88-3.54-5.87-10.69,1.15-20.84,22.08-20.84,22.08Z"/><path class="a0d4f17b-c209-4b90-9a43-8c5c66f40061" d="M491,241.1c-.17,0-.24.06-.08.1,8.07,2.08,17.49,3.92,21,4.2v-.09c-3.34-1.12-19.11-3.81-20.9-4.21Z"/><path class="f738c539-4fdd-44df-a989-c1ada9d82004" d="M495.22,271.73,490.82,308s58.87-.53,73.46-1.9c0,0-13.52-67.23-29.63-83.92-8.06-8.34-17.27-7.49-23-1.38-1.45,1.54-18.65,25.42-20.3,34.43-1.45,7.95,3.88,16.53,3.88,16.53Z"/><path class="b5c8e6b2-7616-473a-bd2c-fbb3f5276586" d="M490.81,308l4.41-36.24s-5.32-8.58-3.88-16.53c1.66-9,18.85-32.89,20.3-34.43a16.43,16.43,0,0,1,1.74-1.61l-7.53,21.7,22.36-23.41a18.63,18.63,0,0,1,6.44,4.71c16.11,16.68,29.63,83.92,29.63,83.92-14.59,1.37-73.47,1.89-73.47,1.89Z"/><path class="f738c539-4fdd-44df-a989-c1ada9d82004" d="M559.77,286.45l-66.59,2.06.69-5.78,64.46-2q.76,3,1.44,5.69Z"/><path class="f738c539-4fdd-44df-a989-c1ada9d82004" d="M562.19,296.49l-70.26,2.15.72-5.78,68.18-2.08c.51,2.06,1,4,1.36,5.71Z"/><path class="ac6c4384-b59a-41ad-962b-7a45670c2ec7" d="M525.2,219.75c-.35,1.13-6.37,8.25-11.63,7.65-1.71-.2-1-9.6-1-9.6l-.11-.7-1.51-9.88,11.92-6.55,1.71-.86s.24,2.73.5,6.13c0,.16,0,.31,0,.48s0,.38,0,.56c0,.5.09,1,.12,1.54s.06.77.07,1.19l.06,1.23a64.56,64.56,0,0,1-.18,8.81Z"/><path class="a0d4f17b-c209-4b90-9a43-8c5c66f40061" d="M525,205.94a20,20,0,0,1-12.62,11.16l-1.51-9.88,11.92-6.55,1.71-.86s.24,2.73.5,6.13Z"/><path class="ac6c4384-b59a-41ad-962b-7a45670c2ec7" d="M497,190.68c-3.23,17.22,6.72,21.11,10.44,21.8,3.37.63,14.93,2.34,19.93-14.46s-2-23.75-9.63-25.6-17.51,1-20.74,18.26"/><path class="a0d4f17b-c209-4b90-9a43-8c5c66f40061" d="M501.61,186.39c.41.06.8.05,1.21.07a2,2,0,0,0,1.25-.17.61.61,0,0,0,.19-.73,1.52,1.52,0,0,0-1.37-.75,2.29,2.29,0,0,0-1.59.41.66.66,0,0,0,.31,1.17Z"/><path class="a0d4f17b-c209-4b90-9a43-8c5c66f40061" d="M513.44,188.9a9.63,9.63,0,0,1-1.12-.44,2,2,0,0,1-1.07-.67.63.63,0,0,1,.13-.75,1.55,1.55,0,0,1,1.56-.11,2.33,2.33,0,0,1,1.28,1,.67.67,0,0,1-.78.94Z"/><path class="a0d4f17b-c209-4b90-9a43-8c5c66f40061" d="M510,192.88l.07.12c-.26,1.17-.36,2.55.63,3.14l0,.06c-1.26-.43-1.1-2.26-.67-3.32Z"/><path class="a0d4f17b-c209-4b90-9a43-8c5c66f40061" d="M511.32,191.86c1.91.21,1.34,4-.43,3.82s-1.17-4,.43-3.82Z"/><path class="a0d4f17b-c209-4b90-9a43-8c5c66f40061" d="M512,192.17c.3.27.57.69,1,.79s.87-.23,1.23-.56l.06,0c-.1.73-.49,1.44-1.29,1.43s-1.14-.73-1.22-1.49c0-.15.14-.33.26-.22Z"/><path class="a0d4f17b-c209-4b90-9a43-8c5c66f40061" d="M503.26,191.58l-.11.09c-.13,1.19-.48,2.53-1.61,2.77v.06c1.34,0,1.78-1.77,1.72-2.92Z"/><path class="a0d4f17b-c209-4b90-9a43-8c5c66f40061" d="M502.37,190.2c-1.88-.42-2.57,3.37-.82,3.76s2.4-3.42.82-3.76Z"/><path class="a0d4f17b-c209-4b90-9a43-8c5c66f40061" d="M501.54,190.3c-.34.15-.7.46-1.06.42s-.65-.52-.85-1l-.06,0c-.16.72-.05,1.52.62,1.79s1.19-.3,1.49-1c.06-.13,0-.35-.14-.29Z"/><path class="a0d4f17b-c209-4b90-9a43-8c5c66f40061" d="M508.58,202.49c-.27.28-.54.68-1,.73a3.07,3.07,0,0,1-1.3-.25l-.05.07a1.64,1.64,0,0,0,1.54.59,1.28,1.28,0,0,0,.9-1.09l-.12,0Z"/><path class="a0d4f17b-c209-4b90-9a43-8c5c66f40061" d="M504,197.23s-.53,1.72-.66,2.55c0,.07.18.14.46.21h0a4,4,0,0,0,4.07-.85l-.1-.14a6,6,0,0,1-3.77.45c0-.24,1-2.91.87-2.94a7,7,0,0,0-1.95.12c1-3.62,2.56-7,3.5-10.66l-.21-.09A61,61,0,0,0,502,197.2c-.14.46,1.67.11,2,0Z"/><path class="a0d4f17b-c209-4b90-9a43-8c5c66f40061" d="M503.94,199.86a4.88,4.88,0,0,0,1.65,1.85,2.22,2.22,0,0,0,1.3.33c1-.08,1.18-.94,1.15-1.72a5.37,5.37,0,0,0-.22-1.23,6.29,6.29,0,0,1-3.88.77Z"/><path class="acb324ae-211f-4baf-a2b8-9da1cc2f57dc" d="M505.59,201.71a2.22,2.22,0,0,0,1.3.33c1-.08,1.18-.94,1.15-1.72a2.27,2.27,0,0,0-2.45,1.39Z"/><path class="ac6c4384-b59a-41ad-962b-7a45670c2ec7" d="M524.41,198.83s4.35-5.07,6.69-3.46-1.31,9.21-4.32,10a3,3,0,0,1-3.8-2l1.43-4.56Z"/><path class="a0d4f17b-c209-4b90-9a43-8c5c66f40061" d="M530,197.52v.08c-2.12.62-3.38,2.4-4.32,4.28a1.64,1.64,0,0,1,2.48-.2l-.07.1a1.83,1.83,0,0,0-2.06.44,8.85,8.85,0,0,0-1.11,1.52c-.11.17-.43,0-.34-.16l0-.05c.2-2.6,2.58-6,5.39-6Z"/><path class="a0d4f17b-c209-4b90-9a43-8c5c66f40061" d="M526.74,197.4c-1.86-.38-6-6.25-4.87-15.34,0,0-.46,8.23,0,9.52s-2.32-3.3-1.5-10.64a29.74,29.74,0,0,1-8.06,2.81c-3.59.48-5.69.14-5.91-.14s5.1-1.16,6.7-2.55c0,0-9.79,3-14.07,2.68-.5,0,.36-10.19,7.52-13.53s16.86,2.76,19.26,5.85c0,0,3.21.94,6.08,6.28s-3.13,15.46-5.13,15.06"/><path class="b5c8e6b2-7616-473a-bd2c-fbb3f5276586" d="M498.81,179.18s6.35-18.79,23.15-13.26,10.75,24.41,10.75,24.41l-33.9-11.15"/><polyline class="b5c8e6b2-7616-473a-bd2c-fbb3f5276586" points="533.53 192.08 497.11 180.1 497.99 177.43 534.41 189.41 533.53 192.08"/><polyline class="b5c8e6b2-7616-473a-bd2c-fbb3f5276586" points="515.93 183.33 508.35 180.84 516.21 162.96 523.79 165.45 515.93 183.33"/><polyline class="a8abbcd8-38fa-4bd4-90ae-6443ac8e5d3b" points="515.93 183.33 508.35 180.84 516.21 162.96 523.79 165.45 515.93 183.33"/><path class="a93e143d-62e4-4620-a3e4-5772e840aa06" d="M522.28,304.37l-33.9,13.88L452.2,229.93a10.79,10.79,0,0,1,5.9-14.08l13.92-5.7A10.79,10.79,0,0,1,486.09,216l36.19,88.33Z"/><polygon class="a93e143d-62e4-4620-a3e4-5772e840aa06" points="520.46 315.69 497.62 325.05 493.9 315.99 516.75 306.63 520.46 315.69 520.46 315.69"/><polygon class="f738c539-4fdd-44df-a989-c1ada9d82004" points="552.62 416.43 545.37 419.4 505.41 321.86 512.67 318.89 552.62 416.43 552.62 416.43"/><path class="f738c539-4fdd-44df-a989-c1ada9d82004" d="M559.82,423.49s1.69,16.82,1.21,17l-2.4,1,0,0-2.4,1c-.48.2-11.07-13-11.07-13l.25-10.09,7.19-2.95,7.26,7Z"/><polygon class="a0d4f17b-c209-4b90-9a43-8c5c66f40061" points="493.61 304.94 487.69 307.36 456.56 231.37 462.48 228.95 493.61 304.94 493.61 304.94"/><polygon class="a0d4f17b-c209-4b90-9a43-8c5c66f40061" points="504.6 300.43 498.68 302.86 467.55 226.87 473.47 224.45 504.6 300.43 504.6 300.43"/><polygon class="a0d4f17b-c209-4b90-9a43-8c5c66f40061" points="515.58 295.93 509.67 298.36 478.54 222.37 484.46 219.95 515.58 295.93 515.58 295.93"/><path class="ac6c4384-b59a-41ad-962b-7a45670c2ec7" d="M509.26,264.37a4.48,4.48,0,0,1,.85,5.05,6.69,6.69,0,0,1,3.86,2.37c1.6,2.22-1.17,5.71-1.17,5.71a8.24,8.24,0,0,1,3.67,3.15c1.32,2.27-1,6.2-1,6.2a7.21,7.21,0,0,1,1.48,4.8c-.44,4.6-6.76,7.75-10.75,9.79s-17.24,4.1-19.73,4.75l-13.33-25.53s15.3-14.26,20.34-16c4.25-1.47,13.21-2.71,15.75-.3Z"/><path class="ac6c4384-b59a-41ad-962b-7a45670c2ec7" d="M475,279c-4.58,3.5-18.29,17-15.06,23.9s14.24,6.19,29.54,2.67L475,279Z"/><path class="a0d4f17b-c209-4b90-9a43-8c5c66f40061" d="M509.72,269.1c-4.89.47-9.37,2.37-14,4l.06.16c4.54-1.68,9.35-2.44,13.94-3.93a.12.12,0,0,0,0-.23Z"/><path class="a0d4f17b-c209-4b90-9a43-8c5c66f40061" d="M512.54,277.21a12.86,12.86,0,0,0-3.17,1.06c-1.1.46-2.18.93-3.26,1.42q-3.25,1.47-6.41,3.1l.05.16c2.16-1,4.33-1.91,6.53-2.8l3.3-1.29a15.86,15.86,0,0,0,3.07-1.34.17.17,0,0,0-.11-.31Z"/><path class="a0d4f17b-c209-4b90-9a43-8c5c66f40061" d="M515.4,286.89a8.86,8.86,0,0,0-2.8,1.11l-2.94,1.39c-2,.91-3.92,1.82-5.91,2.66l.05.16c2-.85,4.07-1.67,6.09-2.53q1.5-.63,3-1.29a8.54,8.54,0,0,0,2.59-1.4l-.05-.1Z"/><path class="a0d4f17b-c209-4b90-9a43-8c5c66f40061" d="M474.37,279.23a44.48,44.48,0,0,0-4.54,3.87l-1.07,1.11-.46.3c-.65.42-1.29.87-1.9,1.35a37,37,0,0,0-3.31,3.07l.12.12a29.59,29.59,0,0,1,3.54-2.87l.49-.33c-.6.66-1.18,1.34-1.72,2a55,55,0,0,0-4,5.82l.15.08c2.22-3.58,11.94-13.14,13-14.29s.51-.91-.3-.27Z"/><path class="ac6c4384-b59a-41ad-962b-7a45670c2ec7" d="M537.42,222.89c16.54,15.2,30.64,44.66,30.66,51.91,0,9.18-14.85,53.2-22.34,61-2.89,3-28.48-18.23-25.37-21.42,5.29-5.42,20-40.75,20.17-43.21.09-1.54-7.45-25.65-12.43-39-6.83-18.33,4.3-13.9,9.31-9.3Z"/><path class="ac6c4384-b59a-41ad-962b-7a45670c2ec7" d="M493.35,351.65a7.77,7.77,0,0,0,5.08,1.53,7.67,7.67,0,0,0,1.69,4.94c2.1,2.37,6.73.11,6.73.11a9.46,9.46,0,0,0,2.61,4.93c2.23,2.06,7.23.46,7.23.46a8.31,8.31,0,0,0,5,2.88c5.29.65,10.42-5.67,13.73-9.66s8.94-18.39,10.3-21l-25.37-21.42s-19.89,13.66-23.11,18.9c-2.71,4.42-7.31,15.76-3.91,18.36Z"/><path class="a0d4f17b-c209-4b90-9a43-8c5c66f40061" d="M498.38,353c1.76-5.38,4.81-10.34,7.8-15.09l.16.11c-3,4.69-4.88,10.3-7.71,15.1a.14.14,0,0,1-.25-.12Z"/><path class="a0d4f17b-c209-4b90-9a43-8c5c66f40061" d="M506.58,357.87a15.06,15.06,0,0,1,2-3.3c.78-1.12,1.59-2.23,2.41-3.32,1.65-2.19,3.35-4.35,5.1-6.45l.17.11c-1.64,2.18-3.24,4.39-4.79,6.65-.77,1.12-1.53,2.26-2.29,3.4a17.89,17.89,0,0,1-2.28,3.11.2.2,0,0,1-.32-.2Z"/><path class="a0d4f17b-c209-4b90-9a43-8c5c66f40061" d="M516.75,363.52a10.5,10.5,0,0,1,2-2.88c.77-1,1.54-2,2.3-3,1.51-2,3-4,4.48-6l.17.1c-1.47,2.08-2.9,4.17-4.38,6.23-.73,1-1.46,2-2.2,3a9.8,9.8,0,0,1-2.23,2.56l-.1-.08Z"/><path class="f738c539-4fdd-44df-a989-c1ada9d82004" d="M534.82,253.44l23.29-10.36S545.39,226.83,535.59,221s-11.13-.41-9.14,7.71,8.37,24.7,8.37,24.7Z"/><path class="a0d4f17b-c209-4b90-9a43-8c5c66f40061" d="M534.87,248.76c-.15.06-.15.19,0,.13,7.78-3,16.51-7,19.5-8.77l0-.08c-3.36,1-17.76,8-19.46,8.72Z"/><path class="a0d4f17b-c209-4b90-9a43-8c5c66f40061" d="M528.13,235c2.06,6.22,4.41,12.71,6.61,18.73,0,.11,1-.5,1.34-.72.15-.08,0-.21-.13-.14a5.15,5.15,0,0,1-.89.29c-2.22-6.09-4.45-12.17-6.85-18.19l-.08,0Z"/><path class="b08290fb-e570-42a2-9a87-a6baaef55936" d="M176.72,489.66c-2.59.81-76.1-.77-78.86-2.6-1-.68-1.45-11.41-1.55-24.37,0-2.8,0-5.68,0-8.63,0-3.48,0-7,.07-10.42.2-15.35.66-28.87.66-28.87l47.86.89-.56,28.87-.2,10.41-.41,8.63s27.88,13.19,30.69,15.53,4.92,9.76,2.33,10.56"/><path class="b8fa43af-017e-419a-82c2-0a070c648cc3" d="M176.72,489.66c-2.59.81-76.1-.77-78.86-2.6-1-.68-1.45-11.41-1.55-24.37,0-2.8,0-5.68,0-8.63,0-3.48,0-7,.07-10.42l48,.89-.2,10.41-.41,8.63s27.88,13.19,30.69,15.53,4.92,9.76,2.33,10.56"/><path class="b5c8e6b2-7616-473a-bd2c-fbb3f5276586" d="M177,489.78c-1.69.52-33,.05-55.8-.85-5.27-.21-10.09-.44-14-.68-5.36-.35-9-.71-9.53-1.09C96.36,486.3,96,470.57,96.05,454l48.09.89-.41,8.67s28,13.27,30.87,15.61,4.94,9.82,2.35,10.64"/><path class="a0d4f17b-c209-4b90-9a43-8c5c66f40061" d="M176,486.8c-12.39-.57-62.39-1.7-74.68-1.32v.07c12.26.84,62.28,1.56,74.67,1.45.26,0,.27-.19,0-.2"/><path class="a0d4f17b-c209-4b90-9a43-8c5c66f40061" d="M145.54,460.82c-4.85-1-10.83-.4-14.63,3-.15.13,0,.34.2.29a68.88,68.88,0,0,1,14.4-2.68.31.31,0,0,0,0-.61"/><path class="a0d4f17b-c209-4b90-9a43-8c5c66f40061" d="M149,463c-4.86-1-10.84-.39-14.64,3-.15.14,0,.34.2.3a68.36,68.36,0,0,1,14.4-2.68.31.31,0,0,0,0-.62"/><path class="a0d4f17b-c209-4b90-9a43-8c5c66f40061" d="M152.49,465.21c-4.86-1-10.84-.39-14.64,3-.14.13.05.34.21.29a68.88,68.88,0,0,1,14.4-2.68.31.31,0,0,0,0-.61"/><path class="a0d4f17b-c209-4b90-9a43-8c5c66f40061" d="M156,467.4c-4.86-1-10.84-.39-14.64,3-.15.13,0,.34.2.29a69,69,0,0,1,14.4-2.68.31.31,0,0,0,0-.62Z"/><path class="a0d4f17b-c209-4b90-9a43-8c5c66f40061" d="M146.1,458.25c-2,.74-4,1.38-5.94,2.19,1.52-2.14,2.94-4.34,4.67-6.33a28.32,28.32,0,0,1,2.64-2.73c1.48-1.29,7.29-4,6.31,1.36-.54,2.93-5.33,4.63-7.68,5.51Zm8.69-8.52c-1.86-2.68-5.45-1.57-7.53.1a26,26,0,0,0-7.74,11l.11.18a.6.6,0,0,0,.75.62c4.06-1.4,8.57-2.4,12.08-5,2-1.52,4.09-4.36,2.33-6.9Z"/><path class="a0d4f17b-c209-4b90-9a43-8c5c66f40061" d="M125,455.78c-2.09-5,4.16-3.62,5.88-2.68a29,29,0,0,1,3.16,2.11c2.12,1.58,4,3.42,5.91,5.19-2.07-.38-4.17-.57-6.26-.87-2.49-.36-7.53-1-8.69-3.75m2.13,3.52c4,1.8,8.6,1.81,12.87,2.32a.61.61,0,0,0,.6-.77l.07-.2a26.08,26.08,0,0,0-9.92-9.1c-2.38-1.19-6.13-1.5-7.37,1.51-1.18,2.85,1.43,5.19,3.75,6.24"/><path class="e219c1e0-5e5b-4ff6-b9ff-ed318d1061e7" d="M96.25,473.3h0c0-1.89-.09-3.91-.12-6,0,2.12.07,4.14.12,6"/><path class="a315ac2b-32c3-4576-8cf7-f214e3396c7c" d="M132.19,489.31c-3.79-.12-7.52-.25-11-.38l-.83,0a11.48,11.48,0,0,0-1.61-2.69c4.1.11,8.57.21,13.16.3l.32,2.8m-.41-3.66c-4.84-.08-9.54-.15-13.81-.19v0a9.53,9.53,0,0,0-.87-.59l1.74-5a5.11,5.11,0,0,0-.93-5c4.76,3.24,9.51,6.48,13.71,9.36l.17,1.41m-17.09-2.18c-3.46-1.88-9-4.64-14.18-7.18l2.11-6.05-3.38-1.18.88,1.73-1.77.81.88,1.74-.54.24a23.94,23.94,0,0,0-2.44-.28c0-1.89-.09-3.91-.12-6,0-1.38,0-2.8,0-4.24h4.34c4.44,3,9.79,6.62,15.24,10.34L103.1,469l-.9,2.57,12.6,4.41a2.38,2.38,0,0,1,1.46,3l-1.57,4.5M97.91,475l-1-.48.71-.07.28.55"/><path class="be349a27-ca1c-488c-a18d-ac3a8b55fd60" d="M131.87,486.51c-4.59-.09-9.06-.19-13.16-.3a5.26,5.26,0,0,0-.74-.75c4.27,0,9,.11,13.81.19l.09.86"/><path class="a0d4f17b-c209-4b90-9a43-8c5c66f40061" d="M148.43,463,93.81,463s3-122.94,2.41-125.81C94.81,330.39,63.75,222,63.75,222l43.13.74,14.73.26s-1.28,18-.76,20c7.21,26.3,21.28,71.19,24.15,87.84,5,28.85,3.43,132.17,3.43,132.17"/><path class="aac8b427-7ee5-4c04-92a5-c9c1a3b6a3d9" d="M146.66,453.84c-8.52-.22-38.7-1.11-50.06-.27v.17c3.89.63,41.54.45,50.06.34a.12.12,0,1,0,0-.24"/><path class="aac8b427-7ee5-4c04-92a5-c9c1a3b6a3d9" d="M100.5,334.51c-1.63-6.65-13.79-48.05-17.51-61.13S75.78,247.17,72.57,234c-.41-1.67-.82-3.34-1.27-5a.11.11,0,0,0-.21.06c1.22,6.65,2.85,13.24,4.41,19.82s3.23,13.13,5,19.67q5.3,19.68,11.54,39.1c2.08,6.45,5.52,19.69,7.35,26.21s-1.16,113.58-1,115.32a.39.39,0,0,0,.78,0c.23-12.61,2.93-108.06,1.32-114.62"/><path class="aac8b427-7ee5-4c04-92a5-c9c1a3b6a3d9" d="M106.88,222.73s-10.54,115-10.66,114.49C94.86,330.6,65.67,228.67,63.83,222.3c-.06-.2-.08-.3-.08-.3l43.13.73"/><path class="b08290fb-e570-42a2-9a87-a6baaef55936" d="M120.08,496c-2.59.81-76.1-.77-78.87-2.6-1-.68-1.44-11.41-1.55-24.37q0-4.2,0-8.63c0-3.48,0-7,.07-10.42.2-15.35.66-28.87.66-28.87l47.86.89-.56,28.87-.2,10.41-.41,8.63s27.87,13.19,30.69,15.53,4.91,9.76,2.33,10.56"/><path class="b8fa43af-017e-419a-82c2-0a070c648cc3" d="M120.08,496c-2.59.81-76.1-.77-78.87-2.6-1-.68-1.44-11.41-1.55-24.37q0-4.2,0-8.63c0-3.48,0-7,.07-10.42l48,.89-.2,10.41-.41,8.63s27.87,13.19,30.69,15.53,4.91,9.76,2.33,10.56"/><path class="b5c8e6b2-7616-473a-bd2c-fbb3f5276586" d="M120.3,496.08c-1.68.52-33,.05-55.79-.85-5.27-.21-10.09-.44-14-.68-5.36-.35-9-.71-9.53-1.09-1.28-.86-1.61-16.59-1.6-33.19l48.1.89-.41,8.67s28,13.27,30.87,15.61,4.93,9.82,2.34,10.64"/><path class="a0d4f17b-c209-4b90-9a43-8c5c66f40061" d="M119.3,493.1c-12.38-.57-62.39-1.7-74.67-1.32v.07c12.26.84,62.27,1.56,74.67,1.45.26,0,.27-.19,0-.2"/><path class="a0d4f17b-c209-4b90-9a43-8c5c66f40061" d="M88.9,467.12c-4.86-1-10.84-.4-14.64,3-.14.13,0,.34.2.29a69.09,69.09,0,0,1,14.41-2.68.31.31,0,0,0,0-.61Z"/><path class="a0d4f17b-c209-4b90-9a43-8c5c66f40061" d="M92.37,469.31c-4.85-1-10.83-.39-14.63,3-.15.14,0,.34.2.3a68.24,68.24,0,0,1,14.4-2.68.31.31,0,0,0,0-.62Z"/><path class="a0d4f17b-c209-4b90-9a43-8c5c66f40061" d="M95.85,471.51c-4.86-1-10.84-.39-14.64,3-.15.13,0,.34.2.29a68.43,68.43,0,0,1,14.41-2.67.31.31,0,0,0,0-.62Z"/><path class="a0d4f17b-c209-4b90-9a43-8c5c66f40061" d="M99.32,473.71c-4.85-1-10.83-.4-14.63,3-.15.13,0,.34.2.29a68.88,68.88,0,0,1,14.4-2.68.31.31,0,0,0,0-.61"/><path class="a0d4f17b-c209-4b90-9a43-8c5c66f40061" d="M89.45,464.55c-2,.75-4,1.38-5.93,2.2a74.26,74.26,0,0,1,4.67-6.33,27.32,27.32,0,0,1,2.64-2.74c1.48-1.29,7.28-4,6.31,1.36-.54,2.93-5.33,4.63-7.69,5.51Zm8.7-8.52c-1.86-2.68-5.46-1.57-7.53.1a26.16,26.16,0,0,0-7.75,11l.11.18c0,.37.34.77.76.62,4.05-1.4,8.57-2.4,12.07-5,2-1.52,4.1-4.36,2.34-6.9Z"/><path class="a0d4f17b-c209-4b90-9a43-8c5c66f40061" d="M68.38,462.08c-2.09-5,4.15-3.62,5.87-2.68a28.14,28.14,0,0,1,3.17,2.11c2.12,1.58,4,3.42,5.91,5.19-2.08-.38-4.17-.57-6.26-.87-2.5-.36-7.54-1-8.69-3.75m2.13,3.52c4,1.8,8.6,1.81,12.87,2.32a.61.61,0,0,0,.6-.77l.07-.2a26.08,26.08,0,0,0-9.92-9.1c-2.38-1.19-6.13-1.5-7.38,1.51-1.17,2.85,1.43,5.19,3.76,6.24"/><path class="a0d4f17b-c209-4b90-9a43-8c5c66f40061" d="M90.28,468.54l-53-1s14.88-191.13,13-201.26c-3-16.57-.45-35.5,7.53-44.48l51.64,1s.75,14.51-4.74,23.07c0,0-4.9,3-7.28,4.28L90.28,468.54"/><path class="aac8b427-7ee5-4c04-92a5-c9c1a3b6a3d9" d="M88.82,459.13c-8-.36-5.73-.37-13.77-.64-3.93-.13-29.78-1-33.47-.45v.16c3.67.7,29.53,1.09,33.46,1.14,5,.07,6,.06,8,0,1.2,0,2.77,0,5.83,0,.15,0,.16-.23,0-.23"/><path class="aac8b427-7ee5-4c04-92a5-c9c1a3b6a3d9" d="M108,243.57a99.62,99.62,0,0,0-14.68,8.33.17.17,0,0,0,.17.3c5-2.63,10-5.17,14.84-8.06a.33.33,0,0,0-.33-.57"/><path class="aac8b427-7ee5-4c04-92a5-c9c1a3b6a3d9" d="M101.45,242.71a22.52,22.52,0,0,0-.76,3,6.36,6.36,0,0,0-.2,2.45c0,.16.25.15.32,0a8.38,8.38,0,0,0,.85-2.45c.26-.95.55-1.89.79-2.83a.52.52,0,0,0-1-.25"/><path class="aac8b427-7ee5-4c04-92a5-c9c1a3b6a3d9" d="M101.07,237.72c.16-.86.31-1.72.49-2.57s.41-1.77.52-2.67c0-.14.24-.1.22.05-.15.86-.18,1.75-.27,2.62s-.18,1.75-.29,2.62c-.19,1.62-.5,3.26-.85,4.86a5.85,5.85,0,0,0,2.39-.94,4.61,4.61,0,0,0,1.32-2.46c.27-1,.5-2,.79-3a18.6,18.6,0,0,0,.81-3.29c0-.14.24-.1.22.05A35.14,35.14,0,0,1,105,240a3.8,3.8,0,0,1-1.34,2.28,7.47,7.47,0,0,1-2.91.8c-.11.06-.28,0-.27-.14.13-1.72.31-3.48.61-5.18"/><path class="aac8b427-7ee5-4c04-92a5-c9c1a3b6a3d9" d="M58.71,265.79c-.3-3.81-.85-7.59-1.19-11.38a70.32,70.32,0,0,1,1.8-22.71c0-.13-.19-.19-.22,0-1.38,6.58-2.6,13.15-2.4,19.91s1.27,13.32,1.25,20-.67,13.58-1.23,20.35-1.13,13.61-1.7,20.42c-2.27,27.37-4.4,54.74-6.58,82.12q-.9,11.46-1.76,22.92c-.59,7.78-1.49,27-1.93,34.75,0,.67,1,.64,1,0,1.42-13.72,2.56-38.92,3.69-52.67s2.17-27.24,3.25-40.85,2.16-27.23,3.22-40.85q.79-10.22,1.56-20.42c.52-6.79,1.15-13.57,1.37-20.37a99.46,99.46,0,0,0-.17-11.19Z"/><path class="aac8b427-7ee5-4c04-92a5-c9c1a3b6a3d9" d="M77.63,231.57l-.2,0a8.74,8.74,0,0,0-.54,2.77,20.47,20.47,0,0,1-.76,3,12,12,0,0,1-3.2,5.15c-3.3,3-7.67,4-11.89,5-.16,0-.1.25,0,.26a18.88,18.88,0,0,0,7.33-1,15.27,15.27,0,0,0,5.71-3.06,10.54,10.54,0,0,0,3.15-5.46,18.71,18.71,0,0,0,.41-3.34q0-.81.06-1.62a4.3,4.3,0,0,0-.11-1.64Z"/><path class="b08290fb-e570-42a2-9a87-a6baaef55936" d="M108.15,151.36c7.77,25,23.47,49.3,28.33,52.62,7.53,5.13,43.24,9.53,55,8.16,3.85-.45,2.43-27.13-1.1-29.31s-38.23-2.61-40.59-3.55c-1.26-.5-19.76-21.85-30.18-33-9.71-10.39-13.8-2.52-11.45,5.07Z"/><path class="f738c539-4fdd-44df-a989-c1ada9d82004" d="M135.36,162.3l-19.83,16s-8.67-18.73-9.36-30.1,4.71-10.09,11-4.62,18.15,18.73,18.15,18.73Z"/><path class="a0d4f17b-c209-4b90-9a43-8c5c66f40061" d="M131.83,160c.13-.1.1-.22,0-.13-6.77,4.87-14.21,10.93-16.65,13.42l.06.06c3-1.85,15.16-12.23,16.62-13.35Z"/><path class="f738c539-4fdd-44df-a989-c1ada9d82004" d="M49.37,227.77c.14.23,75.11,15.31,75.94,14.68,1.17-.89,2.55-78.54-6.43-97.14-2.24-4.66-12.41-9.4-17.61-6-15.06,9.75-19.6,19.42-24.46,27.12-3.6,5.7-8.51,15.64-13.17,25.91C56,209.21,48.9,227,49.37,227.77"/><path class="b5c8e6b2-7616-473a-bd2c-fbb3f5276586" d="M100,139.23s6.55,27.27,7.22,34.05c.92,9.28-5.87,68.18-5.87,68.18L48,228.67s20.71-56.4,36.09-75C96.23,139.08,100,139.23,100,139.23"/><path class="b5c8e6b2-7616-473a-bd2c-fbb3f5276586" d="M117.21,143.57s2.11,24.2,2.73,27.88-.62,73.28-.62,73.28l7.08-1.29s.93-48.16-1.39-73.18-7.8-26.69-7.8-26.69"/><path class="f738c539-4fdd-44df-a989-c1ada9d82004" d="M103.82,218.39l-48.16-8.73q1.08-2.61,2.3-5.43l46.44,8.42c-.19,1.95-.39,3.87-.58,5.74"/><path class="f738c539-4fdd-44df-a989-c1ada9d82004" d="M126.58,222.52l-6.88-1.25c0-1.9,0-3.86.07-5.83l6.8,1.23c0,2,0,4,0,5.85"/><path class="f738c539-4fdd-44df-a989-c1ada9d82004" d="M102.75,228.46l-51-9.24c.66-1.65,1.4-3.47,2.21-5.44l49.39,9c-.21,2-.41,3.94-.6,5.72"/><path class="f738c539-4fdd-44df-a989-c1ada9d82004" d="M126.54,232.77l-7-1.26c0-1.83.07-3.78.1-5.82l6.94,1.26c0,2.09,0,4.05,0,5.82"/><path class="a93e143d-62e4-4620-a3e4-5772e840aa06" d="M206.87,118a36.09,36.09,0,0,1,37.24-7.63l-21.49,20.29,6.88,15.61L244.69,154l21.51-20.3A36.1,36.1,0,1,1,206.87,118Z"/><path class="a93e143d-62e4-4620-a3e4-5772e840aa06" d="M105.56,312.9a36.07,36.07,0,0,1-37.24,7.62l21.49-20.28-6.89-15.61-15.19-7.78-21.5,20.3a36.1,36.1,0,1,1,59.33,15.75"/><polyline class="a93e143d-62e4-4620-a3e4-5772e840aa06" points="212.01 140.65 234.09 164.03 106.41 284.56 84.33 261.18 212.01 140.65"/><polyline class="aac8b427-7ee5-4c04-92a5-c9c1a3b6a3d9" points="180.96 182.97 190.05 192.6 137.46 242.24 128.37 232.61 180.96 182.97"/><path class="b08290fb-e570-42a2-9a87-a6baaef55936" d="M87.73,155.71c-7.51,19.17-8.49,47.76-1.44,56,11.08,13,31.09,24.77,40.91,27.73,5.72,1.73,14.58-30.95,9.57-32.73-7.9-2.82-26.65-10.46-29.19-12.19s-4.45-21.94-7-36.81c-2.76-16.17-9-11.79-12.86-2"/><path class="b08290fb-e570-42a2-9a87-a6baaef55936" d="M124.66,238.51c16.94,6.94,37.1,4.47,40.41,3.31,2.81-1,4.26-1.5,4.26-1.5,5.09-1.66,6.36-4.57,6.36-4.57s6.44-.18,7-4.1c.61-4.39-8.56-3.27-14-5.74-12.42-5.66-28.5-17.18-31.92-19.17l-12.11,31.77"/><path class="a0d4f17b-c209-4b90-9a43-8c5c66f40061" d="M151.5,229.12a85.89,85.89,0,0,0,11.16,4.34,87,87,0,0,0,12.93,2.17.11.11,0,0,1,0,.22,46.53,46.53,0,0,1-24.23-6.41c-.17-.1,0-.4.15-.32"/><path class="a0d4f17b-c209-4b90-9a43-8c5c66f40061" d="M147,236.12c3.68,1.36,10.16,3.69,22.34,4.06v.08a41.79,41.79,0,0,1-22.47-3.76c-.22-.11-.12-.47.12-.38"/><path class="b08290fb-e570-42a2-9a87-a6baaef55936" d="M154.15,218.14c-1.32-1.38-.61-2.08,2.76-1.61s16.29,5.18,17.55.53-17.07-11-22.73-11.39-15,1.07-15,1.07c3.32,2,10.92,7.47,17.38,11.4"/><path class="f738c539-4fdd-44df-a989-c1ada9d82004" d="M104.9,179.34l-25.39,2s3.41-20.35,9.25-30.12,9.58-5.68,11.72,2.41,4.42,25.7,4.42,25.7Z"/><path class="a0d4f17b-c209-4b90-9a43-8c5c66f40061" d="M103.29,175.45c.16,0,.21-.12,0-.12-8.33.2-17.89,1-21.31,1.68v.09c3.52.16,19.42-1.55,21.26-1.65Z"/><path class="b08290fb-e570-42a2-9a87-a6baaef55936" d="M112.78,152.13c-3.23.05-9.74-6.18-12.2-11.34-.17-.35.56-3.94,1.24-8.33.4-2.68.78-5.66.93-8.41l17,5.15a43.91,43.91,0,0,0-2.26,10.46,5.89,5.89,0,0,0,.06,1.13V141c.23,2.16.26,11.08-4.79,11.15Z"/><path class="a0d4f17b-c209-4b90-9a43-8c5c66f40061" d="M117.55,140.8l0,.19a11.93,11.93,0,0,1-1.79,0c-10-.78-11.77-13.21-12.08-16.63l16.05,4.85a43.91,43.91,0,0,0-2.26,10.46,8.4,8.4,0,0,0,0,1.14Z"/><path class="b08290fb-e570-42a2-9a87-a6baaef55936" d="M103.74,100.74c-2.91,5.7-2.84,23.67.75,28.32,5.21,6.74,15.29,9.09,21.4,2.48,5.93-6.41,5.42-29.84,1.26-34.22-6.12-6.45-19.1-5-23.41,3.42"/><path class="a0d4f17b-c209-4b90-9a43-8c5c66f40061" d="M119.92,114l-.09.11c.09,1.21,0,2.6-1.09,3l0,.07c1.32-.24,1.44-2.1,1.16-3.23Z"/><path class="a0d4f17b-c209-4b90-9a43-8c5c66f40061" d="M118.79,112.79c-2-.06-1.94,3.84-.13,3.9s1.76-3.85.13-3.9Z"/><path class="a0d4f17b-c209-4b90-9a43-8c5c66f40061" d="M126.36,113.77l.1.11c0,1.21.13,2.6,1.22,3V117c-1.33-.19-1.53-2-1.31-3.18Z"/><path class="a0d4f17b-c209-4b90-9a43-8c5c66f40061" d="M127.44,112.5c1.94-.15,2.11,3.75.31,3.9s-1.94-3.77-.31-3.9Z"/><path class="a0d4f17b-c209-4b90-9a43-8c5c66f40061" d="M117.24,111a15.94,15.94,0,0,0,1.51-.54,2.58,2.58,0,0,0,1.44-.84.83.83,0,0,0-.14-1,2,2,0,0,0-2.07-.21,3.07,3.07,0,0,0-1.73,1.31.89.89,0,0,0,1,1.28Z"/><path class="a0d4f17b-c209-4b90-9a43-8c5c66f40061" d="M128.79,111a14.06,14.06,0,0,1-1.55-.39,2.6,2.6,0,0,1-1.51-.71.83.83,0,0,1,0-1,2.06,2.06,0,0,1,2-.39,3,3,0,0,1,1.85,1.14.88.88,0,0,1-.87,1.36Z"/><path class="a0d4f17b-c209-4b90-9a43-8c5c66f40061" d="M118.12,125.29c.3.28.59.67,1,.7a3.14,3.14,0,0,0,1.3-.31l0,.07a1.65,1.65,0,0,1-1.54.66,1.3,1.3,0,0,1-.95-1.07l.11,0Z"/><path class="a0d4f17b-c209-4b90-9a43-8c5c66f40061" d="M119.38,121.66a4.18,4.18,0,0,0,2.76,1.82,5.29,5.29,0,0,0,1.49.06l.28,0,.26,0a.32.32,0,0,0,.25-.27h0v-.13h0V123c0-.93-.07-2.35-.07-2.35.34.17,2.08.94,2,.45a62.07,62.07,0,0,0-1.65-12.47.11.11,0,0,0-.22,0c.1,3.88.87,7.72,1,11.62a7.18,7.18,0,0,0-1.94-.58c-.14,0,.23,2.73.19,3.15v0a5.75,5.75,0,0,1-4.27-1.31l-.12.11Z"/><path class="a0d4f17b-c209-4b90-9a43-8c5c66f40061" d="M123.07,123.07a4.9,4.9,0,0,1-1.95,1.53,2.17,2.17,0,0,1-1.34.08c-1-.25-1-1.13-.82-1.89a5.77,5.77,0,0,1,.43-1.17,6.33,6.33,0,0,0,3.68,1.45Z"/><path class="acb324ae-211f-4baf-a2b8-9da1cc2f57dc" d="M121.12,124.6a2.17,2.17,0,0,1-1.34.08c-1-.25-1-1.13-.82-1.89a2.27,2.27,0,0,1,2.16,1.81Z"/><path class="a0d4f17b-c209-4b90-9a43-8c5c66f40061" d="M129.26,102.25c-.18-.53-.65-1.88-1.35-2-.87-.11-1.58,1.28-3.25,1.58-1.15.22-2.65-.35-4.27-.93a10.41,10.41,0,0,0-5.16-.91c-3.16.57-5.39,3.44-6.5,9s-6,9.76-6.9,5.94c0-.14-.08-.39-.17-.74,0-5.46.71-10.85,2.08-13.53,4.31-8.41,17.3-9.87,23.41-3.41a11,11,0,0,1,2.11,4.92"/><path class="b08290fb-e570-42a2-9a87-a6baaef55936" d="M104.93,115.59s-3.06-6.27-5.84-5.26S98,120,100.81,121.58a3.09,3.09,0,0,0,4.36-1l-.24-5Z"/><path class="a0d4f17b-c209-4b90-9a43-8c5c66f40061" d="M99.63,112.79l0,.08c2,1.19,2.78,3.32,3.23,5.47a1.71,1.71,0,0,0-2.45-.86l0,.12a1.91,1.91,0,0,1,2,1,9,9,0,0,1,.72,1.83c.07.2.43.16.39-.07v0c.48-2.68-1-6.78-3.86-7.51Z"/><path class="b5c8e6b2-7616-473a-bd2c-fbb3f5276586" d="M131.34,103.55s-2.16-17.66-17.93-15.85-13.88,19.5-13.88,19.5l31.81-3.65"/><polyline class="b5c8e6b2-7616-473a-bd2c-fbb3f5276586" points="98.49 108.59 132.67 104.67 132.38 102.17 98.2 106.09 98.49 108.59"/><polyline class="b5c8e6b2-7616-473a-bd2c-fbb3f5276586" points="115.55 104.1 122.66 103.28 119 86.14 111.89 86.96 115.55 104.1"/><g class="b1b1f778-d484-4750-93f7-a82aa4eb47de"><rect class="a8abbcd8-38fa-4bd4-90ae-6443ac8e5d3b" x="111.89" y="86.14" width="10.78" height="17.96"/></g><path class="b08290fb-e570-42a2-9a87-a6baaef55936" d="M176.09,203.32c.29-4,4.84-1.37,4.84-1.37s-5.63-5.37-3.73-9.38c1.84-3.86,7.22-.48,7.61-.25-.3-.28-5.34-5.36-3-9.19s7.24.34,7.55.62c-.2-.36-2.68-5.14-.25-7.65,4.17-4.31,12.42,8.75,17.14,9.89l7-5.69a12,12,0,0,0-.91,6.78c.41,3.33.71,5.56,0,7.53a4.38,4.38,0,0,1-4.28,3s2.53,3.42.8,6.5c-.89,1.57-4.21,1.55-4.21,1.55s1.91,2.82.2,5.46c-1.36,2.11-4.48,1.76-4.48,1.76s.58,3.56-1.51,5.26c-4.2,3.45-23.4-6.29-22.78-14.86"/><path class="b08290fb-e570-42a2-9a87-a6baaef55936" d="M208,184.93l5.1-4.5c.22-.12.46-.25.68-.35,7.81-3.8,17.89.94,13.3,5.17-3.48,3.22-11.27,1.19-14.36,5h0L208,184.93Z"/><path class="a0d4f17b-c209-4b90-9a43-8c5c66f40061" d="M199.88,212.93l0,.11a37.34,37.34,0,0,1-19.18-11.2c-.16-.19.07-.52.28-.35a76.59,76.59,0,0,0,18.93,11.44Z"/><path class="a0d4f17b-c209-4b90-9a43-8c5c66f40061" d="M204.74,205.78l-.06.14c-7.31-1.75-15.39-6.48-20.17-13.52-.17-.24-.07-.63.14-.36,3.53,4.44,13.63,11.14,20.09,13.74Z"/><path class="a0d4f17b-c209-4b90-9a43-8c5c66f40061" d="M189.17,183.14c4.85,6.58,11.31,10.94,18.6,14.46l-.07.16c-4-.76-8.44-3.48-11.69-5.9a21.5,21.5,0,0,1-7.07-8.55c-.06-.13.13-.31.23-.17Z"/><polyline class="b5c8e6b2-7616-473a-bd2c-fbb3f5276586" points="200.46 228.03 167.85 551.46 159.9 551.46 191.72 235.94 108.98 235.94 51.44 551.46 43.4 551.46 102.38 228.03 200.46 228.03"/><polyline class="b5c8e6b2-7616-473a-bd2c-fbb3f5276586" points="191.99 305.48 96.87 305.48 96.87 297.57 191.99 297.57 191.99 305.48"/><polyline class="b5c8e6b2-7616-473a-bd2c-fbb3f5276586" points="179.2 369.61 84.08 369.61 84.08 361.7 179.2 361.7 179.2 369.61"/><polyline class="b5c8e6b2-7616-473a-bd2c-fbb3f5276586" points="172.92 433.74 70.44 433.74 70.44 425.83 172.92 425.83 172.92 433.74"/><polyline class="b5c8e6b2-7616-473a-bd2c-fbb3f5276586" points="168.07 497.87 59.95 497.87 59.95 489.96 168.07 489.96 168.07 497.87"/><path class="f3776312-1d22-4d14-be66-060831b76544" d="M167.85,551.46H159.9l5.4-53.59h2.77V490h-2l5.67-56.22h1.15v-7.91h-.35l5.67-56.22h1V361.7H179l5.66-56.22H192v-7.91H185.5l6.22-61.63h2.22l3.73,19.69-9.93,98.56L183,401.06l-10.74,106.6-.1,1-4.32,42.8M57,520.94h-1.6l0-.85L53.12,520l0,1H52l.26-.14v-.08l-1.49-.35,1.39-.74v-.07l-1.5-.35,1.38-.75h0v-.07l-1.5-.35,1.39-.75v-.07l-1.5-.35,1.39-.75V516l-1.5-.34,1.39-.75v-.07l-1.5-.35,1.39-.75v-.07l-1.22-.29,0-.23,1.07-.58v-.07l-.9-.21.09-.52.7-.38v-.07l-.58-.13.14-.79.33-.18v-.07l-.26-.06.12-.68h8L57,520.94m2.7-14.8H51.66L102.37,228l3.1,27.16L101.13,279l-3.39,18.59h-.87v4.8L86.05,361.7h-2v7.91h.52L74.35,425.83H70.44v7.91h2.47l-4.48,24.54-.17,1-1.62,8.87-3.17,17.38-2.23.26.51,4.22H60v7.91h1.26l-1.5,8.27"/><path class="f3776312-1d22-4d14-be66-060831b76544" d="M192,305.48H119.17l-.91-7.91H192v7.91m-80.78,0H96.87v-7.91h13.44l.9,7.91"/><path class="f3776312-1d22-4d14-be66-060831b76544" d="M179.2,369.61H126.49l-.91-7.91H179.2v7.91m-60.67,0H84.08V361.7h33.55l.9,7.91"/><path class="f3776312-1d22-4d14-be66-060831b76544" d="M172.92,433.74H133.8l-.9-7.91h40v7.91m-47.07,0H70.44v-7.91H125l.9,7.91"/><path class="f3776312-1d22-4d14-be66-060831b76544" d="M168.07,497.87H141.12l-.9-7.91h27.85v7.91m-34.9,0H112.54L115.3,490h17l.9,7.91m-23.51,0H93L95.73,490h16.69l-2.76,7.91m-19.79,0H73.32l-.22-1.78,1.15-.13-.07-.57h0l.87.05h0l16.15.8h0l-1.77.81.42.82m-26,0H60V490h1.8l.89,7.39,1.15-.13.08.65m28-4.06-.09-.78.33.67-.24.11m-17.93-.41L73.53,490h0l.41,3.44m17.68-1.62L91.41,490h1l.6,1.19-1.38.63"/><polyline class="b5c8e6b2-7616-473a-bd2c-fbb3f5276586" points="266.72 577.38 258.67 577.38 193.94 235.94 111.23 235.94 150.19 577.38 142.24 577.38 102.37 228.03 200.5 228.03 266.72 577.38"/><polyline class="b33c57bc-ae58-43f1-8d2f-b23c5bd67a6f" points="105.47 255.19 102.37 228.03 102.38 228.03 105.47 255.19"/><polyline class="a315ac2b-32c3-4576-8cf7-f214e3396c7c" points="266.72 577.38 258.67 577.38 252.97 547.3 252.83 546.58 235.41 454.69 234.28 448.71 222.83 388.34 216.36 354.19 197.68 255.63 193.94 235.94 191.72 235.94 175.59 235.94 125.64 235.94 111.23 235.94 150.19 577.38 142.24 577.38 128.18 454.19 128.09 453.4 111.27 305.98 111.21 305.48 105.47 255.19 102.37 228.03 200.5 228.03 266.72 577.38"/><polyline class="b5c8e6b2-7616-473a-bd2c-fbb3f5276586" points="204.33 218.6 97.13 218.6 97.13 228.03 204.33 228.03 204.33 218.6"/><polyline class="a315ac2b-32c3-4576-8cf7-f214e3396c7c" points="204.33 228.03 200.5 228.03 102.37 228.03 97.13 228.03 97.13 218.6 204.33 218.6 204.33 228.03"/><polygon class="b5c8e6b2-7616-473a-bd2c-fbb3f5276586" points="23.92 565.24 28.03 565.24 28.03 501.03 23.92 501.03 23.92 565.24 23.92 565.24"/><polyline class="e42e306a-1461-4459-bb6c-f183f329aa9e" points="79.5 536.41 76.11 535.23 77.88 534.42 77 532.68 78.77 531.87 77.89 530.14 79.66 529.33 78.78 527.6 80.55 526.78 79.67 525.05 81.44 524.24 80.56 522.5 82.33 521.69 81.45 519.96 83.22 519.15 82.34 517.41 84.11 516.61 83.23 514.87 85 514.06 84.12 512.33 85.89 511.51 85 509.78 86.77 508.97 85.9 507.23 87.66 506.43 86.78 504.69 88.56 503.88 87.67 502.14 89.44 501.33 88.56 499.59 90.33 498.79 89.45 497.05 91.22 496.24 90.34 494.51 92.11 493.7 91.23 491.96 93 491.15 92.12 489.42 93.89 488.61 93.01 486.87 94.78 486.06 93.9 484.33 95.67 483.52 94.79 481.78 96.56 480.97 95.68 479.24 97.45 478.42 96.57 476.69 98.34 475.88 97.46 474.14 99.23 473.34 98.35 471.6 100.12 470.8 99.24 469.06 102.62 470.24 79.5 536.41"/><polygon class="aac8b427-7ee5-4c04-92a5-c9c1a3b6a3d9" points="104.17 454.95 99.24 469.06 102.65 470.25 107.58 456.14 104.17 454.95 104.17 454.95"/><path class="a0d4f17b-c209-4b90-9a43-8c5c66f40061" d="M79.5,536.41l.9-2.57L93,538.25a2.39,2.39,0,0,0,3-1.46L116.26,479a2.38,2.38,0,0,0-1.46-3l-12.6-4.41.9-2.57,12.59,4.41a5.1,5.1,0,0,1,3.14,6.5l-20.2,57.81a5.12,5.12,0,0,1-6.51,3.14L79.5,536.41"/><polyline class="b5c8e6b2-7616-473a-bd2c-fbb3f5276586" points="111.66 565.24 115.77 565.24 115.77 501.03 111.66 501.03 111.66 565.24"/><polyline class="b5c8e6b2-7616-473a-bd2c-fbb3f5276586" points="111.88 509.44 28.03 509.44 28.03 506.14 111.88 506.14 111.88 509.44"/><path class="a0d4f17b-c209-4b90-9a43-8c5c66f40061" d="M28.46,486.18l-2.91-13.42,15.88-3.45,2.91,13.42-15.88,3.45m-1.53,8.11,22.17-4.8L43.94,465.7l-22.17,4.81,5.16,23.78"/><polyline class="e42e306a-1461-4459-bb6c-f183f329aa9e" points="53.92 550.85 53.88 550.83 55.27 550.1 55.26 550.01 55.26 550.01 53.77 549.66 55.15 548.92 55.14 548.84 53.65 548.5 55.03 547.75 55.02 547.66 53.53 547.33 54.9 546.58 54.9 546.5 53.41 546.15 54.79 545.41 54.78 545.33 53.29 544.98 54.67 544.23 54.66 544.15 54.67 544.15 53.17 543.8 54.55 543.06 54.54 542.99 53.05 542.64 54.43 541.89 54.42 541.81 54.43 541.8 52.93 541.46 54.31 540.72 54.3 540.64 54.3 540.64 52.81 540.3 54.19 539.55 54.18 539.47 52.7 539.13 54.08 538.38 54.07 538.29 52.57 537.95 53.95 537.21 53.94 537.12 52.45 536.78 53.84 536.04 53.83 535.96 52.33 535.61 53.71 534.86 53.7 534.78 52.21 534.43 53.59 533.69 53.59 533.62 52.1 533.26 53.47 532.52 53.47 532.44 51.97 532.1 53.35 531.35 53.35 531.26 51.86 530.92 53.24 530.18 53.24 530.1 51.74 529.75 53.12 529.01 53.11 528.93 51.62 528.58 53 527.83 52.99 527.75 51.49 527.41 52.87 526.66 52.87 526.58 51.38 526.23 52.76 525.49 52.76 525.41 51.26 525.06 52.64 524.32 52.64 524.24 51.14 523.89 52.53 523.14 52.52 523.07 51.02 522.72 52.41 521.97 52.4 521.9 50.9 521.55 52.28 520.8 52.27 520.73 50.78 520.38 52.17 519.63 52.16 519.56 50.66 519.21 52.04 518.46 52.05 518.45 52.04 518.38 50.54 518.02 51.93 517.28 51.92 517.21 50.42 516.86 51.81 516.11 51.8 516.03 50.3 515.69 51.69 514.94 51.68 514.87 50.18 514.52 51.57 513.77 51.56 513.7 50.06 513.35 51.45 512.6 51.44 512.53 49.94 512.18 51.33 511.42 51.32 511.35 49.82 511.01 51.21 510.25 51.2 510.18 49.7 509.83 51.09 509.08 51.08 509 49.58 508.66 50.97 507.91 50.96 507.83 49.46 507.49 50.85 506.74 50.84 506.66 49.34 506.32 50.73 505.57 50.73 505.49 49.23 505.14 50.61 504.4 50.6 504.32 49.1 503.97 50.49 503.22 50.49 503.15 48.99 502.8 50.38 502.05 50.38 501.98 48.87 501.63 50.25 500.88 50.24 500.8 48.75 500.45 50.14 499.71 50.13 499.63 48.62 499.28 50.02 498.53 50.01 498.46 48.51 498.11 49.9 497.36 49.89 497.29 48.4 496.94 49.79 496.19 49.77 496.12 48.27 495.77 49.66 495.02 49.65 494.94 48.15 494.6 49.54 493.85 49.54 493.78 48.03 493.43 49.42 492.68 49.41 492.61 47.91 492.26 49.31 491.5 49.3 491.43 47.79 491.08 49.18 490.33 49.1 489.49 26.93 494.29 42.67 553.18 53.92 550.85"/><polyline class="b8fa43af-017e-419a-82c2-0a070c648cc3" points="31.04 509.67 30.98 509.44 30.98 509.44 31.04 509.67"/><polyline class="a164b728-13fd-490a-9542-6bca1c7a3b9e" points="30.98 509.44 30.98 509.44 30.97 509.41 30.98 509.44"/><polyline class="b8fa43af-017e-419a-82c2-0a070c648cc3" points="48.98 499.36 48.62 499.28 49.89 498.6 48.98 499.36 48.98 499.36"/><polyline class="ecd65718-f38f-4cc9-ac45-b5d3afb21f82" points="32.06 513.47 31.04 509.67 30.98 509.44 30.97 509.41 48.62 494.71 49.65 494.94 49.66 495.02 48.27 495.77 49.77 496.12 49.79 496.19 48.4 496.94 49.89 497.29 49.9 497.36 48.51 498.11 50.01 498.46 50.01 498.5 49.9 498.59 49.89 498.6 48.62 499.28 48.98 499.36 32.06 513.47"/><path class="a164b728-13fd-490a-9542-6bca1c7a3b9e" d="M48,491.13l-.22-.05.81-.44h0l-.59.49h0m1.15-.95-.06-.69.06.69h0"/><polyline class="ecd65718-f38f-4cc9-ac45-b5d3afb21f82" points="30.08 506.08 29.54 504.04 46.27 490.1 49.1 489.49 49.16 490.18 48.6 490.64 47.79 491.08 48.01 491.13 30.08 506.08"/><polyline class="b8fa43af-017e-419a-82c2-0a070c648cc3" points="29.16 502.64 28.89 501.62 28.89 501.62 29.16 502.64 29.16 502.64"/><polyline class="a164b728-13fd-490a-9542-6bca1c7a3b9e" points="42.87 490.83 43.4 490.72 43.48 490.7 43.48 490.7 42.87 490.83"/><polyline class="ecd65718-f38f-4cc9-ac45-b5d3afb21f82" points="29.16 502.64 28.89 501.62 41.47 491.14 42.87 490.83 43.48 490.7 29.16 502.64"/><path class="aac8b427-7ee5-4c04-92a5-c9c1a3b6a3d9" d="M35.64,522,46.13,519l7.55,26.91a3.64,3.64,0,0,1-2.51,4.49l-3.49,1a3.63,3.63,0,0,1-4.48-2.52L35.64,522"/><polygon class="aac8b427-7ee5-4c04-92a5-c9c1a3b6a3d9" points="36.56 518.67 43.63 516.69 44.42 519.5 37.35 521.48 36.56 518.67 36.56 518.67"/><polygon class="f738c539-4fdd-44df-a989-c1ada9d82004" points="30.51 487.82 32.75 487.19 41.22 517.37 38.98 518 30.51 487.82 30.51 487.82"/><path class="f738c539-4fdd-44df-a989-c1ada9d82004" d="M28.63,485.49s.07-5,.22-5.07l.74-.21h0l.75-.2c.14-.05,2.82,4.21,2.82,4.21l-.41,3-2.23.63-1.9-2.32Z"/><polyline class="a0d4f17b-c209-4b90-9a43-8c5c66f40061" points="44.13 522.77 45.96 522.26 52.56 545.77 50.73 546.28 44.13 522.77"/><polyline class="a0d4f17b-c209-4b90-9a43-8c5c66f40061" points="40.73 523.73 42.56 523.21 49.16 546.72 47.33 547.24 40.73 523.73"/><polyline class="a0d4f17b-c209-4b90-9a43-8c5c66f40061" points="37.33 524.68 39.16 524.17 45.76 547.68 43.93 548.19 37.33 524.68"/><path class="aac8b427-7ee5-4c04-92a5-c9c1a3b6a3d9" d="M59.87,517.39,49,516.85l1.39-27.93a3.64,3.64,0,0,1,3.81-3.45l3.62.18a3.64,3.64,0,0,1,3.45,3.82l-1.39,27.92Z"/><polygon class="aac8b427-7ee5-4c04-92a5-c9c1a3b6a3d9" points="57.95 520.21 50.62 519.85 50.77 516.94 58.1 517.3 57.95 520.21 57.95 520.21"/><polyline class="f738c539-4fdd-44df-a989-c1ada9d82004" points="53.89 551.39 51.56 551.28 53.12 519.97 55.45 520.09 53.89 551.39"/><path class="f738c539-4fdd-44df-a989-c1ada9d82004" d="M54.93,554.2s-1.66,4.75-1.82,4.74l-.77,0h0l-.77,0c-.16,0-1.34-4.89-1.34-4.89l1.34-2.69,2.31.12,1.06,2.8"/><polygon class="a0d4f17b-c209-4b90-9a43-8c5c66f40061" points="52.08 513.92 50.18 513.83 51.4 489.44 53.3 489.53 52.08 513.92 52.08 513.92"/><polygon class="a0d4f17b-c209-4b90-9a43-8c5c66f40061" points="55.61 514.1 53.71 514 54.92 489.61 56.82 489.71 55.61 514.1 55.61 514.1"/><polygon class="a0d4f17b-c209-4b90-9a43-8c5c66f40061" points="59.13 514.27 57.23 514.18 58.45 489.79 60.35 489.89 59.13 514.27 59.13 514.27"/><polyline class="a0d4f17b-c209-4b90-9a43-8c5c66f40061" points="70.03 548.94 79.34 547.81 72.37 490.05 63.06 491.17 70.03 548.94"/><polyline class="e42e306a-1461-4459-bb6c-f183f329aa9e" points="62.64 497.36 74.25 495.95 72.85 484.34 61.24 485.75 62.64 497.36"/><path class="e42e306a-1461-4459-bb6c-f183f329aa9e" d="M72.92,484.9s11.06-8,16.83-8.66l2.42,20-18-.89L72.92,484.9"/><polyline class="eaf789b6-338c-4815-85e9-ed60b1688f7f" points="90.28 480.64 90.2 479.95 90.2 479.95 90.28 480.64"/><polyline class="b8da64c7-353f-4c87-bbf4-c5661eec7928" points="83.37 495.84 83.36 495.84 78.81 495.62 90.2 479.95 90.28 480.64 90.86 485.5 83.37 495.84"/><polyline class="f9f9e8be-e559-40c3-99e6-0a913116059e" points="75.06 495.44 74.19 495.39 74.19 495.39 75.07 495.43 75.06 495.44"/><path class="b8da64c7-353f-4c87-bbf4-c5661eec7928" d="M75.07,495.43l-.88,0-.2-1.71L85.81,477.4a17.21,17.21,0,0,1,3.09-1l-13.83,19"/><path class="b8da64c7-353f-4c87-bbf4-c5661eec7928" d="M73.75,491.76l-.17-1.39,7.88-10.84c.63-.35,1.27-.69,1.91-1l-9.62,13.23"/><polygon class="f738c539-4fdd-44df-a989-c1ada9d82004" points="90.82 497.64 83.75 496.5 85.53 485.46 92.6 486.6 90.82 497.64 90.82 497.64"/><path class="f738c539-4fdd-44df-a989-c1ada9d82004" d="M92.07,489.89l4.79.78c.73.12,4.07-2.73,6.32-2.36l2.46.39c2.14.35,10.77,4,9.88,9.53s-.54,3.31-.54,3.31-.76-3.12-2.7-4a3.84,3.84,0,0,0-5,1.84,37.38,37.38,0,0,0-1.67,4.85l-8.79-1.41a32.84,32.84,0,0,0-.83-6c-.56-1.52-4.72-1.84-4.72-1.84l.82-5.12Z"/><polygon class="f738c539-4fdd-44df-a989-c1ada9d82004" points="100.7 523.65 95.24 522.77 98.42 503.08 103.88 503.96 100.7 523.65 100.7 523.65"/><polyline class="a0d4f17b-c209-4b90-9a43-8c5c66f40061" points="96.44 558.52 88.32 557.22 95.39 513.36 103.51 514.67 96.44 558.52"/><polyline class="b5c8e6b2-7616-473a-bd2c-fbb3f5276586" points="111.66 565.24 28.03 565.24 28.03 520.94 111.66 520.94 111.66 565.24"/><path class="a8abbcd8-38fa-4bd4-90ae-6443ac8e5d3b" d="M52.37,526.49c-4.06,0-8.12,0-12.17-.1s-8.12-.15-12.17-.32c4-.18,8.11-.26,12.17-.32s8.11-.07,12.17-.11l12.17.1c4,.07,8.11.15,12.16.33-4,.17-8.11.25-12.16.32l-12.17.1"/><path class="a8abbcd8-38fa-4bd4-90ae-6443ac8e5d3b" d="M79.76,530.51l-16-.09c-5.32-.07-10.63-.15-16-.33,5.32-.17,10.63-.25,16-.32l16-.1,15.95.1c5.32.07,10.64.15,16,.32h0c-5.31.18-10.63.26-16,.33l-15.95.09"/><path class="a8abbcd8-38fa-4bd4-90ae-6443ac8e5d3b" d="M68.1,536.58l-14.69-.1c-4.89-.07-9.79-.15-14.68-.33,4.89-.17,9.79-.25,14.68-.32l14.69-.1,14.69.1c4.89.07,9.79.15,14.68.32-4.89.18-9.79.26-14.68.33l-14.69.1"/><path class="a8abbcd8-38fa-4bd4-90ae-6443ac8e5d3b" d="M46.7,539c-3.12,0-6.23,0-9.34-.09s-6.22-.15-9.33-.33c3.11-.17,6.22-.25,9.33-.32s6.22-.06,9.34-.1,6.22,0,9.33.1,6.22.15,9.33.32c-3.11.18-6.22.26-9.33.33s-6.22.06-9.33.09"/><polyline class="a8abbcd8-38fa-4bd4-90ae-6443ac8e5d3b" points="65.37 541.93 46.7 541.83 37.36 541.71 28.03 541.51 37.36 541.3 46.7 541.19 65.37 541.09 84.05 541.18 93.38 541.3 102.72 541.51 93.38 541.71 84.05 541.83 65.37 541.93"/><path class="a8abbcd8-38fa-4bd4-90ae-6443ac8e5d3b" d="M91.19,544.23c-3.42,0-6.83,0-10.24-.09s-6.83-.15-10.24-.33c3.41-.17,6.82-.25,10.24-.32s6.82-.06,10.24-.1,6.82,0,10.23.1,6.83.15,10.24.32h0c-3.41.18-6.82.26-10.24.33s-6.82.06-10.23.09"/><path class="a8abbcd8-38fa-4bd4-90ae-6443ac8e5d3b" d="M78.56,547.78c-3.15,0-6.3,0-9.46-.09s-6.3-.15-9.45-.33c3.15-.17,6.3-.25,9.45-.32s6.31-.06,9.46-.1,6.3,0,9.46.1,6.3.15,9.45.32c-3.15.18-6.3.26-9.45.33s-6.31.06-9.46.09"/><path class="a8abbcd8-38fa-4bd4-90ae-6443ac8e5d3b" d="M59.2,554.35l-15.59-.1c-5.19-.06-10.39-.15-15.58-.32,5.19-.17,10.39-.25,15.58-.32l15.59-.1,15.59.1c5.19.06,10.39.15,15.58.32-5.19.18-10.39.26-15.58.32l-15.59.1"/><path class="a8abbcd8-38fa-4bd4-90ae-6443ac8e5d3b" d="M90.75,558.81c-3.48,0-7,0-10.45-.1s-7-.15-10.45-.33c3.48-.17,7-.25,10.45-.32s7-.06,10.45-.1,7,0,10.46.1,7,.15,10.45.32h0c-3.48.18-7,.26-10.45.33s-7,.06-10.46.1"/><path class="a8abbcd8-38fa-4bd4-90ae-6443ac8e5d3b" d="M45.51,562.54c-2.91,0-5.83,0-8.74-.1s-5.83-.14-8.74-.32c2.91-.17,5.83-.25,8.74-.32s5.83-.06,8.74-.1,5.83,0,8.74.1,5.83.15,8.74.32c-2.91.18-5.82.26-8.74.32s-5.82.07-8.74.1"/></svg>