<svg id="a8454466-a212-4690-b1db-8c2a8e8582b7" data-name="Layer 1" xmlns="http://www.w3.org/2000/svg" viewBox="0 0 115 115"><defs><style>.f66dc17d-a591-40d0-b7c1-ff61cd5a9d57{fill:#030302;}.f4b19ee3-90e9-4e8a-b8ae-5b5270447e3d{fill:#efbb5e;}.f957cf59-d55f-44c0-970f-5306f69ff548{fill:#e8b65c;}.ebd66777-ecf2-42c8-a794-f0cc03ec5400{fill:#efbc60;}.ba509051-df25-4f5a-9beb-0e7504de439f{fill:#070603;}.b49a20a3-d985-45ce-a3ab-3053dfa4abd6{fill:#0c0905;}.ef26a931-dd7e-4cf3-9201-7a52c44ad264{fill:#060503;}</style></defs><path class="f66dc17d-a591-40d0-b7c1-ff61cd5a9d57" d="M2.5,108.85c.93,0,1.85.08,2.78.09,4,0,8,0,12,0H18.4V80.57H15V69.94h7V64c0-4.08,1.87-6.57,5.79-7.69l6.59-1.87V51.25a9.88,9.88,0,0,1-3.16-5.39c-.63-3.94-.9-7.88,1.19-11.59,3.39-6,12.52-6.88,17-1.6a10.87,10.87,0,0,1,2.73,7.47A46.14,46.14,0,0,1,52,44.85a10.17,10.17,0,0,1-3.36,6.32v3.22c2.06.6,4.13,1.21,6.21,1.8,3.82,1.09,5.38,2.73,6.17,6.59h9.69l9.58-9.53a11,11,0,0,1-5.4-4.61,10.28,10.28,0,0,1-1.43-4.88c-.13-3.26-.22-6.48,1.51-9.49,3.46-6,12.61-6.88,17.07-1.52A10.82,10.82,0,0,1,94.74,40a49,49,0,0,1-.18,5.15,10.1,10.1,0,0,1-3.23,5.95,5.93,5.93,0,0,1,3,3.48,41,41,0,0,1,.62,4.64h6.86c0,.41,0,.73,0,1,0,7.17,0,14.33,0,21.49a12.55,12.55,0,0,1-4.21,9.82,12.29,12.29,0,0,1-6.25,3c.47,4.77.94,9.51,1.42,14.35H112.5v3.59H2.5Zm61.28,0h4.38v-3.62q0-7-.07-14V87.62H30.93V84.11H68.09V80.6h-46v3.54H27.3v3.52H22.07v21.21h4.27c.28,0,.57.06.85.06H62.83C63.14,108.93,63.46,108.88,63.78,108.86Zm-38.16-39H50.68a5.38,5.38,0,0,1,1.2-5.41c1.47-1.6,3.41-1.75,5.48-1.64a3,3,0,0,0-2-2.76c-2.53-.84-5.1-1.55-7.59-2.3-4.78,4.41-7.23,4.4-12.39,0-2.39.69-4.84,1.34-7.25,2.11A3.2,3.2,0,0,0,25.64,63C25.57,65.27,25.62,67.55,25.62,69.9ZM91.2,57.24c-.63,2-2.25,3.24-3.64,4.64-3.5,3.52-7,7-10.57,10.57v8.13H71.76v3.54c4.79,0,9.51.06,14.22,0a5.15,5.15,0,0,0,5.2-5.1C91.26,71.74,91.2,64.49,91.2,57.24ZM34.5,41.73c0,.55,0,1.34,0,2.12a7,7,0,0,0,6.31,6.5c3.16.4,6.66-1.68,7.35-4.81a22.72,22.72,0,0,0,.29-6.69,6.37,6.37,0,0,0-5-5.86,6.73,6.73,0,0,0-7.26,2.17C34.53,37,34.33,39.19,34.5,41.73Zm56.72.1c0-.86,0-1.39,0-1.93A7.09,7.09,0,1,0,77,40c0,1.32,0,2.65,0,4a7.08,7.08,0,0,0,12.37,4A8.22,8.22,0,0,0,91.22,41.83ZM18.5,77H73.4V73.5H18.5ZM71.71,91.14a1.62,1.62,0,0,0,.3.07q8.47,0,17,0c5.53,0,9.33-3.85,9.34-9.4q0-9,0-18c0-.3,0-.61,0-.86H94.74v1.36c0,5.08.06,10.16-.1,15.24a8.46,8.46,0,0,1-8,8c-4.58.16-9.16.07-13.74.09H71.71Zm2.79-21.2L86.42,58c1.33-1.34,1.56-2.49.68-3.43s-2.13-.76-3.5.62L72.47,66.35H71.22c-5,0-10,0-15,0-1.39,0-2.21.7-2.2,1.8a1.8,1.8,0,0,0,2,1.77C62.15,70,68.3,69.94,74.5,69.94Zm-2.78,38.9H82.14c-.47-4.75-.94-9.4-1.4-14h-9Zm17.52,0c-.47-4.74-.94-9.41-1.41-14.09H84.31c.47,4.73.93,9.4,1.4,14.09ZM38,55.19c1.32,2,3,2.8,4.64,2.08S45.5,55.58,45,53.36a11.16,11.16,0,0,1-7,0Z"/><path class="f4b19ee3-90e9-4e8a-b8ae-5b5270447e3d" d="M57.49,31.13V20.29H56.21c-2.65,0-5.3,0-7.94-.14a3.35,3.35,0,0,1-3.2-3.53q-.06-5.21,0-10.42a3.53,3.53,0,0,1,3.75-3.69H84a3.43,3.43,0,0,1,3.66,3.62c0,3.33,0,6.66,0,10,0,2.79-1.34,4.15-4.14,4.17-4,0-8,0-11.92,0a3.32,3.32,0,0,0-1.9.71C65.64,24.3,61.68,27.64,57.49,31.13Zm15.9-18V9.67H59.3V13.1Zm-21.2,0h3.49V9.66H52.19Zm28.26,0V9.67H77.11v3.47Z"/><path class="f957cf59-d55f-44c0-970f-5306f69ff548" d="M68.09,91.25q-10.87,0-21.77,0H22.07V87.66H27.3V84.14H22.09V80.6h46v3.51H30.93v3.51H68.09Z"/><path class="ebd66777-ecf2-42c8-a794-f0cc03ec5400" d="M26.34,108.87l2.75-7h32c.88,2.29,1.79,4.64,2.7,7-.32,0-.64.07-1,.07H27.19C26.91,108.93,26.62,108.89,26.34,108.87Z"/><path class="ba509051-df25-4f5a-9beb-0e7504de439f" d="M73.39,13.1H59.3V9.67H73.39Z"/><path class="b49a20a3-d985-45ce-a3ab-3053dfa4abd6" d="M52.19,13.1V9.66h3.49V13.1Z"/><path class="ef26a931-dd7e-4cf3-9201-7a52c44ad264" d="M80.45,13.14H77.11V9.67h3.34Z"/></svg>