<svg id="bd479477-1e03-4319-b185-1ae09e3e031c" data-name="Layer 1" xmlns="http://www.w3.org/2000/svg" viewBox="0 0 115 115"><defs><style>.e0750d04-4948-4a4c-ac19-cc07ab6a00f4,.fd0e1aa6-47f4-4b9d-9461-e1b4172147b1{fill:#fdfdfd;}.fd0e1aa6-47f4-4b9d-9461-e1b4172147b1{opacity:0;}.f8f2bd61-1d7e-49d4-8686-582b446f2e94{fill:#040404;}.ed942bd2-1ba1-43f7-a9ac-fe10295674d6{fill:#efbb5e;}.bda1605c-be40-411e-ab5f-4f44c15a590f{fill:#e8b65b;}.bd92f322-76e1-4a76-8188-50d338b00881{fill:#e9b75b;}.b0b6c791-8e68-4935-aa2f-f7bb4a46c357{fill:#070603;}.bf582a12-2e5c-408a-bd21-e89d56c9d813{fill:#080603;}.ac758a03-9125-4f61-94bd-de5afb0f7338{fill:#070503;}</style></defs><path class="fd0e1aa6-47f4-4b9d-9461-e1b4172147b1" d="M2.5,74.78V2.5H81c-3.32,1.12-4.4,3.55-4.29,6.88.13,4,0,8.07,0,12.11a7,7,0,0,0,.43,2.5,5.32,5.32,0,0,0,5.26,3.34c1.41,0,2.83,0,4.3,0,0,.32,0,.49-.06.66-.34,2.07-.76,4.14-1,6.22a1.66,1.66,0,0,0,2.56,1.68,6.17,6.17,0,0,0,.74-.43c3.09-1.92,6.26-3.73,9.23-5.82,2.47-1.75,5-2.75,8-2.31a2.44,2.44,0,0,0,.54,0,5.25,5.25,0,0,0,5.3-5.1c0-4.89,0-9.78,0-14.67a4.28,4.28,0,0,0-1.51-3.42,19.59,19.59,0,0,0-2.82-1.64h4.72v110H2.5V77.14a1.31,1.31,0,0,1,.22.42,12.91,12.91,0,0,0,4,7.63c2.48,2.42,4.91,4.9,7.36,7.34,5.54,5.53,11,11.14,16.65,16.56a11.84,11.84,0,0,0,15.43.84c3.55-2.8,6.77-6,10.47-9.34l-3-2.48H91.51a2.37,2.37,0,0,0-.08-.48c-1.32-3.95-2.59-7.92-4-11.85a12,12,0,0,0-9.59-8.22c-3.88-.76-7.77-1.44-12-2.22a8.46,8.46,0,0,1,1-1.25,16.71,16.71,0,0,0,2.86-2.39c1.23-1.68,2.73-2,4.67-1.92,3.8.13,6-2.14,6-5.94,0-6.61,0-13.22,0-19.84a32,32,0,0,0-.39-4.79C78,26.81,65.33,18.1,53,20.6A23.05,23.05,0,0,0,34.24,43.46c0,3.93,0,7.86,0,11.79a7.12,7.12,0,0,0,5,7.17,1.4,1.4,0,0,1,.74.84,17.84,17.84,0,0,0,7.72,10.8c.55.36.85.69.56,1.37-3.5.64-7,1.35-10.52,1.9-5.68.89-9.41,4-11.06,9.5-.1.33-.24.65-.43,1.14L20.86,82.5c-1.46-1.47-1.46-2.18,0-3.66l6.29-6.29L14.06,59.43c-2.6,2.61-5.32,5.29-8,8a11.87,11.87,0,0,0-3.22,6.28A10,10,0,0,1,2.5,74.78ZM104.61,41.92l4.88,2.8,1.81-3-10.37-6.22L94.71,45.87l3,1.8,3.09-5.12A46.13,46.13,0,0,1,93,86.4l2.72,2.19c6-6.84,10.5-18.52,11-27.6a53.29,53.29,0,0,0-2.3-18.92ZM71.93,10.12C47.9,2,16.55,15.29,9,46L5.66,40.56l-3,1.83L8.85,52.75l10.37-6.23-1.81-3-4.58,2.72c.09-6.14,7.86-18.59,15.72-24.74,12.67-9.91,26.86-12.34,42.37-8.15Z"/><path class="f8f2bd61-1d7e-49d4-8686-582b446f2e94" d="M2.5,74.78a10,10,0,0,0,.34-1.06,11.87,11.87,0,0,1,3.22-6.28c2.68-2.72,5.4-5.4,8-8L27.17,72.55l-6.29,6.29c-1.48,1.48-1.48,2.19,0,3.66L26.28,88c.19-.49.33-.81.43-1.14,1.65-5.53,5.38-8.61,11.06-9.5,3.52-.55,7-1.26,10.52-1.9.29-.68,0-1-.56-1.37A17.84,17.84,0,0,1,40,63.26a1.4,1.4,0,0,0-.74-.84,7.12,7.12,0,0,1-5-7.17c0-3.93,0-7.86,0-11.79A23.05,23.05,0,0,1,53,20.6C65.33,18.1,78,26.81,79.9,39.21A32,32,0,0,1,80.29,44c0,6.62,0,13.23,0,19.84,0,3.8-2.17,6.07-6,5.94-1.94-.07-3.44.24-4.67,1.92a16.71,16.71,0,0,1-2.86,2.39,8.46,8.46,0,0,0-1,1.25c4.25.78,8.14,1.46,12,2.22a12,12,0,0,1,9.59,8.22c1.39,3.93,2.66,7.9,4,11.85a2.37,2.37,0,0,1,.08.48H53.58l3,2.48c-3.7,3.33-6.92,6.54-10.47,9.34a11.84,11.84,0,0,1-15.43-.84c-5.65-5.42-11.11-11-16.65-16.56-2.45-2.44-4.88-4.92-7.36-7.34a12.91,12.91,0,0,1-4-7.63,1.31,1.31,0,0,0-.22-.42Zm74-25.41a71.8,71.8,0,0,0-.06-8.93A19.26,19.26,0,0,0,60.32,24,19.67,19.67,0,0,0,39.83,34.51c-2.43,4.75-2,9.81-2,14.94l1.8-.74v-2c7.26.45,13-2.4,17.65-7.88,4.65,5.54,10.45,8.34,17.69,7.89v2ZM57.25,86.48c-2.39-2.4-4.72-4.76-7.1-7.07A1.83,1.83,0,0,0,48.78,79c-3.45.57-6.87,1.29-10.32,1.83-3.73.58-6.57,2.27-8,5.93-.43,1.13-.82,2.28-1.14,3.44a1.37,1.37,0,0,0,.28,1.08c1,1.1,2.1,2.15,3.17,3.19a1.79,1.79,0,0,0,2.82.08c1.73-1.54,3.44-3.11,5.17-4.67l2.42-2.16c2.1,2.12,4.12,4.2,6.19,6.21a2.5,2.5,0,0,0,1.55.66q17.36.06,34.71,0c.3,0,.6,0,1-.07-.88-2.64-1.68-5.19-2.59-7.7a8.64,8.64,0,0,0-7-5.79c-3.72-.7-7.45-1.32-11.16-2a1.63,1.63,0,0,0-1.69.49C62,81.81,59.63,84.11,57.25,86.48Zm.06-20.24h9.78c2.74,0,2.77,0,3.6-2.61,1.38-4.37.44-8.86.79-13.36A23.36,23.36,0,0,1,57.26,44a23.3,23.3,0,0,1-14.17,6.31c0,2.93,0,5.76,0,8.58a14.13,14.13,0,0,0,15.48,14.4,13.39,13.39,0,0,0,8-3.45H57.31ZM9.7,68.84c-4.51,3.88-4.76,9.55-.58,13.75S17.4,90.88,21.55,95q5.57,5.58,11.14,11.14a8.84,8.84,0,0,0,13.3-.87l-8-8.08c-2.8,2.17-5.41,2-8-.53-4-4-8-8-11.95-12A7.21,7.21,0,0,1,16.46,82a5,5,0,0,1,1.27-5.06ZM49,102.73l2-1.81-8-8.19-2,1.86ZM14.2,64.47l-1.82,1.68,7.9,7.91,1.84-1.65ZM52.3,76.18l5,5,4.94-4.94A18.27,18.27,0,0,1,52.3,76.18Zm21.32-10c3.13.37,3.35-.82,3-4.42-.72.42-1.66.65-2,1.23A14.35,14.35,0,0,0,73.62,66.17ZM39.53,52.66c-2.52,1.42-2,5.2,0,5.82Zm35.54,0v5.9C77.3,56.87,77.29,54.28,75.07,52.69Z"/><path class="ed942bd2-1ba1-43f7-a9ac-fe10295674d6" d="M107.78,2.5a19.59,19.59,0,0,1,2.82,1.64,4.28,4.28,0,0,1,1.51,3.42c0,4.89,0,9.78,0,14.67a5.25,5.25,0,0,1-5.3,5.1,2.44,2.44,0,0,1-.54,0c-3-.44-5.57.56-8,2.31-3,2.09-6.14,3.9-9.23,5.82a6.17,6.17,0,0,1-.74.43,1.66,1.66,0,0,1-2.56-1.68c.22-2.08.64-4.15,1-6.22,0-.17,0-.34.06-.66-1.47,0-2.89,0-4.3,0A5.32,5.32,0,0,1,77.17,24a7,7,0,0,1-.43-2.5c0-4,.08-8.07,0-12.11-.11-3.33,1-5.76,4.29-6.88ZM83.86,13.08H105V9.66H83.86Zm14.07,3.67H83.86v3.43H97.93Zm3.65,3.43H105V16.72h-3.43Z"/><path class="f8f2bd61-1d7e-49d4-8686-582b446f2e94" d="M71.93,10.12l-1,3.21c-15.51-4.19-29.7-1.76-42.37,8.15-7.86,6.15-15.63,18.6-15.72,24.74l4.58-2.72,1.81,3L8.85,52.75,2.63,42.39l3-1.83L9,46C16.55,15.29,47.9,2,71.93,10.12Z"/><path class="f8f2bd61-1d7e-49d4-8686-582b446f2e94" d="M104.44,42.07A53.29,53.29,0,0,1,106.74,61c-.48,9.08-5,20.76-11,27.6L93,86.4a46.13,46.13,0,0,0,7.8-43.85l-3.09,5.12-3-1.8,6.22-10.38,10.37,6.22-1.81,3-4.88-2.8-.2-.11Z"/><path class="bda1605c-be40-411e-ab5f-4f44c15a590f" d="M49,102.73l-8.12-8.14,2-1.86,8,8.19Z"/><path class="bd92f322-76e1-4a76-8188-50d338b00881" d="M14.2,64.47l7.92,7.94-1.84,1.65-7.9-7.91Z"/><path class="b0b6c791-8e68-4935-aa2f-f7bb4a46c357" d="M83.86,13.08V9.66H105v3.42Z"/><path class="bf582a12-2e5c-408a-bd21-e89d56c9d813" d="M97.93,16.75v3.43H83.86V16.75Z"/><path class="ac758a03-9125-4f61-94bd-de5afb0f7338" d="M101.58,20.18V16.72H105v3.46Z"/><path class="e0750d04-4948-4a4c-ac19-cc07ab6a00f4" d="M104.44,42.07l0-.26.2.11Z"/></svg>