<svg id="f0fb400f-8c79-42e6-b02e-98fae7bce4b3" data-name="Layer 1" xmlns="http://www.w3.org/2000/svg" viewBox="0 0 115 115"><defs><style>.a72064d8-7d0b-4049-b0c5-7c617e6c6d04{fill:#040404;}.f29093ca-51d0-476f-9768-8a975da5d9ac{fill:#eebb5e;}.ba14ab7b-5415-4afc-97ee-8eb99ba48523{fill:#040302;}.e4a88918-6861-4d90-984b-b490d94f992b{fill:#080603;}.accafe3c-7f34-4468-a840-95ef5641ee54{fill:#070503;}.bec1f4ba-60ca-44a3-b5b7-7c7d4beec0d6{fill:#070603;}.b4d13e9b-fdca-4e31-8f19-d54fc1a1a736{fill:#0a0a0a;}.b37015ed-f9c8-4161-88eb-7bee138e510d{fill:#080808;}</style></defs><path class="a72064d8-7d0b-4049-b0c5-7c617e6c6d04" d="M104.54,55.67l4.18,0a3.52,3.52,0,0,1,3.77,3.75q0,12.18,0,24.38a3.49,3.49,0,0,1-3.73,3.79c-4.58,0-9.16,0-13.74,0a3.83,3.83,0,0,1-3.53-2.07A34.37,34.37,0,0,1,76.7,90.93c.76,3.68-.18,5.57-3.48,7.19.6,5.3-.86,6.82-7.1,7.35a5.23,5.23,0,0,1-1.71,5.78A13.62,13.62,0,0,1,62,112.5H38.81c-.85-.18-1.69-.38-2.54-.54a35,35,0,0,1-12.79-5.08c-.9,1.69-2.37,2.1-4.13,2.08-3.93-.06-7.86-.11-11.79,0-2.21.07-4-.39-5.06-2.49V79.4c.83-1.19,1.71-2.33,3.42-2.41L5,76c.88-.82,1.79-1.62,2.64-2.48a1.93,1.93,0,0,0,.41-2.27,2,2,0,0,0-1.92-1.28l-3.64,0V52.1l3.54,0a2,2,0,0,0,2-1.3,2,2,0,0,0-.5-2.36c-.81-.82-1.63-1.61-2.38-2.35L17.8,33.47l2.11,2.24a2.1,2.1,0,0,0,2.49.72,2.16,2.16,0,0,0,1.39-2.3c0-1.06,0-2.13,0-3.25H41.55c0,1.11,0,2.21,0,3.31a2.09,2.09,0,0,0,1.32,2.22,2.13,2.13,0,0,0,2.51-.66c.74-.78,1.49-1.54,2.27-2.35l1,.88v4.93l-1-.71a5.57,5.57,0,0,1-6.14,1.19,5.7,5.7,0,0,1-3.61-5.23H27.4c-.23,2.4-1.25,4.27-3.54,5.2a5.58,5.58,0,0,1-6.16-1.1L10.17,46a5.59,5.59,0,0,1,1.17,6.14c-.93,2.33-2.83,3.37-5.24,3.62V66.22a5.86,5.86,0,0,1,4.09,9.88A1.79,1.79,0,0,0,12,77c2.4,0,4.8,0,7.2,0,1.8,0,3.32.32,4.21,2l4.73-2.61c-8.94-3-12.48-11.19-11.26-18.19a16,16,0,0,1,15-13.16,15.38,15.38,0,0,1,10.07,3A16,16,0,0,1,48.55,59.2h7.76l-.52-4.49c.81-1.94,2.29-2.64,4.34-2.61,4,.07,8.08,0,12.12,0A34.46,34.46,0,0,1,87.1,55.34c1.51.7,3,1.55,4.45,2.35a3.92,3.92,0,0,1,3.87-2C98.46,55.74,101.5,55.68,104.54,55.67ZM45.12,105.41v-3.57H67.29a6.17,6.17,0,0,0,1.29-.08,1.72,1.72,0,0,0,1.1-2.54,2,2,0,0,0-2-.92H45.12V94.73H70.84a9.56,9.56,0,0,0,1.07,0,1.7,1.7,0,0,0,1.52-1.87c-.08-1.06-.79-1.61-2.12-1.62H45.13V87.63H59.56c2.72,0,5.45,0,8.17,0,.51,0,1.23-.08,1.47-.41a2.82,2.82,0,0,0,.55-1.89c-.14-.92-1-1.22-1.88-1.21q-10.8,0-21.59,0H45.12V80.52c2.35,0,4.63,0,6.92,0a3.44,3.44,0,0,0,3.65-3.44,4.43,4.43,0,0,0-.51-.06c-4.77,0-9.53-.11-14.29,0a29.17,29.17,0,0,0-16.45,5.73,1.82,1.82,0,0,0-.63,1.3q-.06,8.91,0,17.84a1.69,1.69,0,0,0,.6,1.2,29.08,29.08,0,0,0,15.9,5.71c3.68.17,7.38.08,11.06.09,3.08,0,6.16,0,9.24,0a2,2,0,0,0,2-.87c.75-1.27-.15-2.65-1.77-2.66ZM73.26,87.55c.14,0,.28,0,.41,0a30,30,0,0,0,17.06-5.85,1.49,1.49,0,0,0,.46-1.06c0-6,0-12,0-17.94a1.79,1.79,0,0,0-.66-1.28,29.52,29.52,0,0,0-16.88-5.71c-4.58-.09-9.16,0-13.74,0-.2,0-.4.05-.6.07C59.57,58,60.84,59.2,63,59.22c1.54,0,3.08.05,4.62,0a7.34,7.34,0,0,1,7.28,4.14,5.47,5.47,0,0,0,4,2.89,13.85,13.85,0,0,0,1.57.13V69.9a9.63,9.63,0,0,1-7.29-2.82,8.53,8.53,0,0,0-3,5.42c-.21,2.77,0,5.56,0,8.43C73,82.53,73.81,84.21,73.26,87.55Zm-53.07-7H6.1v24.75H20.19ZM94.82,59.28V84.06h14V59.28Zm-49.9.26a12.37,12.37,0,1,0-7.76,13c.32-.13.78-.44.79-.67a5.48,5.48,0,0,1,3.85-5.34C41.22,62.84,41.83,61.49,44.92,59.54ZM67.1,69.91H51.28c-2.61,0-5.22,0-7.83,0a1.73,1.73,0,0,0-1.87,2c.15,1,.85,1.46,2.16,1.46H65.62a6.92,6.92,0,0,0,.75-.08Zm4-5.83a3.36,3.36,0,0,0-2.67-1.26H47.08a1.77,1.77,0,1,0,0,3.5q10.68,0,21.35,0a1.46,1.46,0,0,0,.92-.35C70,65.4,70.47,64.76,71.09,64.08ZM58.5,80.47h7.78V77.08H59.42Z"/><path class="f29093ca-51d0-476f-9768-8a975da5d9ac" d="M48.65,39.21V27.43c1.24-.08,2.41-.09,3.56-.25A4.55,4.55,0,0,0,56,24a4.59,4.59,0,0,0-.88-4.9c-.65-.76-1.35-1.47-1.91-2.07l10-10c.21.2.67.58,1.07,1,1.66,1.83,3.6,2.72,6,1.72s3.29-3,3.12-5.55c0-.56,0-1.12,0-1.74H87.54c.06,1.13.08,2.23.19,3.32a4.61,4.61,0,0,0,3.21,4,4.77,4.77,0,0,0,5.25-1.16c.62-.59,1.14-1.27,1.61-1.81L107.9,17c-.36.37-.89.93-1.43,1.47a4.9,4.9,0,0,0-1.33,5.68,5,5,0,0,0,4.91,3.16c.78,0,1.55,0,2.39,0v14.2h-2.69a4.63,4.63,0,0,0-4.55,3,4.71,4.71,0,0,0,1,5.53c.6.61,1.29,1.13,2,1.78l-3.74,3.86c-3,0-6.08.07-9.12,0a3.92,3.92,0,0,0-3.87,2c-1.5-.8-2.94-1.65-4.45-2.35a34.46,34.46,0,0,0-14.85-3.22c-4,0-8.08.05-12.12,0-2.05,0-3.53.67-4.34,2.61-.87-1-1.75-1.89-2.77-3,.53-.47,1.21-1,1.8-1.62a4.75,4.75,0,0,0,1.11-5.61,4.7,4.7,0,0,0-4.67-3H48.79a2.59,2.59,0,0,1-.11-.39C48.66,40.5,48.66,39.85,48.65,39.21Zm14.19-4.79A17.74,17.74,0,1,0,80.56,16.64,17.69,17.69,0,0,0,62.84,34.42Zm19.5-23.13a1.78,1.78,0,1,0-1.76,1.8A1.82,1.82,0,0,0,82.34,11.29Zm21.31,21.32a1.78,1.78,0,1,0,1.75,1.81A1.81,1.81,0,0,0,103.65,32.61Zm-44.4,1.81a1.75,1.75,0,1,0-1.78,1.75A1.76,1.76,0,0,0,59.25,34.42ZM96.53,20.19a1.79,1.79,0,0,0,1.77-1.78,1.78,1.78,0,1,0-1.77,1.78Zm0,31.93a1.75,1.75,0,1,0-1.76-1.77A1.77,1.77,0,0,0,96.51,52.12ZM66.34,18.37a1.75,1.75,0,1,0-3.5.09,1.77,1.77,0,0,0,1.8,1.73A1.75,1.75,0,0,0,66.34,18.37Z"/><path d="M13.19,16.59V13.18h3.44v3.41Z"/><path d="M20.29,16.59V13.17h3.44v3.42Z"/><path d="M30.8,16.6H27.41V13.16H30.8Z"/><path d="M84.16,101.79V98.37h3.43v3.42Z"/><path d="M91.26,98.36h3.45v3.41H91.26Z"/><path d="M101.78,101.82h-3.4V98.37h3.4Z"/><path class="ba14ab7b-5415-4afc-97ee-8eb99ba48523" d="M62.84,34.42a17.74,17.74,0,1,1,17.77,17.7A17.73,17.73,0,0,1,62.84,34.42Zm31.9-.05a14.2,14.2,0,0,0-28.39,0,14.2,14.2,0,1,0,28.39,0Z"/><path class="e4a88918-6861-4d90-984b-b490d94f992b" d="M82.34,11.29a1.78,1.78,0,1,1-1.8-1.75A1.81,1.81,0,0,1,82.34,11.29Z"/><path class="e4a88918-6861-4d90-984b-b490d94f992b" d="M103.65,32.61a1.78,1.78,0,0,1-.05,3.56,1.78,1.78,0,0,1,.05-3.56Z"/><path class="accafe3c-7f34-4468-a840-95ef5641ee54" d="M59.25,34.42a1.75,1.75,0,1,1-1.72-1.8A1.76,1.76,0,0,1,59.25,34.42Z"/><path class="e4a88918-6861-4d90-984b-b490d94f992b" d="M96.53,20.19a1.78,1.78,0,1,1,1.77-1.78A1.81,1.81,0,0,1,96.53,20.19Z"/><path class="accafe3c-7f34-4468-a840-95ef5641ee54" d="M96.51,52.12a1.75,1.75,0,1,1,0-3.5,1.75,1.75,0,1,1,0,3.5Z"/><path class="bec1f4ba-60ca-44a3-b5b7-7c7d4beec0d6" d="M66.34,18.37a1.75,1.75,0,0,1-1.7,1.82,1.78,1.78,0,0,1-.09-3.55A1.75,1.75,0,0,1,66.34,18.37Z"/><path class="b4d13e9b-fdca-4e31-8f19-d54fc1a1a736" d="M32.68,41.51a1.79,1.79,0,1,1,1.76-1.81A1.85,1.85,0,0,1,32.68,41.51Z"/><path class="b37015ed-f9c8-4161-88eb-7bee138e510d" d="M11.37,59.23a1.79,1.79,0,0,1,0,3.58,1.79,1.79,0,0,1,0-3.58Z"/><path class="b4d13e9b-fdca-4e31-8f19-d54fc1a1a736" d="M49.5,45.93a1.79,1.79,0,1,1-1.82-1.76A1.86,1.86,0,0,1,49.5,45.93Z"/><path class="b37015ed-f9c8-4161-88eb-7bee138e510d" d="M17.58,47.74a1.82,1.82,0,0,1-1.75-1.81,1.85,1.85,0,0,1,1.8-1.76,1.79,1.79,0,0,1-.05,3.57Z"/><path class="a72064d8-7d0b-4049-b0c5-7c617e6c6d04" d="M23.78,61a8.88,8.88,0,1,1,8.83,8.94A9,9,0,0,1,23.78,61ZM38,61.06a5.3,5.3,0,1,0-5.35,5.26A5.26,5.26,0,0,0,38,61.06Z"/><path class="a72064d8-7d0b-4049-b0c5-7c617e6c6d04" d="M80.53,45A10.65,10.65,0,1,1,91.21,34.42,10.61,10.61,0,0,1,80.53,45Zm.06-17.72a7.1,7.1,0,1,0,7,7.11A7,7,0,0,0,80.59,27.31Z"/></svg>