<svg id="a4f493f5-90aa-4d80-b468-b36a84b0efeb" data-name="Layer 1" xmlns="http://www.w3.org/2000/svg" viewBox="0 0 115 115"><defs><style>.a1f9322e-30d6-46de-ba32-252429b565da{fill:#f0bc5e;}</style></defs><path class="a1f9322e-30d6-46de-ba32-252429b565da" d="M98.36,52.27H112.5v8.84a22.35,22.35,0,0,1-11.64,19.61L98.33,82.1"/><path class="a1f9322e-30d6-46de-ba32-252429b565da" d="M16.64,52.27H2.5v8.84A22.35,22.35,0,0,0,14.14,80.72l2.53,1.38"/><circle class="a1f9322e-30d6-46de-ba32-252429b565da" cx="57.5" cy="23.91" r="14.02"/><path d="M112.5,112.5H2.57a5.11,5.11,0,0,1-.07-.76c.14-3.91-.16-7.89.52-11.7,1.3-7.26,5.75-12.23,12.58-15,.8-.32,1.14-.64,1.12-1.56-.09-3.4,0-6.8-.11-10.2A2.44,2.44,0,0,0,16,72c-.43-.55-1-1-1.47-1.51a5.57,5.57,0,0,1,1.33-8.73,1.34,1.34,0,0,0,.75-1.4c0-2.66,0-5.31,0-8H18.4V23.87h-7v28.4H7.82V51c0-9.43,0-18.85,0-28.28a4.61,4.61,0,0,1,.46-2c2.47-5,5-10,7.5-15.07.92-1.88,2.28-3.1,4.44-3.1s3.52,1.23,4.45,3.11c2.47,5,5,10,7.49,15.07a4.61,4.61,0,0,1,.46,2c0,9.35,0,18.71,0,28.06v1.39h4.8l3.9,11.65h.14V52.25h5.36c-.17-2.89.4-5.73-.41-8.51A8.31,8.31,0,0,0,43.66,40a20.84,20.84,0,0,1-7.44-16.74,21.27,21.27,0,0,1,42.12-3.6c1.5,8.17-1,15-7.2,20.49a8,8,0,0,0-3,6.59c.06,1.8,0,3.6,0,5.48h5.28V63.83l.2,0q1.93-5.8,3.88-11.59H98.36c0,2.71,0,5.36,0,8a1.41,1.41,0,0,0,.84,1.46A5.6,5.6,0,0,1,100.8,70a2.13,2.13,0,0,1-.44.5c-1.81,1.25-2.15,3-2,5.08.15,2.73,0,5.47,0,8.2a1,1,0,0,0,.78,1.11,20.41,20.41,0,0,1,13.43,19.62ZM53.74,45.05c0-.42,0-.79,0-1.15-.3-4.12-.63-8.25-.9-12.37-.16-2.3-.12-2.3-2.41-2.33a5.38,5.38,0,0,1-.37-10.75,5.41,5.41,0,0,1,6,5.07c0,.66.14,1.3.21,1.95h2.52c0-.28.1-.49.13-.71.05-.48.09-1,.13-1.44a5.41,5.41,0,0,1,5.92-4.87,5.38,5.38,0,0,1-.21,10.74,11.53,11.53,0,0,1-1.44,0c-.76-.08-1,.21-1.07,1-.18,3-.44,6-.64,8.95-.14,2-.24,3.94-.36,6h3.45c.3-3.68,2.48-6.15,5.09-8.5A16.44,16.44,0,0,0,75.2,24.82a17.73,17.73,0,1,0-35.09,2.49,17.2,17.2,0,0,0,5.76,9.85,11.81,11.81,0,0,1,4.44,7.54,1.27,1.27,0,0,0,.15.35ZM69.9,55.84H45.1c0,6.14-.1,12.2,0,18.25A6.87,6.87,0,0,0,52,80.56c3.7.08,7.39.08,11.09,0A6.92,6.92,0,0,0,69.87,74C70,68,69.9,61.94,69.9,55.84ZM98.28,98.43h3.64v10.5h7c0-1.87,0-3.67,0-5.47A16.85,16.85,0,0,0,97.49,88.1a2.55,2.55,0,0,0-1.57,0c-1.83.69-3.62,1.46-5.42,2.23a22.11,22.11,0,0,0-13.39,18.57H98.28Zm-71-10.75V82.32H23.85V78.83h5.92c2.92,0,4.65-1.76,4.66-4.71a26.42,26.42,0,0,0,0-3.33A2.35,2.35,0,0,1,36.12,68c1.76-.74,2.2-2,1.61-3.8-.82-2.53-1.71-5-2.5-7.57-.22-.72-.6-.86-1.28-.85-4.13,0-8.27,0-12.41,0H20.23v8.87c-.52,0-.92,0-1.32,0a1.87,1.87,0,0,0-2.07,1.13,2.09,2.09,0,0,0,.58,2.42c.67.64,1.28,1.34,2,1.95a2.39,2.39,0,0,1,.86,2c-.05,3.92,0,7.84,0,11.75A1.36,1.36,0,0,0,20.86,85C22.94,85.91,25.06,86.76,27.26,87.68Zm60.45,0c2.12-.9,4.14-1.79,6.2-2.59a1.13,1.13,0,0,0,.86-1.28c0-4,0-7.91,0-11.86a2.84,2.84,0,0,1,.65-1.62c.68-.83,1.5-1.53,2.25-2.3a2,2,0,0,0,.44-2.34,1.8,1.8,0,0,0-1.89-1.08c-.46,0-.93,0-1.52,0V55.76c-4.77,0-9.42,0-14.08,0a1,1,0,0,0-.74.57c-1,2.75-1.89,5.51-2.77,8.29a2.62,2.62,0,0,0,1.21,3.07,6.17,6.17,0,0,0,1.28.65c.81.27,1,.79,1,1.6-.07,1.32,0,2.66,0,4,0,3.16,1.7,4.86,4.84,4.87h5.73v3.58H87.71ZM41.58,109H73.4a.88.88,0,0,0,.12-.24,26.79,26.79,0,0,1,3.59-11.19.89.89,0,0,0,0-.78,17.36,17.36,0,0,0-8.12-6.21l-3.36,15-8.25-8.32-8,8c-1.09-4.9-2.18-9.77-3.28-14.72A17.38,17.38,0,0,0,38,96.73c-.18.24-.05.8.09,1.15.84,2.12,1.83,4.19,2.55,6.34A36.13,36.13,0,0,1,41.58,109Zm-11.75-8.11c-3.65-2.2-7.2-4.31-10.72-6.47a1.94,1.94,0,0,1-.62-1.09C18,91.64,17.64,90,17.2,88.21c-.5.19-.88.31-1.24.47a18.14,18.14,0,0,0-9.75,20.26h6.94V98.43h3.6V108.9H37.89A22.05,22.05,0,0,0,32.3,96Zm1.06-18.48c0,2.43,0,4.82,0,7.21a.84.84,0,0,0,.28.56C32.6,91.42,34,92.68,35.5,94l.53-.61a21.56,21.56,0,0,1,11.55-7c1.69-.39,1.88-.62,2.06-2.49,0,0-.06-.06-.09-.07s-.35-.09-.53-.16c-4.24-1.51-6.82-4.47-7.39-9a49.93,49.93,0,0,1-.1-5.87c0-.66,0-1.32,0-1.81-.64,1-1.1,2.28-2,2.87-1.54,1-1.67,2.23-1.53,3.74a10.28,10.28,0,0,1,0,1.11,7.74,7.74,0,0,1-5.72,7.32C31.83,82.17,31.4,82.25,30.89,82.37Zm53.22,0c-.31-.08-.51-.15-.73-.19a7.68,7.68,0,0,1-6.3-6.69c-.14-1.21,0-2.44-.11-3.65,0-.34-.1-.83-.32-1a7.3,7.3,0,0,1-3.12-4c-.07,2.24,0,4.46-.07,6.67a10.63,10.63,0,0,1-7.3,10.07c-.3.1-.59.23-.84.32a2.36,2.36,0,0,0,2.33,2.55,14.25,14.25,0,0,1,3.56,1.16A21.15,21.15,0,0,1,79.49,94c1.48-1.3,2.92-2.56,4.33-3.85a1.1,1.1,0,0,0,.28-.78C84.12,87.06,84.11,84.77,84.11,82.38ZM29,52.16V23.91h-7V52.16ZM28,20.23c-2.21-4.42-4.31-8.68-6.48-12.91-.25-.49-.85-1.12-1.28-1.11s-1,.63-1.27,1.12c-2,4-4,8-6,12-.14.28-.25.58-.39.93Zm29.56,72A39.94,39.94,0,0,1,61,88.83,2.77,2.77,0,0,0,61.86,85c-.29-.57-.5-.86-1.18-.84-1.66,0-3.32,0-5,0-2.26,0-2.28,0-3,2.16-.12.36-.19,1,0,1.18C54.28,89.08,55.87,90.61,57.55,92.27ZM50.46,48.71v3.44H64.52V48.71ZM29.73,93.13l-8.39-4.26-.33.29c.35,1,.43,2.3,1.12,2.83a72.11,72.11,0,0,0,6.24,3.84ZM57.35,44.81h.3q.45-7.77.91-15.55H56.43C56.74,34.49,57,39.65,57.35,44.81ZM54.49,95l-4.93-5,1.82,8.15Zm11-5.21-5,5,3.17,3.35Q64.55,93.93,65.47,89.75Zm-2.8-64.22c.68,0,1.26,0,1.84,0a1.79,1.79,0,0,0,1.79-1.74,1.81,1.81,0,0,0-1.62-1.68,1.77,1.77,0,0,0-2,1.51A14.82,14.82,0,0,0,62.67,25.53Zm-10.36,0a12.63,12.63,0,0,0,0-2,1.76,1.76,0,0,0-2-1.45,1.79,1.79,0,0,0-1.57,1.72,1.75,1.75,0,0,0,1.73,1.68C51,25.57,51.6,25.53,52.31,25.53Z"/><path d="M85.81,16.67H82.45C82,13,84.43,8.74,88.24,7c5.59-2.49,13.12-.47,15,6.62a9.59,9.59,0,0,1-2.9,10c-1.5,1.41-3.18,2.64-4.81,3.91a1.82,1.82,0,0,0-.81,1.66c.06,1.7,0,3.39,0,5.17H91.21c0-2.5,0-5,0-7.5,0-.31.38-.68.67-.92,1.86-1.52,3.75-3,5.61-4.51A6.54,6.54,0,0,0,99.67,14a6.81,6.81,0,0,0-6.3-4.4C89.89,9.4,86,11.44,85.81,16.67Z"/><path d="M93,38a5.32,5.32,0,1,1-5.34,5.25A5.34,5.34,0,0,1,93,38Zm0,7.08a1.77,1.77,0,1,0-1.78-1.74A1.78,1.78,0,0,0,93,45.1Z"/><path d="M52.22,73.51V70h6.43c1.57,0,1.91-.24,2.48-1.73H64.5a5.19,5.19,0,0,1-4.68,5.25c-.37,0-.74,0-1.11,0Z"/></svg>