<svg xmlns="http://www.w3.org/2000/svg" viewBox="0 0 26.93 28.42"><defs><style>.cls-1{fill:#aa823c;}</style></defs><g id="Layer_2" data-name="Layer 2"><g id="Layer_2-2" data-name="Layer 2"><path class="cls-1" d="M26.93,9.72v4.49c0,3.72-6,6.73-13.47,6.73S0,17.93,0,14.21V9.72c0,3.72,6,6.74,13.46,6.74S26.93,13.44,26.93,9.72ZM0,17.2c0,3.72,6,6.74,13.46,6.74s13.47-3,13.47-6.74v4.49c0,3.72-6,6.73-13.47,6.73S0,25.41,0,21.69Zm13.46-3.74C6,13.46,0,10.45,0,6.73S6,0,13.46,0,26.93,3,26.93,6.73,20.9,13.46,13.46,13.46Z"/></g></g></svg>