<svg xmlns="http://www.w3.org/2000/svg" viewBox="0 0 26.93 26.93"><defs><style>.cls-1{fill:#aa823c;}</style></defs><g id="Layer_2" data-name="Layer 2"><g id="Layer_2-2" data-name="Layer 2"><path class="cls-1" d="M12.1,10.72l-1.36,2.72H4.09A5.63,5.63,0,0,1,4.26,12a8.55,8.55,0,0,1,1.6-3.06C6.42,8.17,7,7.43,7.53,6.67A7.71,7.71,0,0,0,8.71,4.16a.77.77,0,0,0,0-.12,30.53,30.53,0,0,1,.68,4,4.45,4.45,0,0,0,.66-.94,16.21,16.21,0,0,0,1.3-3.63c.28-1.15.51-2.31.76-3.48l.45.45a16.33,16.33,0,0,1,2.65,3.84A10.06,10.06,0,0,1,16.36,9c0,.52-.11,1-.17,1.55a1.32,1.32,0,0,0,0,.16,6.48,6.48,0,0,0,1.89-4,13.67,13.67,0,0,1,2.14,6.72H13.63a.23.23,0,0,1-.24-.17c-.36-.75-.73-1.5-1.1-2.24C12.24,11,12.18,10.86,12.1,10.72Z"/><path class="cls-1" d="M26.93,14.82v5.37H10.79V14.82Z"/><path class="cls-1" d="M16.15,21.56v5.37H0V21.56Z"/><path class="cls-1" d="M0,20.19V14.81H9.41v5.38Z"/><path class="cls-1" d="M17.52,26.93V21.56h9.4v5.37Z"/></g></g></svg>