<svg xmlns="http://www.w3.org/2000/svg" viewBox="0 0 32.91 23.27"><defs><style>.cls-1{fill:#aa823c;}</style></defs><g id="Layer_2" data-name="Layer 2"><g id="Layer_2-2" data-name="Layer 2"><path class="cls-1" d="M26,21.16a13.46,13.46,0,0,0,0-19L28.09,0a16.45,16.45,0,0,1,0,23.27Zm-19-19a13.46,13.46,0,0,0,0,19L4.82,23.27A16.45,16.45,0,0,1,4.82,0ZM21.75,16.93a7.48,7.48,0,0,0,0-10.58l2.11-2.12a10.47,10.47,0,0,1,0,14.81ZM11.17,6.35a7.48,7.48,0,0,0,0,10.58L9.05,19a10.47,10.47,0,0,1,0-14.81Zm5.29,8.28a3,3,0,1,0-3-3A3,3,0,0,0,16.46,14.63Z"/></g></g></svg>