<svg id="e82108ad-3da9-4170-b35d-6bf08a9fb1fb" data-name="Layer 1" xmlns="http://www.w3.org/2000/svg" xmlns:xlink="http://www.w3.org/1999/xlink" viewBox="0 0 55 55"><defs><style>.b331296a-173d-494b-ba8d-54d370ebb0f3{fill:url(#edadadfa-0280-46b6-b454-08e3bb288b13);}.af7c103b-de28-4612-9666-22337ef27174{fill:url(#e6bf9b95-181f-44eb-a0d5-c5bce838c5f3);}.ea95f5d4-d0ed-4b30-98fe-62c1bcd15a90{fill:url(#bbb655a3-611b-4e9a-8a31-9fe8ef3ef2a9);}.b529f315-079f-4c5f-94e1-548482f3d72f{fill:url(#add2fc86-f9f4-469e-852c-4bcaec065720);}.f879699d-54d4-4c23-a208-2da2a6633e78{fill:url(#a82cefe6-73ad-4c77-8b2a-d427e8708d8c);}</style><linearGradient id="edadadfa-0280-46b6-b454-08e3bb288b13" x1="4.83" y1="34.25" x2="50.17" y2="34.25" gradientUnits="userSpaceOnUse"><stop offset="0" stop-color="#ca9d42"/><stop offset="1" stop-color="#ccb07f"/></linearGradient><linearGradient id="e6bf9b95-181f-44eb-a0d5-c5bce838c5f3" x1="18.04" y1="8.54" x2="39.14" y2="8.54" xlink:href="#edadadfa-0280-46b6-b454-08e3bb288b13"/><linearGradient id="bbb655a3-611b-4e9a-8a31-9fe8ef3ef2a9" x1="20.99" y1="9.86" x2="28.47" y2="9.86" xlink:href="#edadadfa-0280-46b6-b454-08e3bb288b13"/><linearGradient id="add2fc86-f9f4-469e-852c-4bcaec065720" x1="23.01" y1="7.31" x2="28.47" y2="7.31" xlink:href="#edadadfa-0280-46b6-b454-08e3bb288b13"/><linearGradient id="a82cefe6-73ad-4c77-8b2a-d427e8708d8c" x1="20.99" y1="7.31" x2="22.56" y2="7.31" xlink:href="#edadadfa-0280-46b6-b454-08e3bb288b13"/></defs><path class="b331296a-173d-494b-ba8d-54d370ebb0f3" d="M17.21,55a.81.81,0,0,0-.21-.1A2.94,2.94,0,0,1,14.86,52q0-4.08,0-8.16v-.62H8A2.93,2.93,0,0,1,4.83,40V26.3a3.72,3.72,0,0,1,2.24-3.89A5.3,5.3,0,0,1,6,17.16,5.11,5.11,0,0,1,8.7,14.05a5.33,5.33,0,0,1,7.21,2.59,5.4,5.4,0,0,1-3.59,7.42c.09.1.16.2.25.29,1.59,1.6,3.19,3.2,4.8,4.78a1.23,1.23,0,0,0,.77.31c1.82,0,3.66.08,5.48,0a2.67,2.67,0,0,1,2.8,3.48.37.37,0,0,0,0,.14h2.14A8.39,8.39,0,0,1,28.46,32,2.52,2.52,0,0,1,31,29.48c2,0,4,0,5.94,0a.94.94,0,0,0,.62-.2c1.7-1.67,3.39-3.37,5.08-5.06a1.19,1.19,0,0,0,.1-.16,5.33,5.33,0,0,1-3.86-3.74,5.07,5.07,0,0,1,.47-4.06A5.35,5.35,0,1,1,48,22.43a3.64,3.64,0,0,1,2.15,2.66,4.68,4.68,0,0,1,.06.84q0,7.07,0,14.14A2.91,2.91,0,0,1,47,43.19c-2.08,0-4.15,0-6.23,0h-.66v8.27c0,2.06-.54,2.83-2.46,3.54h-1c-1.94-.78-2.4-1.47-2.4-3.58,0-3.31,0-6.62,0-9.94,0-.83.07-1.66.12-2.51H28.32V51c.47,0,.93,0,1.39,0a1.9,1.9,0,0,1,1.87,1.65c.07.4,0,.82.06,1.23a1,1,0,0,1-.58,1.1H23.94a1,1,0,0,1-.58-1c0-.28,0-.56,0-.84A2,2,0,0,1,25.45,51h1.22V39H20.48a7.58,7.58,0,0,1,.2,1.19q0,6,0,12.06a2.79,2.79,0,0,1-1.88,2.6l-.5.19ZM11.65,37.32a1,1,0,0,0,0-.22c0-2,0-4,0-6a.79.79,0,0,0-.24-.5c-.52-.55-1.07-1.07-1.59-1.62a.74.74,0,0,1,0-1.1.78.78,0,0,1,1.11,0,2.83,2.83,0,0,1,.25.24c1.46,1.46,2.92,2.9,4.36,4.37a2,2,0,0,0,1.5.62c2.17,0,4.35,0,6.53,0a3.27,3.27,0,0,0,.54,0A1,1,0,0,0,25,32,1,1,0,0,0,23.82,31c-2.05,0-4.09,0-6.14,0a1.48,1.48,0,0,1-1.13-.48c-1.9-1.92-3.81-3.83-5.75-5.72A4.13,4.13,0,0,0,9.46,24,2.13,2.13,0,0,0,6.4,26.05c.07,3.57,0,7.15,0,10.72v.55Zm36.91,0c0-.13,0-.21,0-.29,0-3.75,0-7.49,0-11.23a2,2,0,0,0-2.37-2,3.45,3.45,0,0,0-2.05,1.09c-1.88,1.88-3.77,3.74-5.63,5.63a1.68,1.68,0,0,1-1.31.55c-1.91,0-3.82,0-5.73,0H31a1,1,0,0,0-.06,2,4,4,0,0,0,.49,0c2.18,0,4.35,0,6.53,0a2,2,0,0,0,1.53-.65c1.46-1.49,3-3,4.44-4.44.44-.44.91-.48,1.25-.13s.3.8-.14,1.25-1,.94-1.43,1.44a1.17,1.17,0,0,0-.28.68c0,1.87,0,3.73,0,5.59v.47ZM6.42,38.93v.94c0,1.29.44,1.73,1.71,1.73h7.22c.86,0,1.09.23,1.09,1.08v9.05a3,3,0,0,0,.08.73,1.31,1.31,0,0,0,1.3.94,1.3,1.3,0,0,0,1.24-1,3,3,0,0,0,.06-.73V40.64c0-1.26-.44-1.7-1.69-1.7h-11Zm42.14,0h-11c-1.24,0-1.68.44-1.68,1.7,0,3.69,0,7.39,0,11.08a4,4,0,0,0,0,.49,1.32,1.32,0,0,0,2.59.21,2.62,2.62,0,0,0,.07-.68c0-3,0-6,0-9,0-.92.22-1.13,1.14-1.13h7.12a3.94,3.94,0,0,0,.69,0,1.23,1.23,0,0,0,1-1.05C48.6,40,48.56,39.5,48.56,38.93ZM37.47,37.32V34.7H17.52v2.62ZM11.05,22.57A3.75,3.75,0,1,0,7.3,18.84,3.75,3.75,0,0,0,11.05,22.57ZM47.7,18.82A3.75,3.75,0,1,0,44,22.57,3.75,3.75,0,0,0,47.7,18.82ZM15.91,37.32c0-.87,0-1.69,0-2.51,0-.11-.12-.24-.22-.32-.43-.32-.89-.6-1.29-1a11.75,11.75,0,0,1-.93-1.06l-.15.12v4.73Zm25.8-4.81c-.16.13-.24.19-.32.27a6.78,6.78,0,0,1-2.16,1.75.29.29,0,0,0-.13.23c0,.85,0,1.69,0,2.56h2.62ZM30,53.39c0-.7-.05-.79-.7-.8H25.64c-.63,0-.73.13-.65.8Z"/><path class="af7c103b-de28-4612-9666-22337ef27174" d="M36.42,11.56c0,.57,0,1.13,0,1.68s-.05.77-.47.95A.89.89,0,0,1,35,14c-.92-.75-1.84-1.5-2.78-2.22a3.17,3.17,0,0,0-.75-.32c0,.36,0,.59,0,.81a2.16,2.16,0,0,1-2.18,2.11c-1.19,0-2.38,0-3.56,0a1.38,1.38,0,0,0-.71.25c-.91.71-1.81,1.44-2.7,2.16a.91.91,0,0,1-1,.24.9.9,0,0,1-.44-1c0-.54,0-1.08,0-1.66l-.4,0A2.19,2.19,0,0,1,18.05,12c0-1.22,0-2.44,0-3.66,0-1,0-2.11,0-3.16A2.19,2.19,0,0,1,20.4,2.82h5.35c0-.32,0-.58.05-.84a2.11,2.11,0,0,1,2.06-2C30.92,0,34,0,37.05,0a2.12,2.12,0,0,1,2.07,2.11c0,.94,0,1.88,0,2.82V9a2.21,2.21,0,0,1-2.43,2.55ZM22.34,14.64c.67-.53,1.24-1,1.79-1.44a1.73,1.73,0,0,1,1.25-.45c1.22,0,2.44,0,3.66,0,.55,0,.77-.2.78-.72,0-2.31,0-4.62,0-6.92a.62.62,0,0,0-.69-.71H20.34a.63.63,0,0,0-.71.7q0,3.48,0,7c0,.46.26.68.72.68h1.13a.8.8,0,0,1,.85.83C22.36,13.9,22.34,14.21,22.34,14.64Zm12.49-2.82c0-.4,0-.69,0-1a.82.82,0,0,1,.88-.91h1c.68,0,.85-.17.85-.85V2.45c0-.69-.19-.86-.89-.86-2.77,0-5.54,0-8.3,0-.8,0-1.16.28-.91,1.24H29a2.2,2.2,0,0,1,2.39,2.4c0,1.38,0,2.77,0,4.15,0,.17,0,.35,0,.57a2,2,0,0,1,1.84.62C33.73,11,34.25,11.35,34.83,11.82Z"/><path class="ea95f5d4-d0ed-4b30-98fe-62c1bcd15a90" d="M24.76,9.07h2.77c.58,0,.94.32.94.79a.83.83,0,0,1-.94.79H21.9A.81.81,0,0,1,21,9.83a.8.8,0,0,1,.91-.75Z"/><path class="b529f315-079f-4c5f-94e1-548482f3d72f" d="M25.77,6.52H27.6a.81.81,0,0,1,.87.76.8.8,0,0,1-.82.81c-1.29,0-2.57,0-3.86,0A.76.76,0,0,1,23,7.25a.77.77,0,0,1,.83-.73Z"/><path class="f879699d-54d4-4c23-a208-2da2a6633e78" d="M22.56,7.32a.79.79,0,0,1-.8.78A.83.83,0,0,1,21,7.29a.8.8,0,0,1,.81-.77A.77.77,0,0,1,22.56,7.32Z"/></svg>