<svg id="eea9004c-d00a-4d6f-9e9e-3139273e38cc" data-name="Layer 1" xmlns="http://www.w3.org/2000/svg" xmlns:xlink="http://www.w3.org/1999/xlink" viewBox="0 0 55 55"><defs><style>.e723ca09-5944-4652-a4b7-567141f46960{fill:url(#b042c18a-6a9e-448e-970d-83c325480d2e);}.f3fa8738-3227-4645-8cc0-5676cb3beefb{fill:url(#bba53189-dd62-40ea-b75c-70a7f59efbe4);}.e2ca802b-774f-46cd-873f-71486a987053{fill:url(#e611555d-0b42-41e0-bce3-c48000f73ef2);}</style><linearGradient id="b042c18a-6a9e-448e-970d-83c325480d2e" x1="2.15" y1="27.5" x2="52.85" y2="27.5" gradientUnits="userSpaceOnUse"><stop offset="0" stop-color="#ca9d42"/><stop offset="1" stop-color="#ccb07f"/></linearGradient><linearGradient id="bba53189-dd62-40ea-b75c-70a7f59efbe4" x1="5.72" y1="23.85" x2="32.55" y2="23.85" xlink:href="#b042c18a-6a9e-448e-970d-83c325480d2e"/><linearGradient id="e611555d-0b42-41e0-bce3-c48000f73ef2" x1="5.71" y1="26.72" x2="20.24" y2="26.72" xlink:href="#b042c18a-6a9e-448e-970d-83c325480d2e"/></defs><path class="e723ca09-5944-4652-a4b7-567141f46960" d="M52.85,27.76A3.9,3.9,0,0,1,49,31.11v1.64a3.39,3.39,0,0,1,0,.64.72.72,0,0,1-1.43-.09c0-.56,0-1.12,0-1.68v-.47H45.67a5.17,5.17,0,0,1,.74,3.45c0,1.15,0,2.31-.09,3.46a4.08,4.08,0,0,1-1.53,2.84,1.31,1.31,0,0,0-.55,1.3,2.34,2.34,0,0,1,0,.27l3.24.71v-6a5,5,0,0,1,0-.55.62.62,0,0,1,.68-.58,1.28,1.28,0,0,1,.7.5c.11.14.08.41.08.62q0,3.57,0,7.13a1.46,1.46,0,0,0,.19.74A5.37,5.37,0,0,1,50,47.87q0,1.34,0,2.67a1.83,1.83,0,0,1-1.91,2c-.81,0-1.62,0-2.42,0-3.47,0-6.93,0-10.4,0A8,8,0,0,1,34,52.24a1.13,1.13,0,0,0-.41,0,7.24,7.24,0,0,1-1.28.25q-6.27,0-12.53,0a6.71,6.71,0,0,1-1.23-.25,1.41,1.41,0,0,0-.41,0,7,7,0,0,1-1.24.25c-4.19,0-8.38,0-12.57,0A1.91,1.91,0,0,1,2.16,50.3a24.54,24.54,0,0,1,.09-3.21,5.14,5.14,0,0,1,5.07-4.46c.18,0,.35,0,.59,0,0-.39,0-.73,0-1.07a.71.71,0,0,0-.24-.38,4.7,4.7,0,0,1-1.89-3.61c-.06-1.43-.08-2.88,0-4.31a11.78,11.78,0,0,1,.54-2.14h-1A3,3,0,0,1,2.16,28V5.66A3,3,0,0,1,5.3,2.51c.44,0,.89,0,1.34,0A.74.74,0,1,1,6.64,4C6.2,4,5.75,4,5.31,4A1.51,1.51,0,0,0,3.65,5.65c0,2.67,0,5.35,0,8q0,7.08,0,14.16c0,1.25.55,1.81,1.81,1.81H32.83a1.56,1.56,0,0,0,1.79-1.79V23.1a1.31,1.31,0,0,1,.07-.53.67.67,0,0,1,.8-.44.74.74,0,0,1,.61.79c0,.86,0,1.72,0,2.58s0,1.61,0,2.42a3,3,0,0,1-3.19,3.2H30.34c0,.05-.05.09,0,.1A4.89,4.89,0,0,1,31,34.11c0,1.3,0,2.61-.09,3.91a3.83,3.83,0,0,1-1.45,2.78,1.66,1.66,0,0,0-.6,1.81,5.42,5.42,0,0,1,5,2.53,5.77,5.77,0,0,1,2.15-2,6.14,6.14,0,0,1,2.83-.57c0-.62.17-1.18-.5-1.69a4.43,4.43,0,0,1-1.63-3.62c0-1.45,0-2.91.06-4.35a3.52,3.52,0,0,1,2-3,.71.71,0,0,0,.37-.47c0-3.14,0-6.27,0-9.41a2.42,2.42,0,0,0,0-.26h-.57c-3.47,0-6.93,0-10.4,0a2.71,2.71,0,0,1-2.92-3c0-.14,0-.29,0-.44A1.48,1.48,0,0,0,24.65,15a1.85,1.85,0,0,1-.54-2.08A.73.73,0,0,0,24,12.4c-.14-.2-.35-.35-.5-.54a1.58,1.58,0,0,0-1.43-.63,1.61,1.61,0,0,0-1.45.82,4.14,4.14,0,0,1-.37.46,1.41,1.41,0,0,0-.45,1.54,2,2,0,0,1-1.72,2.39,2,2,0,0,1-2.34-1.75.94.94,0,0,0-.67-.94,2.77,2.77,0,0,1-.48-.26,1.24,1.24,0,0,0-1.47-.12c-.37.2-.92.05-1.39.08a.92.92,0,0,0-.51.12c-.57.49-1.11,1-1.63,1.53a.74.74,0,0,0-.13.59,2.14,2.14,0,0,1-1.52,2.45,2.07,2.07,0,0,1-2.52-1.37,2,2,0,0,1,.44-2.07,1.94,1.94,0,0,1,2.07-.59.63.63,0,0,0,.73-.19c.47-.47,1-.91,1.45-1.35a.6.6,0,0,0,.22-.68,2.08,2.08,0,1,1,4.12-.52.54.54,0,0,0,.36.56,5.9,5.9,0,0,1,.7.38,1.23,1.23,0,0,0,1.55.12c.26-.17.7-.07,1.06-.13a1.09,1.09,0,0,0,.57-.24c.44-.49.83-1,1.26-1.52a.52.52,0,0,0,.11-.61,2,2,0,0,1,.67-2.39,2.09,2.09,0,0,1,2.41-.1A2.14,2.14,0,0,1,24,9.78a1,1,0,0,0,.14.6,3.33,3.33,0,0,0,.36.4,1.66,1.66,0,0,0,1.59.73,1.55,1.55,0,0,0,1.25-.69c.6-.77,1.23-1.51,1.82-2.28a.76.76,0,0,0,.11-.6A2.12,2.12,0,0,1,30,5.51,2.09,2.09,0,0,1,33.19,8,2,2,0,0,1,31,9.26a.75.75,0,0,0-.79.33c-.68.89-1.4,1.74-2.1,2.63a.54.54,0,0,0-.14.41,2.31,2.31,0,0,1-.07,2h6.69V5.84c0-1.29-.55-1.84-1.83-1.84H10.32a3.37,3.37,0,0,1-.55,0,.7.7,0,0,1-.62-.72.7.7,0,0,1,.61-.73,2.75,2.75,0,0,1,.5,0H32.78A3,3,0,0,1,36.1,5.83c0,2.74,0,5.47,0,8.21v.57h6a1.42,1.42,0,0,0-.43-1.52,4.12,4.12,0,0,1-1.49-3.23c0-1.53,0-3.06,0-4.6a2.72,2.72,0,0,1,2.74-2.74c1.24,0,2.48,0,3.71,0a2.61,2.61,0,0,1,2.69,2.4c.1,1.82.06,3.66,0,5.49a3.61,3.61,0,0,1-1.47,2.71,1.4,1.4,0,0,0-.47,1.55c.61,0,1.23,0,1.85,0a3.79,3.79,0,0,1,3.56,3.1c0,.09.06.18.09.28ZM49,29.59a2.22,2.22,0,0,0,2.38-2.14q.06-4.53,0-9a2.31,2.31,0,0,0-2.17-2.24c-.51,0-1,0-1.53,0a.57.57,0,0,0-.64.39,2.43,2.43,0,0,1-2.26,1.42,2.41,2.41,0,0,1-2.29-1.38.69.69,0,0,0-.72-.43H27.25l-.55,0v.59c0,1.33.29,1.62,1.63,1.62H39.16c1.13,0,1.47.35,1.47,1.48V29c0,.19,0,.38,0,.57h6.82v-8.2c0-.77.22-1.13.71-1.14s.77.36.77,1.15v8.2ZM14.78,31.14a4.08,4.08,0,0,1,.73,2.33c0,1.25,0,2.5,0,3.76a4.89,4.89,0,0,1-1.91,4,.61.61,0,0,0-.24.38,9.43,9.43,0,0,0,0,1.07,5.41,5.41,0,0,1,5,2.51,4.57,4.57,0,0,1,2.14-1.93c.9-.34,1.85-.51,2.85-.78,0,.1,0,0,0,0a3.05,3.05,0,0,0,0-.74.88.88,0,0,0-.25-.52,4.7,4.7,0,0,1-1.85-3.42c-.07-.92,0-1.85,0-2.77,0-1.31-.15-2.65.75-3.84ZM15,51h2.17c.36,0,.48-.2.47-.54,0-.84,0-1.69,0-2.53a3.77,3.77,0,0,0-4.16-3.82.6.6,0,0,0-.39.22,1.83,1.83,0,0,1-1.5.9c-.64,0-1.29,0-1.93,0a1.81,1.81,0,0,1-1.42-.87.53.53,0,0,0-.32-.24,3.68,3.68,0,0,0-4.15,3.06,24.06,24.06,0,0,0-.08,3.4A.54.54,0,0,0,4,51c.77,0,1.53,0,2.34,0,0-.55,0-1,0-1.54s.3-.82.73-.82.74.3.75.85,0,1,0,1.49h5.68c0-.5,0-1,0-1.45s.29-.9.77-.89.69.3.71.88S15,50.47,15,51Zm30.91,0h2.2c.34,0,.43-.22.43-.53,0-.84,0-1.68,0-2.52a3.77,3.77,0,0,0-4.14-3.84.54.54,0,0,0-.39.22,1.85,1.85,0,0,1-1.5.91c-.64,0-1.28,0-1.92,0a1.84,1.84,0,0,1-1.44-.85.58.58,0,0,0-.36-.26,3.7,3.7,0,0,0-4.14,3.23,31.26,31.26,0,0,0,0,3.21.57.57,0,0,0,.36.42c.75,0,1.5,0,2.31,0,0-.51,0-1,0-1.43,0-.62.29-1,.77-.93s.7.33.71.94V51H44.4c0-.55,0-1,0-1.47s.27-.91.74-.9.72.31.74.91S45.88,50.47,45.88,51ZM30.42,51H32.5c.4,0,.57-.15.56-.56,0-.79,0-1.58,0-2.37a3.74,3.74,0,0,0-4.07-4,.74.74,0,0,0-.5.27,1.76,1.76,0,0,1-1.34.82,16.8,16.8,0,0,1-1.88,0,1.86,1.86,0,0,1-1.63-.94.45.45,0,0,0-.31-.19,3.56,3.56,0,0,0-4,2.55,19.36,19.36,0,0,0-.24,4,.47.47,0,0,0,.33.34c.77,0,1.54,0,2.33,0v-.76c0-.24,0-.49,0-.74,0-.55.3-.86.74-.87s.73.32.74.87,0,1,0,1.48h5.68c0-.54,0-1,0-1.56a.71.71,0,0,1,.71-.78c.44,0,.73.27.76.79S30.42,50.45,30.42,51ZM41.54,31.13H40.4a2.2,2.2,0,0,0-2.24,2.06,6.66,6.66,0,0,0,0,1.48,3.16,3.16,0,0,0,2,2.66A3.24,3.24,0,0,0,43.52,37a4,4,0,0,0,1.24-4.37,2.06,2.06,0,0,0-2-1.45C42.36,31.11,42,31.13,41.54,31.13Zm-15.45,0h0c-.39,0-.79,0-1.18,0A2.16,2.16,0,0,0,22.73,33a6.67,6.67,0,0,0,0,1.67,3.15,3.15,0,0,0,2,2.64,3.21,3.21,0,0,0,3.31-.42,3.81,3.81,0,0,0,1.3-4,2.13,2.13,0,0,0-2.12-1.79C26.88,31.11,26.49,31.13,26.09,31.13Zm-15.49,0h0c-.39,0-.79,0-1.18,0A2.18,2.18,0,0,0,7.28,33a5.83,5.83,0,0,0,0,1.18,3.39,3.39,0,0,0,5.13,2.92A3.78,3.78,0,0,0,14,33.17a2.24,2.24,0,0,0-2.31-2.05C11.33,31.11,11,31.12,10.6,31.12ZM44.75,7.6H43A1.31,1.31,0,0,0,41.65,9c0,.33,0,.66,0,1a3.1,3.1,0,0,0,5,2.18A3.44,3.44,0,0,0,47.89,9,1.34,1.34,0,0,0,46.48,7.6ZM38.18,37.81a3.29,3.29,0,0,0,1.54,2.37,1.09,1.09,0,0,1,.58,1c0,.68,0,1.35,0,2,0,.38.19.54.55.54h1.34c.39,0,.56-.19.55-.58,0-.6,0-1.19,0-1.78a1.36,1.36,0,0,1,.68-1.31,3.17,3.17,0,0,0,1.43-2.29A5,5,0,0,1,38.18,37.81ZM14,37.82a5,5,0,0,1-6.66,0A3.09,3.09,0,0,0,8.65,40,1.44,1.44,0,0,1,9.4,41.5c-.05.57,0,1.15,0,1.73a.48.48,0,0,0,.54.55h1.39a.47.47,0,0,0,.54-.54c0-.56,0-1.13,0-1.68A1.51,1.51,0,0,1,12.63,40,3,3,0,0,0,14,37.82Zm8.79,0A3.06,3.06,0,0,0,24.1,40a1.44,1.44,0,0,1,.75,1.47c-.05.57,0,1.15,0,1.73a.48.48,0,0,0,.54.55h1.38c.4,0,.56-.2.55-.59s0-1.06,0-1.58A1.55,1.55,0,0,1,28.12,40a3,3,0,0,0,1.28-2.16A5,5,0,0,1,22.75,37.82ZM41.66,6.39a3.61,3.61,0,0,1,.69-.19c.34,0,.57-.1.69-.48a.76.76,0,0,1,.63-.35.87.87,0,0,1,.63.43.49.49,0,0,0,.52.32l3.06.11a10.29,10.29,0,0,0,0-1.1A1.26,1.26,0,0,0,46.67,4q-1.91,0-3.81,0a1.24,1.24,0,0,0-1.19,1.11C41.64,5.53,41.66,5.94,41.66,6.39Zm2,7.88c0,.33,0,.71,0,1.08a1.09,1.09,0,0,0,1,1.1,1.11,1.11,0,0,0,1.12-1,11.08,11.08,0,0,0,0-1.15Zm-16.91-.71a.62.62,0,0,0-.59-.62.58.58,0,0,0-.62.62.55.55,0,0,0,.6.58A.59.59,0,0,0,26.72,13.56ZM7.39,16.72a.61.61,0,1,0,0-1.21.61.61,0,0,0,0,1.21Zm9.78-2.37a.59.59,0,0,0,.58.62.61.61,0,0,0,.63-.62.61.61,0,0,0-1.21,0Zm14-6.56a.61.61,0,0,0,.64-.59.62.62,0,0,0-.64-.61.57.57,0,0,0-.56.62A.55.55,0,0,0,31.21,7.79ZM22.59,9.21A.57.57,0,0,0,22,8.6a.58.58,0,0,0-.63.57A.6.6,0,0,0,22,9.8.58.58,0,0,0,22.59,9.21ZM11.77,11.34a.6.6,0,0,0,.52.71.56.56,0,0,0,.66-.51.6.6,0,0,0-1.18-.2Z"/><path class="f3fa8738-3227-4645-8cc0-5676cb3beefb" d="M19.14,24.59H6.86a2.44,2.44,0,0,1-.54,0,.73.73,0,0,1,0-1.43,2.07,2.07,0,0,1,.5,0H31.44a2.64,2.64,0,0,1,.4,0,.74.74,0,0,1,0,1.47c-.15,0-.3,0-.45,0Z"/><path class="e2ca802b-774f-46cd-873f-71486a987053" d="M13,27.46H6.44a.74.74,0,0,1,0-1.47,2.64,2.64,0,0,1,.4,0H19.23c.65,0,1,.28,1,.76s-.36.72-1,.72H13Z"/></svg>