<svg id="a288acf9-e04c-4031-8e80-be5531bf2e0f" data-name="Layer 1" xmlns="http://www.w3.org/2000/svg" xmlns:xlink="http://www.w3.org/1999/xlink" viewBox="0 0 55 55"><defs><style>.a36b57e5-67fc-4de8-b47a-547d6ee17330{fill:url(#b9a825ff-060e-42c7-9493-e1af87206790);}.ff6a5d7e-fe78-43f4-81cd-022ec86e879d{fill:url(#edb5f156-ec32-44e8-980f-6c470984f2ef);}.e63adb70-74fa-4d75-8d0f-9ad4da284d7a{fill:url(#a84629a7-e3d8-4dbc-a47f-a05e9d8ee085);}.a99c291a-bee5-4019-8e44-fe2741011664{fill:url(#eb9d2bf9-b2fd-49a3-bdb1-84cec8ee7ce5);}.e5e357f1-4b78-45dc-9dd4-50af764df635{fill:url(#b2ad0a2c-c82d-4fec-a3bf-19e92645acb5);}.ab4b6a90-5dd9-45ed-a333-471ccb714349{fill:url(#eab64a7d-eee0-4645-a10d-f53220d49196);}.ea897af7-986f-4f6a-86bf-5b5322b3197e{fill:url(#afc682a9-cf96-4649-9807-6207b5edef88);}</style><linearGradient id="b9a825ff-060e-42c7-9493-e1af87206790" y1="27.5" x2="55" y2="27.5" gradientUnits="userSpaceOnUse"><stop offset="0" stop-color="#ca9d42"/><stop offset="1" stop-color="#ccb07f"/></linearGradient><linearGradient id="edb5f156-ec32-44e8-980f-6c470984f2ef" x1="7.14" y1="17.55" x2="48.05" y2="17.55" xlink:href="#b9a825ff-060e-42c7-9493-e1af87206790"/><linearGradient id="a84629a7-e3d8-4dbc-a47f-a05e9d8ee085" x1="42.58" y1="9.77" x2="47.9" y2="9.77" xlink:href="#b9a825ff-060e-42c7-9493-e1af87206790"/><linearGradient id="eb9d2bf9-b2fd-49a3-bdb1-84cec8ee7ce5" x1="7.12" y1="7.99" x2="17.72" y2="7.99" xlink:href="#b9a825ff-060e-42c7-9493-e1af87206790"/><linearGradient id="b2ad0a2c-c82d-4fec-a3bf-19e92645acb5" x1="7.12" y1="11.54" x2="17.7" y2="11.54" xlink:href="#b9a825ff-060e-42c7-9493-e1af87206790"/><linearGradient id="eab64a7d-eee0-4645-a10d-f53220d49196" x1="35.53" y1="8" x2="40.78" y2="8" xlink:href="#b9a825ff-060e-42c7-9493-e1af87206790"/><linearGradient id="afc682a9-cf96-4649-9807-6207b5edef88" x1="35.52" y1="11.54" x2="40.79" y2="11.54" xlink:href="#b9a825ff-060e-42c7-9493-e1af87206790"/></defs><path class="a36b57e5-67fc-4de8-b47a-547d6ee17330" d="M0,55V53.28H2.66V52.6c0-1.64-.05-3.3.13-4.93a6.94,6.94,0,0,1,5.75-5.82c.39-.06.61-.19.65-.59a.09.09,0,0,1,0,0,2.86,2.86,0,0,0-.7-3.57,1,1,0,0,0-.74-.36c-1.07,0-2.14,0-3.21,0A4.43,4.43,0,0,1,0,32.72V4.59A4.44,4.44,0,0,1,4.58,0H50.42A4.43,4.43,0,0,1,55,4.59V32.72a4.43,4.43,0,0,1-4.6,4.56c-1.07,0-2.15,0-3.22,0a1.15,1.15,0,0,0-.62.31,2.94,2.94,0,0,0-.75,3.71c.13.3.24.47.59.52a7.07,7.07,0,0,1,5.93,6.76c0,1.53,0,3.06,0,4.66H55V55ZM49.64,31.93V5.37H5.36V31.92H7.08a6.24,6.24,0,0,1,12.48,0h1.68c.58-3.79,2.78-6.06,6-6.18a6.12,6.12,0,0,1,4,1.27,6.29,6.29,0,0,1,2.48,4.9h1.73a6.25,6.25,0,0,1,12.49,0Zm-2,3.58h2.52a2.71,2.71,0,0,0,3-3V4.83q0-3-3.08-3H4.85c-2,0-3.07,1-3.07,3.05V32.46c0,.17,0,.33,0,.5a2.62,2.62,0,0,0,2.36,2.52c1.05.07,2.1,0,3.19,0,0-.31-.1-.57-.14-.84s-.08-.58-.13-.93c-.55,0-1.1,0-1.65,0a1.76,1.76,0,0,1-1.86-1.84V5.42A1.77,1.77,0,0,1,5.44,3.55H49.56a1.77,1.77,0,0,1,1.89,1.87V31.89a1.76,1.76,0,0,1-1.86,1.84c-.55,0-1.1,0-1.64,0ZM23.07,38h0q0,3.07,0,6.15c0,.87.29,1.16,1.16,1.16h6.54c.87,0,1.16-.29,1.16-1.16q0-6,0-12a5.19,5.19,0,0,0-.19-1.36,4.42,4.42,0,0,0-8.67,1.14C23.05,33.89,23.07,35.93,23.07,38ZM16.86,53.25c0-1.46,0-2.88,0-4.3a7.14,7.14,0,0,1,1.71-4.69l.3-.44a12.72,12.72,0,0,0-1.76-.3c-2.53,0-5.07-.05-7.6,0a5.12,5.12,0,0,0-4.94,4.36c-.19,1.62-.09,3.28-.12,4.92,0,.15,0,.29,0,.42H6.23V47.09H8v6.16Zm33.7,0c0-1.54,0-3,0-4.53a5.28,5.28,0,0,0-5.2-5.21q-3.66,0-7.32,0a12.48,12.48,0,0,0-1.92.31l.43.54a7,7,0,0,1,1.6,4.28c0,1.35,0,2.7,0,4.05,0,.18,0,.36,0,.52H47V47.09h1.79v6.16Zm-29.3-9a4.93,4.93,0,0,0-2.51,3.52,23.08,23.08,0,0,0-.12,2.76c0,.88,0,1.76,0,2.64h1.79V47.08H22.2v6.16H32.83V47.09h1.78v6.14h1.74c0-1.66.09-3.29,0-4.9a5.08,5.08,0,0,0-2.58-4.06c-.28,2-1.21,2.78-3.16,2.78H24.27A2.73,2.73,0,0,1,21.26,44.3Zm-8-6.13h.11c.7,0,1.53.21,2.07-.09s1-1.13,1.41-1.73a4.3,4.3,0,0,0,.86-2.48c0-.68,0-1.37,0-2a4.47,4.47,0,0,0-4.09-4.29A4.36,4.36,0,0,0,9,31.14a14.81,14.81,0,0,0-.08,3c.07,1.63,1.23,2.71,2.1,3.93l2.18.12Zm28.4,0h.11a5,5,0,0,0,2.07-.09c.59-.32.94-1.11,1.38-1.7a4.42,4.42,0,0,0,.88-2.69c0-.63,0-1.26,0-1.88a4.46,4.46,0,0,0-4-4.28,4.36,4.36,0,0,0-4.71,3.57c-.33,2.17-.33,4.33,1.36,6.08a7.54,7.54,0,0,0,.47.61,1.56,1.56,0,0,0,.72.37C40.51,38.21,41.1,38.17,41.69,38.17Zm-20.4-.83c-2.61-.31-2.79-.24-4.12,1.59a.47.47,0,0,0-.06.09,1.38,1.38,0,0,0-.11.51c.14.65.31,1.29.5,1.93a.6.6,0,0,0,.33.35c.77.27,1.57.5,2.34.77.42.14,1.12-.21,1.12-.62C21.3,40.43,21.29,38.9,21.29,37.34Zm12.42-.05v4.46a.85.85,0,0,0,1.23.77c.7-.27,1.43-.45,2.14-.7a.77.77,0,0,0,.43-.38c.67-2.15.67-2.15-.73-3.89a.59.59,0,0,0-.38-.25C35.52,37.28,34.64,37.29,33.71,37.29Zm-18,4.41L15.28,40H11.33l-.42,1.73Zm28.38,0L43.66,40H39.72l-.43,1.73ZM19.3,35.48h1.95V33.77H19.56Zm16.14-1.71H33.75v1.7h2Z"/><path class="ff6a5d7e-fe78-43f4-81cd-022ec86e879d" d="M12.42,20.42v1.73H7.14V16.9h5.25v1.71h6.27a8.91,8.91,0,0,1,3.57-6.21,8.84,8.84,0,0,1,11.18.53,8.85,8.85,0,0,1,2.93,5.69h8.45l-2.88-2.83,1.26-1.13,4.88,4.89-4.91,4.9L42,23.22l2.87-2.8H34.6a7.28,7.28,0,0,0-3-6.64A6.83,6.83,0,0,0,27,12.45a7.25,7.25,0,0,0-6.57,8h-8ZM8.9,18.67v1.71h1.71V18.67Z"/><path class="e63adb70-74fa-4d75-8d0f-9ad4da284d7a" d="M47.9,9.78A2.66,2.66,0,1,1,45.28,7.1,2.68,2.68,0,0,1,47.9,9.78Zm-2.67.87a.89.89,0,1,0-.87-.89A.88.88,0,0,0,45.23,10.65Z"/><path class="a99c291a-bee5-4019-8e44-fe2741011664" d="M7.12,8.84V7.13h10.6V8.84Z"/><path class="e5e357f1-4b78-45dc-9dd4-50af764df635" d="M7.12,12.39V10.68H17.7v1.71Z"/><path class="ab4b6a90-5dd9-45ed-a333-471ccb714349" d="M40.78,7.14V8.85H35.53V7.14Z"/><path class="ea897af7-986f-4f6a-86bf-5b5322b3197e" d="M40.79,10.69v1.7H35.52v-1.7Z"/></svg>