<svg id="baa9e1b1-4b9f-4b35-b304-6497d0cb96b0" data-name="Layer 1" xmlns="http://www.w3.org/2000/svg" xmlns:xlink="http://www.w3.org/1999/xlink" viewBox="0 0 55 55"><defs><style>.b3c2a64d-9aee-4b41-a366-8e9c16601474{fill:url(#bcad791d-6929-4017-b653-4009fa0ffe62);}.a1a98bc6-af64-4a7f-8e83-4ec88bb10e6c{fill:url(#ba78a8cb-d027-41dc-b8fe-334a6fa040ab);}.b8bf8c3a-ce0f-4b9b-a078-73e2a898f1f8{fill:url(#ac23b8f3-956e-480b-ad7c-3af07374d70a);}</style><linearGradient id="bcad791d-6929-4017-b653-4009fa0ffe62" x1="0.01" y1="30.94" x2="52.71" y2="30.94" gradientUnits="userSpaceOnUse"><stop offset="0" stop-color="#ca9d42"/><stop offset="1" stop-color="#ccb07f"/></linearGradient><linearGradient id="ba78a8cb-d027-41dc-b8fe-334a6fa040ab" x1="27.49" y1="14.9" x2="54.99" y2="14.9" xlink:href="#bcad791d-6929-4017-b653-4009fa0ffe62"/><linearGradient id="ac23b8f3-956e-480b-ad7c-3af07374d70a" x1="35.53" y1="14.9" x2="46.96" y2="14.9" xlink:href="#bcad791d-6929-4017-b653-4009fa0ffe62"/></defs><path class="b3c2a64d-9aee-4b41-a366-8e9c16601474" d="M13.43,55c-.87-.55-1-1-.59-1.92l5.78-13.5c.08-.18.14-.36.24-.61H1.62C.37,39,0,38.61,0,37.38V33.46c0-1,.41-1.36,1.38-1.36H4.6v-.7q0-9.3,0-18.58A5.65,5.65,0,0,1,8.51,7.2a6.39,6.39,0,0,1,1.84-.31c3.74,0,7.48,0,11.22,0,.83,0,1.33.44,1.33,1.14s-.48,1.14-1.32,1.14H10.73A3.49,3.49,0,0,0,6.88,13V32.1H51c1.36,0,1.67.31,1.67,1.67v3.71c0,1.08-.41,1.49-1.5,1.49H33.84c.1.25.17.44.25.63Q37,46.31,39.84,53c.43,1,.33,1.39-.53,2h-.64a1.73,1.73,0,0,1-.91-1c-.43-1.08-.9-2.14-1.36-3.21-1.63-3.79-3.25-7.58-4.89-11.37-.07-.17-.25-.42-.38-.43-1.19,0-2.39,0-3.63,0v6.11c0,1.36,0,2.72,0,4.08a1.15,1.15,0,1,1-2.28-.07V39c-1.15,0-2.22,0-3.29,0a.7.7,0,0,0-.78.53C19.1,44.3,17,49.11,15,53.93a2,2,0,0,1-.9,1.07ZM50.37,34.41H2.29v2.2H50.37Z"/><path class="a1a98bc6-af64-4a7f-8e83-4ec88bb10e6c" d="M55,20.09c-.7,1.29-1.37,2.59-2.1,3.85a2.19,2.19,0,0,1-2.88.92c-.72-.32-1.43-.65-2.13-1a.63.63,0,0,0-.78.06,2.91,2.91,0,0,1-.82.5c-.66.22-.81.68-.84,1.3a19.14,19.14,0,0,1-.21,2.14,2.17,2.17,0,0,1-2.16,1.92c-1.22,0-2.44,0-3.65,0a2.17,2.17,0,0,1-2.16-1.93c-.13-.87-.21-1.74-.28-2.61a.66.66,0,0,0-.45-.64,3.84,3.84,0,0,1-.92-.54A1,1,0,0,0,34.36,24c-.6.32-1.22.59-1.84.86a2.2,2.2,0,0,1-3-.94c-.6-1-1.18-2.08-1.75-3.14a2.27,2.27,0,0,1,.69-3c.63-.47,1.26-.95,1.9-1.4a.62.62,0,0,0,.29-.67,3.91,3.91,0,0,1,0-1.23,1,1,0,0,0-.54-1.13c-.56-.38-1.1-.8-1.64-1.21A2.27,2.27,0,0,1,27.82,9c.56-1,1.15-2.1,1.75-3.14A2.19,2.19,0,0,1,32.48,5c.75.32,1.49.7,2.25,1a.87.87,0,0,0,.61,0,8.68,8.68,0,0,1,.87-.52,1.24,1.24,0,0,0,.84-1.3A19.12,19.12,0,0,1,37.25,2,2.22,2.22,0,0,1,39.47,0H43a2.19,2.19,0,0,1,2.22,1.92c.13.91.19,1.82.31,2.72a.78.78,0,0,0,.32.48c.2.16.5.22.69.4a1.42,1.42,0,0,0,2,.12A10.16,10.16,0,0,1,50,5a2.2,2.2,0,0,1,3,1c.7,1.24,1.37,2.5,2.05,3.75v1a3.26,3.26,0,0,1-1.44,1.78c-.26.16-.48.39-.74.53a1.92,1.92,0,0,0-1,1.91,2.1,2.1,0,0,0,1.13,2.07A4.16,4.16,0,0,1,55,19.13ZM50.92,7c-1,.49-2,.94-3,1.41a1.35,1.35,0,0,1-1.54-.18,8.73,8.73,0,0,0-1.9-1.18,1.74,1.74,0,0,1-1.23-1.78c0-1-.19-2-.29-3H39.8c-.35,0-.35.2-.37.45-.08.94-.17,1.89-.23,2.83a1.51,1.51,0,0,1-1,1.39A8.68,8.68,0,0,0,36.29,8.1a1.63,1.63,0,0,1-2,.21c-.89-.47-1.83-.86-2.77-1.29L29.8,10.17c.86.65,1.69,1.3,2.55,1.9a1.57,1.57,0,0,1,.7,1.7,8.84,8.84,0,0,0,0,2.24,1.61,1.61,0,0,1-.73,1.74c-.86.58-1.67,1.23-2.52,1.86l1.77,3.19c1-.47,2-.91,2.89-1.38a1.42,1.42,0,0,1,1.68.17A8,8,0,0,0,38,22.74a1.75,1.75,0,0,1,1.22,1.79c0,1,.19,2,.29,2.94H43c.1-1.11.2-2.17.28-3.24a1.47,1.47,0,0,1,1-1.39,9.14,9.14,0,0,0,2-1.17,1.54,1.54,0,0,1,1.86-.22c.93.48,1.9.88,2.88,1.33l1.7-3.15-2.7-2a1.39,1.39,0,0,1-.58-1.34c.05-.91,0-1.82,0-2.72A1.37,1.37,0,0,1,50,12.19c.42-.29.83-.61,1.25-.92l1.45-1.08Z"/><path class="b8bf8c3a-ce0f-4b9b-a078-73e2a898f1f8" d="M35.53,14.88a5.72,5.72,0,1,1,5.71,5.75A5.73,5.73,0,0,1,35.53,14.88Zm5.72-3.4a3.42,3.42,0,0,0-3.44,3.42,3.44,3.44,0,0,0,6.87,0A3.42,3.42,0,0,0,41.25,11.48Z"/></svg>