<svg xmlns="http://www.w3.org/2000/svg" xmlns:xlink="http://www.w3.org/1999/xlink" viewBox="0 0 1440 855.53"><defs><style>.cls-1{fill-rule:evenodd;fill:url(#linear-gradient);}</style><linearGradient id="linear-gradient" y1="427.76" x2="1440" y2="427.76" gradientUnits="userSpaceOnUse"><stop offset="0" stop-color="#ae853d"/><stop offset="1" stop-color="#f4ebd9" stop-opacity="0"/></linearGradient></defs><g id="Layer_2" data-name="Layer 2"><g id="Layer_2-2" data-name="Layer 2"><path class="cls-1" d="M780.81,308.54h0c2.51,8.59,4.8,16.42,7.13,23.2,17,49.58,44.89,54.11,78.7,59.62,14.76,2.41,30.66,5,47.29,11.6,12.88,5.12,31.62,18.21,55.61,34.95,78,54.44,211.35,147.54,378.19,130.92,39.34-3.92,63.14-14.66,75.4-29.8-39.27,62.67-147.83,132.79-332.81,31.35-80.36-44.07-82.58-1-84.78,41.37-2,38.24-3.94,75.93-63.18,48.65-116.47-53.63-23.67,83.89,38.43,175.92,4.5,6.67,8.84,13.1,12.93,19.2h444.11V506.27c2.9-11.16,2.88-20.59,0-26.68v26.68a104.73,104.73,0,0,1-6.76,18.3c18.26-55-65.67-146.33-127.62-198.51-12.56-15.72-14-10.78-17.86,2.47-8.7,29.82-29.67,101.74-217.58,74.44-144.78-21-86.8-27.51-53.49-31.23,7.4-.83,13.58-1.52,16-2.21,20.52-5.68,52-42.51,10.44-54.17-89.8-25.23-133-122.87-151.32-164.44-8.58-19.42-11.75-26.61-11.75-8.45,0,135.3,82.52,163.93,106.76,172.34h0l1.58.55c22,7.69,58.32,33.44-32.39,33.44s-104-59.19-85.32-107S840.38,34.56,677.77,7.39c-215.69-36-269,70.06-257.25,96.7C712.91,76.08,756.94,226.83,780.81,308.54ZM158.09,274.93c61,14.38,196,28.42,248.39-30.43C472,170.93,582.41,180,620.43,262.69c24.6,53.47-8.76,103.26-43.67,112.9-31.83,8.78-60.73-3.12-81.47-11.66h0c-1.9-.79-3.74-1.54-5.5-2.25-2-4.46-7.76-6.75-15.93-7.51-8.86-5.13-22.93-14.46-47.22-32.76-45.72-34.44-83.16-5.68-20.16,18.4l7.32,2.78c11.63,4.41,22.62,8.58,32.06,13-29.44,4.05-66,14.41-85.23,20.21,36.68,26.46,86.41,42.51,115.72,14-1.74,15-17.77,35-55.83,64-99,75.57.36,75.91,35.28,68.22,13.86-3,14.62-10.53,15.54-19.52,1.39-13.68,3.14-30.86,51.78-41.34,80.64-17.39,315.36-35.45,391,39.12S904.72,678.23,803.2,626.06c-30.85-15.85-62.45-41.7-91.38-65.36h0c-66.29-54.22-118.52-96.93-115.26,18.54,3.74,132.69,123,166.54,182.16,166.87L911.41,855.53H484.68c-16,0-21.61-16.66-30-41.58-23.6-69.89-69.14-204.78-426.88-219.33-82.55-3.35,41.27-29.86,82.55-35.89,188.74-27.59,235.28-38.07,78.37-79.14C45.63,442.15,4.84,219.92,158.09,274.93Z"/></g></g></svg>