<?xml version="1.0" encoding="utf-8"?>
<!-- Generator: Adobe Illustrator 25.4.1, SVG Export Plug-In . SVG Version: 6.00 Build 0)  -->
<svg version="1.1" id="Layer_1" xmlns="http://www.w3.org/2000/svg" xmlns:xlink="http://www.w3.org/1999/xlink" x="0px" y="0px"
	 viewBox="0 0 1440 855.5" style="enable-background:new 0 0 1440 855.5;" xml:space="preserve">
<style type="text/css">
	.st0{opacity:0.15;}
	.st1{fill-rule:evenodd;clip-rule:evenodd;fill:url(#SVGID_1_);}
	.st2{opacity:0.15;fill-rule:evenodd;clip-rule:evenodd;fill:#FFFFFF;}
	.st3{opacity:0.15;fill-rule:evenodd;clip-rule:evenodd;fill:url(#SVGID_00000120557225373607764990000017410068936099230130_);}
	.st4{opacity:0.15;fill-rule:evenodd;clip-rule:evenodd;fill:url(#SVGID_00000029744207394035335870000002978893018330187414_);}
</style>
<g id="Layer_2_00000026160801410041531730000002511520651997512366_" class="st0">
	<g id="Layer_2-2">
		
			<linearGradient id="SVGID_1_" gradientUnits="userSpaceOnUse" x1="3.074169e-02" y1="428.2284" x2="1439.9976" y2="428.2284" gradientTransform="matrix(1 0 0 -1 0 856)">
			<stop  offset="0" style="stop-color:#AE853D"/>
			<stop  offset="1" style="stop-color:#F4EBD9;stop-opacity:0"/>
		</linearGradient>
		<path class="st1" d="M623.9,506c21.1,0,52.5,25.7,87.9,54.7c28.9,23.7,60.5,49.5,91.4,65.4c101.5,52.2,186.6-51.2,110.9-125.8
			s-310.4-56.5-391-39.1c-48.6,10.5-50.4,27.7-51.8,41.3c-0.9,9-1.7,16.5-15.5,19.5c-34.9,7.7-134.3,7.3-35.3-68.2
			c38.1-29,54.1-49,55.8-64c-29.3,28.5-79,12.5-115.7-14c19.2-5.8,55.8-16.2,85.2-20.2c-9.4-4.4-20.4-8.6-32.1-13l-7.3-2.8
			c-63-24.1-25.6-52.8,20.2-18.4c24.3,18.3,38.4,27.6,47.2,32.8c8.2,0.8,13.9,3,15.9,7.5c1.8,0.7,3.6,1.5,5.5,2.2
			c20.7,8.5,49.6,20.4,81.5,11.7c34.9-9.6,68.3-59.4,43.7-112.9c-38-82.7-148.4-91.8-214-18.2c-52.4,58.8-187.4,44.8-248.4,30.4
			c-153.2-55-112.5,167.2,30.6,204.7c156.9,41.1,110.4,51.5-78.4,79.1c-41.3,6-165.1,32.5-82.5,35.9
			C385.5,609.2,431.1,744.1,454.7,814c8.4,24.9,14,41.6,30,41.6h426.7L778.7,746.1c-59.2-0.3-178.4-34.2-182.2-166.9
			C595,525.5,605.5,506,623.9,506z M1437.8,479.6v26.7C1440.7,495.1,1440.7,485.7,1437.8,479.6z M1303.4,326.1
			c-12.6-15.7-14-10.8-17.9,2.5c-8.7,29.8-29.7,101.7-217.6,74.4c-144.8-21-86.8-27.5-53.5-31.2c7.4-0.8,13.6-1.5,16-2.2
			c20.5-5.7,52-42.5,10.4-54.2c-89.8-25.2-133-122.9-151.3-164.4c-8.6-19.4-11.8-26.6-11.8-8.5c0,135.3,82.5,163.9,106.8,172.3
			l1.6,0.5c22,7.7,58.3,33.4-32.4,33.4s-104-59.2-85.3-107S840.4,34.6,677.8,7.4c-215.7-36-269,70.1-257.2,96.7
			c292.4-28,336.4,122.7,360.3,204.4c2.5,8.6,4.8,16.4,7.1,23.2c17,49.6,44.9,54.1,78.7,59.6c14.8,2.4,30.7,5,47.3,11.6
			c12.9,5.1,31.6,18.2,55.6,34.9c78,54.4,211.4,147.5,378.2,130.9c39.3-3.9,63.1-14.7,75.4-29.8c-39.3,62.7-147.8,132.8-332.8,31.3
			c-80.4-44.1-82.6-1-84.8,41.4c-2,38.2-3.9,75.9-63.2,48.7c-116.5-53.6-23.7,83.9,38.4,175.9c4.5,6.7,8.8,13.1,12.9,19.2h444.1
			V506.3c-1.7,6.3-3.9,12.4-6.8,18.3C1449.3,469.6,1365.4,378.2,1303.4,326.1z"/>
	</g>
</g>
<path class="st2" d="M1437.8,506.3v-26.7C1440.7,485.7,1440.7,495.1,1437.8,506.3z"/>
<linearGradient id="SVGID_00000089560639163658013170000012103924510065879189_" gradientUnits="userSpaceOnUse" x1="3.074169e-02" y1="525.0412" x2="943.0883" y2="525.0412">
	<stop  offset="0" style="stop-color:#FFFFFF"/>
	<stop  offset="1" style="stop-color:#F4EBD9;stop-opacity:0"/>
</linearGradient>
<path style="opacity:0.15;fill-rule:evenodd;clip-rule:evenodd;fill:url(#SVGID_00000089560639163658013170000012103924510065879189_);" d="
	M778.7,746.1l132.7,109.4H484.7c-16,0-21.6-16.7-30-41.6c-23.6-69.9-69.1-204.8-426.9-219.3c-82.5-3.3,41.3-29.9,82.5-35.9
	c188.7-27.6,235.3-38.1,78.4-79.1C45.6,442.2,4.8,219.9,158.1,274.9c61,14.4,196,28.4,248.4-30.4c65.5-73.6,175.9-64.5,214,18.2
	c24.6,53.5-8.8,103.3-43.7,112.9c-31.8,8.8-60.7-3.1-81.5-11.7c-1.9-0.8-3.7-1.5-5.5-2.2c-2-4.5-7.8-6.8-15.9-7.5
	c-8.9-5.1-22.9-14.5-47.2-32.8c-45.7-34.4-83.2-5.7-20.2,18.4l7.3,2.8c11.6,4.4,22.6,8.6,32.1,13c-29.4,4-66,14.4-85.2,20.2
	c36.7,26.5,86.4,42.5,115.7,14c-1.7,15-17.8,35-55.8,64c-99,75.6,0.4,75.9,35.3,68.2c13.9-3,14.6-10.5,15.5-19.5
	c1.4-13.7,3.1-30.9,51.8-41.3c80.6-17.4,315.4-35.4,391,39.1s-9.4,177.9-110.9,125.8c-30.9-15.8-62.5-41.7-91.4-65.4
	c-35.4-29-66.9-54.7-87.9-54.7c-18.3,0-28.9,19.5-27.3,73.2C600.3,711.9,719.6,745.8,778.7,746.1z"/>
<linearGradient id="SVGID_00000119096951155177852780000002120827426102554515_" gradientUnits="userSpaceOnUse" x1="418.9937" y1="427.7666" x2="1437.8301" y2="427.7666">
	<stop  offset="0" style="stop-color:#FFFFFF"/>
	<stop  offset="1" style="stop-color:#F4EBD9;stop-opacity:0"/>
</linearGradient>
<path style="opacity:0.15;fill-rule:evenodd;clip-rule:evenodd;fill:url(#SVGID_00000119096951155177852780000002120827426102554515_);" d="
	M1431.1,524.6c2.8-5.9,5.1-12,6.8-18.3v349.2H993.7c-4.1-6.1-8.4-12.5-12.9-19.2c-62.1-92-154.9-229.5-38.4-175.9
	c59.2,27.3,61.2-10.4,63.2-48.7c2.2-42.4,4.4-85.4,84.8-41.4c185,101.4,293.5,31.3,332.8-31.3c-12.3,15.1-36.1,25.9-75.4,29.8
	c-166.8,16.6-300.2-76.5-378.2-130.9c-24-16.7-42.7-29.8-55.6-34.9c-16.6-6.6-32.5-9.2-47.3-11.6c-33.8-5.5-61.7-10-78.7-59.6
	c-2.3-6.8-4.6-14.6-7.1-23.2c-23.9-81.7-67.9-232.5-360.3-204.4C408.8,77.5,462.1-28.6,677.8,7.4C840.4,34.6,887.2,194,868.5,241.8
	s-5.4,107,85.3,107s54.4-25.8,32.4-33.4l-1.6-0.5c-24.2-8.4-106.8-37-106.8-172.3c0-18.2,3.2-11,11.8,8.5
	c18.3,41.6,61.5,139.2,151.3,164.4c41.6,11.7,10.1,48.5-10.4,54.2c-2.4,0.7-8.6,1.4-16,2.2c-33.3,3.7-91.3,10.2,53.5,31.2
	c187.9,27.3,208.9-44.6,217.6-74.4c3.9-13.2,5.3-18.2,17.9-2.5C1365.4,378.2,1449.3,469.6,1431.1,524.6z"/>
</svg>
