<svg xmlns="http://www.w3.org/2000/svg" xmlns:xlink="http://www.w3.org/1999/xlink" viewBox="0 0 937.76 557.14"><defs><style>.cls-1{fill:none;}.cls-2{clip-path:url(#clip-path);}.cls-3{fill-rule:evenodd;opacity:0.5;fill:url(#linear-gradient);}</style><clipPath id="clip-path" transform="translate(285.4 178.24)"><rect class="cls-1" width="653.93" height="290.35"/></clipPath><linearGradient id="linear-gradient" x1="3492.28" y1="100.33" x2="4430.04" y2="100.33" gradientTransform="matrix(-1, 0, 0, 1, 4144.64, 0)" gradientUnits="userSpaceOnUse"><stop offset="0" stop-color="#ae853d"/><stop offset="0.4" stop-color="#af863f" stop-opacity="0.99"/><stop offset="0.55" stop-color="#b18a45" stop-opacity="0.95"/><stop offset="0.65" stop-color="#b6914f" stop-opacity="0.88"/><stop offset="0.73" stop-color="#bd9b5f" stop-opacity="0.79"/><stop offset="0.81" stop-color="#c6a872" stop-opacity="0.66"/><stop offset="0.87" stop-color="#d1b88b" stop-opacity="0.5"/><stop offset="0.93" stop-color="#decba8" stop-opacity="0.32"/><stop offset="0.98" stop-color="#ece0c8" stop-opacity="0.11"/><stop offset="1" stop-color="#f4ebd9" stop-opacity="0"/></linearGradient></defs><g id="Layer_2" data-name="Layer 2"><g id="Layer_2-2" data-name="Layer 2"><g class="cls-2"><path class="cls-3" d="M378.5-110.46c7.66-17.35-27.06-86.44-167.52-63C105.09-155.73,74.53-51.92,86.72-20.78s3.52,69.69-55.56,69.69-35.4-16.77-21.1-21.78l1-.36h0C26.89,21.29,80.63,2.65,80.63-85.46c0-11.83-2.07-7.15-7.66,5.5C61-52.88,32.91,10.7-25.57,27.13c-27,7.6-6.57,31.58,6.8,35.28A101.28,101.28,0,0,0-8.32,63.84c21.69,2.43,59.45,6.65-34.84,20.35C-165.53,102-179.18,55.13-184.85,35.7c-2.51-8.62-3.45-11.84-11.63-1.6-40.34,34-95,93.44-83.11,129.27a67.69,67.69,0,0,1-4.4-11.92V134.08c-1.87,4-1.89,10.1,0,17.37V378.9H5.23c2.66-4,5.48-8.16,8.41-12.51,40.45-59.93,100.88-149.48,25-114.56C.09,269.6-1.18,245.05-2.47,220.15c-1.43-27.6-2.88-55.64-55.21-26.94-120.47,66.06-191.16,20.4-216.74-20.42,8,9.86,23.49,16.86,49.11,19.41C-116.66,203-29.81,142.4,21,106.94,36.59,96,48.8,87.52,57.18,84.19,68,79.88,78.37,78.2,88,76.63c22-3.59,40.16-6.54,51.26-38.83,1.51-4.41,3-9.51,4.64-15.11h0C159.42-30.52,188.09-128.69,378.5-110.46Zm151,244.54c-102.19,26.74-71.88,33.57,51,51.54C607.4,189.55,688,206.81,634.27,209c-233,9.47-262.62,97.32-278,142.83-5.48,16.23-9.14,27.08-19.55,27.08H58.83l86.41-71.26c38.53-.21,116.19-22.25,118.62-108.67C266,123.78,232,151.59,188.81,186.9h0c-18.84,15.41-39.43,32.24-59.51,42.56-66.11,34-121.44-33.32-72.21-81.88s202.09-36.8,254.6-25.48c31.67,6.83,32.81,18,33.72,26.92.6,5.86,1.1,10.73,10.12,12.72,22.74,5,87.44,4.79,23-44.43-24.78-18.92-35.22-31.95-36.35-41.71,19.09,18.56,51.47,8.1,75.36-9.13C405,62.69,381.18,55.94,362,53.31c6.14-2.86,13.3-5.58,20.87-8.45l4.77-1.81c41-15.68,16.64-34.41-13.13-12C358.7,43,331.05,58.25,329.81,58.76c0,0-32.32,13.31-53.05,7.59C254,60.08,232.3,27.65,248.32-7.17,273.08-61,345-66.93,387.65-19,421.78,19.31,509.71,10.17,549.41.8,649.21-35,622.64,109.7,529.48,134.08Z" transform="translate(285.4 178.24)"/></g></g></g></svg>