<svg xmlns="http://www.w3.org/2000/svg" xmlns:xlink="http://www.w3.org/1999/xlink" viewBox="0 0 771.46 375.65"><defs><style>.cls-1{fill:none;}.cls-2{clip-path:url(#clip-path);}.cls-3{fill:#aa823c;}.cls-4{fill:#ca9d42;}.cls-5{fill:#ccb07f;}.cls-6{fill:url(#linear-gradient);}.cls-7{fill:#fff;}</style><clipPath id="clip-path" transform="translate(190.9 51.23)"><rect class="cls-1" width="421" height="228.93"/></clipPath><linearGradient id="linear-gradient" x1="401.4" y1="280.16" x2="401.4" y2="112.62" gradientUnits="userSpaceOnUse"><stop offset="0" stop-color="#aa823c"/><stop offset="1" stop-color="#aa823c" stop-opacity="0"/></linearGradient></defs><g id="Layer_2" data-name="Layer 2"><g id="Layer_2-2" data-name="Layer 2"><g class="cls-2"><rect class="cls-3" width="752.87" height="375.65"/><path class="cls-4" d="M210.5,212.32v14H137.36a5.83,5.83,0,0,1-5.48-3.83l-3.71-10.17Z" transform="translate(190.9 51.23)"/><path class="cls-4" d="M210.5,0V202.07H129.68a5.83,5.83,0,0,1-5.48-3.83L76.5,67.7a8.17,8.17,0,0,1,12.89-9.09l66.88,55.44L203,5A8,8,0,0,1,210.5,0" transform="translate(190.9 51.23)"/><path class="cls-5" d="M210.5,212.32v14h73.15a5.82,5.82,0,0,0,5.47-3.83l3.72-10.17Z" transform="translate(190.9 51.23)"/><path class="cls-5" d="M210.5,0V202.07h80.82a5.83,5.83,0,0,0,5.48-3.83L344.5,67.7a8.17,8.17,0,0,0-12.89-9.09l-66.88,55.44L218,5A8.06,8.06,0,0,0,210.5,0" transform="translate(190.9 51.23)"/><rect class="cls-6" x="190.9" y="112.62" width="421" height="167.55"/><path class="cls-7" d="M555.94,103.33v2.57h-13.4a1.08,1.08,0,0,1-1-.7l-.68-1.87Z" transform="translate(190.9 51.23)"/><path class="cls-7" d="M555.94,64.46v37h-14.8a1.06,1.06,0,0,1-1-.7l-8.74-23.9a1.5,1.5,0,0,1,2.36-1.67L546,85.34l8.55-20a1.48,1.48,0,0,1,1.38-.91" transform="translate(190.9 51.23)"/><path class="cls-7" d="M555.94,103.33v2.57h13.39a1.06,1.06,0,0,0,1-.7l.68-1.87Z" transform="translate(190.9 51.23)"/><path class="cls-7" d="M555.94,64.46v37h14.79a1.08,1.08,0,0,0,1-.7l8.73-23.9a1.5,1.5,0,0,0-2.36-1.67L565.86,85.34l-8.55-20a1.47,1.47,0,0,0-1.37-.91" transform="translate(190.9 51.23)"/></g></g></g></svg>