<?xml version="1.0" encoding="utf-8"?>
<!-- Generator: Adobe Illustrator 25.4.1, SVG Export Plug-In . SVG Version: 6.00 Build 0)  -->
<svg version="1.1" id="Layer_1" xmlns="http://www.w3.org/2000/svg" xmlns:xlink="http://www.w3.org/1999/xlink" x="0px" y="0px"
	 viewBox="0 0 1076.3 646.4" style="enable-background:new 0 0 1076.3 646.4;" xml:space="preserve">
<style type="text/css">
	.st0{fill:#EBEBEB;}
	.st1{fill:#FFC727;}
	.st2{opacity:0.6;fill:#FFFFFF;enable-background:new    ;}
	.st3{opacity:0.1;enable-background:new    ;}
	.st4{fill:none;stroke:#FFC727;stroke-width:2;stroke-miterlimit:10;}
	.st5{fill:#455A64;}
	.st6{fill:#FFFFFF;}
	.st7{fill:none;stroke:#263238;stroke-width:0.75;stroke-miterlimit:10;}
	.st8{fill:none;stroke:#263238;stroke-width:0.75;stroke-miterlimit:10;stroke-dasharray:1.83,1.83;}
	.st9{fill:none;stroke:#263238;stroke-width:0.75;stroke-miterlimit:10;stroke-dasharray:1.98,1.98;}
	.st10{fill:none;stroke:#263238;stroke-width:0.75;stroke-miterlimit:10;stroke-dasharray:1.62,1.62;}
	.st11{fill:#263238;}
	.st12{fill:none;stroke:#263238;stroke-width:0.75;stroke-miterlimit:10;stroke-dasharray:2,2;}
	.st13{fill:#C7C7C7;}
	.st14{fill:#DBDBDB;}
	.st15{fill:#37474F;}
	.st16{fill:#A6A6A6;}
</style>
<g id="Layer_2_00000137846603514521822250000016748339685886336915_">
	<g id="Layer_2-2">
		<g id="freepik--background-complete--inject-271">
			<path class="st0" d="M1043.9,411.8l-21.2,0.5l-10.8,0.2c-3.6,0.1-7.2,0-10.8,0.1h-0.7v-0.7l-0.1-18.2v-0.8h0.8l21.4,0.1
				c7.2,0,14.3,0.2,21.4,0.3h0.5v0.5c0,3.1-0.1,6.1-0.2,9.2L1043.9,411.8z M1043.9,411.8l-0.2-9.1c-0.1-3-0.2-6-0.2-9l0.4,0.5
				c-7.1,0.1-14.3,0.3-21.4,0.3l-21.4,0.1l0.8-0.8v18.1l-0.7-0.7c3.5,0,7,0,10.6,0.1l10.5,0.3L1043.9,411.8z"/>
			<path class="st0" d="M1020,434.7l-21.2,0.5l-10.8,0.1c-3.6,0-7.2,0-10.8,0.1h-0.7v-19.7h0.8l21.4,0.1c7.1,0,14.3,0.2,21.4,0.2
				h0.4v0.4c0,3.1-0.1,6.1-0.2,9.2L1020,434.7z M1020,434.7l-0.2-9.1c-0.1-3-0.2-6-0.2-9l0.4,0.5c-7.1,0.1-14.3,0.3-21.4,0.3
				l-21.4,0.1l0.8-0.8v18.1l-0.7-0.7c3.5,0,7.1,0,10.6,0.1l10.6,0.2L1020,434.7z"/>
			<path class="st0" d="M1067.9,434.7l-21.2,0.5l-10.8,0.2c-3.6,0-7.2,0-10.8,0.1h-0.7v-0.7l-0.1-18.1v-0.8h0.8l21.4,0.1
				c7.2,0,14.3,0.2,21.4,0.2h0.4v0.4c0,3.1-0.1,6.1-0.2,9.2L1067.9,434.7z M1067.9,434.7l-0.2-9.1c0-3-0.2-6-0.2-9l0.4,0.5
				c-7.1,0.1-14.3,0.3-21.4,0.3l-21.4,0.1l0.8-0.8v18.1l-0.7-0.7c3.6,0,7.1,0,10.6,0.1l10.7,0.2L1067.9,434.7z"/>
			<path class="st0" d="M440.8,198.6l-21.2,0.4l-10.8,0.2h-11.6v-0.7l-0.1-18.1v-0.8h0.8l21.4,0.1c7.2,0,14.3,0.2,21.4,0.2h0.5v0.4
				c0,3.1-0.1,6.1-0.2,9.1L440.8,198.6z M440.8,198.6l-0.2-9.2c0-3-0.2-6-0.2-8.9l0.4,0.4c-7.1,0-14.3,0.3-21.4,0.3l-21.4,0.1
				l0.8-0.8l-0.1,18.1l-0.7-0.7c3.5,0,7.1,0,10.6,0.1l10.6,0.2L440.8,198.6z"/>
			<path class="st0" d="M416.9,221.5l-21.2,0.5l-10.8,0.2c-3.6,0-7.2,0-10.8,0.1h-0.7v-0.7l-0.1-18.1v-0.8h0.8l21.4,0.1
				c7.1,0,14.3,0.2,21.4,0.2h0.5v0.5c0,3.1-0.1,6.1-0.2,9.1L416.9,221.5z M416.9,221.5l-0.2-9.2c-0.1-3-0.2-6-0.2-8.9l0.4,0.4
				c-7.1,0.1-14.3,0.3-21.4,0.3l-21.4,0.1l0.8-0.8v18.1l-0.7-0.7c3.5,0,7.1,0,10.6,0.1l10.6,0.2L416.9,221.5z"/>
			<path class="st0" d="M464.7,221.5l-21.2,0.5l-10.8,0.2c-3.6,0-7.2,0-10.8,0.1h-0.7v-0.7l-0.1-18.1v-0.8h0.8l21.4,0.1
				c7.1,0,14.3,0.2,21.4,0.2h0.5v0.5c0,3.1-0.1,6.1-0.2,9.1L464.7,221.5z M464.7,221.5l-0.2-9.2c0-3-0.2-6-0.2-8.9l0.4,0.4
				c-7.1,0.1-14.3,0.3-21.4,0.3l-21.4,0.1l0.8-0.8l-0.1,18.1l-0.7-0.7c3.5,0,7,0,10.6,0.1l10.6,0.2L464.7,221.5z"/>
			<path class="st0" d="M91.4,318.5l-21.2,0.5l-10.8,0.2c-3.6,0-7.2,0-10.8,0.1h-0.7v-19.6h0.8l21.4,0.1c7.1,0,14.3,0.2,21.4,0.3H92
				v0.4c0,3.1-0.1,6.1-0.2,9.1L91.4,318.5z M91.4,318.5l-0.2-9.2c0-3-0.2-6-0.2-9l0.4,0.4c-7.1,0.1-14.3,0.3-21.4,0.3l-21.4,0.1
				l0.8-0.8l-0.1,18.1l-0.7-0.7c3.5,0,7,0,10.6,0.1l10.6,0.2L91.4,318.5z"/>
			<path class="st0" d="M801.9,198.6l-21.2,0.4l-10.8,0.2c-3.6,0.1-7.2,0-10.8,0.1h-0.7v-0.7l-0.1-18.1v-0.8h0.8l21.4,0.1
				c7.2,0,14.3,0.2,21.4,0.3h0.5v0.4c0,3.1-0.1,6.1-0.2,9.1L801.9,198.6z M801.9,198.6l-0.2-9.1c-0.1-3-0.2-6-0.2-9l0.4,0.4
				c-7.1,0.1-14.3,0.2-21.4,0.3l-21.4,0.1l0.8-0.8l-0.1,18.1l-0.7-0.7c3.5,0,7,0,10.6,0.1l10.7,0.2L801.9,198.6z"/>
			<path class="st0" d="M1049.5,22.7l-21.2,0.5l-10.8,0.2c-3.6,0-7.2,0-10.8,0.1h-0.7V3.8h0.8l21.4,0.1c7.1,0,14.3,0.2,21.4,0.3h0.5
				v0.4c0,3.1-0.1,6.1-0.2,9.1L1049.5,22.7z M1049.5,22.7l-0.2-9.1c-0.1-3-0.2-6-0.2-9l0.4,0.4c-7.1,0-14.3,0.3-21.4,0.3l-21.4,0.1
				l0.8-0.8l-0.1,18.1l-0.7-0.7c3.5,0,7.1,0,10.6,0.1l10.6,0.2L1049.5,22.7z"/>
			<path class="st0" d="M1073.4,45.6l-21.2,0.5l-10.8,0.2c-3.6,0.1-7.2,0-10.8,0.1h-0.7v-0.7l-0.1-18.1v-0.8h0.8l21.4,0.1
				c7.2,0,14.3,0.2,21.4,0.3h0.5v0.4c0,3.1-0.2,6.1-0.2,9.1L1073.4,45.6z M1073.4,45.6l-0.2-9.1c0-3-0.2-6-0.2-9l0.4,0.4
				c-7.1,0.1-14.3,0.3-21.4,0.3l-21.4,0.1l0.8-0.8v18.1l-0.7-0.7c3.5,0,7.1,0,10.6,0.1l10.7,0.2L1073.4,45.6z"/>
			<path class="st0" d="M43.6,22.7l-21.3,0.5l-10.8,0.2c-3.6,0-7.2,0-10.8,0.1H0V3.8h0.8l21.4,0.1c7.1,0,14.3,0.2,21.4,0.3h0.4v0.4
				c0,3.1-0.2,6.1-0.2,9.2L43.6,22.7z M43.6,22.7l-0.2-9.1c0-3-0.2-6-0.2-9L43.6,5c-7.2,0.1-14.3,0.2-21.4,0.3L0.7,5.4l0.8-0.8
				L1.4,22.7l-0.7-0.6h10.6L22,22.3L43.6,22.7z"/>
			<path class="st0" d="M1014.6,201.3l9.5-15.4l-4.7-2.9c-1.4-0.9-2.1-2.4-2-4c0.1-0.9,0.1-1.8,0-2.7c-0.1-1.6,0.8-3.1,2.2-3.9
				l4.9-2.6l-8.5-15.9l-4.8,2.6c-1.4,0.8-3.2,0.7-4.5-0.3c-0.7-0.5-1.5-1-2.3-1.4c-1.4-0.8-2.3-2.3-2.3-3.9l0.2-5.5l-18.1-0.6
				l-0.2,5.6c-0.1,1.6-1,3.1-2.5,3.7l-1.2,0.6c-0.4,0.2-0.8,0.4-1.2,0.7c-1.4,0.9-3.1,0.9-4.5,0l-4.7-2.9l-9.5,15.4l4.7,2.9
				c1.4,0.9,2.1,2.4,2,4c-0.1,0.9-0.1,1.8-0.1,2.7c0,1.6-0.8,3.1-2.2,3.9l-4.8,2.6l8.5,15.9l4.9-2.6c1.4-0.8,3.2-0.6,4.5,0.3
				c0.7,0.5,1.5,1,2.3,1.4c1.4,0.8,2.3,2.3,2.3,3.9l-0.2,5.5l18.1,0.6l0.2-5.6c0.1-1.6,1-3.1,2.5-3.7l1.2-0.6l1.2-0.7
				c1.4-0.8,3.1-0.8,4.5,0L1014.6,201.3z M999.3,190c0,20,16.2,36.1,36.2,36.1c20,0,36.1-16.2,36.1-36.2s-16.2-36.1-36.2-36.1
				C1015.5,153.8,999.3,170,999.3,190L999.3,190z"/>
			<path class="st0" d="M185.8,533.4l-6.3-11l-3.4,1.9c-1,0.6-2.2,0.5-3.2-0.1c-0.5-0.3-1.1-0.7-1.6-0.9c-1-0.5-1.6-1.6-1.6-2.7
				v-3.9H157v3.8c0,1.1-0.6,2.2-1.6,2.7c-0.6,0.3-1.1,0.6-1.6,0.9c-1,0.7-2.2,0.7-3.2,0.1l-3.4-2l-6.3,11l3.4,1.9
				c1,0.6,1.5,1.7,1.5,2.8v2c0.1,1.1-0.5,2.2-1.4,2.8l-3.4,2l6.3,11l3.4-1.9c1-0.6,2.3-0.6,3.2,0.1c0.5,0.3,1.1,0.7,1.6,0.9
				c1,0.5,1.6,1.5,1.6,2.7v3.9h12.7v-3.9c0-1.1,0.6-2.2,1.6-2.7c0.6-0.3,1.1-0.6,1.6-0.9c0.9-0.6,2.2-0.7,3.2-0.1l3.4,1.9l6.3-11
				l-3.4-1.9c-1-0.6-1.6-1.7-1.5-2.8v-1.9c-0.1-1.1,0.5-2.2,1.5-2.8L185.8,533.4z M173.7,539c0,5.7-4.7,10.4-10.4,10.4
				c-5.7,0-10.4-4.7-10.4-10.4c0-5.7,4.6-10.4,10.4-10.4C169,528.7,173.7,533.3,173.7,539C173.7,539,173.7,539,173.7,539z"/>
			<path class="st0" d="M76.9,409.3c-27.2,0-49.3,22.1-49.3,49.3c0,27.2,22.1,49.3,49.3,49.3s49.3-22.1,49.3-49.3l0,0l0,0
				C126.2,431.4,104.1,409.3,76.9,409.3C76.9,409.3,76.9,409.3,76.9,409.3L76.9,409.3z M76.9,481.6c-12.7,0-23-10.3-23-23
				s10.3-23,23-23s23,10.3,23,23l0,0C99.9,471.3,89.6,481.6,76.9,481.6L76.9,481.6z"/>
			<polygon class="st0" points="86.3,411.4 67.4,411.4 68.4,397.9 85.3,397.9 			"/>
			<polygon class="st0" points="50.2,417.7 36.8,431.1 28.1,420.9 40,409 			"/>
			<polygon class="st0" points="29.2,447.8 29.2,466.8 15.8,465.7 15.8,448.8 			"/>
			<polygon class="st0" points="35.6,483.9 49,497.3 38.8,506 26.9,494.1 			"/>
			<polygon class="st0" points="65.7,504.9 84.6,504.9 83.6,518.3 66.7,518.3 			"/>
			<polygon class="st0" points="101.8,498.5 115.2,485.1 123.9,495.3 112,507.2 			"/>
			<polygon class="st0" points="122.8,468.5 122.8,449.5 136.2,450.5 136.2,467.4 			"/>
			<polygon class="st0" points="116.4,432.4 103,418.9 113.2,410.2 125.1,422.1 			"/>
			<path class="st0" d="M83.3,112.7c0-2,0.3-7.4,0.3-9.7c0-9.8-3.5-14.3-12.7-14.6C66.6,88.2,64,85.7,64,82s2.6-6.2,6.9-6.5
				c9.2-0.4,12.6-4.7,12.6-14.5c0-2.3-0.3-7.7-0.3-9.7c0-13.1,5.5-21.4,26.4-26c4.2-1,7.4,1.6,7.4,5.5c0.1,2.5-1.4,4.7-3.8,5.5
				c-13.1,4-15,8.2-15,17.4c0,2.7,0.3,7.1,0.3,10c0,10.5-5.1,15.6-14,18.5c9,3,14,7.9,14,18.5c0,2.8-0.3,7.3-0.3,10
				c0,9.2,1.9,13.3,15,17.4c2.3,0.8,3.8,3.1,3.8,5.5c0,3.9-3.2,6.5-7.4,5.5C88.8,134.3,83.3,126,83.3,112.7z"/>
			<path class="st0" d="M162.3,51.2c0,2-0.3,7.4-0.3,9.7c0,10,3.6,14.3,12.8,14.7c4.2,0.3,6.7,2.8,6.7,6.5s-2.6,6.2-6.7,6.5
				c-9.2,0.3-12.8,4.7-12.8,14.6c0,2.3,0.3,7.7,0.3,9.7c0,13.2-5.5,21.6-26.4,26.2c-4.2,0.9-7.4-1.6-7.4-5.5
				c-0.1-2.5,1.5-4.8,3.9-5.5c12.9-4,14.8-8.2,14.8-17.4c0-2.7-0.3-7.2-0.3-10c0-10.5,5.1-15.6,14-18.5c-9-3-14-8-14-18.5
				c0-2.8,0.3-7.3,0.3-10c0-9.2-1.9-13.4-14.8-17.4c-2.4-0.8-4-3-3.9-5.5c0-3.9,3.2-6.5,7.4-5.5C156.7,29.8,162.3,38.1,162.3,51.2z"
				/>
		</g>
		<g id="freepik--Icons--inject-271">
			<polygon class="st1" points="205.3,262.8 122.8,262.8 122.8,155 185,155 205.3,175.3 			"/>
			<polygon class="st2" points="205.3,262.8 122.8,262.8 122.8,155 185,155 205.3,175.3 			"/>
			<polygon class="st1" points="205.3,175.3 185,175.3 185,155 			"/>
			<path class="st1" d="M141.8,193c0,3.4,2.8,6.1,6.2,6.1c3.4,0,6.1-2.8,6.1-6.2c0-3.4-2.8-6.1-6.2-6.1
				C144.6,186.8,141.8,189.6,141.8,193C141.8,193,141.8,193,141.8,193z"/>
			<polygon class="st1" points="151.3,220.3 193.1,220.3 172.2,194.9 			"/>
			<polygon class="st1" points="135,220.3 169.4,220.3 152.2,203.7 			"/>
			<polygon class="st3" points="135,220.3 169.4,220.3 152.2,203.7 			"/>
			<rect x="135" y="179.6" class="st4" width="58.1" height="40.8"/>
			<rect x="102.7" y="224.7" class="st5" width="59.3" height="24.5"/>
			<path class="st6" d="M120.1,231.4v11.9h-2.3v-5.1h-5.4v5.1h-2.3v-11.9h2.3v4.9h5.4v-4.9H120.1z"/>
			<path class="st6" d="M131.5,233.4h-3.8v9.9h-2.3v-9.9h-3.8v-2h9.9V233.4z"/>
			<path class="st6" d="M142.7,243.3v-7.9l-3.1,5.9h-1.2l-3.1-5.9v7.9H133v-11.9h2.5l3.5,6.8l3.6-6.8h2.5v11.9H142.7z"/>
			<path class="st6" d="M147.5,243.3v-11.9h2.4v9.9h6.1v2L147.5,243.3z"/>
			<polygon class="st1" points="205.3,393.7 122.7,393.7 122.7,285.8 185,285.8 205.3,306.1 			"/>
			<polygon class="st2" points="205.3,393.7 122.7,393.7 122.7,285.8 185,285.8 205.3,306.1 			"/>
			<polygon class="st1" points="205.3,306.1 185,306.1 185,285.8 			"/>
			<path class="st1" d="M141.8,323.8c0,3.4,2.8,6.2,6.2,6.2c3.4,0,6.2-2.8,6.2-6.2s-2.8-6.2-6.2-6.2c0,0,0,0,0,0
				C144.5,317.7,141.8,320.4,141.8,323.8C141.8,323.8,141.8,323.8,141.8,323.8z"/>
			<polygon class="st1" points="151.3,351.2 193.1,351.2 172.2,325.7 			"/>
			<polygon class="st1" points="134.9,351.2 169.4,351.2 152.1,334.6 			"/>
			<polygon class="st3" points="134.9,351.2 169.4,351.2 152.1,334.6 			"/>
			<rect x="134.9" y="310.4" class="st4" width="58.1" height="40.8"/>
			<rect x="102.6" y="355.6" class="st5" width="59.3" height="24.5"/>
			<path class="st6" d="M116.6,368.2c0-0.7,0.1-1.5,0.4-2.2c0.3-0.7,0.6-1.4,1.1-1.9c0.5-0.6,1.2-1,1.8-1.4c0.8-0.4,1.6-0.5,2.5-0.5
				c1,0,2,0.2,2.8,0.7c0.8,0.4,1.4,1.1,1.8,1.9l-1.8,1.2c-0.3-0.6-0.7-1.1-1.3-1.4c-0.3-0.1-0.5-0.2-0.8-0.3
				c-0.3-0.1-0.6-0.1-0.8-0.1c-0.5,0-1.1,0.1-1.5,0.3c-0.4,0.2-0.8,0.5-1.1,0.9c-0.3,0.4-0.5,0.8-0.7,1.3c-0.3,1-0.3,2,0,2.9
				c0.2,0.5,0.4,0.9,0.7,1.3c0.3,0.4,0.7,0.7,1.1,0.9c0.4,0.2,0.9,0.3,1.4,0.3c0.3,0,0.6,0,0.8-0.1c0.3-0.1,0.6-0.2,0.8-0.3
				c0.3-0.1,0.5-0.3,0.7-0.6c0.2-0.2,0.4-0.5,0.6-0.8l1.9,1.1c-0.2,0.4-0.5,0.8-0.8,1.2c-0.4,0.3-0.8,0.6-1.2,0.9
				c-0.5,0.2-0.9,0.4-1.4,0.5c-0.5,0.1-1,0.2-1.5,0.2c-0.8,0-1.6-0.2-2.3-0.5c-1.4-0.7-2.5-1.9-3-3.4
				C116.7,369.7,116.6,368.9,116.6,368.2z"/>
			<path class="st6" d="M135.9,365.4c-0.1-0.1-0.3-0.2-0.4-0.3c-0.5-0.3-1.1-0.6-1.7-0.7c-0.3-0.1-0.7-0.1-1.1-0.1
				c-0.5,0-1,0.1-1.4,0.3c-0.3,0.2-0.5,0.6-0.5,1c0,0.2,0.1,0.4,0.2,0.6c0.1,0.2,0.3,0.3,0.5,0.4c0.3,0.1,0.6,0.2,0.9,0.3
				c0.3,0.1,0.7,0.2,1.2,0.3s1.1,0.3,1.6,0.5c0.4,0.2,0.9,0.4,1.2,0.7c0.3,0.3,0.6,0.6,0.8,1c0.2,0.4,0.3,0.9,0.3,1.4
				c0,0.6-0.1,1.1-0.4,1.6c-0.2,0.4-0.6,0.8-1,1.1c-0.4,0.3-0.9,0.5-1.4,0.6c-0.5,0.1-1.1,0.2-1.6,0.2c-0.9,0-1.8-0.1-2.6-0.4
				c-0.8-0.3-1.6-0.6-2.4-1.1l1-2c0.2,0.1,0.4,0.3,0.6,0.4c0.7,0.4,1.4,0.7,2.1,0.9c0.4,0.1,0.9,0.2,1.4,0.2c1.3,0,1.9-0.4,1.9-1.2
				c0-0.2-0.1-0.5-0.2-0.6c-0.2-0.2-0.4-0.4-0.6-0.5c-0.3-0.2-0.7-0.3-1-0.4l-1.3-0.4c-0.5-0.1-1-0.3-1.5-0.5
				c-0.4-0.2-0.7-0.4-1.1-0.7c-0.3-0.2-0.5-0.5-0.6-0.9c-0.1-0.4-0.2-0.8-0.2-1.2c0-0.6,0.1-1.1,0.3-1.6c0.2-0.5,0.5-0.9,0.9-1.2
				c0.4-0.3,0.9-0.6,1.4-0.7c0.5-0.2,1.1-0.2,1.6-0.2c0.8,0,1.6,0.1,2.3,0.4c0.6,0.3,1.2,0.6,1.8,1L135.9,365.4z"/>
			<path class="st6" d="M146.2,365.4c-0.1-0.1-0.3-0.2-0.4-0.3c-0.5-0.3-1.1-0.6-1.7-0.7c-0.3-0.1-0.7-0.1-1.1-0.1
				c-0.5,0-1,0.1-1.4,0.3c-0.3,0.2-0.5,0.6-0.5,1c0,0.2,0,0.4,0.2,0.6c0.1,0.2,0.3,0.3,0.5,0.4c0.3,0.1,0.5,0.2,0.8,0.3
				c0.3,0.1,0.8,0.2,1.2,0.3s1.1,0.3,1.6,0.5c0.4,0.2,0.9,0.4,1.2,0.7c0.3,0.3,0.6,0.6,0.8,1c0.2,0.4,0.3,0.9,0.3,1.4
				c0,0.6-0.1,1.1-0.4,1.6c-0.2,0.4-0.6,0.8-1,1.1c-0.4,0.3-0.9,0.5-1.4,0.6c-0.5,0.1-1.1,0.2-1.6,0.2c-0.9,0-1.8-0.1-2.6-0.4
				c-0.8-0.3-1.6-0.6-2.4-1.1l1-2c0.2,0.1,0.3,0.3,0.5,0.4c0.3,0.2,0.6,0.3,0.9,0.5c0.4,0.2,0.8,0.3,1.2,0.4
				c0.4,0.1,0.9,0.2,1.3,0.2c1.3,0,1.9-0.4,1.9-1.2c0-0.2-0.1-0.5-0.2-0.6c-0.2-0.2-0.4-0.4-0.6-0.5c-0.3-0.1-0.7-0.3-1-0.4
				l-1.3-0.4c-0.5-0.1-1-0.3-1.5-0.5c-0.4-0.2-0.7-0.4-1.1-0.7c-0.3-0.2-0.5-0.5-0.6-0.9c-0.1-0.4-0.2-0.8-0.2-1.2
				c0-0.6,0.1-1.1,0.3-1.6c0.2-0.5,0.5-0.9,0.9-1.2c0.4-0.3,0.9-0.6,1.4-0.7c1.3-0.4,2.7-0.3,3.9,0.2c0.7,0.2,1.3,0.5,1.9,0.9
				L146.2,365.4z"/>
			<line class="st7" x1="114.9" y1="338.7" x2="113.3" y2="338.7"/>
			<line class="st8" x1="110.3" y1="338.7" x2="99.9" y2="338.7"/>
			<polyline class="st7" points="98.5,338.7 96.8,338.7 96.8,337 			"/>
			<line class="st9" x1="96.8" y1="333.8" x2="96.8" y2="194.4"/>
			<polyline class="st7" points="96.8,192.8 96.8,191.2 98.5,191.2 			"/>
			<line class="st10" x1="101.1" y1="191.2" x2="110.2" y2="191.2"/>
			<line class="st7" x1="111.6" y1="191.2" x2="113.2" y2="191.2"/>
			<path class="st11" d="M114.8,336.8c1,0,1.8,0.8,1.8,1.8c0,1-0.8,1.8-1.8,1.8s-1.8-0.8-1.8-1.8l0,0
				C113,337.7,113.8,336.8,114.8,336.8z"/>
			<circle class="st11" cx="113.1" cy="191.2" r="1.8"/>
			<polyline class="st12" points="96.8,264.8 77,264.8 77,96 288.8,96 			"/>
			<polygon class="st11" points="288.1,98.4 292.2,96 288.1,93.6 			"/>
		</g>
		<g id="freepik--Gears--inject-271">
			<path class="st1" d="M847.7,306.8L847.7,306.8c0-17.4-14.1-31.5-31.4-31.5c-17.4,0-31.5,14.1-31.5,31.4
				c0,17.4,14.1,31.5,31.4,31.5C833.6,338.2,847.7,324.2,847.7,306.8z M816.2,331.5c-13.7,0-24.7-11.1-24.7-24.8l0,0
				c0-13.7,11.1-24.8,24.8-24.8c13.7,0,24.8,11.1,24.8,24.8S829.9,331.6,816.2,331.5C816.2,331.5,816.2,331.5,816.2,331.5z
				 M847.7,306.8L847.7,306.8c0-17.4-14.1-31.5-31.4-31.5c-17.4,0-31.5,14.1-31.5,31.4c0,17.4,14.1,31.5,31.4,31.5
				C833.6,338.2,847.7,324.2,847.7,306.8z M816.2,331.5c-13.7,0-24.7-11.1-24.7-24.8l0,0c0-13.7,11.1-24.8,24.8-24.8
				c13.7,0,24.8,11.1,24.8,24.8S829.9,331.6,816.2,331.5C816.2,331.5,816.2,331.5,816.2,331.5z M816.3,359.8c29.3,0,53-23.7,53-53
				l0,0c0,0,0,0,0,0c0-29.3-23.7-53.1-53-53.1c-29.3,0-53.1,23.7-53.1,53S786.9,359.8,816.3,359.8L816.3,359.8z M781.7,306.8
				L781.7,306.8C781.7,306.8,781.7,306.8,781.7,306.8c0-19.1,15.5-34.5,34.5-34.5c19,0,34.5,15.5,34.5,34.5
				c0,19-15.5,34.5-34.5,34.5C797.2,341.2,781.8,325.8,781.7,306.8z M816.2,338.2c17.4,0,31.5-14.1,31.5-31.5l0,0
				c0-17.4-14.1-31.4-31.4-31.5c-17.4,0-31.5,14.1-31.5,31.4C784.8,324.1,798.8,338.2,816.2,338.2L816.2,338.2z M816.2,331.5
				C816.2,331.5,816.2,331.5,816.2,331.5c-13.7,0-24.8-11.1-24.8-24.8l0,0c0-13.7,11.1-24.8,24.8-24.8c13.7,0,24.8,11.1,24.8,24.8
				S829.9,331.6,816.2,331.5L816.2,331.5z"/>
			<polygon class="st1" points="880.4,311.8 880.4,302.1 868.3,300.9 868.3,313 			"/>
			<polygon class="st1" points="874.3,279 869.5,270.6 858.4,275.6 864.4,286.1 			"/>
			<polygon class="st1" points="852.7,253.7 844.3,248.8 837.1,258.7 847.7,264.8 			"/>
			<polygon class="st1" points="821.2,242.6 811.5,242.6 810.3,254.7 822.5,254.7 			"/>
			<polygon class="st1" points="788.5,248.6 780,253.5 785.1,264.6 795.6,258.5 			"/>
			<polygon class="st1" points="763.1,270.3 758.3,278.7 768.1,285.9 774.2,275.3 			"/>
			<polygon class="st1" points="752,301.7 752,311.5 764.1,312.7 764.1,300.5 			"/>
			<polygon class="st1" points="758.1,334.5 763,343 774.1,337.9 768,327.4 			"/>
			<polygon class="st1" points="779.8,359.9 788.2,364.7 795.3,354.8 784.8,348.8 			"/>
			<polygon class="st1" points="811.2,371 820.9,371 822.1,358.9 810,358.9 			"/>
			<polygon class="st1" points="844,364.9 852.4,360 847.4,348.9 836.9,355 			"/>
			<polygon class="st1" points="869.3,343.2 874.2,334.8 864.3,327.7 858.2,338.2 			"/>
			<path class="st0" d="M864.4,439.2c17-0.5,30.5-14.7,30-31.7l0,0c0,0,0,0,0,0c-0.5-17-14.7-30.5-31.7-30
				c-17,0.5-30.5,14.7-30,31.7C833.2,426.2,847.4,439.7,864.4,439.2L864.4,439.2z M849.2,408.7L849.2,408.7
				C849.2,408.7,849.2,408.7,849.2,408.7c-0.2-8,6.1-14.6,14-14.8s14.6,6.1,14.8,14c0.2,8-6.1,14.6-14,14.8
				C856,422.9,849.4,416.7,849.2,408.7z"/>
			<polygon class="st0" points="901.7,412.6 901.4,402 893,401.6 893.4,413.5 			"/>
			<polygon class="st0" points="894,384.4 886.4,377.2 880.1,382.8 888.8,391 			"/>
			<polygon class="st0" points="868.7,369.9 858.2,370.2 857.7,378.6 869.6,378.3 			"/>
			<polygon class="st0" points="840.6,377.6 833.3,385.3 838.9,391.5 847.1,382.9 			"/>
			<polygon class="st0" points="826.1,402.9 826.3,413.5 834.8,413.9 834.5,402.1 			"/>
			<polygon class="st0" points="833.7,431.1 841.4,438.4 847.7,432.7 839.1,424.6 			"/>
			<polygon class="st0" points="859.1,445.6 869.6,445.3 870.1,436.9 858.2,437.2 			"/>
			<polygon class="st0" points="887.2,437.9 894.5,430.3 888.9,424 880.7,432.6 			"/>
			<path class="st0" d="M860.9,397.6l-7.3,7.7l3,10.1l10.3,2.5l7.3-7.7l-3-10.1L860.9,397.6z M860.6,407.8c0-1.8,1.4-3.4,3.3-3.4
				l0,0c0,0,0,0,0,0c1.8,0,3.4,1.4,3.4,3.3c0,1.8-1.4,3.4-3.3,3.4S860.6,409.7,860.6,407.8C860.6,407.9,860.6,407.8,860.6,407.8z"/>
			<polyline class="st12" points="865.2,115.8 897.4,115.8 897.4,306.9 889,306.9 			"/>
			<polygon class="st11" points="865.9,113.4 861.7,115.8 865.9,118.2 			"/>
		</g>
		<g id="freepik--Plant--inject-271">
			<path class="st1" d="M991.7,526c1.6,5.8,2.6,11.7,3.1,17.6c-0.2,0.3-0.1,1.4,0,1.1c0,1,1.5,0.8,1.5-0.2v-1.8
				c3.5-4.3,8.5-7,12.5-10.7c3.3-2.9,5.6-6.7,6.8-10.9c3.4-11.6,0.2-23.8,4.3-35.4c3.5-9.9,9.7-18.6,15-27.6
				c5.6-9.5,9.7-19.5,10.1-30.8c0.3-8.5-0.7-19.9-7.2-26.3c-6.9-6.8-15.4-1.7-20.7,4.4c-15.3,17.6-22.4,39.8-25.3,62.5
				c-1.6,12.6-3.2,25.2-2.8,37.9C989.2,512.6,990.1,519.4,991.7,526z"/>
			<path class="st11" d="M994.7,548.3c-0.8-11.9-0.7-23.8,0.4-35.6v-0.1c-0.2-9.6-1-19.2-0.6-28.8c0.5-10.4,1.9-20.8,4.2-30.9
				c0-0.1,0.2,0,0.2,0c-1.9,10-3,20.1-3.3,30.2c-0.2,5.4-0.2,10.9,0.1,16.3c0.1,1.8,0.3,3.6,0.4,5.3l0,0c4-27,13.8-52.9,28.6-75.8
				c0.2-0.3,0.8,0,0.6,0.3c-10.6,17.4-18.5,36.4-23.3,56.2c7.4-13.6,18.5-24.9,26.7-38c0,0,0.2,0,0.1,0.1
				c-7.4,14.6-19.7,26.1-27.5,40.5c-1.4,5.9-2.5,11.8-3.2,17.8c-1.1,8.1-1.7,16.3-1.8,24.5c4.5-8.4,9.1-16.4,12.8-25.3
				c0-0.1,0.2-0.1,0.3-0.1c0.1,0,0.1,0.2,0.1,0.3c-3.1,9.2-7.3,19.1-13.2,27c0,5.8,0.2,11.7,0.5,17.5c0.9,15.5,3.6,30.9,4.8,46.4
				c0,0.2-0.1,0.4-0.3,0.4c0,0,0,0,0,0c-0.2,0-0.4-0.2-0.4-0.4l0,0C997.8,580.3,995.7,564.3,994.7,548.3z"/>
			<path class="st11" d="M1011.2,428.4c0-0.1,0.2,0,0.2,0c-2.8,7.8-4.4,15.8-6.5,23.9c0,0.2-0.2,0.3-0.3,0.2c0,0,0,0,0,0
				c-0.2,0-0.3-0.2-0.2-0.3c0,0,0,0,0,0l0,0C1005.1,444.1,1008.1,435.9,1011.2,428.4z"/>
			<path class="st1" d="M939.1,461.3c1.9,4.6,4,9.1,6.5,13.4c5.1,9.3,10.5,17.8,11.3,28.6c0.2,4.8,0.9,9.6,2.1,14.3
				c1.4,4,3.3,7.8,5.7,11.2c5.5,8.1,12.5,15,17.6,23.4c5.4,8.7,9.4,18.2,11.8,28.2c0.1,0.5,1,0.4,0.8-0.1v-0.1c0,0,0-0.1,0-0.1
				c0.8-23.2-1-46.5-8.1-68.8c-3.1-9.8-6.9-19.3-11.2-28.6c-3.6-8.2-8.7-15.6-15.2-21.8c-4.3-3.9-13.7-11.2-19.8-7.4
				C937.7,455.5,938,458.4,939.1,461.3z"/>
			<path class="st11" d="M962.4,513.9c4.1,6.7,8.6,13.2,13.5,19.4c2.2,2.9,4.5,5.8,6.8,8.8c1,1.4,2.2,2.8,3.2,4.3
				c-0.6-2.5-1.2-4.9-1.8-7.3c-3-11.7-5.8-23.5-10.3-34.8c-4.6-10.9-9.9-21.4-16.1-31.5c-0.2-0.3,0.3-0.5,0.4-0.2
				c4.8,8.1,9.9,16.1,14,24.6c2.3,4.7,4.2,9.6,5.9,14.6c-1.9-10.6-4.5-21-7.9-31.2c0-0.1,0.1-0.2,0.1,0c4.4,10.3,7.2,21.2,8.2,32.4
				l0,0c1,3,1.9,6.1,2.8,9.1c3.7,12.9,6.9,26.1,9.8,39.2c0-8.6-0.7-17.3-2.2-25.8c0-0.2,0.2-0.2,0.3,0c2.3,8.9,3,18.1,2.2,27.2
				c1.1,5,2.2,10,3.2,15c2.3,10.7,5.1,21.6,6.5,32.4c0,0.1-0.2,0.2-0.3,0.2c-0.1,0-0.1-0.1-0.2-0.2c-1.6-5.8-2.5-11.9-3.8-17.8
				s-2.6-11.9-4-17.8c-2-8.6-4.1-17.3-6.3-25.9c-1.4-3.2-4.2-6-6.3-8.6c-2.3-2.9-4.6-5.8-6.8-8.7c-4.2-5.4-7.9-11.2-11.2-17.3
				C962.2,513.8,962.3,513.8,962.4,513.9z"/>
			<path class="st11" d="M961.4,504c5.1,6.5,9.5,13.5,13.2,20.9c0,0.1-0.1,0.2-0.2,0.1c-4.4-6.9-8.8-14-13.2-20.9
				C961.2,504,961.3,503.9,961.4,504z"/>
			<path class="st1" d="M1060.1,483.4c-3,5.2-6.5,11.3-5.1,17.6c0.8,3.9,3.7,7.1,4.2,11.1c1.2,8.8-7.7,14.7-14,18.9
				c-15.9,10.4-37.7,19.7-40.6,41.1c-0.1,0.8-1.4,0.6-1.3-0.2v-0.2c-2.1-10.8-2-21.9,0.3-32.6c2.4-11,7.2-20.9,12.8-30.5
				c9.6-16.4,19.7-33.1,34.2-45.6c4-3.5,12.2-9.7,15.4-1.9S1063.8,477,1060.1,483.4z"/>
			<path class="st11" d="M1045.5,517.9c-10.6,11.4-27.3,17.8-36.4,30.6c5.1-19.5,14.7-37.5,28-52.6c0.3-0.4-0.2-1-0.6-0.6
				c-9.7,9.4-17.5,20.7-22.9,33.1c2.5-8.7,5.8-17.1,9.9-25.2c0.1-0.3-0.3-0.6-0.5-0.3c-5,8.8-8.5,18.4-10.5,28.3
				c-12,29-13.1,63-10.6,93.5c0,0.2,0.2,0.3,0.4,0.3c0,0,0,0,0,0c0.1,0,0.2-0.1,0.3-0.3c-0.7-24.1-0.3-48.5,5.5-72
				c0.1-0.5,0.2-1,0.4-1.5c9.9-13.8,26.6-20.2,37.3-33.2C1045.8,518,1045.7,517.8,1045.5,517.9z"/>
			<path class="st11" d="M1048,508.1c-5.5,5.1-11,10.3-16.5,15.4v0.1c6.3-4.2,11.9-9.3,16.8-15.1c0-0.1,0-0.3-0.1-0.3c0,0,0,0,0,0
				C1048.1,508.1,1048,508.1,1048,508.1z"/>
			<path class="st11" d="M1048.9,486.1c-4.9,8-10.4,15.7-16.6,22.8c0,0,0,0.1,0,0.1c0,0,0.1,0,0.1,0c0,0,0,0,0,0l0,0
				c6.9-6.5,12.6-14.2,16.7-22.8C1049.3,486.1,1049,485.9,1048.9,486.1z"/>
			<polygon class="st5" points="1023.9,646.4 975.4,646.4 981.9,581.2 1016.5,581.2 			"/>
			<polygon class="st11" points="1017.7,591.8 980.9,591.8 981.9,581.2 1016.5,581.2 			"/>
			<rect x="976.9" y="573.9" class="st5" width="45.5" height="10.4"/>
		</g>
	</g>
</g>
<g id="Layer_2_00000044178041417886744210000003050894399384586656_">
	<g id="Layer_2-2_00000166656721486844995670000008586640684527850137_">
		<g id="freepik--background-complete--inject-271_00000124157941077767542900000000513228498994119613_">
			<path class="st0" d="M-805.2,414.1l-21.2,0.5l-10.8,0.2c-3.6,0.1-7.2,0-10.8,0.1h-0.7v-0.7l-0.1-18.2v-0.8h0.8l21.4,0.1
				c7.2,0,14.3,0.2,21.4,0.3h0.5v0.5c0,3.1-0.1,6.1-0.2,9.2L-805.2,414.1z M-805.2,414.1l-0.2-9.1c-0.1-3-0.2-6-0.2-9l0.4,0.5
				c-7.1,0.1-14.3,0.3-21.4,0.3l-21.4,0.1l0.8-0.8v18.1l-0.7-0.7c3.5,0,7,0,10.6,0.1l10.5,0.3L-805.2,414.1z"/>
			<path class="st0" d="M-829.1,437l-21.2,0.5l-10.8,0.1c-3.6,0-7.2,0-10.8,0.1h-0.7V418h0.8l21.4,0.1c7.1,0,14.3,0.2,21.4,0.2h0.4
				v0.4c0,3.1-0.1,6.1-0.2,9.2L-829.1,437z M-829.1,437l-0.2-9.1c-0.1-3-0.2-6-0.2-9l0.4,0.5c-7.1,0.1-14.3,0.3-21.4,0.3l-21.4,0.1
				l0.8-0.8V437l-0.7-0.7c3.5,0,7.1,0,10.6,0.1l10.6,0.2L-829.1,437z"/>
			<path class="st0" d="M-781.3,437l-21.2,0.5l-10.8,0.2c-3.6,0-7.2,0-10.8,0.1h-0.7V437l-0.1-18.1v-0.8h0.8l21.4,0.1
				c7.2,0,14.3,0.2,21.4,0.2h0.4v0.4c0,3.1-0.1,6.1-0.2,9.2L-781.3,437z M-781.3,437l-0.2-9.1c0-3-0.2-6-0.2-9l0.4,0.5
				c-7.1,0.1-14.3,0.3-21.4,0.3l-21.4,0.1l0.8-0.8V437l-0.7-0.7c3.6,0,7.1,0,10.6,0.1l10.7,0.2L-781.3,437z"/>
			<path class="st0" d="M-1416.3,198.6l-21.2,0.4l-10.8,0.2h-11.6v-0.7l-0.1-18.1v-0.8h0.8l21.4,0.1c7.2,0,14.3,0.2,21.4,0.2h0.5
				v0.4c0,3.1-0.1,6.1-0.2,9.1L-1416.3,198.6z M-1416.3,198.6l-0.2-9.2c0-3-0.2-6-0.2-8.9l0.4,0.4c-7.1,0-14.3,0.3-21.4,0.3
				l-21.4,0.1l0.8-0.8l-0.1,18.1l-0.7-0.7c3.5,0,7.1,0,10.6,0.1l10.7,0.2L-1416.3,198.6z"/>
			<path class="st0" d="M-1440.2,221.5l-21.2,0.5l-10.8,0.2c-3.6,0-7.2,0-10.8,0.1h-0.7v-0.7l-0.1-18.1v-0.8h0.8l21.4,0.1
				c7.1,0,14.3,0.2,21.4,0.2h0.5v0.5c0,3.1-0.1,6.1-0.2,9.1L-1440.2,221.5z M-1440.2,221.5l-0.2-9.2c-0.1-3-0.2-6-0.2-8.9l0.4,0.4
				c-7.1,0.1-14.3,0.3-21.4,0.3l-21.4,0.1l0.8-0.8v18.1l-0.7-0.7c3.5,0,7.1,0,10.6,0.1l10.6,0.2L-1440.2,221.5z"/>
			<path class="st0" d="M-1392.4,221.5l-21.2,0.5l-10.8,0.2c-3.6,0-7.2,0-10.8,0.1h-0.7v-0.7l-0.1-18.1v-0.8h0.8l21.4,0.1
				c7.1,0,14.3,0.2,21.4,0.2h0.5v0.5c0,3.1-0.2,6.1-0.2,9.1L-1392.4,221.5z M-1392.4,221.5l-0.2-9.2c0-3-0.2-6-0.2-8.9l0.4,0.4
				c-7.1,0.1-14.3,0.3-21.4,0.3l-21.4,0.1l0.8-0.8l-0.1,18.1l-0.7-0.7c3.5,0,7.1,0,10.6,0.1l10.7,0.2L-1392.4,221.5z"/>
			<path class="st0" d="M-1765.7,318.5l-21.2,0.5l-10.8,0.2c-3.6,0-7.2,0-10.8,0.1h-0.7v-19.6h0.8l21.4,0.1c7.1,0,14.3,0.2,21.4,0.3
				h0.4v0.4c0,3.1-0.1,6.1-0.2,9.1L-1765.7,318.5z M-1765.7,318.5l-0.2-9.2c0-3-0.2-6-0.2-9l0.4,0.4c-7.1,0.1-14.3,0.3-21.4,0.3
				l-21.4,0.1l0.8-0.8l-0.1,18.1l-0.7-0.7c3.5,0,7.1,0,10.6,0.1l10.6,0.2L-1765.7,318.5z"/>
			<path class="st0" d="M-1055.3,198.6l-21.2,0.4l-10.8,0.2c-3.6,0.1-7.2,0-10.8,0.1h-0.7v-0.7l-0.1-18.1v-0.8h0.8l21.4,0.1
				c7.2,0,14.3,0.2,21.4,0.3h0.5v0.4c0,3.1-0.1,6.1-0.2,9.1L-1055.3,198.6z M-1055.3,198.6l-0.2-9.1c-0.1-3-0.2-6-0.2-9l0.4,0.4
				c-7.1,0.1-14.3,0.2-21.4,0.3l-21.4,0.1l0.8-0.8l-0.1,18.1l-0.7-0.7c3.5,0,7.1,0,10.6,0.1l10.7,0.2L-1055.3,198.6z"/>
			<path class="st0" d="M-807.7,22.7l-21.2,0.5l-10.8,0.2c-3.6,0-7.2,0-10.8,0.1h-0.7V3.8h0.8l21.4,0.1c7.1,0,14.3,0.2,21.4,0.3h0.5
				v0.4c0,3.1-0.1,6.1-0.2,9.1L-807.7,22.7z M-807.7,22.7l-0.2-9.1c-0.1-3-0.2-6-0.2-9l0.4,0.4c-7.1,0-14.3,0.3-21.4,0.3l-21.4,0.1
				l0.8-0.8l-0.1,18.1l-0.7-0.7c3.5,0,7.1,0,10.6,0.1l10.6,0.2L-807.7,22.7z"/>
			<path class="st0" d="M-783.8,45.6L-805,46l-10.8,0.2c-3.6,0.1-7.2,0-10.8,0.1h-0.7v-0.7l-0.1-18.1v-0.8h0.8l21.4,0.1
				c7.2,0,14.3,0.2,21.4,0.3h0.5v0.4c0,3.1-0.2,6.1-0.2,9.1L-783.8,45.6z M-783.8,45.6l-0.2-9.1c0-3-0.2-6-0.2-9l0.4,0.4
				c-7.1,0.1-14.3,0.3-21.4,0.3l-21.4,0.1l0.8-0.8v18.1l-0.7-0.7c3.5,0,7.1,0,10.6,0.1l10.7,0.2L-783.8,45.6z"/>
			<path class="st0" d="M-1813.5,22.7l-21.3,0.5l-10.8,0.2c-3.6,0-7.2,0-10.8,0.1h-0.7V3.8h0.8l21.4,0.1c7.1,0,14.3,0.2,21.4,0.3
				h0.4v0.4c0,3.1-0.2,6.1-0.2,9.2L-1813.5,22.7z M-1813.5,22.7l-0.2-9.1c0-3-0.2-6-0.2-9l0.5,0.4c-7.2,0.1-14.3,0.2-21.4,0.3
				l-21.4,0.1l0.8-0.8l-0.1,18.1l-0.7-0.6h10.6l10.7,0.2L-1813.5,22.7z"/>
			<path class="st0" d="M-806.4,212.8l9.5-15.4l-4.7-2.9c-1.4-0.9-2.1-2.4-2-4c0.1-0.9,0.1-1.8,0-2.7c-0.1-1.6,0.8-3.1,2.2-3.9
				l4.9-2.6l-8.6-15.9l-4.8,2.6c-1.4,0.8-3.2,0.7-4.5-0.3c-0.7-0.5-1.5-1-2.3-1.4c-1.4-0.8-2.3-2.3-2.3-3.9l0.2-5.5l-18.1-0.6
				l-0.2,5.6c-0.1,1.6-1,3.1-2.5,3.7l-1.2,0.6c-0.4,0.2-0.8,0.4-1.2,0.7c-1.4,0.9-3.1,0.9-4.5,0l-4.7-2.9l-9.5,15.4l4.7,2.9
				c1.4,0.9,2.1,2.4,2,4c-0.1,0.9-0.1,1.8-0.1,2.7c0,1.6-0.8,3.1-2.2,3.9l-4.8,2.6l8.5,15.9l4.9-2.6c1.4-0.8,3.2-0.6,4.5,0.3
				c0.7,0.5,1.5,1,2.3,1.4c1.4,0.8,2.3,2.3,2.3,3.9l-0.2,5.5l18.1,0.6l0.2-5.6c0.1-1.6,1-3.1,2.5-3.7l1.2-0.6l1.2-0.7
				c1.4-0.8,3.1-0.8,4.5,0L-806.4,212.8z M-821.7,201.5c0,20,16.2,36.1,36.2,36.1c20,0,36.1-16.2,36.1-36.2s-16.2-36.1-36.2-36.1
				C-805.5,165.3-821.7,181.5-821.7,201.5L-821.7,201.5z"/>
			<path class="st0" d="M-1671.3,533.4l-6.3-11l-3.4,1.9c-1,0.6-2.2,0.5-3.2-0.1c-0.5-0.3-1.1-0.7-1.6-0.9c-1-0.5-1.6-1.6-1.6-2.7
				v-3.9h-12.7v3.8c0,1.1-0.6,2.2-1.6,2.7c-0.6,0.3-1.1,0.6-1.6,0.9c-1,0.7-2.2,0.7-3.2,0.1l-3.3-2l-6.3,11l3.4,1.9
				c1,0.6,1.5,1.7,1.5,2.8v2c0.1,1.1-0.5,2.2-1.4,2.8l-3.4,2l6.3,11l3.4-1.9c1-0.6,2.3-0.6,3.2,0.1c0.5,0.3,1.1,0.7,1.6,0.9
				c1,0.5,1.6,1.5,1.6,2.7v3.9h12.7v-3.9c0-1.1,0.6-2.2,1.6-2.7c0.6-0.3,1.1-0.6,1.6-0.9c0.9-0.6,2.2-0.7,3.2-0.1l3.4,1.9l6.3-11
				l-3.4-1.9c-1-0.6-1.6-1.7-1.5-2.8v-1.9c-0.1-1.1,0.5-2.2,1.5-2.8L-1671.3,533.4z M-1683.4,539c0,5.7-4.7,10.4-10.4,10.4
				c-5.7,0-10.4-4.7-10.4-10.4c0-5.7,4.6-10.4,10.4-10.4C-1688.1,528.7-1683.4,533.3-1683.4,539C-1683.4,539-1683.4,539-1683.4,539z
				"/>
			<path class="st0" d="M-1780.3,409.3c-27.2,0-49.3,22.1-49.3,49.3c0,27.2,22.1,49.3,49.3,49.3c27.2,0,49.3-22.1,49.3-49.3l0,0l0,0
				C-1730.9,431.4-1753,409.3-1780.3,409.3C-1780.2,409.3-1780.2,409.3-1780.3,409.3L-1780.3,409.3z M-1780.3,481.6
				c-12.7,0-23-10.3-23-23s10.3-23,23-23c12.7,0,23,10.3,23,23l0,0C-1757.3,471.3-1767.6,481.6-1780.3,481.6L-1780.3,481.6z"/>
			<polygon class="st0" points="-1770.8,411.4 -1789.8,411.4 -1788.7,397.9 -1771.8,397.9 			"/>
			<polygon class="st0" points="-1806.9,417.7 -1820.3,431.1 -1829.1,420.9 -1817.1,409 			"/>
			<polygon class="st0" points="-1827.9,447.8 -1827.9,466.8 -1841.3,465.7 -1841.3,448.8 			"/>
			<polygon class="st0" points="-1821.5,483.9 -1808.1,497.3 -1818.3,506 -1830.3,494.1 			"/>
			<polygon class="st0" points="-1791.5,504.9 -1772.5,504.9 -1773.5,518.3 -1790.4,518.3 			"/>
			<polygon class="st0" points="-1755.4,498.5 -1741.9,485.1 -1733.2,495.3 -1745.1,507.2 			"/>
			<polygon class="st0" points="-1734.4,468.5 -1734.4,449.5 -1720.9,450.5 -1720.9,467.4 			"/>
			<polygon class="st0" points="-1740.8,432.4 -1754.2,418.9 -1743.9,410.2 -1732,422.1 			"/>
			<path class="st0" d="M-1773.8,112.7c0-2,0.3-7.4,0.3-9.7c0-9.8-3.5-14.3-12.7-14.6c-4.3-0.3-6.9-2.8-6.9-6.5s2.6-6.2,6.9-6.5
				c9.2-0.4,12.6-4.7,12.6-14.5c0-2.3-0.3-7.7-0.3-9.7c0-13.1,5.5-21.4,26.4-26c4.2-1,7.4,1.6,7.4,5.5c0.1,2.5-1.4,4.7-3.8,5.5
				c-13.1,4-15,8.2-15,17.4c0,2.7,0.3,7.1,0.3,10c0,10.5-5.1,15.6-14,18.5c9,3,14,7.9,14,18.5c0,2.8-0.3,7.3-0.3,10
				c0,9.2,1.9,13.3,15,17.4c2.3,0.8,3.8,3.1,3.8,5.5c0,3.9-3.2,6.5-7.4,5.5C-1768.3,134.3-1773.8,126-1773.8,112.7z"/>
			<path class="st0" d="M-1694.9,51.2c0,2-0.3,7.4-0.3,9.7c0,10,3.6,14.3,12.8,14.7c4.2,0.3,6.7,2.8,6.7,6.5s-2.6,6.2-6.7,6.5
				c-9.2,0.3-12.8,4.7-12.8,14.6c0,2.3,0.3,7.7,0.3,9.7c0,13.2-5.5,21.6-26.4,26.2c-4.2,0.9-7.4-1.6-7.4-5.5
				c-0.1-2.5,1.5-4.8,3.9-5.5c12.9-4,14.8-8.2,14.8-17.4c0-2.7-0.3-7.2-0.3-10c0-10.5,5.1-15.6,14-18.5c-9-3-14-8-14-18.5
				c0-2.8,0.3-7.3,0.3-10c0-9.2-1.9-13.4-14.8-17.4c-2.4-0.8-4-3-3.9-5.5c0-3.9,3.2-6.5,7.4-5.5
				C-1700.4,29.8-1694.9,38.1-1694.9,51.2z"/>
		</g>
		<g id="freepik--Device--inject-271_00000025413386003534982960000012348392365703797176_">
			<rect x="-1763.7" y="613.2" class="st13" width="889.8" height="32.4"/>
			<rect x="-1671.8" y="141" class="st14" width="705.9" height="472.2"/>
			<rect x="-1666.7" y="146.8" class="st11" width="695.7" height="460.7"/>
			<rect x="-1635.9" y="176.4" class="st5" width="634" height="401.5"/>
			<rect x="-1635.9" y="191.8" class="st15" width="135.9" height="386"/>
			<rect x="-1635.9" y="191.8" class="st5" width="14.6" height="386"/>
			<rect x="-1621.3" y="323.9" class="st1" width="121.4" height="5.8"/>
			<rect x="-1607.8" y="211" class="st6" width="47.2" height="2.6"/>
			<polygon class="st6" points="-1613.8,211.5 -1610.8,211.5 -1612.3,213.1 			"/>
			<rect x="-1604" y="220.5" class="st6" width="6.3" height="2.6"/>
			<polygon class="st6" points="-1607.8,223.3 -1607.8,220.3 -1606.2,221.8 			"/>
			<rect x="-1604" y="230.1" class="st6" width="6.3" height="2.6"/>
			<polygon class="st6" points="-1608.5,230.5 -1605.5,230.5 -1607,232.1 			"/>
			<rect x="-1604" y="239.6" class="st6" width="6.3" height="2.6"/>
			<polygon class="st6" points="-1608.5,240.1 -1605.5,240.1 -1607,241.7 			"/>
			<rect x="-1600.2" y="249.1" class="st6" width="6.3" height="2.6"/>
			<polygon class="st6" points="-1604,251.9 -1604,248.9 -1602.4,250.4 			"/>
			<rect x="-1596.4" y="258.7" class="st6" width="6.3" height="2.6"/>
			<polygon class="st6" points="-1600.2,261.5 -1600.2,258.4 -1598.6,260 			"/>
			<rect x="-1596.4" y="354" class="st6" width="6.3" height="2.6"/>
			<polygon class="st6" points="-1600.2,356.8 -1600.2,353.8 -1598.6,355.3 			"/>
			<rect x="-1592.6" y="268.2" class="st6" width="6.3" height="2.6"/>
			<polygon class="st6" points="-1596.4,271 -1596.4,268 -1594.8,269.5 			"/>
			<rect x="-1592.6" y="344.5" class="st6" width="6.3" height="2.6"/>
			<polygon class="st6" points="-1596.4,347.3 -1596.4,344.2 -1594.8,345.8 			"/>
			<rect x="-1588.8" y="277.7" class="st6" width="6.3" height="2.6"/>
			<polygon class="st6" points="-1592.6,280.5 -1592.6,277.5 -1591,279 			"/>
			<rect x="-1588.8" y="334.9" class="st6" width="6.3" height="2.6"/>
			<polygon class="st6" points="-1592.6,337.7 -1592.6,334.7 -1591,336.2 			"/>
			<rect x="-1585" y="287.3" class="st6" width="6.3" height="2.6"/>
			<polygon class="st6" points="-1588.8,290.1 -1588.8,287 -1587.2,288.6 			"/>
			<rect x="-1584.3" y="296.8" class="st6" width="6.3" height="2.6"/>
			<polygon class="st6" points="-1588.8,297.3 -1585.7,297.3 -1587.3,298.9 			"/>
			<rect x="-1584.3" y="306.3" class="st6" width="6.3" height="2.6"/>
			<polygon class="st6" points="-1588.8,306.8 -1585.7,306.8 -1587.3,308.4 			"/>
			<rect x="-1584.3" y="315.9" class="st6" width="6.3" height="2.6"/>
			<polygon class="st6" points="-1588.8,316.3 -1585.7,316.3 -1587.3,318 			"/>
			<rect x="-1584.3" y="325.4" class="st6" width="6.3" height="2.6"/>
			<polygon class="st6" points="-1588.8,325.9 -1585.7,325.9 -1587.3,327.5 			"/>
			<rect x="-1604" y="363.5" class="st6" width="6.3" height="2.6"/>
			<polygon class="st6" points="-1607.8,366.3 -1607.8,363.3 -1606.2,364.8 			"/>
			<rect x="-1604" y="373.1" class="st6" width="6.3" height="2.6"/>
			<polygon class="st6" points="-1608.5,373.5 -1605.5,373.5 -1607,375.2 			"/>
			<rect x="-1604" y="382.6" class="st6" width="6.3" height="2.6"/>
			<polygon class="st6" points="-1608.5,383.1 -1605.5,383.1 -1607,384.7 			"/>
			<rect x="-1600.2" y="392.1" class="st6" width="6.3" height="2.6"/>
			<polygon class="st6" points="-1604,395 -1604,391.9 -1602.4,393.4 			"/>
			<rect x="-1596.4" y="401.7" class="st6" width="6.3" height="2.6"/>
			<polygon class="st6" points="-1600.2,404.5 -1600.2,401.5 -1598.6,403 			"/>
			<rect x="-1596.4" y="411.2" class="st6" width="6.3" height="2.6"/>
			<polygon class="st6" points="-1600.2,414 -1600.2,411 -1598.6,412.5 			"/>
			<rect x="-1595.7" y="420.8" class="st6" width="6.3" height="2.6"/>
			<polygon class="st6" points="-1600.2,421.2 -1597.2,421.2 -1598.7,422.9 			"/>
			<rect x="-1595.7" y="430.3" class="st6" width="6.3" height="2.6"/>
			<polygon class="st6" points="-1600.2,430.8 -1597.2,430.8 -1598.7,432.4 			"/>
			<rect x="-1595.7" y="439.8" class="st6" width="6.3" height="2.6"/>
			<polygon class="st6" points="-1600.2,440.3 -1597.2,440.3 -1598.7,441.9 			"/>
			<rect x="-1595.7" y="449.4" class="st6" width="6.3" height="2.6"/>
			<polygon class="st6" points="-1600.2,449.8 -1597.2,449.8 -1598.7,451.5 			"/>
			<rect x="-1635.9" y="176.4" class="st1" width="634" height="15.4"/>
			<path class="st13" d="M-1621.3,184.1c0,1.6-1.3,2.9-2.9,2.9c-1.6,0-2.9-1.3-2.9-2.9s1.3-2.9,2.9-2.9l0,0l0,0
				C-1622.6,181.2-1621.3,182.5-1621.3,184.1z"/>
			<path class="st6" d="M-1609.4,184.1c0,1.6-1.3,2.9-2.9,2.9s-2.9-1.3-2.9-2.9s1.3-2.9,2.9-2.9l0,0l0,0
				C-1610.7,181.2-1609.4,182.5-1609.4,184.1z"/>
			<path class="st5" d="M-1597.5,184.1c0,1.6-1.3,2.9-2.9,2.9c-1.6,0-2.9-1.3-2.9-2.9s1.3-2.9,2.9-2.9l0,0l0,0
				C-1598.8,181.2-1597.5,182.5-1597.5,184.1z"/>
			<rect x="-1468" y="260.5" class="st0" width="11.4" height="2.8"/>
			<rect x="-1443" y="260.5" class="st0" width="253.6" height="2.8"/>
			<rect x="-1182.4" y="260.5" class="st1" width="21.7" height="2.8"/>
			<rect x="-1147.7" y="326.8" class="st0" width="73.3" height="2.8"/>
			<rect x="-1156" y="260.5" class="st16" width="107.7" height="2.8"/>
			<rect x="-1468" y="273.7" class="st0" width="11.4" height="2.8"/>
			<rect x="-1431.9" y="273.7" class="st16" width="86.1" height="2.8"/>
			<rect x="-1185.4" y="326.8" class="st16" width="32.6" height="2.8"/>
			<rect x="-1443" y="313.5" class="st16" width="82.2" height="2.8"/>
			<rect x="-1431.9" y="287" class="st1" width="57.7" height="2.8"/>
			<rect x="-1167.9" y="300.3" class="st16" width="109.3" height="2.8"/>
			<rect x="-1298.8" y="365.4" class="st16" width="109.3" height="2.8"/>
			<rect x="-1367.8" y="287" class="st16" width="214.5" height="2.8"/>
			<rect x="-1443" y="326.8" class="st1" width="250.2" height="2.8"/>
			<rect x="-1340.4" y="273.7" class="st0" width="177.2" height="2.8"/>
			<rect x="-1144.1" y="287" class="st0" width="37.1" height="2.8"/>
			<rect x="-1468" y="287" class="st0" width="11.4" height="2.8"/>
			<rect x="-1468" y="300.3" class="st16" width="11.4" height="2.8"/>
			<rect x="-1443" y="300.3" class="st0" width="67.6" height="2.8"/>
			<rect x="-1431.9" y="340.1" class="st0" width="67.6" height="2.8"/>
			<rect x="-1183.5" y="353.3" class="st1" width="94.4" height="2.8"/>
			<rect x="-1370.8" y="353.3" class="st0" width="181.4" height="2.8"/>
			<rect x="-1431.9" y="353.3" class="st16" width="50.8" height="2.8"/>
			<rect x="-1356.1" y="313.5" class="st0" width="195.4" height="2.8"/>
			<rect x="-1156" y="313.5" class="st1" width="116.6" height="2.8"/>
			<rect x="-1368.6" y="300.3" class="st1" width="195.3" height="2.8"/>
			<rect x="-1468" y="313.5" class="st0" width="11.4" height="2.8"/>
			<rect x="-1468" y="326.8" class="st0" width="11.4" height="2.8"/>
			<rect x="-1468" y="340.1" class="st16" width="11.4" height="2.8"/>
			<rect x="-1468" y="353.3" class="st0" width="11.4" height="2.8"/>
			<rect x="-1468" y="365.4" class="st0" width="11.4" height="2.8"/>
			<rect x="-1443" y="365.4" class="st0" width="134.1" height="2.8"/>
			<rect x="-1468" y="378.6" class="st0" width="11.4" height="2.8"/>
			<rect x="-1431.9" y="378.6" class="st16" width="86.1" height="2.8"/>
			<rect x="-1443" y="418.4" class="st16" width="82.2" height="2.8"/>
			<rect x="-1431.9" y="391.9" class="st1" width="57.7" height="2.8"/>
			<rect x="-1299.7" y="445" class="st1" width="57.7" height="2.8"/>
			<rect x="-1431.9" y="471.5" class="st1" width="57.7" height="2.8"/>
			<rect x="-1367.8" y="391.9" class="st16" width="214.5" height="2.8"/>
			<rect x="-1443" y="431.7" class="st1" width="250.2" height="2.8"/>
			<rect x="-1340.4" y="378.6" class="st0" width="177.2" height="2.8"/>
			<rect x="-1162.6" y="405.2" class="st0" width="37" height="2.8"/>
			<rect x="-1468" y="391.9" class="st0" width="11.4" height="2.8"/>
			<rect x="-1468" y="405.2" class="st16" width="11.4" height="2.8"/>
			<rect x="-1443" y="405.2" class="st0" width="67.6" height="2.8"/>
			<rect x="-1356.1" y="418.4" class="st0" width="195.4" height="2.8"/>
			<rect x="-1368.6" y="405.2" class="st1" width="195.3" height="2.8"/>
			<rect x="-1468" y="418.4" class="st0" width="11.4" height="2.8"/>
			<rect x="-1468" y="445" class="st0" width="11.4" height="2.8"/>
			<rect x="-1443" y="445" class="st0" width="134.1" height="2.8"/>
			<rect x="-1468" y="458.2" class="st0" width="11.4" height="2.8"/>
			<rect x="-1431.9" y="458.2" class="st16" width="86.1" height="2.8"/>
			<rect x="-1443" y="498" class="st16" width="82.2" height="2.8"/>
			<rect x="-1367.8" y="471.5" class="st16" width="214.5" height="2.8"/>
			<rect x="-1162.6" y="484.8" class="st0" width="37" height="2.8"/>
			<rect x="-1468" y="471.5" class="st0" width="11.4" height="2.8"/>
			<rect x="-1468" y="484.8" class="st16" width="11.4" height="2.8"/>
			<rect x="-1443" y="484.8" class="st0" width="67.6" height="2.8"/>
			<rect x="-1356.1" y="498" class="st0" width="195.4" height="2.8"/>
			<rect x="-1368.6" y="484.8" class="st1" width="195.3" height="2.8"/>
			<rect x="-1468" y="498" class="st0" width="11.4" height="2.8"/>
			<path class="st1" d="M-1460.9,234.8c0.4,0.4,0.4,1,0,1.4l0,0c-0.2,0.2-0.4,0.3-0.7,0.3c-0.3,0-0.5-0.1-0.7-0.3l-4.4-4.5v-0.1l0,0
				v-0.1l0,0v-0.7l0,0v-0.1l0,0c0,0,0.1-0.1,0.1-0.1l0,0l0.1-0.1l4.4-4.5c0.4-0.4,1-0.4,1.4,0c0.4,0.4,0.4,1,0,1.4l0,0l-3.7,3.8
				L-1460.9,234.8z"/>
			<path class="st1" d="M-1456.9,235.3l3.8-9.1c0.2-0.4,0.7-0.7,1.1-0.5c0,0,0,0,0,0l0,0c0.4,0.2,0.6,0.7,0.4,1.1l0,0l-3.8,9.2
				c-0.1,0.3-0.4,0.5-0.8,0.5c-0.4,0.1-0.8-0.2-0.9-0.6C-1457.1,235.7-1457,235.6-1456.9,235.3
				C-1457,235.4-1456.9,235.4-1456.9,235.3z"/>
			<path class="st1" d="M-1443.9,231.6L-1443.9,231.6c0,0.1,0,0.1-0.1,0.1l-4.4,4.5c-0.2,0.2-0.4,0.3-0.7,0.3c-0.6,0-1-0.4-1-1
				c0-0.3,0.1-0.5,0.3-0.7l3.7-3.8l-3.7-3.8c-0.4-0.4-0.4-1,0-1.4l0,0c0.4-0.4,1-0.4,1.4,0l4.4,4.5l0.1,0.1l0,0l0.1,0.1l0,0
				c0,0,0,0.1,0,0.1l0,0v0.4l0,0c0,0,0,0.1,0,0.1l0,0L-1443.9,231.6z"/>
		</g>
		<g id="freepik--Icons--inject-271_00000152256165695640004800000001833145748998102435_">
			<polygon class="st1" points="-1651.8,262.8 -1734.4,262.8 -1734.4,155 -1672.2,155 -1651.8,175.3 			"/>
			<polygon class="st2" points="-1651.8,262.8 -1734.4,262.8 -1734.4,155 -1672.2,155 -1651.8,175.3 			"/>
			<polygon class="st1" points="-1651.8,175.3 -1672.2,175.3 -1672.2,155 			"/>
			<path class="st1" d="M-1715.3,193c0,3.4,2.8,6.1,6.2,6.1c3.4,0,6.1-2.8,6.1-6.2c0-3.4-2.8-6.1-6.2-6.1
				C-1712.5,186.8-1715.3,189.6-1715.3,193C-1715.3,193-1715.3,193-1715.3,193z"/>
			<polygon class="st1" points="-1705.8,220.3 -1664.1,220.3 -1684.9,194.9 			"/>
			<polygon class="st1" points="-1722.2,220.3 -1687.7,220.3 -1704.9,203.7 			"/>
			<polygon class="st3" points="-1722.2,220.3 -1687.7,220.3 -1704.9,203.7 			"/>
			<rect x="-1722.2" y="179.6" class="st4" width="58.1" height="40.8"/>
			<rect x="-1754.4" y="224.7" class="st5" width="59.3" height="24.5"/>
			<path class="st6" d="M-1737,231.4v11.9h-2.3v-5.1h-5.4v5.1h-2.3v-11.9h2.3v4.9h5.4v-4.9H-1737z"/>
			<path class="st6" d="M-1725.7,233.4h-3.8v9.9h-2.3v-9.9h-3.8v-2h9.9V233.4z"/>
			<path class="st6" d="M-1714.5,243.3v-7.9l-3.1,5.9h-1.2l-3.1-5.9v7.9h-2.3v-11.9h2.5l3.5,6.8l3.6-6.8h2.4v11.9H-1714.5z"/>
			<path class="st6" d="M-1709.7,243.3v-11.9h2.4v9.9h6.1v2L-1709.7,243.3z"/>
			<polygon class="st1" points="-1651.8,393.7 -1734.5,393.7 -1734.5,285.8 -1672.2,285.8 -1651.8,306.1 			"/>
			<polygon class="st2" points="-1651.8,393.7 -1734.5,393.7 -1734.5,285.8 -1672.2,285.8 -1651.8,306.1 			"/>
			<polygon class="st1" points="-1651.8,306.1 -1672.2,306.1 -1672.2,285.8 			"/>
			<path class="st1" d="M-1715.4,323.8c0,3.4,2.8,6.2,6.2,6.2c3.4,0,6.2-2.8,6.2-6.2c0-3.4-2.8-6.2-6.2-6.2c0,0,0,0,0,0
				C-1712.6,317.7-1715.4,320.4-1715.4,323.8C-1715.4,323.8-1715.4,323.8-1715.4,323.8z"/>
			<polygon class="st1" points="-1705.9,351.2 -1664.1,351.2 -1685,325.7 			"/>
			<polygon class="st1" points="-1722.2,351.2 -1687.7,351.2 -1705,334.6 			"/>
			<polygon class="st3" points="-1722.2,351.2 -1687.7,351.2 -1705,334.6 			"/>
			<rect x="-1722.2" y="310.4" class="st4" width="58.1" height="40.8"/>
			<rect x="-1754.5" y="355.6" class="st5" width="59.3" height="24.5"/>
			<path class="st6" d="M-1740.5,368.2c0-0.7,0.1-1.5,0.4-2.2c0.3-0.7,0.6-1.4,1.1-1.9c0.5-0.6,1.2-1,1.9-1.4
				c0.8-0.4,1.6-0.5,2.5-0.5c1,0,2,0.2,2.8,0.7c0.8,0.4,1.4,1.1,1.8,1.9l-1.8,1.2c-0.3-0.6-0.7-1.1-1.3-1.4
				c-0.3-0.1-0.5-0.2-0.8-0.3c-0.3-0.1-0.6-0.1-0.8-0.1c-0.5,0-1.1,0.1-1.5,0.3c-0.4,0.2-0.8,0.5-1.1,0.9c-0.3,0.4-0.5,0.8-0.7,1.3
				c-0.3,1-0.3,2,0,2.9c0.2,0.5,0.4,0.9,0.7,1.3c0.3,0.4,0.7,0.7,1.1,0.9c0.4,0.2,0.9,0.3,1.4,0.3c0.3,0,0.6,0,0.8-0.1
				c0.3-0.1,0.6-0.2,0.8-0.3c0.3-0.1,0.5-0.3,0.7-0.6c0.2-0.2,0.4-0.5,0.6-0.8l1.9,1.1c-0.2,0.4-0.5,0.8-0.8,1.2
				c-0.4,0.3-0.8,0.6-1.2,0.9c-0.5,0.2-0.9,0.4-1.4,0.5c-0.5,0.1-1,0.2-1.5,0.2c-0.8,0-1.6-0.2-2.3-0.5c-1.4-0.7-2.5-1.9-3-3.4
				C-1740.4,369.7-1740.5,368.9-1740.5,368.2z"/>
			<path class="st6" d="M-1721.2,365.4c-0.1-0.1-0.3-0.2-0.4-0.3c-0.5-0.3-1.1-0.6-1.7-0.7c-0.3-0.1-0.7-0.1-1.1-0.1
				c-0.5,0-1,0.1-1.4,0.3c-0.3,0.2-0.5,0.6-0.5,1c0,0.2,0.1,0.4,0.2,0.6c0.1,0.2,0.3,0.3,0.5,0.4c0.3,0.1,0.6,0.2,0.8,0.3
				c0.3,0.1,0.7,0.2,1.2,0.3c0.4,0.1,1.1,0.3,1.6,0.5c0.4,0.2,0.9,0.4,1.2,0.7c0.3,0.3,0.6,0.6,0.8,1c0.2,0.4,0.3,0.9,0.3,1.4
				c0,0.6-0.1,1.1-0.4,1.6c-0.2,0.4-0.6,0.8-1,1.1c-0.4,0.3-0.9,0.5-1.4,0.6c-0.5,0.1-1.1,0.2-1.6,0.2c-0.9,0-1.8-0.1-2.7-0.4
				c-0.8-0.3-1.6-0.6-2.3-1.1l1-2c0.2,0.1,0.4,0.3,0.6,0.4c0.7,0.4,1.4,0.7,2.1,0.9c0.4,0.1,0.9,0.2,1.3,0.2c1.3,0,1.9-0.4,1.9-1.2
				c0-0.2-0.1-0.5-0.2-0.6c-0.2-0.2-0.4-0.4-0.6-0.5c-0.3-0.2-0.7-0.3-1-0.4l-1.3-0.4c-0.5-0.1-1-0.3-1.5-0.5
				c-0.4-0.2-0.7-0.4-1-0.7c-0.3-0.2-0.5-0.5-0.6-0.9c-0.1-0.4-0.2-0.8-0.2-1.2c0-0.6,0.1-1.1,0.3-1.6c0.2-0.5,0.5-0.9,0.9-1.2
				c0.4-0.3,0.9-0.6,1.4-0.7c0.5-0.2,1.1-0.2,1.6-0.2c0.8,0,1.6,0.1,2.3,0.4c0.6,0.3,1.2,0.6,1.8,1L-1721.2,365.4z"/>
			<path class="st6" d="M-1710.9,365.4c-0.1-0.1-0.3-0.2-0.4-0.3c-0.5-0.3-1.1-0.6-1.7-0.7c-0.3-0.1-0.7-0.1-1.1-0.1
				c-0.5,0-1,0.1-1.4,0.3c-0.3,0.2-0.5,0.6-0.5,1c0,0.2,0,0.4,0.2,0.6c0.1,0.2,0.3,0.3,0.5,0.4c0.3,0.1,0.5,0.2,0.8,0.3
				c0.3,0.1,0.8,0.2,1.2,0.3c0.4,0.1,1.1,0.3,1.6,0.5c0.4,0.2,0.9,0.4,1.2,0.7c0.3,0.3,0.6,0.6,0.8,1c0.2,0.4,0.3,0.9,0.3,1.4
				c0,0.6-0.1,1.1-0.4,1.6c-0.2,0.4-0.6,0.8-1,1.1c-0.4,0.3-0.9,0.5-1.4,0.6c-0.5,0.1-1.1,0.2-1.6,0.2c-0.9,0-1.8-0.1-2.7-0.4
				c-0.8-0.3-1.6-0.6-2.3-1.1l1-2c0.2,0.1,0.3,0.3,0.5,0.4c0.3,0.2,0.6,0.3,0.9,0.5c0.4,0.2,0.8,0.3,1.2,0.4
				c0.4,0.1,0.9,0.2,1.3,0.2c1.3,0,1.9-0.4,1.9-1.2c0-0.2-0.1-0.5-0.2-0.6c-0.2-0.2-0.4-0.4-0.6-0.5c-0.3-0.1-0.7-0.3-1-0.4
				l-1.3-0.4c-0.5-0.1-1-0.3-1.5-0.5c-0.4-0.2-0.7-0.4-1-0.7c-0.3-0.2-0.5-0.5-0.6-0.9c-0.1-0.4-0.2-0.8-0.2-1.2
				c0-0.6,0.1-1.1,0.3-1.6c0.2-0.5,0.5-0.9,0.9-1.2c0.4-0.3,0.9-0.6,1.4-0.7c1.3-0.4,2.7-0.3,3.9,0.2c0.7,0.2,1.3,0.5,1.9,0.9
				L-1710.9,365.4z"/>
			<line class="st7" x1="-1742.3" y1="338.7" x2="-1743.9" y2="338.7"/>
			<line class="st8" x1="-1746.8" y1="338.7" x2="-1757.2" y2="338.7"/>
			<polyline class="st7" points="-1758.7,338.7 -1760.3,338.7 -1760.3,337 			"/>
			<line class="st9" x1="-1760.3" y1="333.8" x2="-1760.3" y2="194.4"/>
			<polyline class="st7" points="-1760.3,192.8 -1760.3,191.2 -1758.7,191.2 			"/>
			<line class="st10" x1="-1756.1" y1="191.2" x2="-1746.9" y2="191.2"/>
			<line class="st7" x1="-1745.6" y1="191.2" x2="-1744" y2="191.2"/>
			<path class="st11" d="M-1742.3,336.8c1,0,1.8,0.8,1.8,1.8c0,1-0.8,1.8-1.8,1.8c-1,0-1.8-0.8-1.8-1.8l0,0
				C-1744.2,337.7-1743.3,336.8-1742.3,336.8z"/>
			<circle class="st11" cx="-1744.1" cy="191.2" r="1.8"/>
			<polyline class="st12" points="-1760.3,264.8 -1780.1,264.8 -1780.1,96 -1568.4,96 			"/>
			<polygon class="st11" points="-1569.1,98.4 -1564.9,96 -1569.1,93.6 			"/>
		</g>
		<g id="freepik--Gears--inject-271_00000018205789761848564090000016475542859701236927_">
			<path class="st1" d="M-1518.5,85.5c0,17.4,14.1,31.5,31.5,31.4c17.4,0,31.5-14.1,31.4-31.5c0-17.4-14.1-31.4-31.5-31.4l0,0
				C-1504.4,54-1518.5,68.1-1518.5,85.5z M-1511.8,85.5c0-13.7,11.1-24.8,24.8-24.8c13.7,0,24.8,11.1,24.8,24.8
				c0,13.7-11.1,24.8-24.8,24.8l0,0C-1500.6,110.3-1511.7,99.2-1511.8,85.5C-1511.8,85.5-1511.8,85.5-1511.8,85.5z M-1518.5,85.5
				c0,17.4,14.1,31.5,31.5,31.4c17.4,0,31.5-14.1,31.4-31.5c0-17.4-14.1-31.4-31.5-31.4l0,0C-1504.4,54-1518.5,68.1-1518.5,85.5z
				 M-1511.8,85.5c0-13.7,11.1-24.8,24.8-24.8c13.7,0,24.8,11.1,24.8,24.8c0,13.7-11.1,24.8-24.8,24.8l0,0
				C-1500.6,110.3-1511.7,99.2-1511.8,85.5C-1511.8,85.5-1511.8,85.5-1511.8,85.5z M-1540,85.5c0,29.3,23.8,53,53.1,53
				c29.3,0,53-23.8,53-53.1c0-29.3-23.8-53-53.1-53c0,0,0,0,0,0l0,0C-1516.3,32.4-1540,56.2-1540,85.5L-1540,85.5z M-1521.5,85.5
				c0-19,15.4-34.5,34.5-34.5c19,0,34.5,15.4,34.5,34.5c0,19-15.4,34.5-34.5,34.5c0,0,0,0,0,0l0,0
				C-1506,120-1521.4,104.6-1521.5,85.5z M-1518.5,85.5c0,17.4,14.1,31.5,31.5,31.4c17.4,0,31.5-14.1,31.4-31.5
				c0-17.4-14.1-31.4-31.5-31.4l0,0C-1504.4,54-1518.5,68.1-1518.5,85.5L-1518.5,85.5z M-1511.8,85.5c0-13.7,11.1-24.8,24.8-24.8
				c13.7,0,24.8,11.1,24.8,24.8s-11.1,24.8-24.8,24.8l0,0C-1500.6,110.3-1511.7,99.2-1511.8,85.5
				C-1511.8,85.5-1511.8,85.5-1511.8,85.5L-1511.8,85.5z"/>
			<polygon class="st1" points="-1493.2,33.4 -1481.1,33.4 -1482.3,21.3 -1492,21.3 			"/>
			<polygon class="st1" points="-1466.3,37.3 -1455.8,43.4 -1450.8,32.3 -1459.2,27.4 			"/>
			<polygon class="st1" points="-1445,54.1 -1438.9,64.6 -1429,57.5 -1433.9,49.1 			"/>
			<polygon class="st1" points="-1434.9,79.3 -1434.9,91.4 -1422.8,90.2 -1422.8,80.5 			"/>
			<polygon class="st1" points="-1438.7,106.2 -1444.8,116.7 -1433.7,121.7 -1428.9,113.3 			"/>
			<polygon class="st1" points="-1455.5,127.5 -1466.1,133.6 -1458.9,143.5 -1450.5,138.6 			"/>
			<polygon class="st1" points="-1480.7,137.6 -1492.9,137.6 -1491.7,149.7 -1482,149.7 			"/>
			<polygon class="st1" points="-1507.6,133.7 -1518.1,127.7 -1523.2,138.8 -1514.7,143.6 			"/>
			<polygon class="st1" points="-1529,116.9 -1535.1,106.4 -1544.9,113.5 -1540.1,122 			"/>
			<polygon class="st1" points="-1539.1,91.7 -1539.1,79.6 -1551.2,80.8 -1551.2,90.5 			"/>
			<polygon class="st1" points="-1535.2,64.9 -1529.1,54.3 -1540.2,49.3 -1545.1,57.8 			"/>
			<polygon class="st1" points="-1518.4,43.5 -1507.9,37.4 -1515,27.5 -1523.4,32.4 			"/>
			<path class="st0" d="M-1619.4,37.3c-0.5,17,13,31.3,30,31.7c17,0.5,31.3-13,31.7-30s-13-31.3-30-31.7c0,0,0,0,0,0l0,0
				C-1604.7,6.9-1618.9,20.3-1619.4,37.3L-1619.4,37.3z M-1602.9,37.8c0.2-8,6.8-14.2,14.8-14c8,0.2,14.2,6.8,14,14.8
				s-6.8,14.2-14.8,14c0,0,0,0,0,0l0,0C-1596.9,52.3-1603.1,45.7-1602.9,37.8z"/>
			<polygon class="st0" points="-1593.7,8.4 -1581.8,8.7 -1582.2,0.3 -1592.8,0 			"/>
			<polygon class="st0" points="-1571.2,13 -1563,21.6 -1557.4,15.3 -1564.6,7.7 			"/>
			<polygon class="st0" points="-1558.5,32.1 -1558.8,44 -1550.4,43.6 -1550.1,33 			"/>
			<polygon class="st0" points="-1563.1,54.6 -1571.7,62.8 -1565.5,68.4 -1557.8,61.2 			"/>
			<polygon class="st0" points="-1582.3,67.3 -1594.1,67 -1593.7,75.4 -1583.2,75.7 			"/>
			<polygon class="st0" points="-1604.8,62.7 -1612.9,54.1 -1618.6,60.3 -1611.3,68 			"/>
			<polygon class="st0" points="-1617.4,43.5 -1617.1,31.7 -1625.5,32.1 -1625.8,42.7 			"/>
			<polygon class="st0" points="-1612.8,21 -1604.2,12.9 -1610.5,7.2 -1618.1,14.5 			"/>
			<path class="st0" d="M-1580.3,30.6l-10.1-3l-7.7,7.3l2.5,10.3l10.1,3l7.7-7.3L-1580.3,30.6z M-1588.1,41.2
				c-1.8,0-3.3-1.6-3.3-3.4c0-1.8,1.6-3.3,3.4-3.3s3.3,1.6,3.3,3.4c0,0,0,0,0,0l0,0C-1584.7,39.8-1586.2,41.2-1588.1,41.2
				C-1588.1,41.2-1588.1,41.2-1588.1,41.2z"/>
			<polyline class="st12" points="-1487.1,12.8 -1487.1,4.3 -1296,4.3 -1296,36.6 			"/>
			<polygon class="st11" points="-1298.4,35.9 -1296,40.1 -1293.6,35.9 			"/>
		</g>
		<g id="freepik--Plant--inject-271_00000174601509296484843650000012837598993828372151_">
			<path class="st1" d="M-865.5,526c1.6,5.8,2.6,11.7,3.1,17.6c-0.2,0.3-0.1,1.4,0,1.1c0,1,1.5,0.8,1.5-0.2v-1.8
				c3.5-4.3,8.5-7,12.5-10.7c3.3-2.9,5.6-6.7,6.8-10.9c3.4-11.6,0.2-23.8,4.3-35.4c3.5-9.9,9.7-18.6,15-27.6
				c5.6-9.5,9.7-19.5,10.1-30.8c0.3-8.5-0.7-19.9-7.2-26.3c-6.9-6.8-15.4-1.7-20.7,4.4c-15.3,17.6-22.4,39.8-25.3,62.5
				c-1.6,12.6-3.2,25.2-2.8,37.9C-868,512.6-867,519.4-865.5,526z"/>
			<path class="st11" d="M-862.4,548.3c-0.8-11.9-0.7-23.8,0.4-35.6v-0.1c-0.2-9.6-1-19.2-0.6-28.8c0.5-10.4,1.9-20.8,4.2-30.9
				c0-0.1,0.2,0,0.2,0c-1.9,10-3,20.1-3.3,30.2c-0.2,5.4-0.2,10.9,0.1,16.3c0.1,1.8,0.3,3.6,0.4,5.3l0,0c4-27,13.8-52.9,28.6-75.8
				c0.2-0.3,0.8,0,0.6,0.3c-10.6,17.4-18.5,36.4-23.3,56.2c7.4-13.6,18.5-24.9,26.7-38c0,0,0.2,0,0.1,0.1
				c-7.4,14.6-19.7,26.1-27.5,40.5c-1.4,5.9-2.5,11.8-3.2,17.8c-1.1,8.1-1.7,16.3-1.8,24.5c4.5-8.4,9.1-16.4,12.8-25.3
				c0-0.1,0.2-0.1,0.3-0.1c0.1,0,0.1,0.2,0.1,0.3c-3.1,9.2-7.3,19.1-13.2,27c0,5.8,0.2,11.7,0.5,17.5c0.9,15.5,3.6,30.9,4.8,46.4
				c0,0.2-0.1,0.4-0.3,0.4c0,0,0,0,0,0c-0.2,0-0.4-0.2-0.4-0.4l0,0C-859.4,580.3-861.5,564.3-862.4,548.3z"/>
			<path class="st11" d="M-845.9,428.4c0-0.1,0.2,0,0.2,0c-2.8,7.8-4.4,15.8-6.5,23.9c0,0.2-0.2,0.3-0.3,0.2c0,0,0,0,0,0
				c-0.2,0-0.3-0.2-0.2-0.3c0,0,0,0,0,0l0,0C-852,444.1-849.1,435.9-845.9,428.4z"/>
			<path class="st1" d="M-918,461.3c1.9,4.6,4,9.1,6.5,13.4c5.1,9.3,10.5,17.8,11.3,28.6c0.2,4.8,0.9,9.6,2.1,14.3
				c1.4,4,3.3,7.8,5.7,11.2c5.5,8.1,12.5,15,17.6,23.4c5.4,8.7,9.4,18.2,11.8,28.2c0.1,0.5,1,0.4,0.8-0.1v-0.1c0,0,0-0.1,0-0.1
				c0.8-23.2-1-46.5-8.1-68.8c-3.1-9.8-6.9-19.3-11.2-28.6c-3.6-8.2-8.7-15.6-15.2-21.8c-4.3-3.9-13.7-11.2-19.8-7.4
				C-919.4,455.5-919.1,458.4-918,461.3z"/>
			<path class="st11" d="M-894.7,513.9c4.1,6.7,8.6,13.2,13.5,19.4c2.2,2.9,4.5,5.8,6.8,8.8c1,1.4,2.2,2.8,3.2,4.3
				c-0.6-2.5-1.2-4.9-1.8-7.3c-3-11.7-5.8-23.5-10.3-34.8c-4.6-10.9-9.9-21.4-16.1-31.5c-0.2-0.3,0.3-0.5,0.4-0.2
				c4.8,8.1,9.9,16.1,14,24.6c2.3,4.7,4.2,9.6,5.9,14.6c-1.9-10.6-4.5-21-7.9-31.2c0-0.1,0.1-0.2,0.1,0c4.4,10.3,7.2,21.2,8.2,32.4
				l0,0c1,3,1.9,6.1,2.8,9.1c3.7,12.9,6.9,26.1,9.8,39.2c0-8.6-0.7-17.3-2.2-25.8c0-0.2,0.2-0.2,0.3,0c2.3,8.9,3,18.1,2.2,27.2
				c1.1,5,2.2,10,3.2,15c2.3,10.7,5.1,21.6,6.5,32.4c0,0.1-0.2,0.2-0.3,0.2c-0.1,0-0.1-0.1-0.2-0.2c-1.6-5.8-2.5-11.9-3.8-17.8
				s-2.6-11.9-4-17.8c-2-8.6-4.1-17.3-6.3-25.9c-1.4-3.2-4.2-6-6.3-8.6c-2.3-2.9-4.6-5.8-6.8-8.7c-4.2-5.4-7.9-11.2-11.2-17.3
				C-895,513.8-894.8,513.8-894.7,513.9z"/>
			<path class="st11" d="M-895.7,504c5.1,6.5,9.5,13.5,13.2,20.9c0,0.1-0.1,0.2-0.2,0.1c-4.4-6.9-8.8-14-13.2-20.9
				C-896,504-895.8,503.9-895.7,504z"/>
			<path class="st1" d="M-797,483.4c-3,5.2-6.5,11.3-5.1,17.6c0.8,3.9,3.7,7.1,4.2,11.1c1.2,8.8-7.7,14.7-14,18.9
				c-15.9,10.4-37.7,19.7-40.6,41.1c-0.1,0.8-1.4,0.6-1.3-0.2v-0.2c-2.1-10.8-2-21.9,0.3-32.6c2.4-11,7.2-20.9,12.8-30.5
				c9.6-16.4,19.7-33.1,34.2-45.6c4-3.5,12.2-9.7,15.4-1.9S-793.3,477-797,483.4z"/>
			<path class="st11" d="M-811.6,517.9c-10.6,11.4-27.3,17.8-36.4,30.6c5.1-19.5,14.7-37.5,28-52.6c0.3-0.4-0.2-1-0.6-0.6
				c-9.7,9.4-17.5,20.7-22.9,33.1c2.5-8.7,5.8-17.1,9.9-25.2c0.1-0.3-0.3-0.6-0.5-0.3c-5,8.8-8.5,18.4-10.5,28.3
				c-12,29-13.1,63-10.6,93.5c0,0.2,0.2,0.3,0.4,0.3c0,0,0,0,0,0c0.1,0,0.2-0.1,0.3-0.3c-0.7-24.1-0.3-48.5,5.5-72
				c0.1-0.5,0.2-1,0.4-1.5c9.9-13.8,26.6-20.2,37.3-33.2C-811.3,518-811.5,517.8-811.6,517.9z"/>
			<path class="st11" d="M-809.1,508.1c-5.5,5.1-11,10.3-16.5,15.4v0.1c6.3-4.2,11.9-9.3,16.8-15.1c0-0.1,0-0.3-0.1-0.3c0,0,0,0,0,0
				C-809.1,508.1-809.1,508.1-809.1,508.1z"/>
			<path class="st11" d="M-808.3,486.1c-4.9,8-10.4,15.7-16.6,22.8c0,0,0,0.1,0,0.1c0,0,0.1,0,0.1,0c0,0,0,0,0,0l0,0
				c6.9-6.5,12.6-14.2,16.7-22.8C-807.9,486.1-808.1,485.9-808.3,486.1z"/>
			<polygon class="st5" points="-833.2,646.4 -881.7,646.4 -875.2,581.2 -840.7,581.2 			"/>
			<polygon class="st11" points="-839.5,591.8 -876.3,591.8 -875.2,581.2 -840.7,581.2 			"/>
			<rect x="-880.2" y="573.9" class="st5" width="45.5" height="10.4"/>
		</g>
	</g>
</g>
</svg>
