<svg xmlns="http://www.w3.org/2000/svg" viewBox="0 0 1076.3 646.43"><defs><style>.cls-1{fill:#ebebeb;}.cls-2{fill:#c7c7c7;}.cls-3{fill:#dbdbdb;}.cls-4{fill:#263238;}.cls-5{fill:#455a64;}.cls-6{fill:#37474f;}.cls-7{fill:#ffc727;}.cls-10,.cls-8{fill:#fff;}.cls-9{fill:#a6a6a6;}.cls-10,.cls-11{isolation:isolate;}.cls-10{opacity:0.6;}.cls-11{opacity:0.1;}.cls-12,.cls-13,.cls-14,.cls-15,.cls-16,.cls-17{fill:none;stroke-miterlimit:10;}.cls-12{stroke:#ffc727;stroke-width:2px;}.cls-13,.cls-14,.cls-15,.cls-16,.cls-17{stroke:#263238;stroke-width:0.75px;}.cls-14{stroke-dasharray:1.83 1.83;}.cls-15{stroke-dasharray:1.98 1.98;}.cls-16{stroke-dasharray:1.62 1.62;}.cls-17{stroke-dasharray:2 2;}</style></defs><g id="Layer_2" data-name="Layer 2"><g id="Layer_2-2" data-name="Layer 2"><g id="freepik--background-complete--inject-271"><path class="cls-1" d="M1051.94,414.14l-21.23.45-10.78.18c-3.61.08-7.23,0-10.84.09h-.72v-.72l-.09-18.16v-.81h.81l21.42.09c7.16,0,14.3.18,21.43.26h.46V396c0,3.07-.13,6.13-.21,9.16Zm0,0-.22-9.15c-.08-3-.18-6-.21-9l.43.46c-7.13.08-14.27.26-21.43.26l-21.42.09.81-.81v18.12l-.73-.72c3.53,0,7.05,0,10.6.08l10.53.28Z"/><path class="cls-1" d="M1028,437l-21.24.45L996,437.6c-3.59,0-7.22,0-10.83.1h-.71V418.05h.81l21.43.12c7.13,0,14.29.17,21.43.25h.45v.44c0,3.08-.13,6.14-.21,9.16Zm0,0-.23-9.14c-.08-3-.18-6-.21-9l.44.45c-7.14.09-14.29.26-21.43.26l-21.43.1.81-.81V437l-.73-.71c3.53,0,7.06,0,10.6.08l10.64.19Z"/><path class="cls-1" d="M1075.85,437l-21.24.45-10.77.18c-3.61,0-7.24,0-10.85.1h-.71V437l-.1-18.11v-.81h.81l21.43.12c7.15,0,14.29.17,21.43.25h.45v.44c0,3.08-.14,6.14-.21,9.16Zm0,0-.23-9.14c0-3-.18-6-.21-9l.44.45c-7.14.09-14.28.26-21.43.26l-21.43.1.81-.81V437l-.73-.71c3.55,0,7.06,0,10.6.08l10.65.19Z"/><path class="cls-1" d="M440.84,198.64l-21.23.45-10.78.18H397.27v-.73l-.1-18.11v-.81H398l21.43.1c7.16,0,14.29.17,21.43.25h.45v.44c0,3.08-.14,6.12-.22,9.15Zm0,0-.23-9.17c0-3-.17-6-.21-8.95l.44.44c-7.14,0-14.27.26-21.43.26l-21.43.11.81-.81-.08,18.12-.73-.73c3.53,0,7.06,0,10.6.09l10.65.18Z"/><path class="cls-1" d="M416.9,221.47l-21.23.46-10.8.17c-3.59,0-7.22,0-10.82.08h-.72v-.72l-.13-18.08v-.81H374l21.43.1c7.14,0,14.29.17,21.43.25h.45v.46c0,3.07-.13,6.12-.21,9.14Zm0,0-.22-9.16c-.08-3-.18-6-.21-8.95l.43.44c-7.13.08-14.29.26-21.43.26l-21.42.11.8-.81,0,18.11-.73-.73c3.53,0,7.06,0,10.61.1l10.63.18Z"/><path class="cls-1" d="M464.74,221.47l-21.23.46-10.78.17c-3.61,0-7.22,0-10.84.08h-.71v-.72l-.1-18.08v-.81h.81l21.43.1c7.15,0,14.29.17,21.42.25h.46v.46c0,3.07-.15,6.12-.21,9.14Zm0,0-.22-9.16c0-3-.18-6-.21-8.95l.43.44c-7.13.08-14.27.26-21.42.26l-21.43.11.81-.81-.08,18.11-.73-.73c3.54,0,7.05,0,10.6.1l10.65.18Z"/><path class="cls-1" d="M91.4,318.47l-21.24.45-10.79.18c-3.6,0-7.22,0-10.83.08h-.65V299.53h.81l21.43.1c7.14,0,14.29.18,21.43.26H92v.43c0,3.08-.13,6.12-.21,9.15Zm0,0-.23-9.16c0-3-.18-6-.21-8.95l.44.43c-7.14.08-14.3.26-21.43.26l-21.43.12.81-.81-.08,18.11-.73-.73c3.53,0,7.05,0,10.6.1l10.63.17Z"/><path class="cls-1" d="M801.87,198.62l-21.23.45-10.78.18c-3.61.08-7.23,0-10.84.08h-.72v-.73l-.09-18.11v-.81H759l21.42.1c7.16,0,14.3.19,21.43.28h.46v.43c0,3.08-.13,6.14-.21,9.15Zm0,0-.22-9.15c-.08-3-.18-6-.21-9l.43.44c-7.13.08-14.27.25-21.43.27l-21.42.1.81-.81-.09,18.11-.72-.73c3.52,0,7.05,0,10.6.1l10.65.18Z"/><path class="cls-1" d="M1049.47,22.72l-21.24.46-10.79.17c-3.6,0-7.22,0-10.83.1h-.71V3.8h.81l21.43.1c7.13,0,14.29.19,21.42.28h.46v.43c0,3.08-.13,6.14-.21,9.15Zm0,0-.23-9.14c-.08-3-.18-6-.21-9l.44.44c-7.14,0-14.29.26-21.43.27l-21.43.1.81-.81-.08,18.11-.73-.72c3.53,0,7.06,0,10.6.09l10.63.18Z"/><path class="cls-1" d="M1073.37,45.56l-21.23.45-10.78.18c-3.61.08-7.24,0-10.85.1h-.71v-.73l-.09-18.11v-.81h.8l21.43.1c7.16,0,14.29.19,21.43.27h.46v.44c0,3.07-.15,6.13-.23,9.14Zm0,0-.22-9.14c0-3-.18-6-.21-9l.43.44c-7.14.08-14.27.26-21.43.27l-21.43.1.81-.81V45.56l-.72-.73c3.52,0,7.05,0,10.6.1l10.65.18Z"/><path class="cls-1" d="M43.59,22.74l-21.26.45-10.77.18c-3.6,0-7.22,0-10.83.1H0V3.82H.83l21.42.11c7.14,0,14.28.18,21.43.26h.44v.44c0,3.07-.15,6.13-.21,9.16Zm0,0-.25-9.14c0-3-.18-6-.21-9l.46.44c-7.16.09-14.3.25-21.43.27L.73,5.44l.81-.81-.1,18.11-.71-.63H11.31L22,22.29Z"/><path class="cls-1" d="M1050.73,212.8l9.53-15.36-4.71-2.92a4.31,4.31,0,0,1-2-4,24.32,24.32,0,0,0,0-2.7,4.29,4.29,0,0,1,2.25-3.91l4.86-2.62-8.55-15.92-4.85,2.6a4.25,4.25,0,0,1-4.5-.29,26.76,26.76,0,0,0-2.3-1.42,4.3,4.3,0,0,1-2.27-3.89l.18-5.53-18.06-.57-.16,5.55a4.3,4.3,0,0,1-2.53,3.74l-1.18.6c-.4.21-.79.44-1.16.66a4.27,4.27,0,0,1-4.49,0l-4.74-2.93-9.53,15.36,4.72,2.92a4.32,4.32,0,0,1,2,4,24.46,24.46,0,0,0-.09,2.71,4.27,4.27,0,0,1-2.24,3.88l-4.85,2.62,8.54,15.94,4.86-2.62a4.31,4.31,0,0,1,4.48.29q1.11.76,2.28,1.41a4.22,4.22,0,0,1,2.27,3.9l-.16,5.54,18.06.56.18-5.55a4.26,4.26,0,0,1,2.51-3.72l1.19-.6,1.17-.66a4.29,4.29,0,0,1,4.5,0Zm-15.29-11.33a36.15,36.15,0,1,0,0-.08Z"/><path class="cls-1" d="M185.8,533.38l-6.33-11-3.36,1.94a3,3,0,0,1-3.16-.11,18.48,18.48,0,0,0-1.62-.94,3,3,0,0,1-1.62-2.69v-3.86H157v3.85a3,3,0,0,1-1.62,2.69,14.88,14.88,0,0,0-1.62.93,3,3,0,0,1-3.24.12l-3.35-2-6.33,11,3.37,1.94a3,3,0,0,1,1.47,2.78V540a3,3,0,0,1-1.45,2.77l-3.39,2,6.33,11,3.37-1.94a3,3,0,0,1,3.24.11,17.32,17.32,0,0,0,1.61.94,3,3,0,0,1,1.62,2.67v3.89h12.67v-3.89a3,3,0,0,1,1.62-2.67c.55-.29,1.1-.6,1.62-.94a3,3,0,0,1,3.16-.11l3.36,1.94,6.33-11-3.36-1.94a3,3,0,0,1-1.48-2.79v-1.88a3,3,0,0,1,1.48-2.78Zm-12.11,5.67a10.37,10.37,0,1,1-10.37-10.38,10.37,10.37,0,0,1,10.37,10.38Z"/><path class="cls-1" d="M76.86,409.3a49.33,49.33,0,1,0,49.32,49.34h0a49.31,49.31,0,0,0-49.3-49.33Zm0,72.34a23,23,0,1,1,23-23v0a23,23,0,0,1-23,23Z"/><polygon class="cls-1" points="86.35 411.35 67.38 411.35 68.43 397.92 85.29 397.92 86.35 411.35"/><polygon class="cls-1" points="50.24 417.73 36.84 431.14 28.08 420.92 40.01 408.99 50.24 417.73"/><polygon class="cls-1" points="29.23 447.78 29.23 466.75 15.81 465.7 15.81 448.83 29.23 447.78"/><polygon class="cls-1" points="35.62 483.88 49.04 497.29 38.81 506.03 26.88 494.1 35.62 483.88"/><polygon class="cls-1" points="65.66 504.88 84.63 504.88 83.59 518.32 66.71 518.32 65.66 504.88"/><polygon class="cls-1" points="101.77 498.49 115.19 485.09 123.93 495.32 112 507.25 101.77 498.49"/><polygon class="cls-1" points="122.78 468.45 122.78 449.48 136.19 450.54 136.19 467.4 122.78 468.45"/><polygon class="cls-1" points="116.38 432.36 102.97 418.94 113.21 410.19 125.14 422.11 116.38 432.36"/><path class="cls-1" d="M83.29,112.74c0-2,.27-7.41.27-9.71,0-9.84-3.51-14.29-12.67-14.56C66.57,88.21,64,85.65,64,82s2.56-6.2,6.88-6.47C80.05,75.16,83.5,70.86,83.5,61c0-2.28-.28-7.67-.28-9.71,0-13.08,5.52-21.43,26.42-26,4.17-.95,7.41,1.62,7.41,5.52a5.66,5.66,0,0,1-3.77,5.52c-13.08,4-15,8.22-15,17.4,0,2.69.27,7.14.27,10,0,10.5-5.11,15.63-14,18.47,9,3,14,7.94,14,18.46,0,2.82-.27,7.27-.27,10,0,9.16,1.89,13.34,15,17.38a5.67,5.67,0,0,1,3.77,5.52c0,3.92-3.24,6.48-7.41,5.54C88.81,134.33,83.29,126,83.29,112.74Z"/><path class="cls-1" d="M162.27,51.24c0,2-.28,7.41-.28,9.71,0,10,3.64,14.29,12.81,14.7,4.17.27,6.73,2.83,6.73,6.47s-2.56,6.2-6.73,6.48c-9.17.27-12.81,4.72-12.81,14.56,0,2.28.28,7.67.28,9.71,0,13.21-5.54,21.58-26.43,26.16-4.18.94-7.4-1.62-7.4-5.54a5.59,5.59,0,0,1,3.9-5.52c12.95-4,14.83-8.22,14.83-17.38,0-2.7-.28-7.15-.28-10,0-10.52,5.13-15.63,14-18.47-9-3-14-8-14-18.46,0-2.84.28-7.29.28-10,0-9.18-1.9-13.36-14.83-17.4a5.59,5.59,0,0,1-3.9-5.52c0-3.9,3.24-6.47,7.4-5.52C156.73,29.75,162.27,38.1,162.27,51.24Z"/></g><g id="freepik--Device--inject-271"><rect class="cls-2" x="93.39" y="613.22" width="889.8" height="32.4"/><rect class="cls-3" x="185.33" y="141.02" width="705.91" height="472.21"/><rect class="cls-4" x="190.46" y="146.78" width="695.67" height="460.68"/><rect class="cls-5" x="221.26" y="176.38" width="634.05" height="401.46"/><rect class="cls-6" x="221.26" y="191.84" width="135.95" height="386.02"/><rect class="cls-5" x="221.26" y="191.84" width="14.55" height="386.02"/><rect class="cls-7" x="235.81" y="323.86" width="121.42" height="5.75"/><rect class="cls-8" x="249.34" y="211" width="47.21" height="2.57"/><polygon class="cls-8" points="243.31 211.47 246.35 211.47 244.83 213.09 243.31 211.47"/><rect class="cls-8" x="253.13" y="220.53" width="6.26" height="2.57"/><polygon class="cls-8" points="249.34 223.33 249.34 220.29 250.96 221.81 249.34 223.33"/><rect class="cls-8" x="253.13" y="230.07" width="6.26" height="2.57"/><polygon class="cls-8" points="248.63 230.53 251.67 230.53 250.15 232.15 248.63 230.53"/><rect class="cls-8" x="253.13" y="239.6" width="6.26" height="2.57"/><polygon class="cls-8" points="248.63 240.07 251.67 240.07 250.15 241.7 248.63 240.07"/><rect class="cls-8" x="256.93" y="249.13" width="6.26" height="2.57"/><polygon class="cls-8" points="253.13 251.93 253.13 248.89 254.76 250.41 253.13 251.93"/><rect class="cls-8" x="260.74" y="258.68" width="6.26" height="2.57"/><polygon class="cls-8" points="256.93 261.48 256.93 258.44 258.57 259.96 256.93 261.48"/><rect class="cls-8" x="260.74" y="354.01" width="6.26" height="2.57"/><polygon class="cls-8" points="256.93 356.81 256.93 353.77 258.57 355.29 256.93 356.81"/><rect class="cls-8" x="264.54" y="268.2" width="6.26" height="2.57"/><polygon class="cls-8" points="260.74 271 260.74 267.95 262.37 269.48 260.74 271"/><rect class="cls-8" x="264.54" y="344.48" width="6.26" height="2.57"/><polygon class="cls-8" points="260.74 347.28 260.74 344.23 262.37 345.75 260.74 347.28"/><rect class="cls-8" x="268.34" y="277.73" width="6.26" height="2.57"/><polygon class="cls-8" points="264.54 280.53 264.54 277.49 266.17 279.01 264.54 280.53"/><rect class="cls-8" x="268.34" y="334.93" width="6.26" height="2.57"/><polygon class="cls-8" points="264.54 337.74 264.54 334.7 266.17 336.22 264.54 337.74"/><rect class="cls-8" x="272.15" y="287.28" width="6.26" height="2.57"/><polygon class="cls-8" points="268.34 290.08 268.34 287.04 269.98 288.56 268.34 290.08"/><rect class="cls-8" x="272.86" y="296.8" width="6.26" height="2.57"/><polygon class="cls-8" points="268.34 297.26 271.39 297.26 269.86 298.9 268.34 297.26"/><rect class="cls-8" x="272.86" y="306.33" width="6.26" height="2.57"/><polygon class="cls-8" points="268.34 306.8 271.39 306.8 269.86 308.43 268.34 306.8"/><rect class="cls-8" x="272.86" y="315.86" width="6.26" height="2.57"/><polygon class="cls-8" points="268.34 316.33 271.39 316.33 269.86 317.96 268.34 316.33"/><rect class="cls-8" x="272.86" y="325.39" width="6.26" height="2.57"/><polygon class="cls-8" points="268.34 325.86 271.39 325.86 269.86 327.5 268.34 325.86"/><rect class="cls-8" x="253.13" y="363.54" width="6.26" height="2.57"/><polygon class="cls-8" points="249.34 366.34 249.34 363.3 250.96 364.82 249.34 366.34"/><rect class="cls-8" x="253.13" y="373.07" width="6.26" height="2.57"/><polygon class="cls-8" points="248.63 373.54 251.67 373.54 250.15 375.18 248.63 373.54"/><rect class="cls-8" x="253.13" y="382.61" width="6.26" height="2.57"/><polygon class="cls-8" points="248.63 383.08 251.67 383.08 250.15 384.71 248.63 383.08"/><rect class="cls-8" x="256.93" y="392.14" width="6.26" height="2.57"/><polygon class="cls-8" points="253.13 394.96 253.13 391.91 254.76 393.44 253.13 394.96"/><rect class="cls-8" x="260.74" y="401.69" width="6.26" height="2.57"/><polygon class="cls-8" points="256.93 404.49 256.93 401.45 258.57 402.97 256.93 404.49"/><rect class="cls-8" x="260.74" y="411.22" width="6.26" height="2.57"/><polygon class="cls-8" points="256.93 414.04 256.93 411 258.57 412.52 256.93 414.04"/><rect class="cls-8" x="261.45" y="420.75" width="6.26" height="2.57"/><polygon class="cls-8" points="256.93 421.22 259.98 421.22 258.45 422.86 256.93 421.22"/><rect class="cls-8" x="261.45" y="430.29" width="6.26" height="2.57"/><polygon class="cls-8" points="256.93 430.76 259.98 430.76 258.45 432.39 256.93 430.76"/><rect class="cls-8" x="261.45" y="439.82" width="6.26" height="2.57"/><polygon class="cls-8" points="256.93 440.29 259.98 440.29 258.45 441.92 256.93 440.29"/><rect class="cls-8" x="261.45" y="449.35" width="6.26" height="2.57"/><polygon class="cls-8" points="256.93 449.82 259.98 449.82 258.45 451.46 256.93 449.82"/><rect class="cls-7" x="221.26" y="176.38" width="634.05" height="15.44"/><path class="cls-2" d="M235.81,184.12a2.93,2.93,0,1,1-2.93-2.93h0A2.93,2.93,0,0,1,235.81,184.12Z"/><path class="cls-8" d="M247.74,184.12a2.93,2.93,0,1,1-2.93-2.93h0A2.93,2.93,0,0,1,247.74,184.12Z"/><path class="cls-5" d="M259.68,184.12a2.93,2.93,0,1,1-2.93-2.93h0A2.93,2.93,0,0,1,259.68,184.12Z"/><rect class="cls-1" x="389.16" y="260.48" width="11.44" height="2.8"/><rect class="cls-1" x="414.09" y="260.48" width="253.57" height="2.8"/><rect class="cls-7" x="674.69" y="260.48" width="21.72" height="2.8"/><rect class="cls-1" x="709.46" y="326.8" width="73.33" height="2.8"/><rect class="cls-9" x="701.14" y="260.48" width="107.66" height="2.8"/><rect class="cls-1" x="389.16" y="273.73" width="11.44" height="2.8"/><rect class="cls-9" x="425.24" y="273.73" width="86.12" height="2.8"/><rect class="cls-9" x="671.73" y="326.8" width="32.58" height="2.8"/><rect class="cls-9" x="414.09" y="313.53" width="82.25" height="2.8"/><rect class="cls-7" x="425.24" y="287" width="57.7" height="2.8"/><rect class="cls-9" x="689.23" y="300.26" width="109.31" height="2.8"/><rect class="cls-9" x="558.36" y="365.37" width="109.31" height="2.8"/><rect class="cls-9" x="489.35" y="287" width="214.5" height="2.8"/><rect class="cls-7" x="414.09" y="326.8" width="250.18" height="2.8"/><rect class="cls-1" x="516.76" y="273.73" width="177.24" height="2.8"/><rect class="cls-1" x="713.02" y="287" width="37.1" height="2.8"/><rect class="cls-1" x="389.16" y="287" width="11.44" height="2.8"/><rect class="cls-9" x="389.16" y="300.26" width="11.44" height="2.8"/><rect class="cls-1" x="414.09" y="300.26" width="67.6" height="2.8"/><rect class="cls-1" x="425.24" y="340.06" width="67.6" height="2.8"/><rect class="cls-7" x="673.66" y="353.33" width="94.39" height="2.8"/><rect class="cls-1" x="486.38" y="353.33" width="181.37" height="2.8"/><rect class="cls-9" x="425.24" y="353.33" width="50.82" height="2.8"/><rect class="cls-1" x="501" y="313.53" width="195.41" height="2.8"/><rect class="cls-7" x="701.14" y="313.53" width="116.59" height="2.8"/><rect class="cls-7" x="488.57" y="300.26" width="195.33" height="2.8"/><rect class="cls-1" x="389.16" y="313.53" width="11.44" height="2.8"/><rect class="cls-1" x="389.16" y="326.8" width="11.44" height="2.8"/><rect class="cls-9" x="389.16" y="340.06" width="11.44" height="2.8"/><rect class="cls-1" x="389.16" y="353.33" width="11.44" height="2.8"/><rect class="cls-1" x="389.16" y="365.37" width="11.44" height="2.8"/><rect class="cls-1" x="414.09" y="365.37" width="134.12" height="2.8"/><rect class="cls-1" x="389.16" y="378.64" width="11.44" height="2.8"/><rect class="cls-9" x="425.24" y="378.64" width="86.12" height="2.8"/><rect class="cls-9" x="414.09" y="418.42" width="82.25" height="2.8"/><rect class="cls-7" x="425.24" y="391.9" width="57.7" height="2.8"/><rect class="cls-7" x="557.39" y="444.97" width="57.7" height="2.8"/><rect class="cls-7" x="425.24" y="471.49" width="57.7" height="2.8"/><rect class="cls-9" x="489.35" y="391.9" width="214.5" height="2.8"/><rect class="cls-7" x="414.09" y="431.7" width="250.18" height="2.8"/><rect class="cls-1" x="516.76" y="378.64" width="177.24" height="2.8"/><rect class="cls-1" x="694.49" y="405.17" width="37.03" height="2.8"/><rect class="cls-1" x="389.16" y="391.9" width="11.44" height="2.8"/><rect class="cls-9" x="389.16" y="405.17" width="11.44" height="2.8"/><rect class="cls-1" x="414.09" y="405.17" width="67.6" height="2.8"/><rect class="cls-1" x="501" y="418.42" width="195.41" height="2.8"/><rect class="cls-7" x="488.57" y="405.17" width="195.33" height="2.8"/><rect class="cls-1" x="389.16" y="418.42" width="11.44" height="2.8"/><rect class="cls-1" x="389.16" y="444.97" width="11.44" height="2.8"/><rect class="cls-1" x="414.09" y="444.97" width="134.12" height="2.8"/><rect class="cls-1" x="389.16" y="458.22" width="11.44" height="2.8"/><rect class="cls-9" x="425.24" y="458.22" width="86.12" height="2.8"/><rect class="cls-9" x="414.09" y="498.02" width="82.25" height="2.8"/><rect class="cls-9" x="489.35" y="471.49" width="214.5" height="2.8"/><rect class="cls-1" x="694.49" y="484.75" width="37.03" height="2.8"/><rect class="cls-1" x="389.16" y="471.49" width="11.44" height="2.8"/><rect class="cls-9" x="389.16" y="484.75" width="11.44" height="2.8"/><rect class="cls-1" x="414.09" y="484.75" width="67.6" height="2.8"/><rect class="cls-1" x="501" y="498.02" width="195.41" height="2.8"/><rect class="cls-7" x="488.57" y="484.75" width="195.33" height="2.8"/><rect class="cls-1" x="389.16" y="498.02" width="11.44" height="2.8"/><path class="cls-7" d="M396.22,234.84a1,1,0,0,1,0,1.37l0,0a1,1,0,0,1-.68.29,1.05,1.05,0,0,1-.73-.29l-4.42-4.47v-.1h0v-.12h0v-.67h0v-.13h0s.05-.1.08-.14h0l.08-.1L395,226a1,1,0,0,1,1.41,0,1,1,0,0,1,0,1.37l0,0-3.72,3.76Z"/><path class="cls-7" d="M400.22,235.34l3.85-9.14a.86.86,0,0,1,1.14-.47h0a.85.85,0,0,1,.44,1.1v0L401.8,236a.85.85,0,0,1-.79.52.77.77,0,0,1-.84-1.1S400.2,235.37,400.22,235.34Z"/><path class="cls-7" d="M413.25,231.65h0a.14.14,0,0,1-.1.12l-4.42,4.46a1,1,0,0,1-.71.29,1,1,0,0,1-1-1,1,1,0,0,1,.28-.67l3.72-3.75-3.72-3.76a1,1,0,0,1,0-1.37l0,0a1,1,0,0,1,1.41,0l4.42,4.48.1.1h0l.08.14h0a.38.38,0,0,0,0,.15h0v.39h0a.33.33,0,0,0,0,.14h0Z"/></g><g id="freepik--Icons--inject-271"><polygon class="cls-7" points="205.29 262.79 122.76 262.79 122.76 155 184.97 155 205.29 175.31 205.29 262.79"/><polygon class="cls-10" points="205.29 262.79 122.76 262.79 122.76 155 184.97 155 205.29 175.31 205.29 262.79"/><polygon class="cls-7" points="205.29 175.31 184.97 175.31 184.97 155 205.29 175.31"/><path class="cls-7" d="M141.84,193a6.15,6.15,0,1,0,6.14-6.17,6.15,6.15,0,0,0-6.14,6.17Z"/><polygon class="cls-7" points="151.33 220.32 193.07 220.32 172.21 194.85 151.33 220.32"/><polygon class="cls-7" points="134.97 220.32 169.42 220.32 152.2 203.73 134.97 220.32"/><polygon class="cls-11" points="134.97 220.32 169.42 220.32 152.2 203.73 134.97 220.32"/><rect class="cls-12" x="134.96" y="179.55" width="58.09" height="40.77"/><rect class="cls-5" x="102.71" y="224.73" width="59.28" height="24.54"/><path class="cls-8" d="M120.12,231.41v11.9h-2.3v-5.09h-5.4v5.09H110.1v-11.9h2.32v4.85h5.4v-4.85Z"/><path class="cls-8" d="M131.48,233.43h-3.8v9.88H125.4v-9.88h-3.8v-2h9.88Z"/><path class="cls-8" d="M142.67,243.31v-7.89l-3.08,5.88h-1.24l-3.06-5.88v7.89H133v-11.9h2.48l3.51,6.76,3.56-6.76H145v11.9Z"/><path class="cls-8" d="M147.46,243.31v-11.9h2.39v9.87h6.07v2Z"/><polygon class="cls-7" points="205.29 393.73 122.66 393.73 122.66 285.82 184.96 285.82 205.29 306.15 205.29 393.73"/><polygon class="cls-10" points="205.29 393.73 122.66 393.73 122.66 285.82 184.96 285.82 205.29 306.15 205.29 393.73"/><polygon class="cls-7" points="205.29 306.15 184.96 306.15 184.96 285.82 205.29 306.15"/><path class="cls-7" d="M141.76,323.84a6.17,6.17,0,1,0,6.15-6.18A6.16,6.16,0,0,0,141.76,323.84Z"/><polygon class="cls-7" points="151.28 351.21 193.05 351.21 172.16 325.7 151.28 351.21"/><polygon class="cls-7" points="134.9 351.21 169.39 351.21 152.14 334.6 134.9 351.21"/><polygon class="cls-11" points="134.9 351.21 169.39 351.21 152.14 334.6 134.9 351.21"/><rect class="cls-12" x="134.9" y="310.41" width="58.15" height="40.8"/><rect class="cls-5" x="102.61" y="355.61" width="59.33" height="24.55"/><path class="cls-8" d="M116.63,368.17A6.1,6.1,0,0,1,117,366a5.71,5.71,0,0,1,1.14-1.91,6,6,0,0,1,1.85-1.36,5.87,5.87,0,0,1,2.48-.52,5.35,5.35,0,0,1,2.84.73,4.48,4.48,0,0,1,1.78,1.88l-1.78,1.23a2.84,2.84,0,0,0-1.27-1.4,3,3,0,0,0-.81-.3,4.67,4.67,0,0,0-.83-.08,3.08,3.08,0,0,0-1.52.34,3.63,3.63,0,0,0-1.07.92,4,4,0,0,0-.65,1.28,4.88,4.88,0,0,0,0,2.93,4.06,4.06,0,0,0,.72,1.28,3.44,3.44,0,0,0,1.11.89,3.15,3.15,0,0,0,1.41.34,4.7,4.7,0,0,0,.84-.1,3.13,3.13,0,0,0,.83-.33,2.63,2.63,0,0,0,.73-.56,2.73,2.73,0,0,0,.55-.83l1.89,1.09a3.58,3.58,0,0,1-.82,1.18,4.86,4.86,0,0,1-1.19.87,7.16,7.16,0,0,1-1.42.54,5.63,5.63,0,0,1-1.47.17,5.07,5.07,0,0,1-2.33-.53,6.13,6.13,0,0,1-3-3.37A5.67,5.67,0,0,1,116.63,368.17Z"/><path class="cls-8" d="M135.94,365.42a2.29,2.29,0,0,0-.43-.32,6.6,6.6,0,0,0-1.71-.72,4.29,4.29,0,0,0-1.07-.13,2.52,2.52,0,0,0-1.42.34,1.21,1.21,0,0,0-.47,1,.94.94,0,0,0,.18.6,1.77,1.77,0,0,0,.51.43,4.4,4.4,0,0,0,.85.33c.33.11.74.21,1.18.32s1.11.32,1.61.5a4.29,4.29,0,0,1,1.22.68,2.75,2.75,0,0,1,.76,1,3.14,3.14,0,0,1,.27,1.39,3.38,3.38,0,0,1-.37,1.62,3.19,3.19,0,0,1-1,1.1,4.22,4.22,0,0,1-1.41.61,7.31,7.31,0,0,1-1.62.18,9.19,9.19,0,0,1-2.65-.39,8,8,0,0,1-2.35-1.15l1-2c.18.14.36.27.55.39a8.81,8.81,0,0,0,2.12.91,5.54,5.54,0,0,0,1.35.16c1.28,0,1.91-.41,1.91-1.23a1,1,0,0,0-.21-.65,1.93,1.93,0,0,0-.63-.47,5.8,5.8,0,0,0-1-.37l-1.27-.37a10.73,10.73,0,0,1-1.48-.5,4,4,0,0,1-1.05-.67,2.46,2.46,0,0,1-.63-.87,3.41,3.41,0,0,1-.21-1.18,3.6,3.6,0,0,1,.34-1.62,3.43,3.43,0,0,1,.92-1.18,4.6,4.6,0,0,1,1.39-.72,5.94,5.94,0,0,1,1.62-.24,6.34,6.34,0,0,1,2.32.41,9,9,0,0,1,1.78,1Z"/><path class="cls-8" d="M146.23,365.42a2.75,2.75,0,0,0-.44-.32,6,6,0,0,0-1.71-.72,4.22,4.22,0,0,0-1.06-.13,2.46,2.46,0,0,0-1.42.34,1.17,1.17,0,0,0-.47,1,1.06,1.06,0,0,0,.16.6,2,2,0,0,0,.52.43,4.31,4.31,0,0,0,.84.33c.34.11.75.21,1.18.32s1.12.32,1.62.5a4.43,4.43,0,0,1,1.22.68,2.75,2.75,0,0,1,.76,1,3.28,3.28,0,0,1,.27,1.39,3.5,3.5,0,0,1-.37,1.62,2.93,2.93,0,0,1-1,1.1,4.31,4.31,0,0,1-1.41.61,7.31,7.31,0,0,1-1.62.18,9.14,9.14,0,0,1-2.65-.39,8.28,8.28,0,0,1-2.35-1.15l1-2a2.9,2.9,0,0,0,.53.39c.31.18.62.34.94.49a8.28,8.28,0,0,0,1.18.42,5.52,5.52,0,0,0,1.34.16c1.28,0,1.91-.41,1.91-1.23a.94.94,0,0,0-.21-.65,1.85,1.85,0,0,0-.61-.47,6.93,6.93,0,0,0-1-.37l-1.26-.37a10.86,10.86,0,0,1-1.49-.5,4,4,0,0,1-1.05-.67,2.35,2.35,0,0,1-.63-.87,3,3,0,0,1-.21-1.18,3.47,3.47,0,0,1,.34-1.62,3.28,3.28,0,0,1,.94-1.18,4.39,4.39,0,0,1,1.37-.72,6.2,6.2,0,0,1,3.93.17,8.63,8.63,0,0,1,1.85.92Z"/><line class="cls-13" x1="114.88" y1="338.67" x2="113.26" y2="338.67"/><line class="cls-14" x1="110.3" y1="338.67" x2="99.94" y2="338.67"/><polyline class="cls-13" points="98.47 338.67 96.85 338.67 96.85 337.05"/><line class="cls-15" x1="96.85" y1="333.84" x2="96.85" y2="194.41"/><polyline class="cls-13" points="96.85 192.81 96.85 191.19 98.47 191.19"/><line class="cls-16" x1="101.07" y1="191.19" x2="110.25" y2="191.19"/><line class="cls-13" x1="111.55" y1="191.19" x2="113.16" y2="191.19"/><path class="cls-4" d="M114.8,336.84a1.83,1.83,0,1,1-1.83,1.83A1.83,1.83,0,0,1,114.8,336.84Z"/><circle class="cls-4" cx="113.08" cy="191.19" r="1.83"/><polyline class="cls-17" points="96.85 264.83 77.04 264.83 77.04 95.98 288.77 95.98"/><polygon class="cls-4" points="288.06 98.39 292.25 95.98 288.06 93.55 288.06 98.39"/></g><g id="freepik--Gears--inject-271"><path class="cls-7" d="M338.68,85.52A31.48,31.48,0,1,0,370.16,54h0A31.52,31.52,0,0,0,338.68,85.52Zm6.7,0a24.78,24.78,0,1,1,24.8,24.76h0A24.76,24.76,0,0,1,345.38,85.52Zm-6.7,0A31.48,31.48,0,1,0,370.16,54h0A31.52,31.52,0,0,0,338.68,85.52Zm6.7,0a24.78,24.78,0,1,1,24.8,24.76h0A24.76,24.76,0,0,1,345.38,85.52Zm-28.27,0a53.05,53.05,0,1,0,53-53.07h0a53,53,0,0,0-53,53Zm18.56,0A34.49,34.49,0,1,1,370.16,120h0A34.54,34.54,0,0,1,335.67,85.52Zm3,0A31.48,31.48,0,1,0,370.16,54h0A31.52,31.52,0,0,0,338.68,85.52Zm6.7,0a24.78,24.78,0,1,1,24.8,24.76h0A24.76,24.76,0,0,1,345.38,85.52Z"/><polygon class="cls-7" points="363.93 33.42 376.07 33.42 374.86 21.3 365.13 21.3 363.93 33.42"/><polygon class="cls-7" points="390.81 37.29 401.33 43.36 406.33 32.26 397.92 27.39 390.81 37.29"/><polygon class="cls-7" points="412.16 54.07 418.23 64.59 428.12 57.47 423.26 49.06 412.16 54.07"/><polygon class="cls-7" points="422.24 79.27 422.24 91.43 434.37 90.21 434.37 80.49 422.24 79.27"/><polygon class="cls-7" points="418.39 106.16 412.31 116.68 423.41 121.69 428.28 113.28 418.39 106.16"/><polygon class="cls-7" points="401.59 127.5 391.07 133.59 398.19 143.48 406.61 138.61 401.59 127.5"/><polygon class="cls-7" points="376.39 137.6 364.24 137.6 365.45 149.72 375.18 149.72 376.39 137.6"/><polygon class="cls-7" points="349.51 133.74 338.99 127.67 333.97 138.77 342.4 143.64 349.51 133.74"/><polygon class="cls-7" points="328.16 116.95 322.08 106.43 312.19 113.54 317.06 121.97 328.16 116.95"/><polygon class="cls-7" points="318.06 91.73 318.06 79.6 305.94 80.81 305.94 90.54 318.06 91.73"/><polygon class="cls-7" points="321.93 64.87 328 54.35 316.9 49.33 312.03 57.75 321.93 64.87"/><polygon class="cls-7" points="338.71 43.51 349.23 37.44 342.13 27.55 333.7 32.4 338.71 43.51"/><path class="cls-1" d="M237.75,37.32a30.88,30.88,0,1,0,31.69-30h0a30.87,30.87,0,0,0-31.68,30Zm16.45.44a14.42,14.42,0,1,1,14,14.79h0A14.41,14.41,0,0,1,254.2,37.76Z"/><polygon class="cls-1" points="263.47 8.38 275.33 8.71 274.9 0.29 264.35 0 263.47 8.38"/><polygon class="cls-1" points="285.95 12.98 294.13 21.61 299.77 15.34 292.51 7.69 285.95 12.98"/><polygon class="cls-1" points="298.61 32.14 298.29 44.01 306.7 43.57 306.99 33.02 298.61 32.14"/><polygon class="cls-1" points="294.01 54.62 285.39 62.8 291.65 68.44 299.32 61.18 294.01 54.62"/><polygon class="cls-1" points="274.85 67.28 262.99 66.96 263.42 75.39 273.98 75.66 274.85 67.28"/><polygon class="cls-1" points="252.37 62.68 244.19 54.06 238.55 60.32 245.81 67.99 252.37 62.68"/><polygon class="cls-1" points="239.71 43.52 240.04 31.66 231.62 32.09 231.33 42.65 239.71 43.52"/><polygon class="cls-1" points="244.31 21.04 252.94 12.87 246.67 7.22 239 14.5 244.31 21.04"/><path class="cls-1" d="M276.82,30.57l-10.13-3L259,34.83l2.49,10.26,10.11,3,7.69-7.27Zm-7.75,10.6a3.35,3.35,0,1,1,3.43-3.26v0A3.34,3.34,0,0,1,269.07,41.17Z"/><polyline class="cls-17" points="370 12.75 370 4.29 561.16 4.29 561.16 36.58"/><polygon class="cls-4" points="558.73 35.88 561.16 40.07 563.57 35.88 558.73 35.88"/></g><g id="freepik--Plant--inject-271"><path class="cls-7" d="M991.66,526a98.48,98.48,0,0,1,3.12,17.64c-.16.29-.13,1.39,0,1.08,0,1,1.5.8,1.5-.16v-1.84c3.45-4.29,8.47-7,12.5-10.72a23.21,23.21,0,0,0,6.84-10.89c3.37-11.56.22-23.81,4.26-35.35,3.48-9.94,9.71-18.58,15-27.59,5.57-9.52,9.71-19.54,10.1-30.75.32-8.55-.7-19.93-7.2-26.34-6.9-6.78-15.44-1.7-20.74,4.36-15.31,17.57-22.4,39.78-25.26,62.49-1.62,12.57-3.24,25.21-2.83,37.9A101.64,101.64,0,0,0,991.66,526Z"/><path class="cls-4" d="M994.7,548.29a216,216,0,0,1,.42-35.61v-.13c-.2-9.61-1-19.21-.58-28.84a171.64,171.64,0,0,1,4.24-30.94c0-.12.21,0,.19,0A201,201,0,0,0,995.62,483c-.19,5.44-.16,10.88.13,16.3.1,1.78.26,3.56.37,5.34h0a190.67,190.67,0,0,1,28.63-75.77c.21-.31.76,0,.57.34A197.58,197.58,0,0,0,1002,485.43c7.37-13.64,18.49-24.88,26.74-38,0,0,.16,0,.13.08-7.41,14.57-19.66,26.11-27.51,40.47a176.91,176.91,0,0,0-3.24,17.8,197.28,197.28,0,0,0-1.81,24.52c4.48-8.38,9.12-16.4,12.8-25.27a.19.19,0,0,1,.35.17c-3.12,9.21-7.31,19.13-13.19,27,0,5.84.15,11.67.49,17.49.92,15.54,3.58,30.88,4.85,46.37a.35.35,0,0,1-.35.36.36.36,0,0,1-.36-.36h0A353.79,353.79,0,0,1,994.7,548.29Z"/><path class="cls-4" d="M1011.22,428.35c0-.12.21,0,.16,0-2.83,7.84-4.43,15.81-6.47,23.85a.29.29,0,0,1-.34.24.28.28,0,0,1-.24-.34h0C1005.14,444.08,1008.07,435.94,1011.22,428.35Z"/><path class="cls-7" d="M939.12,461.31a120,120,0,0,0,6.47,13.42c5.12,9.29,10.46,17.8,11.33,28.6A67.41,67.41,0,0,0,959,517.67a43.76,43.76,0,0,0,5.71,11.21c5.55,8.1,12.48,15,17.61,23.41a98.35,98.35,0,0,1,11.83,28.19c.11.55,1,.41.84-.14v-.12a.2.2,0,0,0,0-.11c.81-23.19-1-46.55-8.09-68.75a237.93,237.93,0,0,0-11.23-28.6,67.53,67.53,0,0,0-15.17-21.82c-4.32-3.88-13.67-11.25-19.81-7.35C937.74,455.47,938,458.43,939.12,461.31Z"/><path class="cls-4" d="M962.41,513.87a192.06,192.06,0,0,0,13.48,19.42c2.23,2.93,4.52,5.82,6.77,8.77,1.05,1.38,2.23,2.77,3.23,4.26-.61-2.45-1.19-4.86-1.83-7.32-3-11.72-5.85-23.53-10.32-34.8a233.36,233.36,0,0,0-16.09-31.54c-.16-.28.28-.47.44-.21,4.85,8.09,9.87,16.1,14,24.6A127.08,127.08,0,0,1,978,511.62a226,226,0,0,0-7.9-31.18c0-.09.1-.16.13,0a106.73,106.73,0,0,1,8.21,32.37h0q1.5,4.52,2.78,9.12c3.66,12.94,6.86,26.07,9.84,39.21a140.79,140.79,0,0,0-2.23-25.76c0-.22.24-.25.29,0a81.51,81.51,0,0,1,2.25,27.17c1.12,5,2.22,10,3.24,15,2.26,10.68,5.06,21.56,6.47,32.37a.23.23,0,0,1-.28.16.25.25,0,0,1-.16-.16c-1.61-5.84-2.54-11.91-3.85-17.8s-2.64-11.87-4-17.81q-3-12.95-6.26-25.89c-1.44-3.16-4.21-6-6.3-8.6-2.28-2.89-4.56-5.79-6.78-8.74a128.45,128.45,0,0,1-11.15-17.27C962.15,513.83,962.33,513.75,962.41,513.87Z"/><path class="cls-4" d="M961.42,504a120,120,0,0,1,13.19,20.94c0,.1-.09.2-.16.1-4.43-6.94-8.8-13.95-13.22-20.91C961.15,504,961.34,503.85,961.42,504Z"/><path class="cls-7" d="M1060.1,483.37c-3,5.18-6.47,11.33-5.13,17.61.81,3.94,3.69,7.12,4.21,11.14,1.16,8.85-7.66,14.69-14,18.89-15.91,10.43-37.74,19.74-40.64,41.07-.11.76-1.41.57-1.31-.18v-.25a81.42,81.42,0,0,1,.29-32.58c2.38-11,7.17-20.87,12.83-30.53,9.59-16.35,19.73-33.08,34.22-45.59,4-3.47,12.22-9.71,15.41-1.88S1063.79,477,1060.1,483.37Z"/><path class="cls-4" d="M1045.53,517.94c-10.55,11.43-27.32,17.81-36.41,30.63a128,128,0,0,1,28-52.57c.34-.39-.21-1-.58-.59a103.75,103.75,0,0,0-22.89,33.14,149.57,149.57,0,0,1,9.86-25.19c.14-.31-.29-.58-.47-.27a95.91,95.91,0,0,0-10.54,28.3c-12,29-13.08,63-10.57,93.5a.36.36,0,0,0,.43.28.37.37,0,0,0,.27-.28c-.7-24.06-.31-48.55,5.47-72,.11-.5.24-1,.37-1.47,9.89-13.78,26.59-20.15,37.34-33.25C1045.83,518,1045.65,517.81,1045.53,517.94Z"/><path class="cls-4" d="M1048,508.14c-5.54,5.08-11,10.27-16.54,15.36v.09a80.6,80.6,0,0,0,16.8-15.13.24.24,0,0,0-.15-.31A.2.2,0,0,0,1048,508.14Z"/><path class="cls-4" d="M1048.87,486.11a173.26,173.26,0,0,1-16.59,22.8.1.1,0,0,0,0,.14.09.09,0,0,0,.13,0h0a80.05,80.05,0,0,0,16.74-22.75C1049.26,486.09,1049,485.91,1048.87,486.11Z"/><polygon class="cls-5" points="1023.91 646.43 975.39 646.43 981.93 581.15 1016.45 581.15 1023.91 646.43"/><polygon class="cls-4" points="1017.66 591.76 980.86 591.76 981.93 581.15 1016.45 581.15 1017.66 591.76"/><rect class="cls-5" x="976.91" y="573.91" width="45.48" height="10.42"/></g></g></g></svg>