<?xml version="1.0" encoding="utf-8"?>
<!-- Generator: Adobe Illustrator 24.1.1, SVG Export Plug-In . SVG Version: 6.00 Build 0)  -->
<svg version="1.1" id="Layer_1" xmlns="http://www.w3.org/2000/svg" xmlns:xlink="http://www.w3.org/1999/xlink" x="0px"
     y="0px"
     viewBox="0 0 500 500" style="enable-background:new 0 0 500 500;" xml:space="preserve">
<style type="text/css">
	.st0{fill:#CA9D42;}
	.st1{fill:#CCB07F;}
</style>
    <g>
	<path class="st0" d="M250,434.3v26H114.1c-4.6,0-8.6-2.8-10.2-7.1L97,434.3H250z"/>
        <path class="st0" d="M250,39.7v375.5H99.8c-4.6,0-8.6-2.8-10.2-7.1L1,165.5c-5.3-14.6,12-26.8,23.9-16.9l124.3,103L236,48.9
		C238.4,43.3,243.9,39.7,250,39.7z"/>
        <path class="st1" d="M250,434.3v26h135.9c4.6,0,8.6-2.8,10.2-7.1l6.9-18.9L250,434.3z"/>
        <path class="st1" d="M250,39.7v375.5h150.2c4.6,0,8.6-2.8,10.2-7.1L499,165.5c5.3-14.6-12-26.8-23.9-16.9l-124.3,103L264,48.9
		C261.6,43.3,256.1,39.7,250,39.7z"/>
</g>
</svg>
